<?xml version="1.0" encoding="utf-8" standalone="no"?>
<!DOCTYPE svg PUBLIC "-//W3C//DTD SVG 1.1//EN"
  "http://www.w3.org/Graphics/SVG/1.1/DTD/svg11.dtd">
<!-- Created with matplotlib (https://matplotlib.org/) -->
<svg height="720pt" version="1.1" viewBox="0 0 720 720" width="720pt" xmlns="http://www.w3.org/2000/svg" xmlns:xlink="http://www.w3.org/1999/xlink">
 <metadata>
  <rdf:RDF xmlns:cc="http://creativecommons.org/ns#" xmlns:dc="http://purl.org/dc/elements/1.1/" xmlns:rdf="http://www.w3.org/1999/02/22-rdf-syntax-ns#">
   <cc:Work>
    <dc:type rdf:resource="http://purl.org/dc/dcmitype/StillImage"/>
    <dc:date>2021-11-17T13:22:39.201015</dc:date>
    <dc:format>image/svg+xml</dc:format>
    <dc:creator>
     <cc:Agent>
      <dc:title>Matplotlib v3.3.4, https://matplotlib.org/</dc:title>
     </cc:Agent>
    </dc:creator>
   </cc:Work>
  </rdf:RDF>
 </metadata>
 <defs>
  <style type="text/css">*{stroke-linecap:butt;stroke-linejoin:round;}</style>
 </defs>
 <g id="figure_1">
  <g id="patch_1">
   <path d="M 0 720 
L 720 720 
L 720 0 
L 0 0 
z
" style="fill:none;"/>
  </g>
  <g id="axes_1">
   <g id="patch_2">
    <path d="M 90 630 
L 648 630 
L 648 86.4 
L 90 86.4 
z
" style="fill:#ffffff;"/>
   </g>
   <g id="PathCollection_1">
    <path clip-path="url(#p836f0b4e73)" d="M 574.869626 435.588578 
L 578.405159 432.053044 
L 581.940693 435.588578 
L 585.476227 432.053044 
L 581.940693 428.51751 
L 585.476227 424.981976 
L 581.940693 421.446442 
L 578.405159 424.981976 
L 574.869626 421.446442 
L 571.334092 424.981976 
L 574.869626 428.51751 
L 571.334092 432.053044 
z
" style="fill:#fb8072;stroke:#ffffff;stroke-width:1.131371;"/>
    <path clip-path="url(#p836f0b4e73)" d="M 294.1404 605.438865 
C 296.015669 605.438865 297.814384 604.693813 299.1404 603.367798 
C 300.466415 602.041782 301.211467 600.243067 301.211467 598.367798 
C 301.211467 596.492529 300.466415 594.693813 299.1404 593.367798 
C 297.814384 592.041782 296.015669 591.29673 294.1404 591.29673 
C 292.26513 591.29673 290.466415 592.041782 289.1404 593.367798 
C 287.814384 594.693813 287.069332 596.492529 287.069332 598.367798 
C 287.069332 600.243067 287.814384 602.041782 289.1404 603.367798 
C 290.466415 604.693813 292.26513 605.438865 294.1404 605.438865 
z
" style="fill:#fb8072;stroke:#ffffff;stroke-width:1.131371;"/>
    <path clip-path="url(#p836f0b4e73)" d="M 461.59758 500.278266 
L 465.133114 496.742732 
L 468.668648 500.278266 
L 472.204182 496.742732 
L 468.668648 493.207198 
L 472.204182 489.671664 
L 468.668648 486.13613 
L 465.133114 489.671664 
L 461.59758 486.13613 
L 458.062046 489.671664 
L 461.59758 493.207198 
L 458.062046 496.742732 
z
" style="fill:#fb8072;stroke:#ffffff;stroke-width:1.131371;"/>
    <path clip-path="url(#p836f0b4e73)" d="M 535.441822 470.896653 
L 538.977356 467.361119 
L 542.512889 470.896653 
L 546.048423 467.361119 
L 542.512889 463.825585 
L 546.048423 460.290051 
L 542.512889 456.754517 
L 538.977356 460.290051 
L 535.441822 456.754517 
L 531.906288 460.290051 
L 535.441822 463.825585 
L 531.906288 467.361119 
z
" style="fill:#fb8072;stroke:#ffffff;stroke-width:1.131371;"/>
    <path clip-path="url(#p836f0b4e73)" d="M 518.034002 454.015987 
L 521.569536 450.480453 
L 525.10507 454.015987 
L 528.640603 450.480453 
L 525.10507 446.94492 
L 528.640603 443.409386 
L 525.10507 439.873852 
L 521.569536 443.409386 
L 518.034002 439.873852 
L 514.498468 443.409386 
L 518.034002 446.94492 
L 514.498468 450.480453 
z
" style="fill:#fb8072;stroke:#ffffff;stroke-width:1.131371;"/>
    <path clip-path="url(#p836f0b4e73)" d="M 202.594488 344.599411 
C 204.469757 344.599411 206.268472 343.854359 207.594488 342.528343 
C 208.920503 341.202328 209.665555 339.403612 209.665555 337.528343 
C 209.665555 335.653074 208.920503 333.854359 207.594488 332.528343 
C 206.268472 331.202328 204.469757 330.457275 202.594488 330.457275 
C 200.719218 330.457275 198.920503 331.202328 197.594488 332.528343 
C 196.268472 333.854359 195.52342 335.653074 195.52342 337.528343 
C 195.52342 339.403612 196.268472 341.202328 197.594488 342.528343 
C 198.920503 343.854359 200.719218 344.599411 202.594488 344.599411 
z
" style="fill:#fb8072;stroke:#ffffff;stroke-width:1.131371;"/>
    <path clip-path="url(#p836f0b4e73)" d="M 369.585273 424.336769 
L 373.120807 420.801235 
L 376.656341 424.336769 
L 380.191875 420.801235 
L 376.656341 417.265701 
L 380.191875 413.730168 
L 376.656341 410.194634 
L 373.120807 413.730168 
L 369.585273 410.194634 
L 366.049739 413.730168 
L 369.585273 417.265701 
L 366.049739 420.801235 
z
" style="fill:#fb8072;stroke:#ffffff;stroke-width:1.131371;"/>
    <path clip-path="url(#p836f0b4e73)" d="M 570.568429 255.279224 
L 574.103962 251.74369 
L 577.639496 255.279224 
L 581.17503 251.74369 
L 577.639496 248.208156 
L 581.17503 244.672622 
L 577.639496 241.137088 
L 574.103962 244.672622 
L 570.568429 241.137088 
L 567.032895 244.672622 
L 570.568429 248.208156 
L 567.032895 251.74369 
z
" style="fill:#80b1d3;stroke:#ffffff;stroke-width:1.131371;"/>
    <path clip-path="url(#p836f0b4e73)" d="M 454.507708 336.487288 
C 456.382977 336.487288 458.181693 335.742235 459.507708 334.41622 
C 460.833724 333.090204 461.578776 331.291489 461.578776 329.41622 
C 461.578776 327.540951 460.833724 325.742235 459.507708 324.41622 
C 458.181693 323.090204 456.382977 322.345152 454.507708 322.345152 
C 452.632439 322.345152 450.833724 323.090204 449.507708 324.41622 
C 448.181693 325.742235 447.43664 327.540951 447.43664 329.41622 
C 447.43664 331.291489 448.181693 333.090204 449.507708 334.41622 
C 450.833724 335.742235 452.632439 336.487288 454.507708 336.487288 
z
" style="fill:#80b1d3;stroke:#ffffff;stroke-width:1.131371;"/>
    <path clip-path="url(#p836f0b4e73)" d="M 594.563226 272.173262 
L 598.09876 268.637728 
L 601.634294 272.173262 
L 605.169828 268.637728 
L 601.634294 265.102194 
L 605.169828 261.56666 
L 601.634294 258.031126 
L 598.09876 261.56666 
L 594.563226 258.031126 
L 591.027692 261.56666 
L 594.563226 265.102194 
L 591.027692 268.637728 
z
" style="fill:#80b1d3;stroke:#ffffff;stroke-width:1.131371;"/>
    <path clip-path="url(#p836f0b4e73)" d="M 599.549606 280.847729 
L 603.08514 277.312195 
L 606.620674 280.847729 
L 610.156208 277.312195 
L 606.620674 273.776661 
L 610.156208 270.241127 
L 606.620674 266.705593 
L 603.08514 270.241127 
L 599.549606 266.705593 
L 596.014073 270.241127 
L 599.549606 273.776661 
L 596.014073 277.312195 
z
" style="fill:#80b1d3;stroke:#ffffff;stroke-width:1.131371;"/>
    <path clip-path="url(#p836f0b4e73)" d="M 574.539758 287.956935 
L 578.075292 284.421401 
L 581.610826 287.956935 
L 585.14636 284.421401 
L 581.610826 280.885867 
L 585.14636 277.350333 
L 581.610826 273.814799 
L 578.075292 277.350333 
L 574.539758 273.814799 
L 571.004225 277.350333 
L 574.539758 280.885867 
L 571.004225 284.421401 
z
" style="fill:#80b1d3;stroke:#ffffff;stroke-width:1.131371;"/>
    <path clip-path="url(#p836f0b4e73)" d="M 360.60633 191.053226 
C 362.481599 191.053226 364.280314 190.308173 365.60633 188.982158 
C 366.932345 187.656142 367.677398 185.857427 367.677398 183.982158 
C 367.677398 182.106889 366.932345 180.308173 365.60633 178.982158 
C 364.280314 177.656142 362.481599 176.91109 360.60633 176.91109 
C 358.731061 176.91109 356.932345 177.656142 355.60633 178.982158 
C 354.280314 180.308173 353.535262 182.106889 353.535262 183.982158 
C 353.535262 185.857427 354.280314 187.656142 355.60633 188.982158 
C 356.932345 190.308173 358.731061 191.053226 360.60633 191.053226 
z
" style="fill:#80b1d3;stroke:#ffffff;stroke-width:1.131371;"/>
    <path clip-path="url(#p836f0b4e73)" d="M 437.850385 175.731831 
L 441.385919 172.196297 
L 444.921453 175.731831 
L 448.456987 172.196297 
L 444.921453 168.660764 
L 448.456987 165.12523 
L 444.921453 161.589696 
L 441.385919 165.12523 
L 437.850385 161.589696 
L 434.314851 165.12523 
L 437.850385 168.660764 
L 434.314851 172.196297 
z
" style="fill:#80b1d3;stroke:#ffffff;stroke-width:1.131371;"/>
    <path clip-path="url(#p836f0b4e73)" d="M 535.122487 249.057344 
L 538.658021 245.52181 
L 542.193554 249.057344 
L 545.729088 245.52181 
L 542.193554 241.986276 
L 545.729088 238.450742 
L 542.193554 234.915208 
L 538.658021 238.450742 
L 535.122487 234.915208 
L 531.586953 238.450742 
L 535.122487 241.986276 
L 531.586953 245.52181 
z
" style="fill:#80b1d3;stroke:#ffffff;stroke-width:1.131371;"/>
    <path clip-path="url(#p836f0b4e73)" d="M 548.885635 502.279105 
L 552.421169 498.743571 
L 555.956702 502.279105 
L 559.492236 498.743571 
L 555.956702 495.208037 
L 559.492236 491.672503 
L 555.956702 488.136969 
L 552.421169 491.672503 
L 548.885635 488.136969 
L 545.350101 491.672503 
L 548.885635 495.208037 
L 545.350101 498.743571 
z
" style="fill:#fb8072;stroke:#ffffff;stroke-width:1.131371;"/>
    <path clip-path="url(#p836f0b4e73)" d="M 400.7176 612.069121 
C 402.592869 612.069121 404.391585 611.324069 405.7176 609.998053 
C 407.043616 608.672038 407.788668 606.873322 407.788668 604.998053 
C 407.788668 603.122784 407.043616 601.324069 405.7176 599.998053 
C 404.391585 598.672038 402.592869 597.926986 400.7176 597.926986 
C 398.842331 597.926986 397.043616 598.672038 395.7176 599.998053 
C 394.391585 601.324069 393.646533 603.122784 393.646533 604.998053 
C 393.646533 606.873322 394.391585 608.672038 395.7176 609.998053 
C 397.043616 611.324069 398.842331 612.069121 400.7176 612.069121 
z
" style="fill:#fb8072;stroke:#ffffff;stroke-width:1.131371;"/>
    <path clip-path="url(#p836f0b4e73)" d="M 594.904741 475.296054 
L 598.440275 471.76052 
L 601.975809 475.296054 
L 605.511343 471.76052 
L 601.975809 468.224986 
L 605.511343 464.689452 
L 601.975809 461.153918 
L 598.440275 464.689452 
L 594.904741 461.153918 
L 591.369207 464.689452 
L 594.904741 468.224986 
L 591.369207 471.76052 
z
" style="fill:#fb8072;stroke:#ffffff;stroke-width:1.131371;"/>
    <path clip-path="url(#p836f0b4e73)" d="M 554.379831 415.931528 
L 557.915365 412.395994 
L 561.450899 415.931528 
L 564.986433 412.395994 
L 561.450899 408.86046 
L 564.986433 405.324927 
L 561.450899 401.789393 
L 557.915365 405.324927 
L 554.379831 401.789393 
L 550.844297 405.324927 
L 554.379831 408.86046 
L 550.844297 412.395994 
z
" style="fill:#fb8072;stroke:#ffffff;stroke-width:1.131371;"/>
    <path clip-path="url(#p836f0b4e73)" d="M 519.572508 270.434402 
L 523.108042 266.898868 
L 526.643576 270.434402 
L 530.17911 266.898868 
L 526.643576 263.363334 
L 530.17911 259.8278 
L 526.643576 256.292266 
L 523.108042 259.8278 
L 519.572508 256.292266 
L 516.036974 259.8278 
L 519.572508 263.363334 
L 516.036974 266.898868 
z
" style="fill:#fb8072;stroke:#ffffff;stroke-width:1.131371;"/>
    <path clip-path="url(#p836f0b4e73)" d="M 234.650115 581.114576 
C 236.525384 581.114576 238.3241 580.369524 239.650115 579.043509 
C 240.976131 577.717493 241.721183 575.918778 241.721183 574.043509 
C 241.721183 572.168239 240.976131 570.369524 239.650115 569.043509 
C 238.3241 567.717493 236.525384 566.972441 234.650115 566.972441 
C 232.774846 566.972441 230.976131 567.717493 229.650115 569.043509 
C 228.3241 570.369524 227.579048 572.168239 227.579048 574.043509 
C 227.579048 575.918778 228.3241 577.717493 229.650115 579.043509 
C 230.976131 580.369524 232.774846 581.114576 234.650115 581.114576 
z
" style="fill:#fb8072;stroke:#ffffff;stroke-width:1.131371;"/>
    <path clip-path="url(#p836f0b4e73)" d="M 542.357627 340.313743 
L 545.893161 336.778209 
L 549.428695 340.313743 
L 552.964228 336.778209 
L 549.428695 333.242675 
L 552.964228 329.707141 
L 549.428695 326.171608 
L 545.893161 329.707141 
L 542.357627 326.171608 
L 538.822093 329.707141 
L 542.357627 333.242675 
L 538.822093 336.778209 
z
" style="fill:#fb8072;stroke:#ffffff;stroke-width:1.131371;"/>
    <path clip-path="url(#p836f0b4e73)" d="M 595.114685 343.396957 
L 598.650219 339.861423 
L 602.185753 343.396957 
L 605.721287 339.861423 
L 602.185753 336.325889 
L 605.721287 332.790355 
L 602.185753 329.254821 
L 598.650219 332.790355 
L 595.114685 329.254821 
L 591.579151 332.790355 
L 595.114685 336.325889 
L 591.579151 339.861423 
z
" style="fill:#fb8072;stroke:#ffffff;stroke-width:1.131371;"/>
    <path clip-path="url(#p836f0b4e73)" d="M 541.889833 277.244021 
L 545.425367 273.708487 
L 548.9609 277.244021 
L 552.496434 273.708487 
L 548.9609 270.172953 
L 552.496434 266.637419 
L 548.9609 263.101885 
L 545.425367 266.637419 
L 541.889833 263.101885 
L 538.354299 266.637419 
L 541.889833 270.172953 
L 538.354299 273.708487 
z
" style="fill:#fb8072;stroke:#ffffff;stroke-width:1.131371;"/>
    <path clip-path="url(#p836f0b4e73)" d="M 413.933737 287.54445 
C 415.809006 287.54445 417.607721 286.799397 418.933737 285.473382 
C 420.259752 284.147366 421.004804 282.348651 421.004804 280.473382 
C 421.004804 278.598113 420.259752 276.799397 418.933737 275.473382 
C 417.607721 274.147366 415.809006 273.402314 413.933737 273.402314 
C 412.058468 273.402314 410.259752 274.147366 408.933737 275.473382 
C 407.607721 276.799397 406.862669 278.598113 406.862669 280.473382 
C 406.862669 282.348651 407.607721 284.147366 408.933737 285.473382 
C 410.259752 286.799397 412.058468 287.54445 413.933737 287.54445 
z
" style="fill:#fb8072;stroke:#ffffff;stroke-width:1.131371;"/>
    <path clip-path="url(#p836f0b4e73)" d="M 531.470248 372.150049 
L 535.005782 368.614515 
L 538.541315 372.150049 
L 542.076849 368.614515 
L 538.541315 365.078982 
L 542.076849 361.543448 
L 538.541315 358.007914 
L 535.005782 361.543448 
L 531.470248 358.007914 
L 527.934714 361.543448 
L 531.470248 365.078982 
L 527.934714 368.614515 
z
" style="fill:#fb8072;stroke:#ffffff;stroke-width:1.131371;"/>
    <path clip-path="url(#p836f0b4e73)" d="M 546.59187 268.006054 
L 550.127404 264.47052 
L 553.662938 268.006054 
L 557.198472 264.47052 
L 553.662938 260.934986 
L 557.198472 257.399452 
L 553.662938 253.863918 
L 550.127404 257.399452 
L 546.59187 253.863918 
L 543.056336 257.399452 
L 546.59187 260.934986 
L 543.056336 264.47052 
z
" style="fill:#fb8072;stroke:#ffffff;stroke-width:1.131371;"/>
    <path clip-path="url(#p836f0b4e73)" d="M 502.043373 348.501965 
L 505.578907 344.966431 
L 509.114441 348.501965 
L 512.649975 344.966431 
L 509.114441 341.430897 
L 512.649975 337.895363 
L 509.114441 334.359829 
L 505.578907 337.895363 
L 502.043373 334.359829 
L 498.50784 337.895363 
L 502.043373 341.430897 
L 498.50784 344.966431 
z
" style="fill:#80b1d3;stroke:#ffffff;stroke-width:1.131371;"/>
    <path clip-path="url(#p836f0b4e73)" d="M 370.796802 258.420772 
C 372.672071 258.420772 374.470787 257.675719 375.796802 256.349704 
C 377.122818 255.023688 377.86787 253.224973 377.86787 251.349704 
C 377.86787 249.474435 377.122818 247.675719 375.796802 246.349704 
C 374.470787 245.023688 372.672071 244.278636 370.796802 244.278636 
C 368.921533 244.278636 367.122818 245.023688 365.796802 246.349704 
C 364.470787 247.675719 363.725734 249.474435 363.725734 251.349704 
C 363.725734 253.224973 364.470787 255.023688 365.796802 256.349704 
C 367.122818 257.675719 368.921533 258.420772 370.796802 258.420772 
z
" style="fill:#80b1d3;stroke:#ffffff;stroke-width:1.131371;"/>
    <path clip-path="url(#p836f0b4e73)" d="M 527.363514 333.186897 
L 530.899048 329.651363 
L 534.434582 333.186897 
L 537.970116 329.651363 
L 534.434582 326.115829 
L 537.970116 322.580295 
L 534.434582 319.044761 
L 530.899048 322.580295 
L 527.363514 319.044761 
L 523.827981 322.580295 
L 527.363514 326.115829 
L 523.827981 329.651363 
z
" style="fill:#80b1d3;stroke:#ffffff;stroke-width:1.131371;"/>
    <path clip-path="url(#p836f0b4e73)" d="M 619.10083 350.14354 
L 622.636364 346.608006 
L 626.171898 350.14354 
L 629.707431 346.608006 
L 626.171898 343.072472 
L 629.707431 339.536938 
L 626.171898 336.001404 
L 622.636364 339.536938 
L 619.10083 336.001404 
L 615.565296 339.536938 
L 619.10083 343.072472 
L 615.565296 346.608006 
z
" style="fill:#80b1d3;stroke:#ffffff;stroke-width:1.131371;"/>
    <path clip-path="url(#p836f0b4e73)" d="M 461.613059 343.731012 
C 463.488328 343.731012 465.287044 342.98596 466.613059 341.659944 
C 467.939075 340.333929 468.684127 338.535213 468.684127 336.659944 
C 468.684127 334.784675 467.939075 332.98596 466.613059 331.659944 
C 465.287044 330.333929 463.488328 329.588876 461.613059 329.588876 
C 459.73779 329.588876 457.939075 330.333929 456.613059 331.659944 
C 455.287044 332.98596 454.541991 334.784675 454.541991 336.659944 
C 454.541991 338.535213 455.287044 340.333929 456.613059 341.659944 
C 457.939075 342.98596 459.73779 343.731012 461.613059 343.731012 
z
" style="fill:#80b1d3;stroke:#ffffff;stroke-width:1.131371;"/>
    <path clip-path="url(#p836f0b4e73)" d="M 581.671205 348.622629 
L 585.206739 345.087095 
L 588.742272 348.622629 
L 592.277806 345.087095 
L 588.742272 341.551561 
L 592.277806 338.016027 
L 588.742272 334.480494 
L 585.206739 338.016027 
L 581.671205 334.480494 
L 578.135671 338.016027 
L 581.671205 341.551561 
L 578.135671 345.087095 
z
" style="fill:#80b1d3;stroke:#ffffff;stroke-width:1.131371;"/>
    <path clip-path="url(#p836f0b4e73)" d="M 541.662649 323.829931 
L 545.198183 320.294397 
L 548.733717 323.829931 
L 552.269251 320.294397 
L 548.733717 316.758863 
L 552.269251 313.223329 
L 548.733717 309.687795 
L 545.198183 313.223329 
L 541.662649 309.687795 
L 538.127115 313.223329 
L 541.662649 316.758863 
L 538.127115 320.294397 
z
" style="fill:#80b1d3;stroke:#ffffff;stroke-width:1.131371;"/>
    <path clip-path="url(#p836f0b4e73)" d="M 606.046333 383.351988 
L 609.581867 379.816454 
L 613.117401 383.351988 
L 616.652935 379.816454 
L 613.117401 376.28092 
L 616.652935 372.745386 
L 613.117401 369.209852 
L 609.581867 372.745386 
L 606.046333 369.209852 
L 602.510799 372.745386 
L 606.046333 376.28092 
L 602.510799 379.816454 
z
" style="fill:#fb8072;stroke:#ffffff;stroke-width:1.131371;"/>
    <path clip-path="url(#p836f0b4e73)" d="M 447.382044 211.991116 
C 449.257313 211.991116 451.056029 211.246064 452.382044 209.920048 
C 453.70806 208.594033 454.453112 206.795318 454.453112 204.920048 
C 454.453112 203.044779 453.70806 201.246064 452.382044 199.920048 
C 451.056029 198.594033 449.257313 197.848981 447.382044 197.848981 
C 445.506775 197.848981 443.70806 198.594033 442.382044 199.920048 
C 441.056029 201.246064 440.310976 203.044779 440.310976 204.920048 
C 440.310976 206.795318 441.056029 208.594033 442.382044 209.920048 
C 443.70806 211.246064 445.506775 211.991116 447.382044 211.991116 
z
" style="fill:#fb8072;stroke:#ffffff;stroke-width:1.131371;"/>
    <path clip-path="url(#p836f0b4e73)" d="M 605.12411 346.938056 
L 608.659644 343.402522 
L 612.195178 346.938056 
L 615.730712 343.402522 
L 612.195178 339.866988 
L 615.730712 336.331454 
L 612.195178 332.79592 
L 608.659644 336.331454 
L 605.12411 332.79592 
L 601.588576 336.331454 
L 605.12411 339.866988 
L 601.588576 343.402522 
z
" style="fill:#fb8072;stroke:#ffffff;stroke-width:1.131371;"/>
    <path clip-path="url(#p836f0b4e73)" d="M 559.301932 307.184828 
L 562.837466 303.649294 
L 566.373 307.184828 
L 569.908534 303.649294 
L 566.373 300.11376 
L 569.908534 296.578227 
L 566.373 293.042693 
L 562.837466 296.578227 
L 559.301932 293.042693 
L 555.766398 296.578227 
L 559.301932 300.11376 
L 555.766398 303.649294 
z
" style="fill:#80b1d3;stroke:#ffffff;stroke-width:1.131371;"/>
    <path clip-path="url(#p836f0b4e73)" d="M 474.258422 325.153007 
C 476.133691 325.153007 477.932406 324.407955 479.258422 323.081939 
C 480.584437 321.755924 481.329489 319.957208 481.329489 318.081939 
C 481.329489 316.20667 480.584437 314.407955 479.258422 313.081939 
C 477.932406 311.755924 476.133691 311.010871 474.258422 311.010871 
C 472.383153 311.010871 470.584437 311.755924 469.258422 313.081939 
C 467.932406 314.407955 467.187354 316.20667 467.187354 318.081939 
C 467.187354 319.957208 467.932406 321.755924 469.258422 323.081939 
C 470.584437 324.407955 472.383153 325.153007 474.258422 325.153007 
z
" style="fill:#80b1d3;stroke:#ffffff;stroke-width:1.131371;"/>
    <path clip-path="url(#p836f0b4e73)" d="M 454.299804 321.911248 
L 457.835338 318.375714 
L 461.370871 321.911248 
L 464.906405 318.375714 
L 461.370871 314.84018 
L 464.906405 311.304646 
L 461.370871 307.769112 
L 457.835338 311.304646 
L 454.299804 307.769112 
L 450.76427 311.304646 
L 454.299804 314.84018 
L 450.76427 318.375714 
z
" style="fill:#80b1d3;stroke:#ffffff;stroke-width:1.131371;"/>
    <path clip-path="url(#p836f0b4e73)" d="M 565.040084 246.243215 
L 568.575618 242.707682 
L 572.111152 246.243215 
L 575.646686 242.707682 
L 572.111152 239.172148 
L 575.646686 235.636614 
L 572.111152 232.10108 
L 568.575618 235.636614 
L 565.040084 232.10108 
L 561.50455 235.636614 
L 565.040084 239.172148 
L 561.50455 242.707682 
z
" style="fill:#80b1d3;stroke:#ffffff;stroke-width:1.131371;"/>
    <path clip-path="url(#p836f0b4e73)" d="M 564.693189 291.684296 
L 568.228723 288.148763 
L 571.764257 291.684296 
L 575.299791 288.148763 
L 571.764257 284.613229 
L 575.299791 281.077695 
L 571.764257 277.542161 
L 568.228723 281.077695 
L 564.693189 277.542161 
L 561.157655 281.077695 
L 564.693189 284.613229 
L 561.157655 288.148763 
z
" style="fill:#80b1d3;stroke:#ffffff;stroke-width:1.131371;"/>
    <path clip-path="url(#p836f0b4e73)" d="M 393.877066 310.455234 
C 395.752335 310.455234 397.55105 309.710182 398.877066 308.384167 
C 400.203081 307.058151 400.948134 305.259436 400.948134 303.384167 
C 400.948134 301.508898 400.203081 299.710182 398.877066 298.384167 
C 397.55105 297.058151 395.752335 296.313099 393.877066 296.313099 
C 392.001797 296.313099 390.203081 297.058151 388.877066 298.384167 
C 387.55105 299.710182 386.805998 301.508898 386.805998 303.384167 
C 386.805998 305.259436 387.55105 307.058151 388.877066 308.384167 
C 390.203081 309.710182 392.001797 310.455234 393.877066 310.455234 
z
" style="fill:#80b1d3;stroke:#ffffff;stroke-width:1.131371;"/>
    <path clip-path="url(#p836f0b4e73)" d="M 573.556268 316.218699 
L 577.091802 312.683165 
L 580.627336 316.218699 
L 584.162869 312.683165 
L 580.627336 309.147631 
L 584.162869 305.612097 
L 580.627336 302.076564 
L 577.091802 305.612097 
L 573.556268 302.076564 
L 570.020734 305.612097 
L 573.556268 309.147631 
L 570.020734 312.683165 
z
" style="fill:#80b1d3;stroke:#ffffff;stroke-width:1.131371;"/>
    <path clip-path="url(#p836f0b4e73)" d="M 415.667717 378.703495 
L 419.20325 375.167961 
L 422.738784 378.703495 
L 426.274318 375.167961 
L 422.738784 371.632427 
L 426.274318 368.096893 
L 422.738784 364.561359 
L 419.20325 368.096893 
L 415.667717 364.561359 
L 412.132183 368.096893 
L 415.667717 371.632427 
L 412.132183 375.167961 
z
" style="fill:#fb8072;stroke:#ffffff;stroke-width:1.131371;"/>
    <path clip-path="url(#p836f0b4e73)" d="M 322.022493 566.72888 
C 323.897762 566.72888 325.696477 565.983828 327.022493 564.657812 
C 328.348508 563.331797 329.093561 561.533081 329.093561 559.657812 
C 329.093561 557.782543 328.348508 555.983828 327.022493 554.657812 
C 325.696477 553.331797 323.897762 552.586744 322.022493 552.586744 
C 320.147224 552.586744 318.348508 553.331797 317.022493 554.657812 
C 315.696477 555.983828 314.951425 557.782543 314.951425 559.657812 
C 314.951425 561.533081 315.696477 563.331797 317.022493 564.657812 
C 318.348508 565.983828 320.147224 566.72888 322.022493 566.72888 
z
" style="fill:#fb8072;stroke:#ffffff;stroke-width:1.131371;"/>
    <path clip-path="url(#p836f0b4e73)" d="M 420.716452 481.062342 
L 424.251986 477.526808 
L 427.78752 481.062342 
L 431.323054 477.526808 
L 427.78752 473.991274 
L 431.323054 470.45574 
L 427.78752 466.920207 
L 424.251986 470.45574 
L 420.716452 466.920207 
L 417.180918 470.45574 
L 420.716452 473.991274 
L 417.180918 477.526808 
z
" style="fill:#fb8072;stroke:#ffffff;stroke-width:1.131371;"/>
    <path clip-path="url(#p836f0b4e73)" d="M 546.854257 434.227526 
L 550.389791 430.691992 
L 553.925325 434.227526 
L 557.460858 430.691992 
L 553.925325 427.156458 
L 557.460858 423.620924 
L 553.925325 420.08539 
L 550.389791 423.620924 
L 546.854257 420.08539 
L 543.318723 423.620924 
L 546.854257 427.156458 
L 543.318723 430.691992 
z
" style="fill:#fb8072;stroke:#ffffff;stroke-width:1.131371;"/>
    <path clip-path="url(#p836f0b4e73)" d="M 511.352011 249.292816 
L 514.887545 245.757282 
L 518.423079 249.292816 
L 521.958613 245.757282 
L 518.423079 242.221748 
L 521.958613 238.686214 
L 518.423079 235.15068 
L 514.887545 238.686214 
L 511.352011 235.15068 
L 507.816477 238.686214 
L 511.352011 242.221748 
L 507.816477 245.757282 
z
" style="fill:#80b1d3;stroke:#ffffff;stroke-width:1.131371;"/>
    <path clip-path="url(#p836f0b4e73)" d="M 252.948142 341.168452 
C 254.823411 341.168452 256.622127 340.423399 257.948142 339.097384 
C 259.274158 337.771368 260.01921 335.972653 260.01921 334.097384 
C 260.01921 332.222115 259.274158 330.423399 257.948142 329.097384 
C 256.622127 327.771368 254.823411 327.026316 252.948142 327.026316 
C 251.072873 327.026316 249.274158 327.771368 247.948142 329.097384 
C 246.622127 330.423399 245.877074 332.222115 245.877074 334.097384 
C 245.877074 335.972653 246.622127 337.771368 247.948142 339.097384 
C 249.274158 340.423399 251.072873 341.168452 252.948142 341.168452 
z
" style="fill:#80b1d3;stroke:#ffffff;stroke-width:1.131371;"/>
    <path clip-path="url(#p836f0b4e73)" d="M 499.873608 273.377422 
L 503.409141 269.841888 
L 506.944675 273.377422 
L 510.480209 269.841888 
L 506.944675 266.306354 
L 510.480209 262.77082 
L 506.944675 259.235286 
L 503.409141 262.77082 
L 499.873608 259.235286 
L 496.338074 262.77082 
L 499.873608 266.306354 
L 496.338074 269.841888 
z
" style="fill:#80b1d3;stroke:#ffffff;stroke-width:1.131371;"/>
    <path clip-path="url(#p836f0b4e73)" d="M 531.671976 262.751808 
L 535.20751 259.216274 
L 538.743044 262.751808 
L 542.278578 259.216274 
L 538.743044 255.68074 
L 542.278578 252.145206 
L 538.743044 248.609672 
L 535.20751 252.145206 
L 531.671976 248.609672 
L 528.136442 252.145206 
L 531.671976 255.68074 
L 528.136442 259.216274 
z
" style="fill:#80b1d3;stroke:#ffffff;stroke-width:1.131371;"/>
    <path clip-path="url(#p836f0b4e73)" d="M 573.709311 316.770791 
L 577.244845 313.235257 
L 580.780379 316.770791 
L 584.315913 313.235257 
L 580.780379 309.699723 
L 584.315913 306.16419 
L 580.780379 302.628656 
L 577.244845 306.16419 
L 573.709311 302.628656 
L 570.173777 306.16419 
L 573.709311 309.699723 
L 570.173777 313.235257 
z
" style="fill:#fb8072;stroke:#ffffff;stroke-width:1.131371;"/>
    <path clip-path="url(#p836f0b4e73)" d="M 469.233262 389.293209 
C 471.108531 389.293209 472.907246 388.548157 474.233262 387.222141 
C 475.559277 385.896126 476.304329 384.097411 476.304329 382.222141 
C 476.304329 380.346872 475.559277 378.548157 474.233262 377.222141 
C 472.907246 375.896126 471.108531 375.151074 469.233262 375.151074 
C 467.357992 375.151074 465.559277 375.896126 464.233262 377.222141 
C 462.907246 378.548157 462.162194 380.346872 462.162194 382.222141 
C 462.162194 384.097411 462.907246 385.896126 464.233262 387.222141 
C 465.559277 388.548157 467.357992 389.293209 469.233262 389.293209 
z
" style="fill:#fb8072;stroke:#ffffff;stroke-width:1.131371;"/>
    <path clip-path="url(#p836f0b4e73)" d="M 542.255306 433.650479 
L 545.79084 430.114946 
L 549.326374 433.650479 
L 552.861908 430.114946 
L 549.326374 426.579412 
L 552.861908 423.043878 
L 549.326374 419.508344 
L 545.79084 423.043878 
L 542.255306 419.508344 
L 538.719772 423.043878 
L 542.255306 426.579412 
L 538.719772 430.114946 
z
" style="fill:#fb8072;stroke:#ffffff;stroke-width:1.131371;"/>
    <path clip-path="url(#p836f0b4e73)" d="M 550.665613 305.650875 
L 554.201147 302.115341 
L 557.736681 305.650875 
L 561.272215 302.115341 
L 557.736681 298.579807 
L 561.272215 295.044273 
L 557.736681 291.508739 
L 554.201147 295.044273 
L 550.665613 291.508739 
L 547.130079 295.044273 
L 550.665613 298.579807 
L 547.130079 302.115341 
z
" style="fill:#fb8072;stroke:#ffffff;stroke-width:1.131371;"/>
    <path clip-path="url(#p836f0b4e73)" d="M 594.520887 304.680659 
L 598.05642 301.145126 
L 601.591954 304.680659 
L 605.127488 301.145126 
L 601.591954 297.609592 
L 605.127488 294.074058 
L 601.591954 290.538524 
L 598.05642 294.074058 
L 594.520887 290.538524 
L 590.985353 294.074058 
L 594.520887 297.609592 
L 590.985353 301.145126 
z
" style="fill:#fb8072;stroke:#ffffff;stroke-width:1.131371;"/>
    <path clip-path="url(#p836f0b4e73)" d="M 347.938889 612.361977 
C 349.814159 612.361977 351.612874 611.616925 352.938889 610.290909 
C 354.264905 608.964894 355.009957 607.166178 355.009957 605.290909 
C 355.009957 603.41564 354.264905 601.616925 352.938889 600.290909 
C 351.612874 598.964894 349.814159 598.219841 347.938889 598.219841 
C 346.06362 598.219841 344.264905 598.964894 342.938889 600.290909 
C 341.612874 601.616925 340.867822 603.41564 340.867822 605.290909 
C 340.867822 607.166178 341.612874 608.964894 342.938889 610.290909 
C 344.264905 611.616925 346.06362 612.361977 347.938889 612.361977 
z
" style="fill:#fb8072;stroke:#ffffff;stroke-width:1.131371;"/>
    <path clip-path="url(#p836f0b4e73)" d="M 588.589399 308.876826 
L 592.124933 305.341292 
L 595.660467 308.876826 
L 599.196001 305.341292 
L 595.660467 301.805758 
L 599.196001 298.270224 
L 595.660467 294.73469 
L 592.124933 298.270224 
L 588.589399 294.73469 
L 585.053865 298.270224 
L 588.589399 301.805758 
L 585.053865 305.341292 
z
" style="fill:#fb8072;stroke:#ffffff;stroke-width:1.131371;"/>
    <path clip-path="url(#p836f0b4e73)" d="M 607.592025 305.511904 
L 611.127559 301.97637 
L 614.663093 305.511904 
L 618.198627 301.97637 
L 614.663093 298.440836 
L 618.198627 294.905302 
L 614.663093 291.369768 
L 611.127559 294.905302 
L 607.592025 291.369768 
L 604.056491 294.905302 
L 607.592025 298.440836 
L 604.056491 301.97637 
z
" style="fill:#fb8072;stroke:#ffffff;stroke-width:1.131371;"/>
    <path clip-path="url(#p836f0b4e73)" d="M 571.186985 353.093771 
L 574.722519 349.558237 
L 578.258053 353.093771 
L 581.793587 349.558237 
L 578.258053 346.022703 
L 581.793587 342.487169 
L 578.258053 338.951635 
L 574.722519 342.487169 
L 571.186985 338.951635 
L 567.651451 342.487169 
L 571.186985 346.022703 
L 567.651451 349.558237 
z
" style="fill:#80b1d3;stroke:#ffffff;stroke-width:1.131371;"/>
    <path clip-path="url(#p836f0b4e73)" d="M 405.024236 292.260274 
C 406.899505 292.260274 408.698221 291.515222 410.024236 290.189206 
C 411.350252 288.863191 412.095304 287.064475 412.095304 285.189206 
C 412.095304 283.313937 411.350252 281.515222 410.024236 280.189206 
C 408.698221 278.863191 406.899505 278.118138 405.024236 278.118138 
C 403.148967 278.118138 401.350252 278.863191 400.024236 280.189206 
C 398.698221 281.515222 397.953168 283.313937 397.953168 285.189206 
C 397.953168 287.064475 398.698221 288.863191 400.024236 290.189206 
C 401.350252 291.515222 403.148967 292.260274 405.024236 292.260274 
z
" style="fill:#80b1d3;stroke:#ffffff;stroke-width:1.131371;"/>
    <path clip-path="url(#p836f0b4e73)" d="M 456.194117 355.438947 
L 459.729651 351.903413 
L 463.265185 355.438947 
L 466.800719 351.903413 
L 463.265185 348.36788 
L 466.800719 344.832346 
L 463.265185 341.296812 
L 459.729651 344.832346 
L 456.194117 341.296812 
L 452.658583 344.832346 
L 456.194117 348.36788 
L 452.658583 351.903413 
z
" style="fill:#80b1d3;stroke:#ffffff;stroke-width:1.131371;"/>
    <path clip-path="url(#p836f0b4e73)" d="M 581.070975 380.876242 
L 584.606509 377.340708 
L 588.142043 380.876242 
L 591.677577 377.340708 
L 588.142043 373.805174 
L 591.677577 370.26964 
L 588.142043 366.734106 
L 584.606509 370.26964 
L 581.070975 366.734106 
L 577.535441 370.26964 
L 581.070975 373.805174 
L 577.535441 377.340708 
z
" style="fill:#80b1d3;stroke:#ffffff;stroke-width:1.131371;"/>
    <path clip-path="url(#p836f0b4e73)" d="M 604.276399 477.864768 
L 607.811933 474.329234 
L 611.347467 477.864768 
L 614.883001 474.329234 
L 611.347467 470.7937 
L 614.883001 467.258166 
L 611.347467 463.722632 
L 607.811933 467.258166 
L 604.276399 463.722632 
L 600.740865 467.258166 
L 604.276399 470.7937 
L 600.740865 474.329234 
z
" style="fill:#fb8072;stroke:#ffffff;stroke-width:1.131371;"/>
    <path clip-path="url(#p836f0b4e73)" d="M 346.281835 339.566507 
C 348.157105 339.566507 349.95582 338.821454 351.281835 337.495439 
C 352.607851 336.169423 353.352903 334.370708 353.352903 332.495439 
C 353.352903 330.62017 352.607851 328.821454 351.281835 327.495439 
C 349.95582 326.169423 348.157105 325.424371 346.281835 325.424371 
C 344.406566 325.424371 342.607851 326.169423 341.281835 327.495439 
C 339.95582 328.821454 339.210768 330.62017 339.210768 332.495439 
C 339.210768 334.370708 339.95582 336.169423 341.281835 337.495439 
C 342.607851 338.821454 344.406566 339.566507 346.281835 339.566507 
z
" style="fill:#fb8072;stroke:#ffffff;stroke-width:1.131371;"/>
    <path clip-path="url(#p836f0b4e73)" d="M 545.954731 499.122955 
L 549.490265 495.587421 
L 553.025799 499.122955 
L 556.561333 495.587421 
L 553.025799 492.051887 
L 556.561333 488.516353 
L 553.025799 484.980819 
L 549.490265 488.516353 
L 545.954731 484.980819 
L 542.419197 488.516353 
L 545.954731 492.051887 
L 542.419197 495.587421 
z
" style="fill:#fb8072;stroke:#ffffff;stroke-width:1.131371;"/>
    <path clip-path="url(#p836f0b4e73)" d="M 554.513342 420.219256 
L 558.048876 416.683722 
L 561.58441 420.219256 
L 565.119944 416.683722 
L 561.58441 413.148189 
L 565.119944 409.612655 
L 561.58441 406.077121 
L 558.048876 409.612655 
L 554.513342 406.077121 
L 550.977808 409.612655 
L 554.513342 413.148189 
L 550.977808 416.683722 
z
" style="fill:#fb8072;stroke:#ffffff;stroke-width:1.131371;"/>
    <path clip-path="url(#p836f0b4e73)" d="M 404.665899 222.866706 
L 408.201433 219.331172 
L 411.736967 222.866706 
L 415.272501 219.331172 
L 411.736967 215.795638 
L 415.272501 212.260104 
L 411.736967 208.72457 
L 408.201433 212.260104 
L 404.665899 208.72457 
L 401.130365 212.260104 
L 404.665899 215.795638 
L 401.130365 219.331172 
z
" style="fill:#fb8072;stroke:#ffffff;stroke-width:1.131371;"/>
    <path clip-path="url(#p836f0b4e73)" d="M 115.363636 292.112806 
C 117.238905 292.112806 119.037621 291.367753 120.363636 290.041738 
C 121.689652 288.715722 122.434704 286.917007 122.434704 285.041738 
C 122.434704 283.166469 121.689652 281.367753 120.363636 280.041738 
C 119.037621 278.715722 117.238905 277.97067 115.363636 277.97067 
C 113.488367 277.97067 111.689652 278.715722 110.363636 280.041738 
C 109.037621 281.367753 108.292569 283.166469 108.292569 285.041738 
C 108.292569 286.917007 109.037621 288.715722 110.363636 290.041738 
C 111.689652 291.367753 113.488367 292.112806 115.363636 292.112806 
z
" style="fill:#fb8072;stroke:#ffffff;stroke-width:1.131371;"/>
    <path clip-path="url(#p836f0b4e73)" d="M 241.751524 277.841407 
L 245.287058 274.305873 
L 248.822592 277.841407 
L 252.358126 274.305873 
L 248.822592 270.770339 
L 252.358126 267.234805 
L 248.822592 263.699272 
L 245.287058 267.234805 
L 241.751524 263.699272 
L 238.21599 267.234805 
L 241.751524 270.770339 
L 238.21599 274.305873 
z
" style="fill:#fb8072;stroke:#ffffff;stroke-width:1.131371;"/>
    <path clip-path="url(#p836f0b4e73)" d="M 404.808892 305.965387 
L 408.344426 302.429853 
L 411.87996 305.965387 
L 415.415494 302.429853 
L 411.87996 298.894319 
L 415.415494 295.358785 
L 411.87996 291.823251 
L 408.344426 295.358785 
L 404.808892 291.823251 
L 401.273358 295.358785 
L 404.808892 298.894319 
L 401.273358 302.429853 
z
" style="fill:#fb8072;stroke:#ffffff;stroke-width:1.131371;"/>
    <path clip-path="url(#p836f0b4e73)" d="M 444.609682 191.728853 
L 448.145216 188.19332 
L 451.68075 191.728853 
L 455.216284 188.19332 
L 451.68075 184.657786 
L 455.216284 181.122252 
L 451.68075 177.586718 
L 448.145216 181.122252 
L 444.609682 177.586718 
L 441.074148 181.122252 
L 444.609682 184.657786 
L 441.074148 188.19332 
z
" style="fill:#fb8072;stroke:#ffffff;stroke-width:1.131371;"/>
    <path clip-path="url(#p836f0b4e73)" d="M 293.931003 171.336654 
C 295.806272 171.336654 297.604988 170.591602 298.931003 169.265586 
C 300.257019 167.939571 301.002071 166.140855 301.002071 164.265586 
C 301.002071 162.390317 300.257019 160.591602 298.931003 159.265586 
C 297.604988 157.939571 295.806272 157.194518 293.931003 157.194518 
C 292.055734 157.194518 290.257019 157.939571 288.931003 159.265586 
C 287.604988 160.591602 286.859935 162.390317 286.859935 164.265586 
C 286.859935 166.140855 287.604988 167.939571 288.931003 169.265586 
C 290.257019 170.591602 292.055734 171.336654 293.931003 171.336654 
z
" style="fill:#fb8072;stroke:#ffffff;stroke-width:1.131371;"/>
    <path clip-path="url(#p836f0b4e73)" d="M 598.446636 407.668434 
L 601.98217 404.1329 
L 605.517704 407.668434 
L 609.053238 404.1329 
L 605.517704 400.597366 
L 609.053238 397.061832 
L 605.517704 393.526298 
L 601.98217 397.061832 
L 598.446636 393.526298 
L 594.911102 397.061832 
L 598.446636 400.597366 
L 594.911102 404.1329 
z
" style="fill:#fb8072;stroke:#ffffff;stroke-width:1.131371;"/>
    <path clip-path="url(#p836f0b4e73)" d="M 433.755783 168.859051 
L 437.291317 165.323517 
L 440.826851 168.859051 
L 444.362385 165.323517 
L 440.826851 161.787983 
L 444.362385 158.252449 
L 440.826851 154.716915 
L 437.291317 158.252449 
L 433.755783 154.716915 
L 430.220249 158.252449 
L 433.755783 161.787983 
L 430.220249 165.323517 
z
" style="fill:#fb8072;stroke:#ffffff;stroke-width:1.131371;"/>
    <path clip-path="url(#p836f0b4e73)" d="M 598.325667 454.410781 
L 601.861201 450.875247 
L 605.396735 454.410781 
L 608.932269 450.875247 
L 605.396735 447.339713 
L 608.932269 443.804179 
L 605.396735 440.268645 
L 601.861201 443.804179 
L 598.325667 440.268645 
L 594.790134 443.804179 
L 598.325667 447.339713 
L 594.790134 450.875247 
z
" style="fill:#80b1d3;stroke:#ffffff;stroke-width:1.131371;"/>
    <path clip-path="url(#p836f0b4e73)" d="M 303.91936 476.7972 
C 305.794629 476.7972 307.593345 476.052147 308.91936 474.726132 
C 310.245376 473.400116 310.990428 471.601401 310.990428 469.726132 
C 310.990428 467.850863 310.245376 466.052147 308.91936 464.726132 
C 307.593345 463.400116 305.794629 462.655064 303.91936 462.655064 
C 302.044091 462.655064 300.245376 463.400116 298.91936 464.726132 
C 297.593345 466.052147 296.848293 467.850863 296.848293 469.726132 
C 296.848293 471.601401 297.593345 473.400116 298.91936 474.726132 
C 300.245376 476.052147 302.044091 476.7972 303.91936 476.7972 
z
" style="fill:#80b1d3;stroke:#ffffff;stroke-width:1.131371;"/>
    <path clip-path="url(#p836f0b4e73)" d="M 359.898744 118.180159 
L 363.434277 114.644625 
L 366.969811 118.180159 
L 370.505345 114.644625 
L 366.969811 111.109091 
L 370.505345 107.573557 
L 366.969811 104.038023 
L 363.434277 107.573557 
L 359.898744 104.038023 
L 356.36321 107.573557 
L 359.898744 111.109091 
L 356.36321 114.644625 
z
" style="fill:#80b1d3;stroke:#ffffff;stroke-width:1.131371;"/>
    <path clip-path="url(#p836f0b4e73)" d="M 508.595081 297.862438 
L 512.130615 294.326904 
L 515.666149 297.862438 
L 519.201683 294.326904 
L 515.666149 290.79137 
L 519.201683 287.255836 
L 515.666149 283.720302 
L 512.130615 287.255836 
L 508.595081 283.720302 
L 505.059547 287.255836 
L 508.595081 290.79137 
L 505.059547 294.326904 
z
" style="fill:#80b1d3;stroke:#ffffff;stroke-width:1.131371;"/>
    <path clip-path="url(#p836f0b4e73)" d="M 589.95317 289.516509 
L 593.488704 285.980975 
L 597.024238 289.516509 
L 600.559772 285.980975 
L 597.024238 282.445441 
L 600.559772 278.909907 
L 597.024238 275.374373 
L 593.488704 278.909907 
L 589.95317 275.374373 
L 586.417637 278.909907 
L 589.95317 282.445441 
L 586.417637 285.980975 
z
" style="fill:#80b1d3;stroke:#ffffff;stroke-width:1.131371;"/>
    <path clip-path="url(#p836f0b4e73)" d="M 381.655964 298.086129 
C 383.531233 298.086129 385.329949 297.341077 386.655964 296.015061 
C 387.98198 294.689046 388.727032 292.89033 388.727032 291.015061 
C 388.727032 289.139792 387.98198 287.341077 386.655964 286.015061 
C 385.329949 284.689046 383.531233 283.943993 381.655964 283.943993 
C 379.780695 283.943993 377.98198 284.689046 376.655964 286.015061 
C 375.329949 287.341077 374.584896 289.139792 374.584896 291.015061 
C 374.584896 292.89033 375.329949 294.689046 376.655964 296.015061 
C 377.98198 297.341077 379.780695 298.086129 381.655964 298.086129 
z
" style="fill:#80b1d3;stroke:#ffffff;stroke-width:1.131371;"/>
    <path clip-path="url(#p836f0b4e73)" d="M 569.31294 319.528955 
L 572.848473 315.993421 
L 576.384007 319.528955 
L 579.919541 315.993421 
L 576.384007 312.457887 
L 579.919541 308.922353 
L 576.384007 305.386819 
L 572.848473 308.922353 
L 569.31294 305.386819 
L 565.777406 308.922353 
L 569.31294 312.457887 
L 565.777406 315.993421 
z
" style="fill:#80b1d3;stroke:#ffffff;stroke-width:1.131371;"/>
    <path clip-path="url(#p836f0b4e73)" d="M 581.810723 318.704518 
L 585.346257 315.168984 
L 588.88179 318.704518 
L 592.417324 315.168984 
L 588.88179 311.63345 
L 592.417324 308.097916 
L 588.88179 304.562382 
L 585.346257 308.097916 
L 581.810723 304.562382 
L 578.275189 308.097916 
L 581.810723 311.63345 
L 578.275189 315.168984 
z
" style="fill:#80b1d3;stroke:#ffffff;stroke-width:1.131371;"/>
    <path clip-path="url(#p836f0b4e73)" d="M 551.449746 411.597844 
L 554.98528 408.06231 
L 558.520814 411.597844 
L 562.056348 408.06231 
L 558.520814 404.526777 
L 562.056348 400.991243 
L 558.520814 397.455709 
L 554.98528 400.991243 
L 551.449746 397.455709 
L 547.914212 400.991243 
L 551.449746 404.526777 
L 547.914212 408.06231 
z
" style="fill:#fb8072;stroke:#ffffff;stroke-width:1.131371;"/>
    <path clip-path="url(#p836f0b4e73)" d="M 268.708166 491.341294 
C 270.583435 491.341294 272.38215 490.596242 273.708166 489.270226 
C 275.034181 487.944211 275.779234 486.145495 275.779234 484.270226 
C 275.779234 482.394957 275.034181 480.596242 273.708166 479.270226 
C 272.38215 477.944211 270.583435 477.199158 268.708166 477.199158 
C 266.832897 477.199158 265.034181 477.944211 263.708166 479.270226 
C 262.38215 480.596242 261.637098 482.394957 261.637098 484.270226 
C 261.637098 486.145495 262.38215 487.944211 263.708166 489.270226 
C 265.034181 490.596242 266.832897 491.341294 268.708166 491.341294 
z
" style="fill:#fb8072;stroke:#ffffff;stroke-width:1.131371;"/>
    <path clip-path="url(#p836f0b4e73)" d="M 373.047305 262.446695 
L 376.582839 258.911161 
L 380.118373 262.446695 
L 383.653907 258.911161 
L 380.118373 255.375627 
L 383.653907 251.840093 
L 380.118373 248.304559 
L 376.582839 251.840093 
L 373.047305 248.304559 
L 369.511771 251.840093 
L 373.047305 255.375627 
L 369.511771 258.911161 
z
" style="fill:#fb8072;stroke:#ffffff;stroke-width:1.131371;"/>
    <path clip-path="url(#p836f0b4e73)" d="M 573.072217 386.855848 
L 576.607751 383.320314 
L 580.143284 386.855848 
L 583.678818 383.320314 
L 580.143284 379.784781 
L 583.678818 376.249247 
L 580.143284 372.713713 
L 576.607751 376.249247 
L 573.072217 372.713713 
L 569.536683 376.249247 
L 573.072217 379.784781 
L 569.536683 383.320314 
z
" style="fill:#fb8072;stroke:#ffffff;stroke-width:1.131371;"/>
    <path clip-path="url(#p836f0b4e73)" d="M 561.723598 324.088429 
L 565.259132 320.552895 
L 568.794666 324.088429 
L 572.3302 320.552895 
L 568.794666 317.017361 
L 572.3302 313.481827 
L 568.794666 309.946293 
L 565.259132 313.481827 
L 561.723598 309.946293 
L 558.188064 313.481827 
L 561.723598 317.017361 
L 558.188064 320.552895 
z
" style="fill:#80b1d3;stroke:#ffffff;stroke-width:1.131371;"/>
    <path clip-path="url(#p836f0b4e73)" d="M 585.80939 308.203949 
C 587.684659 308.203949 589.483374 307.458897 590.80939 306.132882 
C 592.135405 304.806866 592.880458 303.008151 592.880458 301.132882 
C 592.880458 299.257612 592.135405 297.458897 590.80939 296.132882 
C 589.483374 294.806866 587.684659 294.061814 585.80939 294.061814 
C 583.934121 294.061814 582.135405 294.806866 580.80939 296.132882 
C 579.483374 297.458897 578.738322 299.257612 578.738322 301.132882 
C 578.738322 303.008151 579.483374 304.806866 580.80939 306.132882 
C 582.135405 307.458897 583.934121 308.203949 585.80939 308.203949 
z
" style="fill:#80b1d3;stroke:#ffffff;stroke-width:1.131371;"/>
    <path clip-path="url(#p836f0b4e73)" d="M 586.15419 332.052298 
L 589.689724 328.516764 
L 593.225258 332.052298 
L 596.760791 328.516764 
L 593.225258 324.981231 
L 596.760791 321.445697 
L 593.225258 317.910163 
L 589.689724 321.445697 
L 586.15419 317.910163 
L 582.618656 321.445697 
L 586.15419 324.981231 
L 582.618656 328.516764 
z
" style="fill:#80b1d3;stroke:#ffffff;stroke-width:1.131371;"/>
    <path clip-path="url(#p836f0b4e73)" d="M 613.593915 363.714721 
L 617.129449 360.179187 
L 620.664983 363.714721 
L 624.200517 360.179187 
L 620.664983 356.643653 
L 624.200517 353.108119 
L 620.664983 349.572585 
L 617.129449 353.108119 
L 613.593915 349.572585 
L 610.058381 353.108119 
L 613.593915 356.643653 
L 610.058381 360.179187 
z
" style="fill:#80b1d3;stroke:#ffffff;stroke-width:1.131371;"/>
    <path clip-path="url(#p836f0b4e73)" d="M 549.306006 278.520716 
L 552.84154 274.985182 
L 556.377074 278.520716 
L 559.912608 274.985182 
L 556.377074 271.449648 
L 559.912608 267.914114 
L 556.377074 264.37858 
L 552.84154 267.914114 
L 549.306006 264.37858 
L 545.770472 267.914114 
L 549.306006 271.449648 
L 545.770472 274.985182 
z
" style="fill:#80b1d3;stroke:#ffffff;stroke-width:1.131371;"/>
    <path clip-path="url(#p836f0b4e73)" d="M 410.410417 260.488925 
C 412.285686 260.488925 414.084401 259.743872 415.410417 258.417857 
C 416.736432 257.091841 417.481485 255.293126 417.481485 253.417857 
C 417.481485 251.542588 416.736432 249.743872 415.410417 248.417857 
C 414.084401 247.091841 412.285686 246.346789 410.410417 246.346789 
C 408.535148 246.346789 406.736432 247.091841 405.410417 248.417857 
C 404.084401 249.743872 403.339349 251.542588 403.339349 253.417857 
C 403.339349 255.293126 404.084401 257.091841 405.410417 258.417857 
C 406.736432 259.743872 408.535148 260.488925 410.410417 260.488925 
z
" style="fill:#80b1d3;stroke:#ffffff;stroke-width:1.131371;"/>
    <path clip-path="url(#p836f0b4e73)" d="M 618.113512 331.691232 
L 621.649045 328.155698 
L 625.184579 331.691232 
L 628.720113 328.155698 
L 625.184579 324.620164 
L 628.720113 321.08463 
L 625.184579 317.549096 
L 621.649045 321.08463 
L 618.113512 317.549096 
L 614.577978 321.08463 
L 618.113512 324.620164 
L 614.577978 328.155698 
z
" style="fill:#80b1d3;stroke:#ffffff;stroke-width:1.131371;"/>
    <path clip-path="url(#p836f0b4e73)" d="M 553.433481 291.064348 
L 556.969015 287.528814 
L 560.504549 291.064348 
L 564.040083 287.528814 
L 560.504549 283.99328 
L 564.040083 280.457746 
L 560.504549 276.922212 
L 556.969015 280.457746 
L 553.433481 276.922212 
L 549.897947 280.457746 
L 553.433481 283.99328 
L 549.897947 287.528814 
z
" style="fill:#80b1d3;stroke:#ffffff;stroke-width:1.131371;"/>
    <path clip-path="url(#p836f0b4e73)" d="M 525.722276 326.896382 
L 529.25781 323.360848 
L 532.793344 326.896382 
L 536.328878 323.360848 
L 532.793344 319.825314 
L 536.328878 316.28978 
L 532.793344 312.754246 
L 529.25781 316.28978 
L 525.722276 312.754246 
L 522.186742 316.28978 
L 525.722276 319.825314 
L 522.186742 323.360848 
z
" style="fill:#80b1d3;stroke:#ffffff;stroke-width:1.131371;"/>
    <path clip-path="url(#p836f0b4e73)" d="M 599.481987 323.257374 
C 601.357256 323.257374 603.155972 322.512321 604.481987 321.186306 
C 605.808003 319.86029 606.553055 318.061575 606.553055 316.186306 
C 606.553055 314.311037 605.808003 312.512321 604.481987 311.186306 
C 603.155972 309.86029 601.357256 309.115238 599.481987 309.115238 
C 597.606718 309.115238 595.808003 309.86029 594.481987 311.186306 
C 593.155972 312.512321 592.41092 314.311037 592.41092 316.186306 
C 592.41092 318.061575 593.155972 319.86029 594.481987 321.186306 
C 595.808003 322.512321 597.606718 323.257374 599.481987 323.257374 
z
" style="fill:#80b1d3;stroke:#ffffff;stroke-width:1.131371;"/>
    <path clip-path="url(#p836f0b4e73)" d="M 335.565667 276.758151 
L 339.101201 273.222617 
L 342.636735 276.758151 
L 346.172269 273.222617 
L 342.636735 269.687083 
L 346.172269 266.151549 
L 342.636735 262.616015 
L 339.101201 266.151549 
L 335.565667 262.616015 
L 332.030134 266.151549 
L 335.565667 269.687083 
L 332.030134 273.222617 
z
" style="fill:#80b1d3;stroke:#ffffff;stroke-width:1.131371;"/>
    <path clip-path="url(#p836f0b4e73)" d="M 397.954839 347.198234 
L 401.490373 343.6627 
L 405.025907 347.198234 
L 408.561441 343.6627 
L 405.025907 340.127166 
L 408.561441 336.591632 
L 405.025907 333.056098 
L 401.490373 336.591632 
L 397.954839 333.056098 
L 394.419305 336.591632 
L 397.954839 340.127166 
L 394.419305 343.6627 
z
" style="fill:#80b1d3;stroke:#ffffff;stroke-width:1.131371;"/>
    <path clip-path="url(#p836f0b4e73)" d="M 458.35483 194.700621 
L 461.890364 191.165087 
L 465.425898 194.700621 
L 468.961432 191.165087 
L 465.425898 187.629554 
L 468.961432 184.09402 
L 465.425898 180.558486 
L 461.890364 184.09402 
L 458.35483 180.558486 
L 454.819296 184.09402 
L 458.35483 187.629554 
L 454.819296 191.165087 
z
" style="fill:#80b1d3;stroke:#ffffff;stroke-width:1.131371;"/>
    <path clip-path="url(#p836f0b4e73)" d="M 329.496609 256.004396 
C 331.371879 256.004396 333.170594 255.259344 334.496609 253.933328 
C 335.822625 252.607313 336.567677 250.808598 336.567677 248.933328 
C 336.567677 247.058059 335.822625 245.259344 334.496609 243.933328 
C 333.170594 242.607313 331.371879 241.862261 329.496609 241.862261 
C 327.62134 241.862261 325.822625 242.607313 324.496609 243.933328 
C 323.170594 245.259344 322.425542 247.058059 322.425542 248.933328 
C 322.425542 250.808598 323.170594 252.607313 324.496609 253.933328 
C 325.822625 255.259344 327.62134 256.004396 329.496609 256.004396 
z
" style="fill:#80b1d3;stroke:#ffffff;stroke-width:1.131371;"/>
    <path clip-path="url(#p836f0b4e73)" d="M 474.759397 224.9797 
L 478.294931 221.444166 
L 481.830465 224.9797 
L 485.365999 221.444166 
L 481.830465 217.908632 
L 485.365999 214.373098 
L 481.830465 210.837564 
L 478.294931 214.373098 
L 474.759397 210.837564 
L 471.223863 214.373098 
L 474.759397 217.908632 
L 471.223863 221.444166 
z
" style="fill:#80b1d3;stroke:#ffffff;stroke-width:1.131371;"/>
    <path clip-path="url(#p836f0b4e73)" d="M 466.720993 187.39127 
L 470.256527 183.855736 
L 473.792061 187.39127 
L 477.327594 183.855736 
L 473.792061 180.320202 
L 477.327594 176.784668 
L 473.792061 173.249134 
L 470.256527 176.784668 
L 466.720993 173.249134 
L 463.185459 176.784668 
L 466.720993 180.320202 
L 463.185459 183.855736 
z
" style="fill:#80b1d3;stroke:#ffffff;stroke-width:1.131371;"/>
    <path clip-path="url(#p836f0b4e73)" d="M 572.271447 413.266358 
L 575.80698 409.730824 
L 579.342514 413.266358 
L 582.878048 409.730824 
L 579.342514 406.19529 
L 582.878048 402.659756 
L 579.342514 399.124222 
L 575.80698 402.659756 
L 572.271447 399.124222 
L 568.735913 402.659756 
L 572.271447 406.19529 
L 568.735913 409.730824 
z
" style="fill:#80b1d3;stroke:#ffffff;stroke-width:1.131371;"/>
    <path clip-path="url(#p836f0b4e73)" d="M 390.34549 277.119039 
C 392.220759 277.119039 394.019474 276.373986 395.34549 275.047971 
C 396.671505 273.721955 397.416558 271.92324 397.416558 270.047971 
C 397.416558 268.172702 396.671505 266.373986 395.34549 265.047971 
C 394.019474 263.721955 392.220759 262.976903 390.34549 262.976903 
C 388.470221 262.976903 386.671505 263.721955 385.34549 265.047971 
C 384.019474 266.373986 383.274422 268.172702 383.274422 270.047971 
C 383.274422 271.92324 384.019474 273.721955 385.34549 275.047971 
C 386.671505 276.373986 388.470221 277.119039 390.34549 277.119039 
z
" style="fill:#80b1d3;stroke:#ffffff;stroke-width:1.131371;"/>
    <path clip-path="url(#p836f0b4e73)" d="M 487.441952 286.020743 
L 490.977486 282.485209 
L 494.51302 286.020743 
L 498.048554 282.485209 
L 494.51302 278.949675 
L 498.048554 275.414142 
L 494.51302 271.878608 
L 490.977486 275.414142 
L 487.441952 271.878608 
L 483.906418 275.414142 
L 487.441952 278.949675 
L 483.906418 282.485209 
z
" style="fill:#80b1d3;stroke:#ffffff;stroke-width:1.131371;"/>
    <path clip-path="url(#p836f0b4e73)" d="M 562.7035 351.060515 
L 566.239034 347.524981 
L 569.774568 351.060515 
L 573.310102 347.524981 
L 569.774568 343.989447 
L 573.310102 340.453913 
L 569.774568 336.918379 
L 566.239034 340.453913 
L 562.7035 336.918379 
L 559.167967 340.453913 
L 562.7035 343.989447 
L 559.167967 347.524981 
z
" style="fill:#80b1d3;stroke:#ffffff;stroke-width:1.131371;"/>
    <path clip-path="url(#p836f0b4e73)" d="M 574.995403 257.627717 
L 578.530937 254.092183 
L 582.066471 257.627717 
L 585.602005 254.092183 
L 582.066471 250.556649 
L 585.602005 247.021116 
L 582.066471 243.485582 
L 578.530937 247.021116 
L 574.995403 243.485582 
L 571.459869 247.021116 
L 574.995403 250.556649 
L 571.459869 254.092183 
z
" style="fill:#80b1d3;stroke:#ffffff;stroke-width:1.131371;"/>
    <path clip-path="url(#p836f0b4e73)" d="M 405.463942 182.997813 
C 407.339212 182.997813 409.137927 182.25276 410.463942 180.926745 
C 411.789958 179.600729 412.53501 177.802014 412.53501 175.926745 
C 412.53501 174.051476 411.789958 172.25276 410.463942 170.926745 
C 409.137927 169.600729 407.339212 168.855677 405.463942 168.855677 
C 403.588673 168.855677 401.789958 169.600729 400.463942 170.926745 
C 399.137927 172.25276 398.392875 174.051476 398.392875 175.926745 
C 398.392875 177.802014 399.137927 179.600729 400.463942 180.926745 
C 401.789958 182.25276 403.588673 182.997813 405.463942 182.997813 
z
" style="fill:#80b1d3;stroke:#ffffff;stroke-width:1.131371;"/>
    <path clip-path="url(#p836f0b4e73)" d="M 576.397819 265.616952 
L 579.933353 262.081418 
L 583.468887 265.616952 
L 587.004421 262.081418 
L 583.468887 258.545885 
L 587.004421 255.010351 
L 583.468887 251.474817 
L 579.933353 255.010351 
L 576.397819 251.474817 
L 572.862285 255.010351 
L 576.397819 258.545885 
L 572.862285 262.081418 
z
" style="fill:#80b1d3;stroke:#ffffff;stroke-width:1.131371;"/>
    <path clip-path="url(#p836f0b4e73)" d="M 607.1618 362.185515 
L 610.697334 358.649981 
L 614.232868 362.185515 
L 617.768402 358.649981 
L 614.232868 355.114447 
L 617.768402 351.578913 
L 614.232868 348.04338 
L 610.697334 351.578913 
L 607.1618 348.04338 
L 603.626266 351.578913 
L 607.1618 355.114447 
L 603.626266 358.649981 
z
" style="fill:#80b1d3;stroke:#ffffff;stroke-width:1.131371;"/>
    <path clip-path="url(#p836f0b4e73)" d="M 464.114738 187.879851 
L 467.650272 184.344317 
L 471.185806 187.879851 
L 474.72134 184.344317 
L 471.185806 180.808783 
L 474.72134 177.273249 
L 471.185806 173.737715 
L 467.650272 177.273249 
L 464.114738 173.737715 
L 460.579204 177.273249 
L 464.114738 180.808783 
L 460.579204 184.344317 
z
" style="fill:#80b1d3;stroke:#ffffff;stroke-width:1.131371;"/>
    <path clip-path="url(#p836f0b4e73)" d="M 400.325452 226.151595 
C 402.200721 226.151595 403.999436 225.406543 405.325452 224.080528 
C 406.651467 222.754512 407.396519 220.955797 407.396519 219.080528 
C 407.396519 217.205258 406.651467 215.406543 405.325452 214.080528 
C 403.999436 212.754512 402.200721 212.00946 400.325452 212.00946 
C 398.450183 212.00946 396.651467 212.754512 395.325452 214.080528 
C 393.999436 215.406543 393.254384 217.205258 393.254384 219.080528 
C 393.254384 220.955797 393.999436 222.754512 395.325452 224.080528 
C 396.651467 225.406543 398.450183 226.151595 400.325452 226.151595 
z
" style="fill:#80b1d3;stroke:#ffffff;stroke-width:1.131371;"/>
    <path clip-path="url(#p836f0b4e73)" d="M 387.784048 187.638221 
L 391.319582 184.102687 
L 394.855116 187.638221 
L 398.39065 184.102687 
L 394.855116 180.567153 
L 398.39065 177.031619 
L 394.855116 173.496085 
L 391.319582 177.031619 
L 387.784048 173.496085 
L 384.248514 177.031619 
L 387.784048 180.567153 
L 384.248514 184.102687 
z
" style="fill:#80b1d3;stroke:#ffffff;stroke-width:1.131371;"/>
   </g>
   <g id="PathCollection_2"/>
   <g id="PathCollection_3"/>
   <g id="PathCollection_4"/>
   <g id="PathCollection_5"/>
   <g id="matplotlib.axis_1">
    <g id="xtick_1">
     <g id="line2d_1">
      <defs>
       <path d="M 0 0 
L 0 -3.5 
" id="m279a5c3eeb" style="stroke:#000000;stroke-width:0.8;"/>
      </defs>
      <g>
       <use style="stroke:#000000;stroke-width:0.8;" x="117.25181" xlink:href="#m279a5c3eeb" y="630"/>
      </g>
     </g>
     <g id="text_1">
      <!-- 0.6 -->
      <g transform="translate(97.511185 647.815625)scale(0.2 -0.2)">
       <defs>
        <path d="M 52.828125 31.203125 
L 5.5625 31.203125 
L 5.5625 39.40625 
L 52.828125 39.40625 
z
" id="ArialMT-8722"/>
        <path d="M 4.15625 35.296875 
Q 4.15625 48 6.765625 55.734375 
Q 9.375 63.484375 14.515625 67.671875 
Q 19.671875 71.875 27.484375 71.875 
Q 33.25 71.875 37.59375 69.546875 
Q 41.9375 67.234375 44.765625 62.859375 
Q 47.609375 58.5 49.21875 52.21875 
Q 50.828125 45.953125 50.828125 35.296875 
Q 50.828125 22.703125 48.234375 14.96875 
Q 45.65625 7.234375 40.5 3 
Q 35.359375 -1.21875 27.484375 -1.21875 
Q 17.140625 -1.21875 11.234375 6.203125 
Q 4.15625 15.140625 4.15625 35.296875 
z
M 13.1875 35.296875 
Q 13.1875 17.671875 17.3125 11.828125 
Q 21.4375 6 27.484375 6 
Q 33.546875 6 37.671875 11.859375 
Q 41.796875 17.71875 41.796875 35.296875 
Q 41.796875 52.984375 37.671875 58.78125 
Q 33.546875 64.59375 27.390625 64.59375 
Q 21.34375 64.59375 17.71875 59.46875 
Q 13.1875 52.9375 13.1875 35.296875 
z
" id="ArialMT-48"/>
        <path d="M 9.078125 0 
L 9.078125 10.015625 
L 19.09375 10.015625 
L 19.09375 0 
z
" id="ArialMT-46"/>
        <path d="M 49.75 54.046875 
L 41.015625 53.375 
Q 39.84375 58.546875 37.703125 60.890625 
Q 34.125 64.65625 28.90625 64.65625 
Q 24.703125 64.65625 21.53125 62.3125 
Q 17.390625 59.28125 14.984375 53.46875 
Q 12.59375 47.65625 12.5 36.921875 
Q 15.671875 41.75 20.265625 44.09375 
Q 24.859375 46.4375 29.890625 46.4375 
Q 38.671875 46.4375 44.84375 39.96875 
Q 51.03125 33.5 51.03125 23.25 
Q 51.03125 16.5 48.125 10.71875 
Q 45.21875 4.9375 40.140625 1.859375 
Q 35.0625 -1.21875 28.609375 -1.21875 
Q 17.625 -1.21875 10.6875 6.859375 
Q 3.765625 14.9375 3.765625 33.5 
Q 3.765625 54.25 11.421875 63.671875 
Q 18.109375 71.875 29.4375 71.875 
Q 37.890625 71.875 43.28125 67.140625 
Q 48.6875 62.40625 49.75 54.046875 
z
M 13.875 23.1875 
Q 13.875 18.65625 15.796875 14.5 
Q 17.71875 10.359375 21.1875 8.171875 
Q 24.65625 6 28.46875 6 
Q 34.03125 6 38.03125 10.484375 
Q 42.046875 14.984375 42.046875 22.703125 
Q 42.046875 30.125 38.078125 34.390625 
Q 34.125 38.671875 28.125 38.671875 
Q 22.171875 38.671875 18.015625 34.390625 
Q 13.875 30.125 13.875 23.1875 
z
" id="ArialMT-54"/>
       </defs>
       <use xlink:href="#ArialMT-8722"/>
       <use x="58.398438" xlink:href="#ArialMT-48"/>
       <use x="114.013672" xlink:href="#ArialMT-46"/>
       <use x="141.796875" xlink:href="#ArialMT-54"/>
      </g>
     </g>
    </g>
    <g id="xtick_2">
     <g id="line2d_2">
      <defs>
       <path d="M 0 0 
L 0 -6 
" id="md1fecfd12b" style="stroke:#000000;stroke-width:1.25;"/>
      </defs>
      <g>
       <use style="stroke:#000000;stroke-width:1.25;" x="241.035101" xlink:href="#md1fecfd12b" y="630"/>
      </g>
     </g>
     <g id="text_2">
      <!-- 0.4 -->
      <g transform="translate(221.294476 647.815625)scale(0.2 -0.2)">
       <defs>
        <path d="M 32.328125 0 
L 32.328125 17.140625 
L 1.265625 17.140625 
L 1.265625 25.203125 
L 33.9375 71.578125 
L 41.109375 71.578125 
L 41.109375 25.203125 
L 50.78125 25.203125 
L 50.78125 17.140625 
L 41.109375 17.140625 
L 41.109375 0 
z
M 32.328125 25.203125 
L 32.328125 57.46875 
L 9.90625 25.203125 
z
" id="ArialMT-52"/>
       </defs>
       <use xlink:href="#ArialMT-8722"/>
       <use x="58.398438" xlink:href="#ArialMT-48"/>
       <use x="114.013672" xlink:href="#ArialMT-46"/>
       <use x="141.796875" xlink:href="#ArialMT-52"/>
      </g>
     </g>
    </g>
    <g id="xtick_3">
     <g id="line2d_3">
      <g>
       <use style="stroke:#000000;stroke-width:1.25;" x="364.818391" xlink:href="#md1fecfd12b" y="630"/>
      </g>
     </g>
     <g id="text_3">
      <!-- 0.2 -->
      <g transform="translate(345.077766 647.815625)scale(0.2 -0.2)">
       <defs>
        <path d="M 50.34375 8.453125 
L 50.34375 0 
L 3.03125 0 
Q 2.9375 3.171875 4.046875 6.109375 
Q 5.859375 10.9375 9.828125 15.625 
Q 13.8125 20.3125 21.34375 26.46875 
Q 33.015625 36.03125 37.109375 41.625 
Q 41.21875 47.21875 41.21875 52.203125 
Q 41.21875 57.421875 37.46875 61 
Q 33.734375 64.59375 27.734375 64.59375 
Q 21.390625 64.59375 17.578125 60.78125 
Q 13.765625 56.984375 13.71875 50.25 
L 4.6875 51.171875 
Q 5.609375 61.28125 11.65625 66.578125 
Q 17.71875 71.875 27.9375 71.875 
Q 38.234375 71.875 44.234375 66.15625 
Q 50.25 60.453125 50.25 52 
Q 50.25 47.703125 48.484375 43.546875 
Q 46.734375 39.40625 42.65625 34.8125 
Q 38.578125 30.21875 29.109375 22.21875 
Q 21.1875 15.578125 18.9375 13.203125 
Q 16.703125 10.84375 15.234375 8.453125 
z
" id="ArialMT-50"/>
       </defs>
       <use xlink:href="#ArialMT-8722"/>
       <use x="58.398438" xlink:href="#ArialMT-48"/>
       <use x="114.013672" xlink:href="#ArialMT-46"/>
       <use x="141.796875" xlink:href="#ArialMT-50"/>
      </g>
     </g>
    </g>
    <g id="xtick_4">
     <g id="line2d_4">
      <g>
       <use style="stroke:#000000;stroke-width:1.25;" x="488.601682" xlink:href="#md1fecfd12b" y="630"/>
      </g>
     </g>
     <g id="text_4">
      <!-- 0.0 -->
      <g transform="translate(474.701682 647.815625)scale(0.2 -0.2)">
       <use xlink:href="#ArialMT-48"/>
       <use x="55.615234" xlink:href="#ArialMT-46"/>
       <use x="83.398438" xlink:href="#ArialMT-48"/>
      </g>
     </g>
    </g>
    <g id="xtick_5">
     <g id="line2d_5">
      <g>
       <use style="stroke:#000000;stroke-width:1.25;" x="612.384972" xlink:href="#md1fecfd12b" y="630"/>
      </g>
     </g>
     <g id="text_5">
      <!-- 0.2 -->
      <g transform="translate(598.484972 647.815625)scale(0.2 -0.2)">
       <use xlink:href="#ArialMT-48"/>
       <use x="55.615234" xlink:href="#ArialMT-46"/>
       <use x="83.398438" xlink:href="#ArialMT-50"/>
      </g>
     </g>
    </g>
    <g id="text_6">
     <!-- PCO1 (16.3%) -->
     <g transform="translate(271.467188 677.648438)scale(0.3 -0.3)">
      <defs>
       <path d="M 7.71875 0 
L 7.71875 71.578125 
L 34.71875 71.578125 
Q 41.84375 71.578125 45.609375 70.90625 
Q 50.875 70.015625 54.4375 67.546875 
Q 58.015625 65.09375 60.1875 60.640625 
Q 62.359375 56.203125 62.359375 50.875 
Q 62.359375 41.75 56.546875 35.421875 
Q 50.734375 29.109375 35.546875 29.109375 
L 17.1875 29.109375 
L 17.1875 0 
z
M 17.1875 37.546875 
L 35.6875 37.546875 
Q 44.875 37.546875 48.734375 40.96875 
Q 52.59375 44.390625 52.59375 50.59375 
Q 52.59375 55.078125 50.3125 58.265625 
Q 48.046875 61.46875 44.34375 62.5 
Q 41.9375 63.140625 35.5 63.140625 
L 17.1875 63.140625 
z
" id="ArialMT-80"/>
       <path d="M 58.796875 25.09375 
L 68.265625 22.703125 
Q 65.28125 11.03125 57.546875 4.90625 
Q 49.8125 -1.21875 38.625 -1.21875 
Q 27.046875 -1.21875 19.796875 3.484375 
Q 12.546875 8.203125 8.765625 17.140625 
Q 4.984375 26.078125 4.984375 36.328125 
Q 4.984375 47.515625 9.25 55.828125 
Q 13.53125 64.15625 21.40625 68.46875 
Q 29.296875 72.796875 38.765625 72.796875 
Q 49.515625 72.796875 56.828125 67.328125 
Q 64.15625 61.859375 67.046875 51.953125 
L 57.71875 49.75 
Q 55.21875 57.5625 50.484375 61.125 
Q 45.75 64.703125 38.578125 64.703125 
Q 30.328125 64.703125 24.78125 60.734375 
Q 19.234375 56.78125 16.984375 50.109375 
Q 14.75 43.453125 14.75 36.375 
Q 14.75 27.25 17.40625 20.4375 
Q 20.0625 13.625 25.671875 10.25 
Q 31.296875 6.890625 37.84375 6.890625 
Q 45.796875 6.890625 51.3125 11.46875 
Q 56.84375 16.0625 58.796875 25.09375 
z
" id="ArialMT-67"/>
       <path d="M 4.828125 34.859375 
Q 4.828125 52.6875 14.390625 62.765625 
Q 23.96875 72.859375 39.109375 72.859375 
Q 49.03125 72.859375 56.984375 68.109375 
Q 64.9375 63.375 69.109375 54.90625 
Q 73.296875 46.4375 73.296875 35.6875 
Q 73.296875 24.8125 68.890625 16.21875 
Q 64.5 7.625 56.4375 3.203125 
Q 48.390625 -1.21875 39.0625 -1.21875 
Q 28.953125 -1.21875 20.984375 3.65625 
Q 13.03125 8.546875 8.921875 16.984375 
Q 4.828125 25.4375 4.828125 34.859375 
z
M 14.59375 34.71875 
Q 14.59375 21.78125 21.546875 14.328125 
Q 28.515625 6.890625 39.015625 6.890625 
Q 49.703125 6.890625 56.609375 14.40625 
Q 63.53125 21.921875 63.53125 35.75 
Q 63.53125 44.484375 60.578125 51 
Q 57.625 57.515625 51.921875 61.109375 
Q 46.234375 64.703125 39.15625 64.703125 
Q 29.109375 64.703125 21.84375 57.78125 
Q 14.59375 50.875 14.59375 34.71875 
z
" id="ArialMT-79"/>
       <path d="M 37.25 0 
L 28.46875 0 
L 28.46875 56 
Q 25.296875 52.984375 20.140625 49.953125 
Q 14.984375 46.921875 10.890625 45.40625 
L 10.890625 53.90625 
Q 18.265625 57.375 23.78125 62.296875 
Q 29.296875 67.234375 31.59375 71.875 
L 37.25 71.875 
z
" id="ArialMT-49"/>
       <path id="ArialMT-32"/>
       <path d="M 23.390625 -21.046875 
Q 16.109375 -11.859375 11.078125 0.4375 
Q 6.0625 12.75 6.0625 25.921875 
Q 6.0625 37.546875 9.8125 48.1875 
Q 14.203125 60.546875 23.390625 72.796875 
L 29.6875 72.796875 
Q 23.78125 62.640625 21.875 58.296875 
Q 18.890625 51.5625 17.1875 44.234375 
Q 15.09375 35.109375 15.09375 25.875 
Q 15.09375 2.390625 29.6875 -21.046875 
z
" id="ArialMT-40"/>
       <path d="M 4.203125 18.890625 
L 12.984375 20.0625 
Q 14.5 12.59375 18.140625 9.296875 
Q 21.78125 6 27 6 
Q 33.203125 6 37.46875 10.296875 
Q 41.75 14.59375 41.75 20.953125 
Q 41.75 27 37.796875 30.921875 
Q 33.84375 34.859375 27.734375 34.859375 
Q 25.25 34.859375 21.53125 33.890625 
L 22.515625 41.609375 
Q 23.390625 41.5 23.921875 41.5 
Q 29.546875 41.5 34.03125 44.421875 
Q 38.53125 47.359375 38.53125 53.46875 
Q 38.53125 58.296875 35.25 61.46875 
Q 31.984375 64.65625 26.8125 64.65625 
Q 21.6875 64.65625 18.265625 61.421875 
Q 14.84375 58.203125 13.875 51.765625 
L 5.078125 53.328125 
Q 6.6875 62.15625 12.390625 67.015625 
Q 18.109375 71.875 26.609375 71.875 
Q 32.46875 71.875 37.390625 69.359375 
Q 42.328125 66.84375 44.9375 62.5 
Q 47.5625 58.15625 47.5625 53.265625 
Q 47.5625 48.640625 45.0625 44.828125 
Q 42.578125 41.015625 37.703125 38.765625 
Q 44.046875 37.3125 47.5625 32.6875 
Q 51.078125 28.078125 51.078125 21.140625 
Q 51.078125 11.765625 44.234375 5.25 
Q 37.40625 -1.265625 26.953125 -1.265625 
Q 17.53125 -1.265625 11.296875 4.34375 
Q 5.078125 9.96875 4.203125 18.890625 
z
" id="ArialMT-51"/>
       <path d="M 5.8125 54.390625 
Q 5.8125 62.0625 9.671875 67.421875 
Q 13.53125 72.796875 20.84375 72.796875 
Q 27.59375 72.796875 32 67.984375 
Q 36.421875 63.1875 36.421875 53.859375 
Q 36.421875 44.78125 31.953125 39.875 
Q 27.484375 34.96875 20.953125 34.96875 
Q 14.453125 34.96875 10.125 39.796875 
Q 5.8125 44.625 5.8125 54.390625 
z
M 21.09375 66.75 
Q 17.828125 66.75 15.65625 63.90625 
Q 13.484375 61.078125 13.484375 53.515625 
Q 13.484375 46.625 15.671875 43.8125 
Q 17.875 41.015625 21.09375 41.015625 
Q 24.421875 41.015625 26.59375 43.84375 
Q 28.765625 46.6875 28.765625 54.203125 
Q 28.765625 61.140625 26.5625 63.9375 
Q 24.359375 66.75 21.09375 66.75 
z
M 21.140625 -2.640625 
L 60.296875 72.796875 
L 67.4375 72.796875 
L 28.421875 -2.640625 
z
M 52.09375 16.796875 
Q 52.09375 24.515625 55.953125 29.859375 
Q 59.8125 35.203125 67.1875 35.203125 
Q 73.921875 35.203125 78.34375 30.390625 
Q 82.765625 25.59375 82.765625 16.265625 
Q 82.765625 7.171875 78.296875 2.265625 
Q 73.828125 -2.640625 67.234375 -2.640625 
Q 60.75 -2.640625 56.421875 2.21875 
Q 52.09375 7.078125 52.09375 16.796875 
z
M 67.4375 29.15625 
Q 64.109375 29.15625 61.9375 26.3125 
Q 59.765625 23.484375 59.765625 15.921875 
Q 59.765625 9.078125 61.953125 6.25 
Q 64.15625 3.421875 67.390625 3.421875 
Q 70.75 3.421875 72.921875 6.25 
Q 75.09375 9.078125 75.09375 16.609375 
Q 75.09375 23.53125 72.890625 26.34375 
Q 70.703125 29.15625 67.4375 29.15625 
z
" id="ArialMT-37"/>
       <path d="M 12.359375 -21.046875 
L 6.0625 -21.046875 
Q 20.65625 2.390625 20.65625 25.875 
Q 20.65625 35.0625 18.5625 44.09375 
Q 16.890625 51.421875 13.921875 58.15625 
Q 12.015625 62.546875 6.0625 72.796875 
L 12.359375 72.796875 
Q 21.53125 60.546875 25.921875 48.1875 
Q 29.6875 37.546875 29.6875 25.921875 
Q 29.6875 12.75 24.625 0.4375 
Q 19.578125 -11.859375 12.359375 -21.046875 
z
" id="ArialMT-41"/>
      </defs>
      <use xlink:href="#ArialMT-80"/>
      <use x="66.699219" xlink:href="#ArialMT-67"/>
      <use x="138.916016" xlink:href="#ArialMT-79"/>
      <use x="216.699219" xlink:href="#ArialMT-49"/>
      <use x="272.314453" xlink:href="#ArialMT-32"/>
      <use x="300.097656" xlink:href="#ArialMT-40"/>
      <use x="333.398438" xlink:href="#ArialMT-49"/>
      <use x="389.013672" xlink:href="#ArialMT-54"/>
      <use x="444.628906" xlink:href="#ArialMT-46"/>
      <use x="472.412109" xlink:href="#ArialMT-51"/>
      <use x="528.027344" xlink:href="#ArialMT-37"/>
      <use x="616.943359" xlink:href="#ArialMT-41"/>
     </g>
    </g>
   </g>
   <g id="matplotlib.axis_2">
    <g id="ytick_1">
     <g id="line2d_6">
      <defs>
       <path d="M 0 0 
L 3.5 0 
" id="m2173683fab" style="stroke:#000000;stroke-width:0.8;"/>
      </defs>
      <g>
       <use style="stroke:#000000;stroke-width:0.8;" x="90" xlink:href="#m2173683fab" y="608.028912"/>
      </g>
     </g>
     <g id="text_7">
      <!-- 0.4 -->
      <g transform="translate(47.01875 615.186725)scale(0.2 -0.2)">
       <use xlink:href="#ArialMT-8722"/>
       <use x="58.398438" xlink:href="#ArialMT-48"/>
       <use x="114.013672" xlink:href="#ArialMT-46"/>
       <use x="141.796875" xlink:href="#ArialMT-52"/>
      </g>
     </g>
    </g>
    <g id="ytick_2">
     <g id="line2d_7">
      <defs>
       <path d="M 0 0 
L 6 0 
" id="m1973f7b91f" style="stroke:#000000;stroke-width:1.25;"/>
      </defs>
      <g>
       <use style="stroke:#000000;stroke-width:1.25;" x="90" xlink:href="#m1973f7b91f" y="537.445058"/>
      </g>
     </g>
     <g id="text_8">
      <!-- 0.3 -->
      <g transform="translate(47.01875 544.60287)scale(0.2 -0.2)">
       <use xlink:href="#ArialMT-8722"/>
       <use x="58.398438" xlink:href="#ArialMT-48"/>
       <use x="114.013672" xlink:href="#ArialMT-46"/>
       <use x="141.796875" xlink:href="#ArialMT-51"/>
      </g>
     </g>
    </g>
    <g id="ytick_3">
     <g id="line2d_8">
      <g>
       <use style="stroke:#000000;stroke-width:1.25;" x="90" xlink:href="#m1973f7b91f" y="466.861204"/>
      </g>
     </g>
     <g id="text_9">
      <!-- 0.2 -->
      <g transform="translate(47.01875 474.019016)scale(0.2 -0.2)">
       <use xlink:href="#ArialMT-8722"/>
       <use x="58.398438" xlink:href="#ArialMT-48"/>
       <use x="114.013672" xlink:href="#ArialMT-46"/>
       <use x="141.796875" xlink:href="#ArialMT-50"/>
      </g>
     </g>
    </g>
    <g id="ytick_4">
     <g id="line2d_9">
      <g>
       <use style="stroke:#000000;stroke-width:1.25;" x="90" xlink:href="#m1973f7b91f" y="396.27735"/>
      </g>
     </g>
     <g id="text_10">
      <!-- 0.1 -->
      <g transform="translate(47.01875 403.435162)scale(0.2 -0.2)">
       <use xlink:href="#ArialMT-8722"/>
       <use x="58.398438" xlink:href="#ArialMT-48"/>
       <use x="114.013672" xlink:href="#ArialMT-46"/>
       <use x="141.796875" xlink:href="#ArialMT-49"/>
      </g>
     </g>
    </g>
    <g id="ytick_5">
     <g id="line2d_10">
      <g>
       <use style="stroke:#000000;stroke-width:1.25;" x="90" xlink:href="#m1973f7b91f" y="325.693495"/>
      </g>
     </g>
     <g id="text_11">
      <!-- 0.0 -->
      <g transform="translate(58.7 332.851308)scale(0.2 -0.2)">
       <use xlink:href="#ArialMT-48"/>
       <use x="55.615234" xlink:href="#ArialMT-46"/>
       <use x="83.398438" xlink:href="#ArialMT-48"/>
      </g>
     </g>
    </g>
    <g id="ytick_6">
     <g id="line2d_11">
      <g>
       <use style="stroke:#000000;stroke-width:1.25;" x="90" xlink:href="#m1973f7b91f" y="255.109641"/>
      </g>
     </g>
     <g id="text_12">
      <!-- 0.1 -->
      <g transform="translate(58.7 262.267454)scale(0.2 -0.2)">
       <use xlink:href="#ArialMT-48"/>
       <use x="55.615234" xlink:href="#ArialMT-46"/>
       <use x="83.398438" xlink:href="#ArialMT-49"/>
      </g>
     </g>
    </g>
    <g id="ytick_7">
     <g id="line2d_12">
      <g>
       <use style="stroke:#000000;stroke-width:1.25;" x="90" xlink:href="#m1973f7b91f" y="184.525787"/>
      </g>
     </g>
     <g id="text_13">
      <!-- 0.2 -->
      <g transform="translate(58.7 191.6836)scale(0.2 -0.2)">
       <use xlink:href="#ArialMT-48"/>
       <use x="55.615234" xlink:href="#ArialMT-46"/>
       <use x="83.398438" xlink:href="#ArialMT-50"/>
      </g>
     </g>
    </g>
    <g id="ytick_8">
     <g id="line2d_13">
      <g>
       <use style="stroke:#000000;stroke-width:1.25;" x="90" xlink:href="#m1973f7b91f" y="113.941933"/>
      </g>
     </g>
     <g id="text_14">
      <!-- 0.3 -->
      <g transform="translate(58.7 121.099745)scale(0.2 -0.2)">
       <use xlink:href="#ArialMT-48"/>
       <use x="55.615234" xlink:href="#ArialMT-46"/>
       <use x="83.398438" xlink:href="#ArialMT-51"/>
      </g>
     </g>
    </g>
    <g id="text_15">
     <!-- PCO2 (10.4%) -->
     <g transform="translate(36.704687 455.732812)rotate(-90)scale(0.3 -0.3)">
      <use xlink:href="#ArialMT-80"/>
      <use x="66.699219" xlink:href="#ArialMT-67"/>
      <use x="138.916016" xlink:href="#ArialMT-79"/>
      <use x="216.699219" xlink:href="#ArialMT-50"/>
      <use x="272.314453" xlink:href="#ArialMT-32"/>
      <use x="300.097656" xlink:href="#ArialMT-40"/>
      <use x="333.398438" xlink:href="#ArialMT-49"/>
      <use x="389.013672" xlink:href="#ArialMT-48"/>
      <use x="444.628906" xlink:href="#ArialMT-46"/>
      <use x="472.412109" xlink:href="#ArialMT-52"/>
      <use x="528.027344" xlink:href="#ArialMT-37"/>
      <use x="616.943359" xlink:href="#ArialMT-41"/>
     </g>
    </g>
   </g>
   <g id="patch_3">
    <path d="M 90 630 
L 90 86.4 
" style="fill:none;stroke:#000000;stroke-linecap:square;stroke-linejoin:miter;stroke-width:0.8;"/>
   </g>
   <g id="patch_4">
    <path d="M 648 630 
L 648 86.4 
" style="fill:none;stroke:#000000;stroke-linecap:square;stroke-linejoin:miter;stroke-width:0.8;"/>
   </g>
   <g id="patch_5">
    <path d="M 90 630 
L 648 630 
" style="fill:none;stroke:#000000;stroke-linecap:square;stroke-linejoin:miter;stroke-width:0.8;"/>
   </g>
   <g id="patch_6">
    <path d="M 90 86.4 
L 648 86.4 
" style="fill:none;stroke:#000000;stroke-linecap:square;stroke-linejoin:miter;stroke-width:0.8;"/>
   </g>
   <g id="legend_1">
    <g id="patch_7">
     <path d="M 102.6 254.053125 
L 233.235 254.053125 
Q 236.835 254.053125 236.835 250.453125 
L 236.835 99 
Q 236.835 95.4 233.235 95.4 
L 102.6 95.4 
Q 99 95.4 99 99 
L 99 250.453125 
Q 99 254.053125 102.6 254.053125 
z
" style="fill:#ffffff;opacity:0.8;stroke:#cccccc;stroke-linejoin:miter;"/>
    </g>
    <g id="text_16">
     <!-- Group -->
     <g style="fill:#262626;" transform="translate(156.6 115.703438)scale(0.18 -0.18)">
      <defs>
       <path d="M 41.21875 28.078125 
L 41.21875 36.46875 
L 71.53125 36.53125 
L 71.53125 9.96875 
Q 64.546875 4.390625 57.125 1.578125 
Q 49.703125 -1.21875 41.890625 -1.21875 
Q 31.34375 -1.21875 22.71875 3.296875 
Q 14.109375 7.8125 9.71875 16.359375 
Q 5.328125 24.90625 5.328125 35.453125 
Q 5.328125 45.90625 9.6875 54.953125 
Q 14.0625 64.015625 22.265625 68.40625 
Q 30.46875 72.796875 41.15625 72.796875 
Q 48.921875 72.796875 55.1875 70.28125 
Q 61.46875 67.78125 65.03125 63.28125 
Q 68.609375 58.796875 70.453125 51.5625 
L 61.921875 49.21875 
Q 60.296875 54.6875 57.90625 57.8125 
Q 55.515625 60.9375 51.0625 62.8125 
Q 46.625 64.703125 41.21875 64.703125 
Q 34.71875 64.703125 29.984375 62.71875 
Q 25.25 60.75 22.34375 57.515625 
Q 19.4375 54.296875 17.828125 50.4375 
Q 15.09375 43.796875 15.09375 36.03125 
Q 15.09375 26.46875 18.390625 20.015625 
Q 21.6875 13.578125 27.984375 10.453125 
Q 34.28125 7.328125 41.359375 7.328125 
Q 47.515625 7.328125 53.375 9.6875 
Q 59.234375 12.0625 62.25 14.75 
L 62.25 28.078125 
z
" id="ArialMT-71"/>
       <path d="M 6.5 0 
L 6.5 51.859375 
L 14.40625 51.859375 
L 14.40625 44 
Q 17.4375 49.515625 20 51.265625 
Q 22.5625 53.03125 25.640625 53.03125 
Q 30.078125 53.03125 34.671875 50.203125 
L 31.640625 42.046875 
Q 28.421875 43.953125 25.203125 43.953125 
Q 22.3125 43.953125 20.015625 42.21875 
Q 17.71875 40.484375 16.75 37.40625 
Q 15.28125 32.71875 15.28125 27.15625 
L 15.28125 0 
z
" id="ArialMT-114"/>
       <path d="M 3.328125 25.921875 
Q 3.328125 40.328125 11.328125 47.265625 
Q 18.015625 53.03125 27.640625 53.03125 
Q 38.328125 53.03125 45.109375 46.015625 
Q 51.90625 39.015625 51.90625 26.65625 
Q 51.90625 16.65625 48.90625 10.90625 
Q 45.90625 5.171875 40.15625 2 
Q 34.421875 -1.171875 27.640625 -1.171875 
Q 16.75 -1.171875 10.03125 5.8125 
Q 3.328125 12.796875 3.328125 25.921875 
z
M 12.359375 25.921875 
Q 12.359375 15.96875 16.703125 11.015625 
Q 21.046875 6.0625 27.640625 6.0625 
Q 34.1875 6.0625 38.53125 11.03125 
Q 42.875 16.015625 42.875 26.21875 
Q 42.875 35.84375 38.5 40.796875 
Q 34.125 45.75 27.640625 45.75 
Q 21.046875 45.75 16.703125 40.8125 
Q 12.359375 35.890625 12.359375 25.921875 
z
" id="ArialMT-111"/>
       <path d="M 40.578125 0 
L 40.578125 7.625 
Q 34.515625 -1.171875 24.125 -1.171875 
Q 19.53125 -1.171875 15.546875 0.578125 
Q 11.578125 2.34375 9.640625 5 
Q 7.71875 7.671875 6.9375 11.53125 
Q 6.390625 14.109375 6.390625 19.734375 
L 6.390625 51.859375 
L 15.1875 51.859375 
L 15.1875 23.09375 
Q 15.1875 16.21875 15.71875 13.8125 
Q 16.546875 10.359375 19.234375 8.375 
Q 21.921875 6.390625 25.875 6.390625 
Q 29.828125 6.390625 33.296875 8.421875 
Q 36.765625 10.453125 38.203125 13.9375 
Q 39.65625 17.4375 39.65625 24.078125 
L 39.65625 51.859375 
L 48.4375 51.859375 
L 48.4375 0 
z
" id="ArialMT-117"/>
       <path d="M 6.59375 -19.875 
L 6.59375 51.859375 
L 14.59375 51.859375 
L 14.59375 45.125 
Q 17.4375 49.078125 21 51.046875 
Q 24.5625 53.03125 29.640625 53.03125 
Q 36.28125 53.03125 41.359375 49.609375 
Q 46.4375 46.1875 49.015625 39.953125 
Q 51.609375 33.734375 51.609375 26.3125 
Q 51.609375 18.359375 48.75 11.984375 
Q 45.90625 5.609375 40.453125 2.21875 
Q 35.015625 -1.171875 29 -1.171875 
Q 24.609375 -1.171875 21.109375 0.6875 
Q 17.625 2.546875 15.375 5.375 
L 15.375 -19.875 
z
M 14.546875 25.640625 
Q 14.546875 15.625 18.59375 10.84375 
Q 22.65625 6.0625 28.421875 6.0625 
Q 34.28125 6.0625 38.453125 11.015625 
Q 42.625 15.96875 42.625 26.375 
Q 42.625 36.28125 38.546875 41.203125 
Q 34.46875 46.140625 28.8125 46.140625 
Q 23.1875 46.140625 18.859375 40.890625 
Q 14.546875 35.640625 14.546875 25.640625 
z
" id="ArialMT-112"/>
      </defs>
      <use xlink:href="#ArialMT-71"/>
      <use x="77.783203" xlink:href="#ArialMT-114"/>
      <use x="111.083984" xlink:href="#ArialMT-111"/>
      <use x="166.699219" xlink:href="#ArialMT-117"/>
      <use x="222.314453" xlink:href="#ArialMT-112"/>
     </g>
    </g>
    <g id="PathCollection_6">
     <defs>
      <path d="M 0 6 
C 1.591219 6 3.117479 5.367802 4.242641 4.242641 
C 5.367802 3.117479 6 1.591219 6 0 
C 6 -1.591219 5.367802 -3.117479 4.242641 -4.242641 
C 3.117479 -5.367802 1.591219 -6 0 -6 
C -1.591219 -6 -3.117479 -5.367802 -4.242641 -4.242641 
C -5.367802 -3.117479 -6 -1.591219 -6 0 
C -6 1.591219 -5.367802 3.117479 -4.242641 4.242641 
C -3.117479 5.367802 -1.591219 6 0 6 
z
" id="mf407b4c4ab" style="stroke:#fb8072;"/>
     </defs>
     <g>
      <use style="fill:#fb8072;stroke:#fb8072;" x="124.2" xlink:href="#mf407b4c4ab" y="136.44"/>
     </g>
    </g>
    <g id="text_17">
     <!-- AAD -->
     <g style="fill:#262626;" transform="translate(156.6 141.165)scale(0.18 -0.18)">
      <defs>
       <path d="M -0.140625 0 
L 27.34375 71.578125 
L 37.546875 71.578125 
L 66.84375 0 
L 56.0625 0 
L 47.703125 21.6875 
L 17.78125 21.6875 
L 9.90625 0 
z
M 20.515625 29.390625 
L 44.78125 29.390625 
L 37.3125 49.21875 
Q 33.890625 58.25 32.234375 64.0625 
Q 30.859375 57.171875 28.375 50.390625 
z
" id="ArialMT-65"/>
       <path d="M 7.71875 0 
L 7.71875 71.578125 
L 32.375 71.578125 
Q 40.71875 71.578125 45.125 70.5625 
Q 51.265625 69.140625 55.609375 65.4375 
Q 61.28125 60.640625 64.078125 53.1875 
Q 66.890625 45.75 66.890625 36.1875 
Q 66.890625 28.03125 64.984375 21.734375 
Q 63.09375 15.4375 60.109375 11.296875 
Q 57.125 7.171875 53.578125 4.796875 
Q 50.046875 2.4375 45.046875 1.21875 
Q 40.046875 0 33.546875 0 
z
M 17.1875 8.453125 
L 32.46875 8.453125 
Q 39.546875 8.453125 43.578125 9.765625 
Q 47.609375 11.078125 50 13.484375 
Q 53.375 16.84375 55.25 22.53125 
Q 57.125 28.21875 57.125 36.328125 
Q 57.125 47.5625 53.4375 53.59375 
Q 49.75 59.625 44.484375 61.671875 
Q 40.671875 63.140625 32.234375 63.140625 
L 17.1875 63.140625 
z
" id="ArialMT-68"/>
      </defs>
      <use xlink:href="#ArialMT-65"/>
      <use x="66.699219" xlink:href="#ArialMT-65"/>
      <use x="133.398438" xlink:href="#ArialMT-68"/>
     </g>
    </g>
    <g id="PathCollection_7">
     <defs>
      <path d="M 0 6 
C 1.591219 6 3.117479 5.367802 4.242641 4.242641 
C 5.367802 3.117479 6 1.591219 6 0 
C 6 -1.591219 5.367802 -3.117479 4.242641 -4.242641 
C 3.117479 -5.367802 1.591219 -6 0 -6 
C -1.591219 -6 -3.117479 -5.367802 -4.242641 -4.242641 
C -5.367802 -3.117479 -6 -1.591219 -6 0 
C -6 1.591219 -5.367802 3.117479 -4.242641 4.242641 
C -3.117479 5.367802 -1.591219 6 0 6 
z
" id="m6b5d133575" style="stroke:#80b1d3;"/>
     </defs>
     <g>
      <use style="fill:#80b1d3;stroke:#80b1d3;" x="124.2" xlink:href="#m6b5d133575" y="161.901563"/>
     </g>
    </g>
    <g id="text_18">
     <!-- non-AAD -->
     <g style="fill:#262626;" transform="translate(156.6 166.626563)scale(0.18 -0.18)">
      <defs>
       <path d="M 6.59375 0 
L 6.59375 51.859375 
L 14.5 51.859375 
L 14.5 44.484375 
Q 20.21875 53.03125 31 53.03125 
Q 35.6875 53.03125 39.625 51.34375 
Q 43.5625 49.65625 45.515625 46.921875 
Q 47.46875 44.1875 48.25 40.4375 
Q 48.734375 37.984375 48.734375 31.890625 
L 48.734375 0 
L 39.9375 0 
L 39.9375 31.546875 
Q 39.9375 36.921875 38.90625 39.578125 
Q 37.890625 42.234375 35.28125 43.8125 
Q 32.671875 45.40625 29.15625 45.40625 
Q 23.53125 45.40625 19.453125 41.84375 
Q 15.375 38.28125 15.375 28.328125 
L 15.375 0 
z
" id="ArialMT-110"/>
       <path d="M 3.171875 21.484375 
L 3.171875 30.328125 
L 30.171875 30.328125 
L 30.171875 21.484375 
z
" id="ArialMT-45"/>
      </defs>
      <use xlink:href="#ArialMT-110"/>
      <use x="55.615234" xlink:href="#ArialMT-111"/>
      <use x="111.230469" xlink:href="#ArialMT-110"/>
      <use x="166.845703" xlink:href="#ArialMT-45"/>
      <use x="200.146484" xlink:href="#ArialMT-65"/>
      <use x="266.845703" xlink:href="#ArialMT-65"/>
      <use x="333.544922" xlink:href="#ArialMT-68"/>
     </g>
    </g>
    <g id="text_19">
     <!-- Day3 -->
     <g style="fill:#262626;" transform="translate(156.6 192.141563)scale(0.18 -0.18)">
      <defs>
       <path d="M 40.4375 6.390625 
Q 35.546875 2.25 31.03125 0.53125 
Q 26.515625 -1.171875 21.34375 -1.171875 
Q 12.796875 -1.171875 8.203125 3 
Q 3.609375 7.171875 3.609375 13.671875 
Q 3.609375 17.484375 5.34375 20.625 
Q 7.078125 23.78125 9.890625 25.6875 
Q 12.703125 27.59375 16.21875 28.5625 
Q 18.796875 29.25 24.03125 29.890625 
Q 34.671875 31.15625 39.703125 32.90625 
Q 39.75 34.71875 39.75 35.203125 
Q 39.75 40.578125 37.25 42.78125 
Q 33.890625 45.75 27.25 45.75 
Q 21.046875 45.75 18.09375 43.578125 
Q 15.140625 41.40625 13.71875 35.890625 
L 5.125 37.0625 
Q 6.296875 42.578125 8.984375 45.96875 
Q 11.671875 49.359375 16.75 51.1875 
Q 21.828125 53.03125 28.515625 53.03125 
Q 35.15625 53.03125 39.296875 51.46875 
Q 43.453125 49.90625 45.40625 47.53125 
Q 47.359375 45.171875 48.140625 41.546875 
Q 48.578125 39.3125 48.578125 33.453125 
L 48.578125 21.734375 
Q 48.578125 9.46875 49.140625 6.21875 
Q 49.703125 2.984375 51.375 0 
L 42.1875 0 
Q 40.828125 2.734375 40.4375 6.390625 
z
M 39.703125 26.03125 
Q 34.90625 24.078125 25.34375 22.703125 
Q 19.921875 21.921875 17.671875 20.9375 
Q 15.4375 19.96875 14.203125 18.09375 
Q 12.984375 16.21875 12.984375 13.921875 
Q 12.984375 10.40625 15.640625 8.0625 
Q 18.3125 5.71875 23.4375 5.71875 
Q 28.515625 5.71875 32.46875 7.9375 
Q 36.421875 10.15625 38.28125 14.015625 
Q 39.703125 17 39.703125 22.796875 
z
" id="ArialMT-97"/>
       <path d="M 6.203125 -19.96875 
L 5.21875 -11.71875 
Q 8.109375 -12.5 10.25 -12.5 
Q 13.1875 -12.5 14.9375 -11.515625 
Q 16.703125 -10.546875 17.828125 -8.796875 
Q 18.65625 -7.46875 20.515625 -2.25 
Q 20.75 -1.515625 21.296875 -0.09375 
L 1.609375 51.859375 
L 11.078125 51.859375 
L 21.875 21.828125 
Q 23.96875 16.109375 25.640625 9.8125 
Q 27.15625 15.875 29.25 21.625 
L 40.328125 51.859375 
L 49.125 51.859375 
L 29.390625 -0.875 
Q 26.21875 -9.421875 24.46875 -12.640625 
Q 22.125 -17 19.09375 -19.015625 
Q 16.0625 -21.046875 11.859375 -21.046875 
Q 9.328125 -21.046875 6.203125 -19.96875 
z
" id="ArialMT-121"/>
      </defs>
      <use xlink:href="#ArialMT-68"/>
      <use x="72.216797" xlink:href="#ArialMT-97"/>
      <use x="127.832031" xlink:href="#ArialMT-121"/>
      <use x="177.832031" xlink:href="#ArialMT-51"/>
     </g>
    </g>
    <g id="PathCollection_8">
     <defs>
      <path d="M -3 6 
L 0 3 
L 3 6 
L 6 3 
L 3 0 
L 6 -3 
L 3 -6 
L 0 -3 
L -3 -6 
L -6 -3 
L -3 0 
L -6 3 
z
" id="m0d23b54590" style="stroke:#333333;"/>
     </defs>
     <g>
      <use style="fill:#333333;stroke:#333333;" x="124.2" xlink:href="#m0d23b54590" y="213.089063"/>
     </g>
    </g>
    <g id="text_20">
     <!-- non-D3 -->
     <g style="fill:#262626;" transform="translate(156.6 217.814063)scale(0.18 -0.18)">
      <use xlink:href="#ArialMT-110"/>
      <use x="55.615234" xlink:href="#ArialMT-111"/>
      <use x="111.230469" xlink:href="#ArialMT-110"/>
      <use x="166.845703" xlink:href="#ArialMT-45"/>
      <use x="200.146484" xlink:href="#ArialMT-68"/>
      <use x="272.363281" xlink:href="#ArialMT-51"/>
     </g>
    </g>
    <g id="PathCollection_9">
     <defs>
      <path d="M 0 6 
C 1.591219 6 3.117479 5.367802 4.242641 4.242641 
C 5.367802 3.117479 6 1.591219 6 0 
C 6 -1.591219 5.367802 -3.117479 4.242641 -4.242641 
C 3.117479 -5.367802 1.591219 -6 0 -6 
C -1.591219 -6 -3.117479 -5.367802 -4.242641 -4.242641 
C -5.367802 -3.117479 -6 -1.591219 -6 0 
C -6 1.591219 -5.367802 3.117479 -4.242641 4.242641 
C -3.117479 5.367802 -1.591219 6 0 6 
z
" id="m716daf6a2a" style="stroke:#333333;"/>
     </defs>
     <g>
      <use style="fill:#333333;stroke:#333333;" x="124.2" xlink:href="#m716daf6a2a" y="238.550625"/>
     </g>
    </g>
    <g id="text_21">
     <!-- D3 -->
     <g style="fill:#262626;" transform="translate(156.6 243.275625)scale(0.18 -0.18)">
      <use xlink:href="#ArialMT-68"/>
      <use x="72.216797" xlink:href="#ArialMT-51"/>
     </g>
    </g>
   </g>
  </g>
 </g>
 <defs>
  <clipPath id="p836f0b4e73">
   <rect height="543.6" width="558" x="90" y="86.4"/>
  </clipPath>
 </defs>
</svg>
