<?xml version="1.0" encoding="utf-8" standalone="no"?>
<!DOCTYPE svg PUBLIC "-//W3C//DTD SVG 1.1//EN"
  "http://www.w3.org/Graphics/SVG/1.1/DTD/svg11.dtd">
<!-- Created with matplotlib (https://matplotlib.org/) -->
<svg height="720pt" version="1.1" viewBox="0 0 720 720" width="720pt" xmlns="http://www.w3.org/2000/svg" xmlns:xlink="http://www.w3.org/1999/xlink">
 <metadata>
  <rdf:RDF xmlns:cc="http://creativecommons.org/ns#" xmlns:dc="http://purl.org/dc/elements/1.1/" xmlns:rdf="http://www.w3.org/1999/02/22-rdf-syntax-ns#">
   <cc:Work>
    <dc:type rdf:resource="http://purl.org/dc/dcmitype/StillImage"/>
    <dc:date>2021-11-17T13:22:04.730502</dc:date>
    <dc:format>image/svg+xml</dc:format>
    <dc:creator>
     <cc:Agent>
      <dc:title>Matplotlib v3.3.4, https://matplotlib.org/</dc:title>
     </cc:Agent>
    </dc:creator>
   </cc:Work>
  </rdf:RDF>
 </metadata>
 <defs>
  <style type="text/css">*{stroke-linecap:butt;stroke-linejoin:round;}</style>
 </defs>
 <g id="figure_1">
  <g id="patch_1">
   <path d="M 0 720 
L 720 720 
L 720 0 
L 0 0 
z
" style="fill:#ffffff;"/>
  </g>
  <g id="axes_1">
   <g id="patch_2">
    <path d="M 90 630 
L 648 630 
L 648 86.4 
L 90 86.4 
z
" style="fill:#ffffff;"/>
   </g>
   <g id="matplotlib.axis_1">
    <g id="xtick_1">
     <g id="line2d_1">
      <path clip-path="url(#p415322e4b6)" d="M 90 630 
L 90 86.4 
" style="fill:none;stroke:#cccccc;stroke-dasharray:2.96,1.28;stroke-dashoffset:0;stroke-width:0.8;"/>
     </g>
     <g id="line2d_2"/>
     <g id="text_1">
      <!-- 0 -->
      <g style="fill:#262626;" transform="translate(80.546406 657.836563)scale(0.34 -0.34)">
       <defs>
        <path d="M 4.15625 35.296875 
Q 4.15625 48 6.765625 55.734375 
Q 9.375 63.484375 14.515625 67.671875 
Q 19.671875 71.875 27.484375 71.875 
Q 33.25 71.875 37.59375 69.546875 
Q 41.9375 67.234375 44.765625 62.859375 
Q 47.609375 58.5 49.21875 52.21875 
Q 50.828125 45.953125 50.828125 35.296875 
Q 50.828125 22.703125 48.234375 14.96875 
Q 45.65625 7.234375 40.5 3 
Q 35.359375 -1.21875 27.484375 -1.21875 
Q 17.140625 -1.21875 11.234375 6.203125 
Q 4.15625 15.140625 4.15625 35.296875 
z
M 13.1875 35.296875 
Q 13.1875 17.671875 17.3125 11.828125 
Q 21.4375 6 27.484375 6 
Q 33.546875 6 37.671875 11.859375 
Q 41.796875 17.71875 41.796875 35.296875 
Q 41.796875 52.984375 37.671875 58.78125 
Q 33.546875 64.59375 27.390625 64.59375 
Q 21.34375 64.59375 17.71875 59.46875 
Q 13.1875 52.9375 13.1875 35.296875 
z
" id="ArialMT-48"/>
       </defs>
       <use xlink:href="#ArialMT-48"/>
      </g>
     </g>
    </g>
    <g id="xtick_2">
     <g id="line2d_3">
      <path clip-path="url(#p415322e4b6)" d="M 215.393258 630 
L 215.393258 86.4 
" style="fill:none;stroke:#cccccc;stroke-dasharray:2.96,1.28;stroke-dashoffset:0;stroke-width:0.8;"/>
     </g>
     <g id="line2d_4"/>
     <g id="text_2">
      <!-- 4 -->
      <g style="fill:#262626;" transform="translate(205.939665 657.836563)scale(0.34 -0.34)">
       <defs>
        <path d="M 32.328125 0 
L 32.328125 17.140625 
L 1.265625 17.140625 
L 1.265625 25.203125 
L 33.9375 71.578125 
L 41.109375 71.578125 
L 41.109375 25.203125 
L 50.78125 25.203125 
L 50.78125 17.140625 
L 41.109375 17.140625 
L 41.109375 0 
z
M 32.328125 25.203125 
L 32.328125 57.46875 
L 9.90625 25.203125 
z
" id="ArialMT-52"/>
       </defs>
       <use xlink:href="#ArialMT-52"/>
      </g>
     </g>
    </g>
    <g id="xtick_3">
     <g id="line2d_5">
      <path clip-path="url(#p415322e4b6)" d="M 340.786517 630 
L 340.786517 86.4 
" style="fill:none;stroke:#cccccc;stroke-dasharray:2.96,1.28;stroke-dashoffset:0;stroke-width:0.8;"/>
     </g>
     <g id="line2d_6"/>
     <g id="text_3">
      <!-- 8 -->
      <g style="fill:#262626;" transform="translate(331.332923 657.836563)scale(0.34 -0.34)">
       <defs>
        <path d="M 17.671875 38.8125 
Q 12.203125 40.828125 9.5625 44.53125 
Q 6.9375 48.25 6.9375 53.421875 
Q 6.9375 61.234375 12.546875 66.546875 
Q 18.171875 71.875 27.484375 71.875 
Q 36.859375 71.875 42.578125 66.421875 
Q 48.296875 60.984375 48.296875 53.171875 
Q 48.296875 48.1875 45.671875 44.5 
Q 43.0625 40.828125 37.75 38.8125 
Q 44.34375 36.671875 47.78125 31.875 
Q 51.21875 27.09375 51.21875 20.453125 
Q 51.21875 11.28125 44.71875 5.03125 
Q 38.234375 -1.21875 27.640625 -1.21875 
Q 17.046875 -1.21875 10.546875 5.046875 
Q 4.046875 11.328125 4.046875 20.703125 
Q 4.046875 27.6875 7.59375 32.390625 
Q 11.140625 37.109375 17.671875 38.8125 
z
M 15.921875 53.71875 
Q 15.921875 48.640625 19.1875 45.40625 
Q 22.46875 42.1875 27.6875 42.1875 
Q 32.765625 42.1875 36.015625 45.375 
Q 39.265625 48.578125 39.265625 53.21875 
Q 39.265625 58.0625 35.90625 61.359375 
Q 32.5625 64.65625 27.59375 64.65625 
Q 22.5625 64.65625 19.234375 61.421875 
Q 15.921875 58.203125 15.921875 53.71875 
z
M 13.09375 20.65625 
Q 13.09375 16.890625 14.875 13.375 
Q 16.65625 9.859375 20.171875 7.921875 
Q 23.6875 6 27.734375 6 
Q 34.03125 6 38.125 10.046875 
Q 42.234375 14.109375 42.234375 20.359375 
Q 42.234375 26.703125 38.015625 30.859375 
Q 33.796875 35.015625 27.4375 35.015625 
Q 21.234375 35.015625 17.15625 30.90625 
Q 13.09375 26.8125 13.09375 20.65625 
z
" id="ArialMT-56"/>
       </defs>
       <use xlink:href="#ArialMT-56"/>
      </g>
     </g>
    </g>
    <g id="xtick_4">
     <g id="line2d_7">
      <path clip-path="url(#p415322e4b6)" d="M 466.179775 630 
L 466.179775 86.4 
" style="fill:none;stroke:#cccccc;stroke-dasharray:2.96,1.28;stroke-dashoffset:0;stroke-width:0.8;"/>
     </g>
     <g id="line2d_8"/>
     <g id="text_4">
      <!-- 12 -->
      <g style="fill:#262626;" transform="translate(447.272588 657.836563)scale(0.34 -0.34)">
       <defs>
        <path d="M 37.25 0 
L 28.46875 0 
L 28.46875 56 
Q 25.296875 52.984375 20.140625 49.953125 
Q 14.984375 46.921875 10.890625 45.40625 
L 10.890625 53.90625 
Q 18.265625 57.375 23.78125 62.296875 
Q 29.296875 67.234375 31.59375 71.875 
L 37.25 71.875 
z
" id="ArialMT-49"/>
        <path d="M 50.34375 8.453125 
L 50.34375 0 
L 3.03125 0 
Q 2.9375 3.171875 4.046875 6.109375 
Q 5.859375 10.9375 9.828125 15.625 
Q 13.8125 20.3125 21.34375 26.46875 
Q 33.015625 36.03125 37.109375 41.625 
Q 41.21875 47.21875 41.21875 52.203125 
Q 41.21875 57.421875 37.46875 61 
Q 33.734375 64.59375 27.734375 64.59375 
Q 21.390625 64.59375 17.578125 60.78125 
Q 13.765625 56.984375 13.71875 50.25 
L 4.6875 51.171875 
Q 5.609375 61.28125 11.65625 66.578125 
Q 17.71875 71.875 27.9375 71.875 
Q 38.234375 71.875 44.234375 66.15625 
Q 50.25 60.453125 50.25 52 
Q 50.25 47.703125 48.484375 43.546875 
Q 46.734375 39.40625 42.65625 34.8125 
Q 38.578125 30.21875 29.109375 22.21875 
Q 21.1875 15.578125 18.9375 13.203125 
Q 16.703125 10.84375 15.234375 8.453125 
z
" id="ArialMT-50"/>
       </defs>
       <use xlink:href="#ArialMT-49"/>
       <use x="55.615234" xlink:href="#ArialMT-50"/>
      </g>
     </g>
    </g>
    <g id="xtick_5">
     <g id="line2d_9">
      <path clip-path="url(#p415322e4b6)" d="M 591.573034 630 
L 591.573034 86.4 
" style="fill:none;stroke:#cccccc;stroke-dasharray:2.96,1.28;stroke-dashoffset:0;stroke-width:0.8;"/>
     </g>
     <g id="line2d_10"/>
     <g id="text_5">
      <!-- 16 -->
      <g style="fill:#262626;" transform="translate(572.665846 657.836563)scale(0.34 -0.34)">
       <defs>
        <path d="M 49.75 54.046875 
L 41.015625 53.375 
Q 39.84375 58.546875 37.703125 60.890625 
Q 34.125 64.65625 28.90625 64.65625 
Q 24.703125 64.65625 21.53125 62.3125 
Q 17.390625 59.28125 14.984375 53.46875 
Q 12.59375 47.65625 12.5 36.921875 
Q 15.671875 41.75 20.265625 44.09375 
Q 24.859375 46.4375 29.890625 46.4375 
Q 38.671875 46.4375 44.84375 39.96875 
Q 51.03125 33.5 51.03125 23.25 
Q 51.03125 16.5 48.125 10.71875 
Q 45.21875 4.9375 40.140625 1.859375 
Q 35.0625 -1.21875 28.609375 -1.21875 
Q 17.625 -1.21875 10.6875 6.859375 
Q 3.765625 14.9375 3.765625 33.5 
Q 3.765625 54.25 11.421875 63.671875 
Q 18.109375 71.875 29.4375 71.875 
Q 37.890625 71.875 43.28125 67.140625 
Q 48.6875 62.40625 49.75 54.046875 
z
M 13.875 23.1875 
Q 13.875 18.65625 15.796875 14.5 
Q 17.71875 10.359375 21.1875 8.171875 
Q 24.65625 6 28.46875 6 
Q 34.03125 6 38.03125 10.484375 
Q 42.046875 14.984375 42.046875 22.703125 
Q 42.046875 30.125 38.078125 34.390625 
Q 34.125 38.671875 28.125 38.671875 
Q 22.171875 38.671875 18.015625 34.390625 
Q 13.875 30.125 13.875 23.1875 
z
" id="ArialMT-54"/>
       </defs>
       <use xlink:href="#ArialMT-49"/>
       <use x="55.615234" xlink:href="#ArialMT-54"/>
      </g>
     </g>
    </g>
    <g id="text_6">
     <!-- Total number of episodes -->
     <g style="fill:#262626;" transform="translate(179.075469 693.345)scale(0.34 -0.34)">
      <defs>
       <path d="M 25.921875 0 
L 25.921875 63.140625 
L 2.34375 63.140625 
L 2.34375 71.578125 
L 59.078125 71.578125 
L 59.078125 63.140625 
L 35.40625 63.140625 
L 35.40625 0 
z
" id="ArialMT-84"/>
       <path d="M 3.328125 25.921875 
Q 3.328125 40.328125 11.328125 47.265625 
Q 18.015625 53.03125 27.640625 53.03125 
Q 38.328125 53.03125 45.109375 46.015625 
Q 51.90625 39.015625 51.90625 26.65625 
Q 51.90625 16.65625 48.90625 10.90625 
Q 45.90625 5.171875 40.15625 2 
Q 34.421875 -1.171875 27.640625 -1.171875 
Q 16.75 -1.171875 10.03125 5.8125 
Q 3.328125 12.796875 3.328125 25.921875 
z
M 12.359375 25.921875 
Q 12.359375 15.96875 16.703125 11.015625 
Q 21.046875 6.0625 27.640625 6.0625 
Q 34.1875 6.0625 38.53125 11.03125 
Q 42.875 16.015625 42.875 26.21875 
Q 42.875 35.84375 38.5 40.796875 
Q 34.125 45.75 27.640625 45.75 
Q 21.046875 45.75 16.703125 40.8125 
Q 12.359375 35.890625 12.359375 25.921875 
z
" id="ArialMT-111"/>
       <path d="M 25.78125 7.859375 
L 27.046875 0.09375 
Q 23.34375 -0.6875 20.40625 -0.6875 
Q 15.625 -0.6875 12.984375 0.828125 
Q 10.359375 2.34375 9.28125 4.8125 
Q 8.203125 7.28125 8.203125 15.1875 
L 8.203125 45.015625 
L 1.765625 45.015625 
L 1.765625 51.859375 
L 8.203125 51.859375 
L 8.203125 64.703125 
L 16.9375 69.96875 
L 16.9375 51.859375 
L 25.78125 51.859375 
L 25.78125 45.015625 
L 16.9375 45.015625 
L 16.9375 14.703125 
Q 16.9375 10.9375 17.40625 9.859375 
Q 17.875 8.796875 18.921875 8.15625 
Q 19.96875 7.515625 21.921875 7.515625 
Q 23.390625 7.515625 25.78125 7.859375 
z
" id="ArialMT-116"/>
       <path d="M 40.4375 6.390625 
Q 35.546875 2.25 31.03125 0.53125 
Q 26.515625 -1.171875 21.34375 -1.171875 
Q 12.796875 -1.171875 8.203125 3 
Q 3.609375 7.171875 3.609375 13.671875 
Q 3.609375 17.484375 5.34375 20.625 
Q 7.078125 23.78125 9.890625 25.6875 
Q 12.703125 27.59375 16.21875 28.5625 
Q 18.796875 29.25 24.03125 29.890625 
Q 34.671875 31.15625 39.703125 32.90625 
Q 39.75 34.71875 39.75 35.203125 
Q 39.75 40.578125 37.25 42.78125 
Q 33.890625 45.75 27.25 45.75 
Q 21.046875 45.75 18.09375 43.578125 
Q 15.140625 41.40625 13.71875 35.890625 
L 5.125 37.0625 
Q 6.296875 42.578125 8.984375 45.96875 
Q 11.671875 49.359375 16.75 51.1875 
Q 21.828125 53.03125 28.515625 53.03125 
Q 35.15625 53.03125 39.296875 51.46875 
Q 43.453125 49.90625 45.40625 47.53125 
Q 47.359375 45.171875 48.140625 41.546875 
Q 48.578125 39.3125 48.578125 33.453125 
L 48.578125 21.734375 
Q 48.578125 9.46875 49.140625 6.21875 
Q 49.703125 2.984375 51.375 0 
L 42.1875 0 
Q 40.828125 2.734375 40.4375 6.390625 
z
M 39.703125 26.03125 
Q 34.90625 24.078125 25.34375 22.703125 
Q 19.921875 21.921875 17.671875 20.9375 
Q 15.4375 19.96875 14.203125 18.09375 
Q 12.984375 16.21875 12.984375 13.921875 
Q 12.984375 10.40625 15.640625 8.0625 
Q 18.3125 5.71875 23.4375 5.71875 
Q 28.515625 5.71875 32.46875 7.9375 
Q 36.421875 10.15625 38.28125 14.015625 
Q 39.703125 17 39.703125 22.796875 
z
" id="ArialMT-97"/>
       <path d="M 6.390625 0 
L 6.390625 71.578125 
L 15.1875 71.578125 
L 15.1875 0 
z
" id="ArialMT-108"/>
       <path id="ArialMT-32"/>
       <path d="M 6.59375 0 
L 6.59375 51.859375 
L 14.5 51.859375 
L 14.5 44.484375 
Q 20.21875 53.03125 31 53.03125 
Q 35.6875 53.03125 39.625 51.34375 
Q 43.5625 49.65625 45.515625 46.921875 
Q 47.46875 44.1875 48.25 40.4375 
Q 48.734375 37.984375 48.734375 31.890625 
L 48.734375 0 
L 39.9375 0 
L 39.9375 31.546875 
Q 39.9375 36.921875 38.90625 39.578125 
Q 37.890625 42.234375 35.28125 43.8125 
Q 32.671875 45.40625 29.15625 45.40625 
Q 23.53125 45.40625 19.453125 41.84375 
Q 15.375 38.28125 15.375 28.328125 
L 15.375 0 
z
" id="ArialMT-110"/>
       <path d="M 40.578125 0 
L 40.578125 7.625 
Q 34.515625 -1.171875 24.125 -1.171875 
Q 19.53125 -1.171875 15.546875 0.578125 
Q 11.578125 2.34375 9.640625 5 
Q 7.71875 7.671875 6.9375 11.53125 
Q 6.390625 14.109375 6.390625 19.734375 
L 6.390625 51.859375 
L 15.1875 51.859375 
L 15.1875 23.09375 
Q 15.1875 16.21875 15.71875 13.8125 
Q 16.546875 10.359375 19.234375 8.375 
Q 21.921875 6.390625 25.875 6.390625 
Q 29.828125 6.390625 33.296875 8.421875 
Q 36.765625 10.453125 38.203125 13.9375 
Q 39.65625 17.4375 39.65625 24.078125 
L 39.65625 51.859375 
L 48.4375 51.859375 
L 48.4375 0 
z
" id="ArialMT-117"/>
       <path d="M 6.59375 0 
L 6.59375 51.859375 
L 14.453125 51.859375 
L 14.453125 44.578125 
Q 16.890625 48.390625 20.9375 50.703125 
Q 25 53.03125 30.171875 53.03125 
Q 35.9375 53.03125 39.625 50.640625 
Q 43.3125 48.25 44.828125 43.953125 
Q 50.984375 53.03125 60.84375 53.03125 
Q 68.5625 53.03125 72.703125 48.75 
Q 76.859375 44.484375 76.859375 35.59375 
L 76.859375 0 
L 68.109375 0 
L 68.109375 32.671875 
Q 68.109375 37.9375 67.25 40.25 
Q 66.40625 42.578125 64.15625 43.984375 
Q 61.921875 45.40625 58.890625 45.40625 
Q 53.421875 45.40625 49.796875 41.765625 
Q 46.1875 38.140625 46.1875 30.125 
L 46.1875 0 
L 37.40625 0 
L 37.40625 33.6875 
Q 37.40625 39.546875 35.25 42.46875 
Q 33.109375 45.40625 28.21875 45.40625 
Q 24.515625 45.40625 21.359375 43.453125 
Q 18.21875 41.5 16.796875 37.734375 
Q 15.375 33.984375 15.375 26.90625 
L 15.375 0 
z
" id="ArialMT-109"/>
       <path d="M 14.703125 0 
L 6.546875 0 
L 6.546875 71.578125 
L 15.328125 71.578125 
L 15.328125 46.046875 
Q 20.90625 53.03125 29.546875 53.03125 
Q 34.328125 53.03125 38.59375 51.09375 
Q 42.875 49.171875 45.625 45.671875 
Q 48.390625 42.1875 49.953125 37.25 
Q 51.515625 32.328125 51.515625 26.703125 
Q 51.515625 13.375 44.921875 6.09375 
Q 38.328125 -1.171875 29.109375 -1.171875 
Q 19.921875 -1.171875 14.703125 6.5 
z
M 14.59375 26.3125 
Q 14.59375 17 17.140625 12.84375 
Q 21.296875 6.0625 28.375 6.0625 
Q 34.125 6.0625 38.328125 11.0625 
Q 42.53125 16.0625 42.53125 25.984375 
Q 42.53125 36.140625 38.5 40.96875 
Q 34.46875 45.796875 28.765625 45.796875 
Q 23 45.796875 18.796875 40.796875 
Q 14.59375 35.796875 14.59375 26.3125 
z
" id="ArialMT-98"/>
       <path d="M 42.09375 16.703125 
L 51.171875 15.578125 
Q 49.03125 7.625 43.21875 3.21875 
Q 37.40625 -1.171875 28.375 -1.171875 
Q 17 -1.171875 10.328125 5.828125 
Q 3.65625 12.84375 3.65625 25.484375 
Q 3.65625 38.578125 10.390625 45.796875 
Q 17.140625 53.03125 27.875 53.03125 
Q 38.28125 53.03125 44.875 45.953125 
Q 51.46875 38.875 51.46875 26.03125 
Q 51.46875 25.25 51.421875 23.6875 
L 12.75 23.6875 
Q 13.234375 15.140625 17.578125 10.59375 
Q 21.921875 6.0625 28.421875 6.0625 
Q 33.25 6.0625 36.671875 8.59375 
Q 40.09375 11.140625 42.09375 16.703125 
z
M 13.234375 30.90625 
L 42.1875 30.90625 
Q 41.609375 37.453125 38.875 40.71875 
Q 34.671875 45.796875 27.984375 45.796875 
Q 21.921875 45.796875 17.796875 41.75 
Q 13.671875 37.703125 13.234375 30.90625 
z
" id="ArialMT-101"/>
       <path d="M 6.5 0 
L 6.5 51.859375 
L 14.40625 51.859375 
L 14.40625 44 
Q 17.4375 49.515625 20 51.265625 
Q 22.5625 53.03125 25.640625 53.03125 
Q 30.078125 53.03125 34.671875 50.203125 
L 31.640625 42.046875 
Q 28.421875 43.953125 25.203125 43.953125 
Q 22.3125 43.953125 20.015625 42.21875 
Q 17.71875 40.484375 16.75 37.40625 
Q 15.28125 32.71875 15.28125 27.15625 
L 15.28125 0 
z
" id="ArialMT-114"/>
       <path d="M 8.6875 0 
L 8.6875 45.015625 
L 0.921875 45.015625 
L 0.921875 51.859375 
L 8.6875 51.859375 
L 8.6875 57.375 
Q 8.6875 62.59375 9.625 65.140625 
Q 10.890625 68.5625 14.078125 70.671875 
Q 17.28125 72.796875 23.046875 72.796875 
Q 26.765625 72.796875 31.25 71.921875 
L 29.9375 64.265625 
Q 27.203125 64.75 24.75 64.75 
Q 20.75 64.75 19.09375 63.03125 
Q 17.4375 61.328125 17.4375 56.640625 
L 17.4375 51.859375 
L 27.546875 51.859375 
L 27.546875 45.015625 
L 17.4375 45.015625 
L 17.4375 0 
z
" id="ArialMT-102"/>
       <path d="M 6.59375 -19.875 
L 6.59375 51.859375 
L 14.59375 51.859375 
L 14.59375 45.125 
Q 17.4375 49.078125 21 51.046875 
Q 24.5625 53.03125 29.640625 53.03125 
Q 36.28125 53.03125 41.359375 49.609375 
Q 46.4375 46.1875 49.015625 39.953125 
Q 51.609375 33.734375 51.609375 26.3125 
Q 51.609375 18.359375 48.75 11.984375 
Q 45.90625 5.609375 40.453125 2.21875 
Q 35.015625 -1.171875 29 -1.171875 
Q 24.609375 -1.171875 21.109375 0.6875 
Q 17.625 2.546875 15.375 5.375 
L 15.375 -19.875 
z
M 14.546875 25.640625 
Q 14.546875 15.625 18.59375 10.84375 
Q 22.65625 6.0625 28.421875 6.0625 
Q 34.28125 6.0625 38.453125 11.015625 
Q 42.625 15.96875 42.625 26.375 
Q 42.625 36.28125 38.546875 41.203125 
Q 34.46875 46.140625 28.8125 46.140625 
Q 23.1875 46.140625 18.859375 40.890625 
Q 14.546875 35.640625 14.546875 25.640625 
z
" id="ArialMT-112"/>
       <path d="M 6.640625 61.46875 
L 6.640625 71.578125 
L 15.4375 71.578125 
L 15.4375 61.46875 
z
M 6.640625 0 
L 6.640625 51.859375 
L 15.4375 51.859375 
L 15.4375 0 
z
" id="ArialMT-105"/>
       <path d="M 3.078125 15.484375 
L 11.765625 16.84375 
Q 12.5 11.625 15.84375 8.84375 
Q 19.1875 6.0625 25.203125 6.0625 
Q 31.25 6.0625 34.171875 8.515625 
Q 37.109375 10.984375 37.109375 14.3125 
Q 37.109375 17.28125 34.515625 19 
Q 32.71875 20.171875 25.53125 21.96875 
Q 15.875 24.421875 12.140625 26.203125 
Q 8.40625 27.984375 6.46875 31.125 
Q 4.546875 34.28125 4.546875 38.09375 
Q 4.546875 41.546875 6.125 44.5 
Q 7.71875 47.46875 10.453125 49.421875 
Q 12.5 50.921875 16.03125 51.96875 
Q 19.578125 53.03125 23.640625 53.03125 
Q 29.734375 53.03125 34.34375 51.265625 
Q 38.96875 49.515625 41.15625 46.5 
Q 43.359375 43.5 44.1875 38.484375 
L 35.59375 37.3125 
Q 35.015625 41.3125 32.203125 43.546875 
Q 29.390625 45.796875 24.265625 45.796875 
Q 18.21875 45.796875 15.625 43.796875 
Q 13.03125 41.796875 13.03125 39.109375 
Q 13.03125 37.40625 14.109375 36.03125 
Q 15.1875 34.625 17.484375 33.6875 
Q 18.796875 33.203125 25.25 31.453125 
Q 34.578125 28.953125 38.25 27.359375 
Q 41.9375 25.78125 44.03125 22.75 
Q 46.140625 19.734375 46.140625 15.234375 
Q 46.140625 10.84375 43.578125 6.953125 
Q 41.015625 3.078125 36.171875 0.953125 
Q 31.34375 -1.171875 25.25 -1.171875 
Q 15.140625 -1.171875 9.84375 3.03125 
Q 4.546875 7.234375 3.078125 15.484375 
z
" id="ArialMT-115"/>
       <path d="M 40.234375 0 
L 40.234375 6.546875 
Q 35.296875 -1.171875 25.734375 -1.171875 
Q 19.53125 -1.171875 14.328125 2.25 
Q 9.125 5.671875 6.265625 11.796875 
Q 3.421875 17.921875 3.421875 25.875 
Q 3.421875 33.640625 6 39.96875 
Q 8.59375 46.296875 13.765625 49.65625 
Q 18.953125 53.03125 25.34375 53.03125 
Q 30.03125 53.03125 33.6875 51.046875 
Q 37.359375 49.078125 39.65625 45.90625 
L 39.65625 71.578125 
L 48.390625 71.578125 
L 48.390625 0 
z
M 12.453125 25.875 
Q 12.453125 15.921875 16.640625 10.984375 
Q 20.84375 6.0625 26.5625 6.0625 
Q 32.328125 6.0625 36.34375 10.765625 
Q 40.375 15.484375 40.375 25.140625 
Q 40.375 35.796875 36.265625 40.765625 
Q 32.171875 45.75 26.171875 45.75 
Q 20.3125 45.75 16.375 40.96875 
Q 12.453125 36.1875 12.453125 25.875 
z
" id="ArialMT-100"/>
      </defs>
      <use xlink:href="#ArialMT-84"/>
      <use x="49.958984" xlink:href="#ArialMT-111"/>
      <use x="105.574219" xlink:href="#ArialMT-116"/>
      <use x="133.357422" xlink:href="#ArialMT-97"/>
      <use x="188.972656" xlink:href="#ArialMT-108"/>
      <use x="211.189453" xlink:href="#ArialMT-32"/>
      <use x="238.972656" xlink:href="#ArialMT-110"/>
      <use x="294.587891" xlink:href="#ArialMT-117"/>
      <use x="350.203125" xlink:href="#ArialMT-109"/>
      <use x="433.503906" xlink:href="#ArialMT-98"/>
      <use x="489.119141" xlink:href="#ArialMT-101"/>
      <use x="544.734375" xlink:href="#ArialMT-114"/>
      <use x="578.035156" xlink:href="#ArialMT-32"/>
      <use x="605.818359" xlink:href="#ArialMT-111"/>
      <use x="661.433594" xlink:href="#ArialMT-102"/>
      <use x="689.216797" xlink:href="#ArialMT-32"/>
      <use x="717" xlink:href="#ArialMT-101"/>
      <use x="772.615234" xlink:href="#ArialMT-112"/>
      <use x="828.230469" xlink:href="#ArialMT-105"/>
      <use x="850.447266" xlink:href="#ArialMT-115"/>
      <use x="900.447266" xlink:href="#ArialMT-111"/>
      <use x="956.0625" xlink:href="#ArialMT-100"/>
      <use x="1011.677734" xlink:href="#ArialMT-101"/>
      <use x="1067.292969" xlink:href="#ArialMT-115"/>
     </g>
    </g>
   </g>
   <g id="matplotlib.axis_2">
    <g id="ytick_1">
     <g id="line2d_11">
      <path clip-path="url(#p415322e4b6)" d="M 90 630 
L 648 630 
" style="fill:none;stroke:#cccccc;stroke-dasharray:2.96,1.28;stroke-dashoffset:0;stroke-width:0.8;"/>
     </g>
     <g id="line2d_12"/>
     <g id="text_7">
      <!-- 1 -->
      <g style="fill:#262626;" transform="translate(67.592812 642.168281)scale(0.34 -0.34)">
       <use xlink:href="#ArialMT-49"/>
      </g>
     </g>
    </g>
    <g id="ytick_2">
     <g id="line2d_13">
      <path clip-path="url(#p415322e4b6)" d="M 90 543.024 
L 648 543.024 
" style="fill:none;stroke:#cccccc;stroke-dasharray:2.96,1.28;stroke-dashoffset:0;stroke-width:0.8;"/>
     </g>
     <g id="line2d_14"/>
     <g id="text_8">
      <!-- 2 -->
      <g style="fill:#262626;" transform="translate(67.592812 555.192281)scale(0.34 -0.34)">
       <use xlink:href="#ArialMT-50"/>
      </g>
     </g>
    </g>
    <g id="ytick_3">
     <g id="line2d_15">
      <path clip-path="url(#p415322e4b6)" d="M 90 456.048 
L 648 456.048 
" style="fill:none;stroke:#cccccc;stroke-dasharray:2.96,1.28;stroke-dashoffset:0;stroke-width:0.8;"/>
     </g>
     <g id="line2d_16"/>
     <g id="text_9">
      <!-- 3 -->
      <g style="fill:#262626;" transform="translate(67.592812 468.216281)scale(0.34 -0.34)">
       <defs>
        <path d="M 4.203125 18.890625 
L 12.984375 20.0625 
Q 14.5 12.59375 18.140625 9.296875 
Q 21.78125 6 27 6 
Q 33.203125 6 37.46875 10.296875 
Q 41.75 14.59375 41.75 20.953125 
Q 41.75 27 37.796875 30.921875 
Q 33.84375 34.859375 27.734375 34.859375 
Q 25.25 34.859375 21.53125 33.890625 
L 22.515625 41.609375 
Q 23.390625 41.5 23.921875 41.5 
Q 29.546875 41.5 34.03125 44.421875 
Q 38.53125 47.359375 38.53125 53.46875 
Q 38.53125 58.296875 35.25 61.46875 
Q 31.984375 64.65625 26.8125 64.65625 
Q 21.6875 64.65625 18.265625 61.421875 
Q 14.84375 58.203125 13.875 51.765625 
L 5.078125 53.328125 
Q 6.6875 62.15625 12.390625 67.015625 
Q 18.109375 71.875 26.609375 71.875 
Q 32.46875 71.875 37.390625 69.359375 
Q 42.328125 66.84375 44.9375 62.5 
Q 47.5625 58.15625 47.5625 53.265625 
Q 47.5625 48.640625 45.0625 44.828125 
Q 42.578125 41.015625 37.703125 38.765625 
Q 44.046875 37.3125 47.5625 32.6875 
Q 51.078125 28.078125 51.078125 21.140625 
Q 51.078125 11.765625 44.234375 5.25 
Q 37.40625 -1.265625 26.953125 -1.265625 
Q 17.53125 -1.265625 11.296875 4.34375 
Q 5.078125 9.96875 4.203125 18.890625 
z
" id="ArialMT-51"/>
       </defs>
       <use xlink:href="#ArialMT-51"/>
      </g>
     </g>
    </g>
    <g id="ytick_4">
     <g id="line2d_17">
      <path clip-path="url(#p415322e4b6)" d="M 90 369.072 
L 648 369.072 
" style="fill:none;stroke:#cccccc;stroke-dasharray:2.96,1.28;stroke-dashoffset:0;stroke-width:0.8;"/>
     </g>
     <g id="line2d_18"/>
     <g id="text_10">
      <!-- 4 -->
      <g style="fill:#262626;" transform="translate(67.592812 381.240281)scale(0.34 -0.34)">
       <use xlink:href="#ArialMT-52"/>
      </g>
     </g>
    </g>
    <g id="ytick_5">
     <g id="line2d_19">
      <path clip-path="url(#p415322e4b6)" d="M 90 282.096 
L 648 282.096 
" style="fill:none;stroke:#cccccc;stroke-dasharray:2.96,1.28;stroke-dashoffset:0;stroke-width:0.8;"/>
     </g>
     <g id="line2d_20"/>
     <g id="text_11">
      <!-- 5 -->
      <g style="fill:#262626;" transform="translate(67.592812 294.264281)scale(0.34 -0.34)">
       <defs>
        <path d="M 4.15625 18.75 
L 13.375 19.53125 
Q 14.40625 12.796875 18.140625 9.390625 
Q 21.875 6 27.15625 6 
Q 33.5 6 37.890625 10.78125 
Q 42.28125 15.578125 42.28125 23.484375 
Q 42.28125 31 38.0625 35.34375 
Q 33.84375 39.703125 27 39.703125 
Q 22.75 39.703125 19.328125 37.765625 
Q 15.921875 35.84375 13.96875 32.765625 
L 5.71875 33.84375 
L 12.640625 70.609375 
L 48.25 70.609375 
L 48.25 62.203125 
L 19.671875 62.203125 
L 15.828125 42.96875 
Q 22.265625 47.46875 29.34375 47.46875 
Q 38.71875 47.46875 45.15625 40.96875 
Q 51.609375 34.46875 51.609375 24.265625 
Q 51.609375 14.546875 45.953125 7.46875 
Q 39.0625 -1.21875 27.15625 -1.21875 
Q 17.390625 -1.21875 11.203125 4.25 
Q 5.03125 9.71875 4.15625 18.75 
z
" id="ArialMT-53"/>
       </defs>
       <use xlink:href="#ArialMT-53"/>
      </g>
     </g>
    </g>
    <g id="ytick_6">
     <g id="line2d_21">
      <path clip-path="url(#p415322e4b6)" d="M 90 195.12 
L 648 195.12 
" style="fill:none;stroke:#cccccc;stroke-dasharray:2.96,1.28;stroke-dashoffset:0;stroke-width:0.8;"/>
     </g>
     <g id="line2d_22"/>
     <g id="text_12">
      <!-- 6 -->
      <g style="fill:#262626;" transform="translate(67.592812 207.288281)scale(0.34 -0.34)">
       <use xlink:href="#ArialMT-54"/>
      </g>
     </g>
    </g>
    <g id="ytick_7">
     <g id="line2d_23">
      <path clip-path="url(#p415322e4b6)" d="M 90 108.144 
L 648 108.144 
" style="fill:none;stroke:#cccccc;stroke-dasharray:2.96,1.28;stroke-dashoffset:0;stroke-width:0.8;"/>
     </g>
     <g id="line2d_24"/>
     <g id="text_13">
      <!-- 7 -->
      <g style="fill:#262626;" transform="translate(67.592812 120.312281)scale(0.34 -0.34)">
       <defs>
        <path d="M 4.734375 62.203125 
L 4.734375 70.65625 
L 51.078125 70.65625 
L 51.078125 63.8125 
Q 44.234375 56.546875 37.515625 44.484375 
Q 30.8125 32.421875 27.15625 19.671875 
Q 24.515625 10.6875 23.78125 0 
L 14.75 0 
Q 14.890625 8.453125 18.0625 20.40625 
Q 21.234375 32.375 27.171875 43.484375 
Q 33.109375 54.59375 39.796875 62.203125 
z
" id="ArialMT-55"/>
       </defs>
       <use xlink:href="#ArialMT-55"/>
      </g>
     </g>
    </g>
    <g id="text_14">
     <!-- Maximum of Bristol Stool Scale -->
     <g style="fill:#262626;" transform="translate(56.835312 593.434844)rotate(-90)scale(0.34 -0.34)">
      <defs>
       <path d="M 7.421875 0 
L 7.421875 71.578125 
L 21.6875 71.578125 
L 38.625 20.90625 
Q 40.96875 13.8125 42.046875 10.296875 
Q 43.265625 14.203125 45.84375 21.78125 
L 62.984375 71.578125 
L 75.734375 71.578125 
L 75.734375 0 
L 66.609375 0 
L 66.609375 59.90625 
L 45.796875 0 
L 37.25 0 
L 16.546875 60.9375 
L 16.546875 0 
z
" id="ArialMT-77"/>
       <path d="M 0.734375 0 
L 19.671875 26.953125 
L 2.15625 51.859375 
L 13.140625 51.859375 
L 21.09375 39.703125 
Q 23.34375 36.234375 24.703125 33.890625 
Q 26.859375 37.109375 28.65625 39.59375 
L 37.40625 51.859375 
L 47.90625 51.859375 
L 29.984375 27.4375 
L 49.265625 0 
L 38.484375 0 
L 27.828125 16.109375 
L 25 20.453125 
L 11.375 0 
z
" id="ArialMT-120"/>
       <path d="M 7.328125 0 
L 7.328125 71.578125 
L 34.1875 71.578125 
Q 42.390625 71.578125 47.34375 69.40625 
Q 52.296875 67.234375 55.09375 62.71875 
Q 57.90625 58.203125 57.90625 53.265625 
Q 57.90625 48.6875 55.421875 44.625 
Q 52.9375 40.578125 47.90625 38.09375 
Q 54.390625 36.1875 57.875 31.59375 
Q 61.375 27 61.375 20.75 
Q 61.375 15.71875 59.25 11.390625 
Q 57.125 7.078125 54 4.734375 
Q 50.875 2.390625 46.15625 1.1875 
Q 41.453125 0 34.625 0 
z
M 16.796875 41.5 
L 32.28125 41.5 
Q 38.578125 41.5 41.3125 42.328125 
Q 44.921875 43.40625 46.75 45.890625 
Q 48.578125 48.390625 48.578125 52.15625 
Q 48.578125 55.71875 46.875 58.421875 
Q 45.171875 61.140625 41.984375 62.140625 
Q 38.8125 63.140625 31.109375 63.140625 
L 16.796875 63.140625 
z
M 16.796875 8.453125 
L 34.625 8.453125 
Q 39.203125 8.453125 41.0625 8.796875 
Q 44.34375 9.375 46.53125 10.734375 
Q 48.734375 12.109375 50.140625 14.71875 
Q 51.5625 17.328125 51.5625 20.75 
Q 51.5625 24.75 49.515625 27.703125 
Q 47.46875 30.671875 43.828125 31.859375 
Q 40.1875 33.0625 33.34375 33.0625 
L 16.796875 33.0625 
z
" id="ArialMT-66"/>
       <path d="M 4.5 23 
L 13.421875 23.78125 
Q 14.0625 18.40625 16.375 14.96875 
Q 18.703125 11.53125 23.578125 9.40625 
Q 28.46875 7.28125 34.578125 7.28125 
Q 39.984375 7.28125 44.140625 8.890625 
Q 48.296875 10.5 50.3125 13.296875 
Q 52.34375 16.109375 52.34375 19.4375 
Q 52.34375 22.796875 50.390625 25.3125 
Q 48.4375 27.828125 43.953125 29.546875 
Q 41.0625 30.671875 31.203125 33.03125 
Q 21.34375 35.40625 17.390625 37.5 
Q 12.25 40.1875 9.734375 44.15625 
Q 7.234375 48.140625 7.234375 53.078125 
Q 7.234375 58.5 10.296875 63.203125 
Q 13.375 67.921875 19.28125 70.359375 
Q 25.203125 72.796875 32.421875 72.796875 
Q 40.375 72.796875 46.453125 70.234375 
Q 52.546875 67.671875 55.8125 62.6875 
Q 59.078125 57.71875 59.328125 51.421875 
L 50.25 50.734375 
Q 49.515625 57.515625 45.28125 60.984375 
Q 41.0625 64.453125 32.8125 64.453125 
Q 24.21875 64.453125 20.28125 61.296875 
Q 16.359375 58.15625 16.359375 53.71875 
Q 16.359375 49.859375 19.140625 47.359375 
Q 21.875 44.875 33.421875 42.265625 
Q 44.96875 39.65625 49.265625 37.703125 
Q 55.515625 34.8125 58.484375 30.390625 
Q 61.46875 25.984375 61.46875 20.21875 
Q 61.46875 14.5 58.203125 9.4375 
Q 54.9375 4.390625 48.796875 1.578125 
Q 42.671875 -1.21875 35.015625 -1.21875 
Q 25.296875 -1.21875 18.71875 1.609375 
Q 12.15625 4.4375 8.421875 10.125 
Q 4.6875 15.828125 4.5 23 
z
" id="ArialMT-83"/>
       <path d="M 40.4375 19 
L 49.078125 17.875 
Q 47.65625 8.9375 41.8125 3.875 
Q 35.984375 -1.171875 27.484375 -1.171875 
Q 16.84375 -1.171875 10.375 5.78125 
Q 3.90625 12.75 3.90625 25.734375 
Q 3.90625 34.125 6.6875 40.421875 
Q 9.46875 46.734375 15.15625 49.875 
Q 20.84375 53.03125 27.546875 53.03125 
Q 35.984375 53.03125 41.359375 48.75 
Q 46.734375 44.484375 48.25 36.625 
L 39.703125 35.296875 
Q 38.484375 40.53125 35.375 43.15625 
Q 32.28125 45.796875 27.875 45.796875 
Q 21.234375 45.796875 17.078125 41.03125 
Q 12.9375 36.28125 12.9375 25.984375 
Q 12.9375 15.53125 16.9375 10.796875 
Q 20.953125 6.0625 27.390625 6.0625 
Q 32.5625 6.0625 36.03125 9.234375 
Q 39.5 12.40625 40.4375 19 
z
" id="ArialMT-99"/>
      </defs>
      <use xlink:href="#ArialMT-77"/>
      <use x="83.300781" xlink:href="#ArialMT-97"/>
      <use x="138.916016" xlink:href="#ArialMT-120"/>
      <use x="188.916016" xlink:href="#ArialMT-105"/>
      <use x="211.132812" xlink:href="#ArialMT-109"/>
      <use x="294.433594" xlink:href="#ArialMT-117"/>
      <use x="350.048828" xlink:href="#ArialMT-109"/>
      <use x="433.349609" xlink:href="#ArialMT-32"/>
      <use x="461.132812" xlink:href="#ArialMT-111"/>
      <use x="516.748047" xlink:href="#ArialMT-102"/>
      <use x="544.53125" xlink:href="#ArialMT-32"/>
      <use x="572.314453" xlink:href="#ArialMT-66"/>
      <use x="639.013672" xlink:href="#ArialMT-114"/>
      <use x="672.314453" xlink:href="#ArialMT-105"/>
      <use x="694.53125" xlink:href="#ArialMT-115"/>
      <use x="744.53125" xlink:href="#ArialMT-116"/>
      <use x="772.314453" xlink:href="#ArialMT-111"/>
      <use x="827.929688" xlink:href="#ArialMT-108"/>
      <use x="850.146484" xlink:href="#ArialMT-32"/>
      <use x="877.929688" xlink:href="#ArialMT-83"/>
      <use x="944.628906" xlink:href="#ArialMT-116"/>
      <use x="972.412109" xlink:href="#ArialMT-111"/>
      <use x="1028.027344" xlink:href="#ArialMT-111"/>
      <use x="1083.642578" xlink:href="#ArialMT-108"/>
      <use x="1105.859375" xlink:href="#ArialMT-32"/>
      <use x="1133.642578" xlink:href="#ArialMT-83"/>
      <use x="1200.341797" xlink:href="#ArialMT-99"/>
      <use x="1250.341797" xlink:href="#ArialMT-97"/>
      <use x="1305.957031" xlink:href="#ArialMT-108"/>
      <use x="1328.173828" xlink:href="#ArialMT-101"/>
     </g>
    </g>
   </g>
   <g id="PathCollection_1">
    <path clip-path="url(#p415322e4b6)" d="M 309.438202 205.12 
C 312.090233 205.12 314.634001 204.066337 316.50927 202.191068 
C 318.384539 200.315799 319.438202 197.772031 319.438202 195.12 
C 319.438202 192.467969 318.384539 189.924201 316.50927 188.048932 
C 314.634001 186.173663 312.090233 185.12 309.438202 185.12 
C 306.786171 185.12 304.242404 186.173663 302.367134 188.048932 
C 300.491865 189.924201 299.438202 192.467969 299.438202 195.12 
C 299.438202 197.772031 300.491865 200.315799 302.367134 202.191068 
C 304.242404 204.066337 306.786171 205.12 309.438202 205.12 
z
" style="fill:#80b1d3;stroke:#ffffff;stroke-width:1.6;"/>
    <path clip-path="url(#p415322e4b6)" d="M 622.921348 118.144 
C 625.573379 118.144 628.117147 117.090337 629.992416 115.215068 
C 631.867685 113.339799 632.921348 110.796031 632.921348 108.144 
C 632.921348 105.491969 631.867685 102.948201 629.992416 101.072932 
C 628.117147 99.197663 625.573379 98.144 622.921348 98.144 
C 620.269317 98.144 617.72555 99.197663 615.850281 101.072932 
C 613.975011 102.948201 612.921348 105.491969 612.921348 108.144 
C 612.921348 110.796031 613.975011 113.339799 615.850281 115.215068 
C 617.72555 117.090337 620.269317 118.144 622.921348 118.144 
z
" style="fill:#80b1d3;stroke:#ffffff;stroke-width:1.6;"/>
    <path clip-path="url(#p415322e4b6)" d="M 184.044944 391.43268 
C 189.975065 391.43268 195.663103 389.076617 199.856332 384.883388 
C 204.049561 380.690159 206.405624 375.002122 206.405624 369.072 
C 206.405624 363.141878 204.049561 357.453841 199.856332 353.260612 
C 195.663103 349.067383 189.975065 346.71132 184.044944 346.71132 
C 178.114822 346.71132 172.426785 349.067383 168.233556 353.260612 
C 164.040326 357.453841 161.684264 363.141878 161.684264 369.072 
C 161.684264 375.002122 164.040326 380.690159 168.233556 384.883388 
C 172.426785 389.076617 178.114822 391.43268 184.044944 391.43268 
z
" style="fill:#fb8072;stroke:#ffffff;stroke-width:1.6;"/>
    <path clip-path="url(#p415322e4b6)" d="M 184.044944 391.43268 
C 189.975065 391.43268 195.663103 389.076617 199.856332 384.883388 
C 204.049561 380.690159 206.405624 375.002122 206.405624 369.072 
C 206.405624 363.141878 204.049561 357.453841 199.856332 353.260612 
C 195.663103 349.067383 189.975065 346.71132 184.044944 346.71132 
C 178.114822 346.71132 172.426785 349.067383 168.233556 353.260612 
C 164.040326 357.453841 161.684264 363.141878 161.684264 369.072 
C 161.684264 375.002122 164.040326 380.690159 168.233556 384.883388 
C 172.426785 389.076617 178.114822 391.43268 184.044944 391.43268 
z
" style="fill:#fb8072;stroke:#ffffff;stroke-width:1.6;"/>
    <path clip-path="url(#p415322e4b6)" d="M 246.741573 118.144 
C 249.393604 118.144 251.937372 117.090337 253.812641 115.215068 
C 255.68791 113.339799 256.741573 110.796031 256.741573 108.144 
C 256.741573 105.491969 255.68791 102.948201 253.812641 101.072932 
C 251.937372 99.197663 249.393604 98.144 246.741573 98.144 
C 244.089542 98.144 241.545774 99.197663 239.670505 101.072932 
C 237.795236 102.948201 236.741573 105.491969 236.741573 108.144 
C 236.741573 110.796031 237.795236 113.339799 239.670505 115.215068 
C 241.545774 117.090337 244.089542 118.144 246.741573 118.144 
z
" style="fill:#80b1d3;stroke:#ffffff;stroke-width:1.6;"/>
    <path clip-path="url(#p415322e4b6)" d="M 215.393258 212.440508 
C 219.986711 212.440508 224.392646 210.61551 227.640707 207.367449 
C 230.888769 204.119387 232.713767 199.713452 232.713767 195.12 
C 232.713767 190.526548 230.888769 186.120613 227.640707 182.872551 
C 224.392646 179.62449 219.986711 177.799492 215.393258 177.799492 
C 210.799806 177.799492 206.393871 179.62449 203.14581 182.872551 
C 199.897748 186.120613 198.07275 190.526548 198.07275 195.12 
C 198.07275 199.713452 199.897748 204.119387 203.14581 207.367449 
C 206.393871 210.61551 210.799806 212.440508 215.393258 212.440508 
z
" style="fill:#80b1d3;stroke:#ffffff;stroke-width:1.6;"/>
    <path clip-path="url(#p415322e4b6)" d="M 215.393258 212.440508 
C 219.986711 212.440508 224.392646 210.61551 227.640707 207.367449 
C 230.888769 204.119387 232.713767 199.713452 232.713767 195.12 
C 232.713767 190.526548 230.888769 186.120613 227.640707 182.872551 
C 224.392646 179.62449 219.986711 177.799492 215.393258 177.799492 
C 210.799806 177.799492 206.393871 179.62449 203.14581 182.872551 
C 199.897748 186.120613 198.07275 190.526548 198.07275 195.12 
C 198.07275 199.713452 199.897748 204.119387 203.14581 207.367449 
C 206.393871 210.61551 210.799806 212.440508 215.393258 212.440508 
z
" style="fill:#80b1d3;stroke:#ffffff;stroke-width:1.6;"/>
    <path clip-path="url(#p415322e4b6)" d="M 121.348315 292.096 
C 124.000346 292.096 126.544113 291.042337 128.419382 289.167068 
C 130.294652 287.291799 131.348315 284.748031 131.348315 282.096 
C 131.348315 279.443969 130.294652 276.900201 128.419382 275.024932 
C 126.544113 273.149663 124.000346 272.096 121.348315 272.096 
C 118.696284 272.096 116.152516 273.149663 114.277247 275.024932 
C 112.401978 276.900201 111.348315 279.443969 111.348315 282.096 
C 111.348315 284.748031 112.401978 287.291799 114.277247 289.167068 
C 116.152516 291.042337 118.696284 292.096 121.348315 292.096 
z
" style="fill:#fb8072;stroke:#ffffff;stroke-width:1.6;"/>
    <path clip-path="url(#p415322e4b6)" d="M 215.393258 292.096 
C 218.045289 292.096 220.589057 291.042337 222.464326 289.167068 
C 224.339595 287.291799 225.393258 284.748031 225.393258 282.096 
C 225.393258 279.443969 224.339595 276.900201 222.464326 275.024932 
C 220.589057 273.149663 218.045289 272.096 215.393258 272.096 
C 212.741227 272.096 210.19746 273.149663 208.322191 275.024932 
C 206.446922 276.900201 205.393258 279.443969 205.393258 282.096 
C 205.393258 284.748031 206.446922 287.291799 208.322191 289.167068 
C 210.19746 291.042337 212.741227 292.096 215.393258 292.096 
z
" style="fill:#fb8072;stroke:#ffffff;stroke-width:1.6;"/>
    <path clip-path="url(#p415322e4b6)" d="M 278.089888 118.144 
C 280.741919 118.144 283.285686 117.090337 285.160955 115.215068 
C 287.036225 113.339799 288.089888 110.796031 288.089888 108.144 
C 288.089888 105.491969 287.036225 102.948201 285.160955 101.072932 
C 283.285686 99.197663 280.741919 98.144 278.089888 98.144 
C 275.437857 98.144 272.894089 99.197663 271.01882 101.072932 
C 269.143551 102.948201 268.089888 105.491969 268.089888 108.144 
C 268.089888 110.796031 269.143551 113.339799 271.01882 115.215068 
C 272.894089 117.090337 275.437857 118.144 278.089888 118.144 
z
" style="fill:#80b1d3;stroke:#ffffff;stroke-width:1.6;"/>
    <path clip-path="url(#p415322e4b6)" d="M 215.393258 383.214136 
C 219.143797 383.214136 222.741227 381.724031 225.393258 379.072 
C 228.045289 376.419969 229.535394 372.822538 229.535394 369.072 
C 229.535394 365.321462 228.045289 361.724031 225.393258 359.072 
C 222.741227 356.419969 219.143797 354.929864 215.393258 354.929864 
C 211.64272 354.929864 208.045289 356.419969 205.393258 359.072 
C 202.741227 361.724031 201.251123 365.321462 201.251123 369.072 
C 201.251123 372.822538 202.741227 376.419969 205.393258 379.072 
C 208.045289 381.724031 211.64272 383.214136 215.393258 383.214136 
z
" style="fill:#fb8072;stroke:#ffffff;stroke-width:1.6;"/>
    <path clip-path="url(#p415322e4b6)" d="M 184.044944 209.262136 
C 187.795482 209.262136 191.392913 207.772031 194.044944 205.12 
C 196.696975 202.467969 198.187079 198.870538 198.187079 195.12 
C 198.187079 191.369462 196.696975 187.772031 194.044944 185.12 
C 191.392913 182.467969 187.795482 180.977864 184.044944 180.977864 
C 180.294406 180.977864 176.696975 182.467969 174.044944 185.12 
C 171.392913 187.772031 169.902808 191.369462 169.902808 195.12 
C 169.902808 198.870538 171.392913 202.467969 174.044944 205.12 
C 176.696975 207.772031 180.294406 209.262136 184.044944 209.262136 
z
" style="fill:#80b1d3;stroke:#ffffff;stroke-width:1.6;"/>
    <path clip-path="url(#p415322e4b6)" d="M 215.393258 383.214136 
C 219.143797 383.214136 222.741227 381.724031 225.393258 379.072 
C 228.045289 376.419969 229.535394 372.822538 229.535394 369.072 
C 229.535394 365.321462 228.045289 361.724031 225.393258 359.072 
C 222.741227 356.419969 219.143797 354.929864 215.393258 354.929864 
C 211.64272 354.929864 208.045289 356.419969 205.393258 359.072 
C 202.741227 361.724031 201.251123 365.321462 201.251123 369.072 
C 201.251123 372.822538 202.741227 376.419969 205.393258 379.072 
C 208.045289 381.724031 211.64272 383.214136 215.393258 383.214136 
z
" style="fill:#fb8072;stroke:#ffffff;stroke-width:1.6;"/>
    <path clip-path="url(#p415322e4b6)" d="M 309.438202 122.286136 
C 313.18874 122.286136 316.786171 120.796031 319.438202 118.144 
C 322.090233 115.491969 323.580338 111.894538 323.580338 108.144 
C 323.580338 104.393462 322.090233 100.796031 319.438202 98.144 
C 316.786171 95.491969 313.18874 94.001864 309.438202 94.001864 
C 305.687664 94.001864 302.090233 95.491969 299.438202 98.144 
C 296.786171 100.796031 295.296067 104.393462 295.296067 108.144 
C 295.296067 111.894538 296.786171 115.491969 299.438202 118.144 
C 302.090233 120.796031 305.687664 122.286136 309.438202 122.286136 
z
" style="fill:#80b1d3;stroke:#ffffff;stroke-width:1.6;"/>
    <path clip-path="url(#p415322e4b6)" d="M 340.786517 118.144 
C 343.438548 118.144 345.982316 117.090337 347.857585 115.215068 
C 349.732854 113.339799 350.786517 110.796031 350.786517 108.144 
C 350.786517 105.491969 349.732854 102.948201 347.857585 101.072932 
C 345.982316 99.197663 343.438548 98.144 340.786517 98.144 
C 338.134486 98.144 335.590718 99.197663 333.715449 101.072932 
C 331.84018 102.948201 330.786517 105.491969 330.786517 108.144 
C 330.786517 110.796031 331.84018 113.339799 333.715449 115.215068 
C 335.590718 117.090337 338.134486 118.144 340.786517 118.144 
z
" style="fill:#80b1d3;stroke:#ffffff;stroke-width:1.6;"/>
    <path clip-path="url(#p415322e4b6)" d="M 184.044944 391.43268 
C 189.975065 391.43268 195.663103 389.076617 199.856332 384.883388 
C 204.049561 380.690159 206.405624 375.002122 206.405624 369.072 
C 206.405624 363.141878 204.049561 357.453841 199.856332 353.260612 
C 195.663103 349.067383 189.975065 346.71132 184.044944 346.71132 
C 178.114822 346.71132 172.426785 349.067383 168.233556 353.260612 
C 164.040326 357.453841 161.684264 363.141878 161.684264 369.072 
C 161.684264 375.002122 164.040326 380.690159 168.233556 384.883388 
C 172.426785 389.076617 178.114822 391.43268 184.044944 391.43268 
z
" style="fill:#fb8072;stroke:#ffffff;stroke-width:1.6;"/>
    <path clip-path="url(#p415322e4b6)" d="M 215.393258 118.144 
C 218.045289 118.144 220.589057 117.090337 222.464326 115.215068 
C 224.339595 113.339799 225.393258 110.796031 225.393258 108.144 
C 225.393258 105.491969 224.339595 102.948201 222.464326 101.072932 
C 220.589057 99.197663 218.045289 98.144 215.393258 98.144 
C 212.741227 98.144 210.19746 99.197663 208.322191 101.072932 
C 206.446922 102.948201 205.393258 105.491969 205.393258 108.144 
C 205.393258 110.796031 206.446922 113.339799 208.322191 115.215068 
C 210.19746 117.090337 212.741227 118.144 215.393258 118.144 
z
" style="fill:#80b1d3;stroke:#ffffff;stroke-width:1.6;"/>
    <path clip-path="url(#p415322e4b6)" d="M 184.044944 209.262136 
C 187.795482 209.262136 191.392913 207.772031 194.044944 205.12 
C 196.696975 202.467969 198.187079 198.870538 198.187079 195.12 
C 198.187079 191.369462 196.696975 187.772031 194.044944 185.12 
C 191.392913 182.467969 187.795482 180.977864 184.044944 180.977864 
C 180.294406 180.977864 176.696975 182.467969 174.044944 185.12 
C 171.392913 187.772031 169.902808 191.369462 169.902808 195.12 
C 169.902808 198.870538 171.392913 202.467969 174.044944 205.12 
C 176.696975 207.772031 180.294406 209.262136 184.044944 209.262136 
z
" style="fill:#80b1d3;stroke:#ffffff;stroke-width:1.6;"/>
    <path clip-path="url(#p415322e4b6)" d="M 215.393258 212.440508 
C 219.986711 212.440508 224.392646 210.61551 227.640707 207.367449 
C 230.888769 204.119387 232.713767 199.713452 232.713767 195.12 
C 232.713767 190.526548 230.888769 186.120613 227.640707 182.872551 
C 224.392646 179.62449 219.986711 177.799492 215.393258 177.799492 
C 210.799806 177.799492 206.393871 179.62449 203.14581 182.872551 
C 199.897748 186.120613 198.07275 190.526548 198.07275 195.12 
C 198.07275 199.713452 199.897748 204.119387 203.14581 207.367449 
C 206.393871 210.61551 210.799806 212.440508 215.393258 212.440508 
z
" style="fill:#80b1d3;stroke:#ffffff;stroke-width:1.6;"/>
    <path clip-path="url(#p415322e4b6)" d="M 184.044944 391.43268 
C 189.975065 391.43268 195.663103 389.076617 199.856332 384.883388 
C 204.049561 380.690159 206.405624 375.002122 206.405624 369.072 
C 206.405624 363.141878 204.049561 357.453841 199.856332 353.260612 
C 195.663103 349.067383 189.975065 346.71132 184.044944 346.71132 
C 178.114822 346.71132 172.426785 349.067383 168.233556 353.260612 
C 164.040326 357.453841 161.684264 363.141878 161.684264 369.072 
C 161.684264 375.002122 164.040326 380.690159 168.233556 384.883388 
C 172.426785 389.076617 178.114822 391.43268 184.044944 391.43268 
z
" style="fill:#fb8072;stroke:#ffffff;stroke-width:1.6;"/>
    <path clip-path="url(#p415322e4b6)" d="M 184.044944 391.43268 
C 189.975065 391.43268 195.663103 389.076617 199.856332 384.883388 
C 204.049561 380.690159 206.405624 375.002122 206.405624 369.072 
C 206.405624 363.141878 204.049561 357.453841 199.856332 353.260612 
C 195.663103 349.067383 189.975065 346.71132 184.044944 346.71132 
C 178.114822 346.71132 172.426785 349.067383 168.233556 353.260612 
C 164.040326 357.453841 161.684264 363.141878 161.684264 369.072 
C 161.684264 375.002122 164.040326 380.690159 168.233556 384.883388 
C 172.426785 389.076617 178.114822 391.43268 184.044944 391.43268 
z
" style="fill:#fb8072;stroke:#ffffff;stroke-width:1.6;"/>
    <path clip-path="url(#p415322e4b6)" d="M 309.438202 122.286136 
C 313.18874 122.286136 316.786171 120.796031 319.438202 118.144 
C 322.090233 115.491969 323.580338 111.894538 323.580338 108.144 
C 323.580338 104.393462 322.090233 100.796031 319.438202 98.144 
C 316.786171 95.491969 313.18874 94.001864 309.438202 94.001864 
C 305.687664 94.001864 302.090233 95.491969 299.438202 98.144 
C 296.786171 100.796031 295.296067 104.393462 295.296067 108.144 
C 295.296067 111.894538 296.786171 115.491969 299.438202 118.144 
C 302.090233 120.796031 305.687664 122.286136 309.438202 122.286136 
z
" style="fill:#80b1d3;stroke:#ffffff;stroke-width:1.6;"/>
    <path clip-path="url(#p415322e4b6)" d="M 184.044944 292.096 
C 186.696975 292.096 189.240743 291.042337 191.116012 289.167068 
C 192.991281 287.291799 194.044944 284.748031 194.044944 282.096 
C 194.044944 279.443969 192.991281 276.900201 191.116012 275.024932 
C 189.240743 273.149663 186.696975 272.096 184.044944 272.096 
C 181.392913 272.096 178.849145 273.149663 176.973876 275.024932 
C 175.098607 276.900201 174.044944 279.443969 174.044944 282.096 
C 174.044944 284.748031 175.098607 287.291799 176.973876 289.167068 
C 178.849145 291.042337 181.392913 292.096 184.044944 292.096 
z
" style="fill:#fb8072;stroke:#ffffff;stroke-width:1.6;"/>
    <path clip-path="url(#p415322e4b6)" d="M 246.741573 379.072 
C 249.393604 379.072 251.937372 378.018337 253.812641 376.143068 
C 255.68791 374.267799 256.741573 371.724031 256.741573 369.072 
C 256.741573 366.419969 255.68791 363.876201 253.812641 362.000932 
C 251.937372 360.125663 249.393604 359.072 246.741573 359.072 
C 244.089542 359.072 241.545774 360.125663 239.670505 362.000932 
C 237.795236 363.876201 236.741573 366.419969 236.741573 369.072 
C 236.741573 371.724031 237.795236 374.267799 239.670505 376.143068 
C 241.545774 378.018337 244.089542 379.072 246.741573 379.072 
z
" style="fill:#fb8072;stroke:#ffffff;stroke-width:1.6;"/>
    <path clip-path="url(#p415322e4b6)" d="M 246.741573 292.096 
C 249.393604 292.096 251.937372 291.042337 253.812641 289.167068 
C 255.68791 287.291799 256.741573 284.748031 256.741573 282.096 
C 256.741573 279.443969 255.68791 276.900201 253.812641 275.024932 
C 251.937372 273.149663 249.393604 272.096 246.741573 272.096 
C 244.089542 272.096 241.545774 273.149663 239.670505 275.024932 
C 237.795236 276.900201 236.741573 279.443969 236.741573 282.096 
C 236.741573 284.748031 237.795236 287.291799 239.670505 289.167068 
C 241.545774 291.042337 244.089542 292.096 246.741573 292.096 
z
" style="fill:#fb8072;stroke:#ffffff;stroke-width:1.6;"/>
    <path clip-path="url(#p415322e4b6)" d="M 309.438202 379.072 
C 312.090233 379.072 314.634001 378.018337 316.50927 376.143068 
C 318.384539 374.267799 319.438202 371.724031 319.438202 369.072 
C 319.438202 366.419969 318.384539 363.876201 316.50927 362.000932 
C 314.634001 360.125663 312.090233 359.072 309.438202 359.072 
C 306.786171 359.072 304.242404 360.125663 302.367134 362.000932 
C 300.491865 363.876201 299.438202 366.419969 299.438202 369.072 
C 299.438202 371.724031 300.491865 374.267799 302.367134 376.143068 
C 304.242404 378.018337 306.786171 379.072 309.438202 379.072 
z
" style="fill:#fb8072;stroke:#ffffff;stroke-width:1.6;"/>
    <path clip-path="url(#p415322e4b6)" d="M 215.393258 553.024 
C 218.045289 553.024 220.589057 551.970337 222.464326 550.095068 
C 224.339595 548.219799 225.393258 545.676031 225.393258 543.024 
C 225.393258 540.371969 224.339595 537.828201 222.464326 535.952932 
C 220.589057 534.077663 218.045289 533.024 215.393258 533.024 
C 212.741227 533.024 210.19746 534.077663 208.322191 535.952932 
C 206.446922 537.828201 205.393258 540.371969 205.393258 543.024 
C 205.393258 545.676031 206.446922 548.219799 208.322191 550.095068 
C 210.19746 551.970337 212.741227 553.024 215.393258 553.024 
z
" style="fill:#fb8072;stroke:#ffffff;stroke-width:1.6;"/>
    <path clip-path="url(#p415322e4b6)" d="M 278.089888 379.072 
C 280.741919 379.072 283.285686 378.018337 285.160955 376.143068 
C 287.036225 374.267799 288.089888 371.724031 288.089888 369.072 
C 288.089888 366.419969 287.036225 363.876201 285.160955 362.000932 
C 283.285686 360.125663 280.741919 359.072 278.089888 359.072 
C 275.437857 359.072 272.894089 360.125663 271.01882 362.000932 
C 269.143551 363.876201 268.089888 366.419969 268.089888 369.072 
C 268.089888 371.724031 269.143551 374.267799 271.01882 376.143068 
C 272.894089 378.018337 275.437857 379.072 278.089888 379.072 
z
" style="fill:#fb8072;stroke:#ffffff;stroke-width:1.6;"/>
    <path clip-path="url(#p415322e4b6)" d="M 184.044944 466.048 
C 186.696975 466.048 189.240743 464.994337 191.116012 463.119068 
C 192.991281 461.243799 194.044944 458.700031 194.044944 456.048 
C 194.044944 453.395969 192.991281 450.852201 191.116012 448.976932 
C 189.240743 447.101663 186.696975 446.048 184.044944 446.048 
C 181.392913 446.048 178.849145 447.101663 176.973876 448.976932 
C 175.098607 450.852201 174.044944 453.395969 174.044944 456.048 
C 174.044944 458.700031 175.098607 461.243799 176.973876 463.119068 
C 178.849145 464.994337 181.392913 466.048 184.044944 466.048 
z
" style="fill:#fb8072;stroke:#ffffff;stroke-width:1.6;"/>
   </g>
   <g id="PathCollection_2"/>
   <g id="PathCollection_3"/>
   <g id="PathCollection_4"/>
   <g id="PathCollection_5"/>
   <g id="PathCollection_6"/>
   <g id="PathCollection_7"/>
   <g id="patch_3">
    <path d="M 90 630 
L 90 86.4 
" style="fill:none;stroke:#262626;stroke-linecap:square;stroke-linejoin:miter;stroke-width:4;"/>
   </g>
   <g id="patch_4">
    <path d="M 648 630 
L 648 86.4 
" style="fill:none;stroke:#262626;stroke-linecap:square;stroke-linejoin:miter;stroke-width:4;"/>
   </g>
   <g id="patch_5">
    <path d="M 90 630 
L 648 630 
" style="fill:none;stroke:#262626;stroke-linecap:square;stroke-linejoin:miter;stroke-width:4;"/>
   </g>
   <g id="patch_6">
    <path d="M 90 86.4 
L 648 86.4 
" style="fill:none;stroke:#262626;stroke-linecap:square;stroke-linejoin:miter;stroke-width:4;"/>
   </g>
   <g id="legend_1">
    <g id="PathCollection_8">
     <defs>
      <path d="M 0 9 
C 2.386828 9 4.676219 8.051703 6.363961 6.363961 
C 8.051703 4.676219 9 2.386828 9 0 
C 9 -2.386828 8.051703 -4.676219 6.363961 -6.363961 
C 4.676219 -8.051703 2.386828 -9 0 -9 
C -2.386828 -9 -4.676219 -8.051703 -6.363961 -6.363961 
C -8.051703 -4.676219 -9 -2.386828 -9 0 
C -9 2.386828 -8.051703 4.676219 -6.363961 6.363961 
C -4.676219 8.051703 -2.386828 9 0 9 
z
" id="mb0ebd482be" style="stroke:#80b1d3;"/>
     </defs>
     <g>
      <use style="fill:#80b1d3;stroke:#80b1d3;" x="435.245" xlink:href="#mb0ebd482be" y="552.623438"/>
     </g>
    </g>
    <g id="text_15">
     <!-- AAD -->
     <g style="fill:#262626;" transform="translate(496.445 561.548437)scale(0.34 -0.34)">
      <defs>
       <path d="M -0.140625 0 
L 27.34375 71.578125 
L 37.546875 71.578125 
L 66.84375 0 
L 56.0625 0 
L 47.703125 21.6875 
L 17.78125 21.6875 
L 9.90625 0 
z
M 20.515625 29.390625 
L 44.78125 29.390625 
L 37.3125 49.21875 
Q 33.890625 58.25 32.234375 64.0625 
Q 30.859375 57.171875 28.375 50.390625 
z
" id="ArialMT-65"/>
       <path d="M 7.71875 0 
L 7.71875 71.578125 
L 32.375 71.578125 
Q 40.71875 71.578125 45.125 70.5625 
Q 51.265625 69.140625 55.609375 65.4375 
Q 61.28125 60.640625 64.078125 53.1875 
Q 66.890625 45.75 66.890625 36.1875 
Q 66.890625 28.03125 64.984375 21.734375 
Q 63.09375 15.4375 60.109375 11.296875 
Q 57.125 7.171875 53.578125 4.796875 
Q 50.046875 2.4375 45.046875 1.21875 
Q 40.046875 0 33.546875 0 
z
M 17.1875 8.453125 
L 32.46875 8.453125 
Q 39.546875 8.453125 43.578125 9.765625 
Q 47.609375 11.078125 50 13.484375 
Q 53.375 16.84375 55.25 22.53125 
Q 57.125 28.21875 57.125 36.328125 
Q 57.125 47.5625 53.4375 53.59375 
Q 49.75 59.625 44.484375 61.671875 
Q 40.671875 63.140625 32.234375 63.140625 
L 17.1875 63.140625 
z
" id="ArialMT-68"/>
      </defs>
      <use xlink:href="#ArialMT-65"/>
      <use x="66.699219" xlink:href="#ArialMT-65"/>
      <use x="133.398438" xlink:href="#ArialMT-68"/>
     </g>
    </g>
    <g id="PathCollection_9">
     <defs>
      <path d="M 0 9 
C 2.386828 9 4.676219 8.051703 6.363961 6.363961 
C 8.051703 4.676219 9 2.386828 9 0 
C 9 -2.386828 8.051703 -4.676219 6.363961 -6.363961 
C 4.676219 -8.051703 2.386828 -9 0 -9 
C -2.386828 -9 -4.676219 -8.051703 -6.363961 -6.363961 
C -8.051703 -4.676219 -9 -2.386828 -9 0 
C -9 2.386828 -8.051703 4.676219 -6.363961 6.363961 
C -4.676219 8.051703 -2.386828 9 0 9 
z
" id="m17b2206e35" style="stroke:#fb8072;"/>
     </defs>
     <g>
      <use style="fill:#fb8072;stroke:#fb8072;" x="435.245" xlink:href="#m17b2206e35" y="600.7175"/>
     </g>
    </g>
    <g id="text_16">
     <!-- non-AAD -->
     <g style="fill:#262626;" transform="translate(496.445 609.6425)scale(0.34 -0.34)">
      <defs>
       <path d="M 3.171875 21.484375 
L 3.171875 30.328125 
L 30.171875 30.328125 
L 30.171875 21.484375 
z
" id="ArialMT-45"/>
      </defs>
      <use xlink:href="#ArialMT-110"/>
      <use x="55.615234" xlink:href="#ArialMT-111"/>
      <use x="111.230469" xlink:href="#ArialMT-110"/>
      <use x="166.845703" xlink:href="#ArialMT-45"/>
      <use x="200.146484" xlink:href="#ArialMT-65"/>
      <use x="266.845703" xlink:href="#ArialMT-65"/>
      <use x="333.544922" xlink:href="#ArialMT-68"/>
     </g>
    </g>
   </g>
  </g>
 </g>
 <defs>
  <clipPath id="p415322e4b6">
   <rect height="543.6" width="558" x="90" y="86.4"/>
  </clipPath>
 </defs>
</svg>
