<?xml version="1.0" encoding="utf-8" standalone="no"?>
<!DOCTYPE svg PUBLIC "-//W3C//DTD SVG 1.1//EN"
  "http://www.w3.org/Graphics/SVG/1.1/DTD/svg11.dtd">
<!-- Created with matplotlib (https://matplotlib.org/) -->
<svg height="170.07874pt" version="1.1" viewBox="0 0 340.15748 170.07874" width="340.15748pt" xmlns="http://www.w3.org/2000/svg" xmlns:xlink="http://www.w3.org/1999/xlink">
 <metadata>
  <rdf:RDF xmlns:cc="http://creativecommons.org/ns#" xmlns:dc="http://purl.org/dc/elements/1.1/" xmlns:rdf="http://www.w3.org/1999/02/22-rdf-syntax-ns#">
   <cc:Work>
    <dc:type rdf:resource="http://purl.org/dc/dcmitype/StillImage"/>
    <dc:date>2021-11-17T13:15:43.518033</dc:date>
    <dc:format>image/svg+xml</dc:format>
    <dc:creator>
     <cc:Agent>
      <dc:title>Matplotlib v3.3.4, https://matplotlib.org/</dc:title>
     </cc:Agent>
    </dc:creator>
   </cc:Work>
  </rdf:RDF>
 </metadata>
 <defs>
  <style type="text/css">*{stroke-linecap:butt;stroke-linejoin:round;}</style>
 </defs>
 <g id="figure_1">
  <g id="patch_1">
   <path d="M 0 170.07874 
L 340.15748 170.07874 
L 340.15748 0 
L 0 0 
z
" style="fill:#ffffff;"/>
  </g>
  <g id="axes_1">
   <g id="matplotlib.axis_1"/>
   <g id="matplotlib.axis_2"/>
   <g id="patch_2">
    <path d="M 235.545687 82.836639 
C 235.545687 71.284604 232.482412 59.936544 226.669322 49.953684 
C 220.856232 39.970825 212.49861 31.705701 202.451677 26.004067 
C 192.404743 20.302433 181.023295 17.365638 169.471976 17.494197 
C 157.920657 17.622756 146.60739 20.81213 136.689841 26.735957 
C 126.772291 32.659783 118.600689 41.108868 113.011217 51.218631 
C 107.421746 61.328394 104.611793 72.74182 104.868896 84.290993 
C 105.125999 95.840166 108.441078 107.11724 114.474907 116.96825 
C 120.508736 126.81926 129.048237 134.89633 139.219578 140.372946 
L 170.199198 82.836639 
L 235.545687 82.836639 
z
" style="fill:#ccc4ed;"/>
   </g>
   <g id="patch_3">
    <path d="M 139.219578 140.372946 
C 146.317782 144.194875 154.062347 146.670464 162.061328 147.674426 
C 170.060309 148.678388 178.176449 148.193495 185.998995 146.244288 
L 170.199198 82.836639 
L 139.219578 140.372946 
z
" style="fill:#a484c7;"/>
   </g>
   <g id="patch_4">
    <path d="M 185.998995 146.244288 
C 191.086328 144.976636 196.002664 143.101327 200.641865 140.658845 
C 205.281066 138.216364 209.609506 135.224415 213.533738 131.747591 
L 170.199198 82.836639 
L 185.998995 146.244288 
z
" style="fill:#61447e;"/>
   </g>
   <g id="patch_5">
    <path d="M 213.533738 131.747591 
C 220.453945 125.616367 225.994787 118.085711 229.789145 109.654576 
C 233.583504 101.223442 235.545687 92.082242 235.545687 82.836639 
L 170.199198 82.836639 
L 213.533738 131.747591 
z
" style="fill:#ced3db;"/>
   </g>
   <g id="patch_6">
    <path clip-path="url(#pa20ede2957)" d="M 170.199198 122.044532 
C 180.597253 122.044532 190.57083 117.913341 197.923366 110.560806 
C 205.275901 103.208271 209.407092 93.234693 209.407092 82.836639 
C 209.407092 72.438584 205.275901 62.465007 197.923366 55.112472 
C 190.57083 47.759937 180.597253 43.628746 170.199198 43.628746 
C 159.801144 43.628746 149.827566 47.759937 142.475031 55.112472 
C 135.122496 62.465007 130.991305 72.438584 130.991305 82.836639 
C 130.991305 93.234693 135.122496 103.208271 142.475031 110.560806 
C 149.827566 117.913341 159.801144 122.044532 170.199198 122.044532 
z
" style="fill:#ffffff;"/>
   </g>
   <g id="text_1">
    <!-- Faecalibacterium -->
    <g style="fill:#404040;" transform="translate(53.39453 23.840303)scale(0.105 -0.105)">
     <defs>
      <path d="M 4.546875 0 
L 19.484375 71.578125 
L 66.015625 71.578125 
L 64.3125 63.421875 
L 27.34375 63.421875 
L 22.609375 40.625 
L 60.25 40.625 
L 58.546875 32.46875 
L 20.90625 32.46875 
L 14.109375 0 
z
" id="Arial-ItalicMT-70"/>
      <path d="M 38.28125 6.453125 
Q 33.6875 2.484375 29.4375 0.65625 
Q 25.203125 -1.171875 20.359375 -1.171875 
Q 13.1875 -1.171875 8.78125 3.046875 
Q 4.390625 7.28125 4.390625 13.875 
Q 4.390625 18.21875 6.359375 21.5625 
Q 8.34375 24.90625 11.609375 26.921875 
Q 14.890625 28.953125 19.625 29.828125 
Q 22.609375 30.421875 30.9375 30.765625 
Q 39.265625 31.109375 42.875 32.515625 
Q 43.890625 36.140625 43.890625 38.53125 
Q 43.890625 41.609375 41.65625 43.359375 
Q 38.578125 45.796875 32.671875 45.796875 
Q 27.09375 45.796875 23.546875 43.328125 
Q 20.015625 40.875 18.40625 36.328125 
L 9.46875 37.109375 
Q 12.203125 44.828125 18.140625 48.921875 
Q 24.078125 53.03125 33.109375 53.03125 
Q 42.71875 53.03125 48.34375 48.4375 
Q 52.640625 45.015625 52.640625 39.546875 
Q 52.640625 35.40625 51.421875 29.9375 
L 48.53125 17.046875 
Q 47.171875 10.890625 47.171875 7.03125 
Q 47.171875 4.59375 48.25 0 
L 39.3125 0 
Q 38.578125 2.546875 38.28125 6.453125 
z
M 41.546875 26.265625 
Q 39.703125 25.53125 37.578125 25.140625 
Q 35.453125 24.75 30.46875 24.3125 
Q 22.75 23.640625 19.578125 22.578125 
Q 16.40625 21.53125 14.796875 19.234375 
Q 13.1875 16.9375 13.1875 14.15625 
Q 13.1875 10.453125 15.75 8.0625 
Q 18.3125 5.671875 23.046875 5.671875 
Q 27.4375 5.671875 31.484375 7.984375 
Q 35.546875 10.296875 37.890625 14.453125 
Q 40.234375 18.609375 41.546875 26.265625 
z
" id="Arial-ItalicMT-97"/>
      <path d="M 41.40625 17.625 
L 50 16.75 
Q 48.140625 10.359375 41.46875 4.59375 
Q 34.8125 -1.171875 25.59375 -1.171875 
Q 19.828125 -1.171875 15.015625 1.484375 
Q 10.203125 4.15625 7.6875 9.234375 
Q 5.171875 14.3125 5.171875 20.796875 
Q 5.171875 29.296875 9.09375 37.28125 
Q 13.03125 45.265625 19.28125 49.140625 
Q 25.53125 53.03125 32.8125 53.03125 
Q 42.09375 53.03125 47.625 47.265625 
Q 53.171875 41.5 53.171875 31.546875 
Q 53.171875 27.734375 52.484375 23.734375 
L 14.3125 23.734375 
Q 14.109375 22.21875 14.109375 21 
Q 14.109375 13.71875 17.453125 9.890625 
Q 20.796875 6.0625 25.640625 6.0625 
Q 30.171875 6.0625 34.5625 9.03125 
Q 38.96875 12.015625 41.40625 17.625 
z
M 15.71875 30.46875 
L 44.828125 30.46875 
Q 44.875 31.84375 44.875 32.421875 
Q 44.875 39.0625 41.546875 42.59375 
Q 38.234375 46.140625 33.015625 46.140625 
Q 27.34375 46.140625 22.671875 42.234375 
Q 18.015625 38.328125 15.71875 30.46875 
z
" id="Arial-ItalicMT-101"/>
      <path d="M 39.109375 18.890625 
L 47.953125 17.96875 
Q 44.625 8.25 38.5 3.53125 
Q 32.375 -1.171875 24.5625 -1.171875 
Q 16.109375 -1.171875 10.859375 4.296875 
Q 5.609375 9.765625 5.609375 19.578125 
Q 5.609375 28.078125 8.984375 36.28125 
Q 12.359375 44.484375 18.625 48.75 
Q 24.90625 53.03125 32.953125 53.03125 
Q 41.3125 53.03125 46.1875 48.3125 
Q 51.078125 43.609375 51.078125 35.84375 
L 42.390625 35.25 
Q 42.328125 40.1875 39.515625 42.96875 
Q 36.71875 45.75 32.125 45.75 
Q 26.8125 45.75 22.90625 42.375 
Q 19 39.015625 16.765625 32.15625 
Q 14.546875 25.296875 14.546875 18.953125 
Q 14.546875 12.3125 17.46875 8.984375 
Q 20.40625 5.671875 24.703125 5.671875 
Q 29 5.671875 32.921875 8.9375 
Q 36.859375 12.203125 39.109375 18.890625 
z
" id="Arial-ItalicMT-99"/>
      <path d="M 2.640625 0 
L 17.578125 71.578125 
L 26.421875 71.578125 
L 11.46875 0 
z
" id="Arial-ItalicMT-108"/>
      <path d="M 15.875 61.578125 
L 17.96875 71.578125 
L 26.765625 71.578125 
L 24.65625 61.578125 
z
M 2.984375 0 
L 13.8125 51.859375 
L 22.65625 51.859375 
L 11.8125 0 
z
" id="Arial-ItalicMT-105"/>
      <path d="M 3.328125 0 
L 18.265625 71.578125 
L 27.09375 71.578125 
L 21.78125 46 
Q 25.984375 49.859375 29.390625 51.4375 
Q 32.8125 53.03125 36.53125 53.03125 
Q 43.796875 53.03125 48.65625 47.609375 
Q 53.515625 42.1875 53.515625 31.84375 
Q 53.515625 24.953125 51.5625 19.234375 
Q 49.609375 13.53125 46.71875 9.640625 
Q 43.84375 5.765625 40.765625 3.4375 
Q 37.703125 1.125 34.46875 -0.015625 
Q 31.25 -1.171875 28.265625 -1.171875 
Q 23.140625 -1.171875 19.234375 1.53125 
Q 15.328125 4.25 13.140625 9.8125 
L 11.078125 0 
z
M 16.40625 21.296875 
L 16.359375 19.625 
Q 16.359375 12.984375 19.53125 9.515625 
Q 22.703125 6.0625 27.4375 6.0625 
Q 32.078125 6.0625 35.953125 9.296875 
Q 39.84375 12.546875 42.328125 19.421875 
Q 44.828125 26.3125 44.828125 32.125 
Q 44.828125 38.671875 41.671875 42.28125 
Q 38.53125 45.90625 33.890625 45.90625 
Q 29.109375 45.90625 25.09375 42.21875 
Q 21.09375 38.53125 18.40625 30.859375 
Q 16.40625 25.140625 16.40625 21.296875 
z
" id="Arial-ItalicMT-98"/>
      <path d="M 23.96875 7.171875 
L 22.515625 -0.046875 
Q 19.34375 -0.875 16.359375 -0.875 
Q 11.078125 -0.875 7.953125 1.703125 
Q 5.609375 3.65625 5.609375 7.03125 
Q 5.609375 8.734375 6.890625 14.890625 
L 13.1875 45.015625 
L 6.203125 45.015625 
L 7.625 51.859375 
L 14.59375 51.859375 
L 17.28125 64.59375 
L 27.390625 70.703125 
L 23.4375 51.859375 
L 32.125 51.859375 
L 30.671875 45.015625 
L 22.015625 45.015625 
L 16.015625 16.359375 
Q 14.890625 10.890625 14.890625 9.8125 
Q 14.890625 8.25 15.796875 7.421875 
Q 16.703125 6.59375 18.75 6.59375 
Q 21.6875 6.59375 23.96875 7.171875 
z
" id="Arial-ItalicMT-116"/>
      <path d="M 3.328125 0 
L 14.15625 51.859375 
L 21.96875 51.859375 
L 19.78125 41.265625 
Q 23.78125 47.265625 27.609375 50.140625 
Q 31.453125 53.03125 35.453125 53.03125 
Q 38.09375 53.03125 41.9375 51.125 
L 38.328125 42.921875 
Q 36.03125 44.578125 33.296875 44.578125 
Q 28.65625 44.578125 23.765625 39.40625 
Q 18.890625 34.234375 16.109375 20.796875 
L 11.71875 0 
z
" id="Arial-ItalicMT-114"/>
      <path d="M 38.71875 9.375 
Q 29.390625 -1.171875 19.625 -1.171875 
Q 13.625 -1.171875 9.9375 2.265625 
Q 6.25 5.71875 6.25 10.6875 
Q 6.25 13.96875 7.90625 21.921875 
L 14.15625 51.859375 
L 23 51.859375 
L 16.0625 18.703125 
Q 15.1875 14.546875 15.1875 12.25 
Q 15.1875 9.328125 16.96875 7.6875 
Q 18.75 6.0625 22.21875 6.0625 
Q 25.921875 6.0625 29.46875 7.859375 
Q 33.015625 9.671875 35.578125 12.75 
Q 38.140625 15.828125 39.75 20.015625 
Q 40.828125 22.703125 42.234375 29.4375 
L 46.921875 51.859375 
L 55.765625 51.859375 
L 44.921875 0 
L 36.765625 0 
z
" id="Arial-ItalicMT-117"/>
      <path d="M 3.265625 0 
L 14.109375 51.859375 
L 22.953125 51.859375 
L 21.140625 43.3125 
Q 26.078125 48.828125 29.953125 50.921875 
Q 33.84375 53.03125 38.375 53.03125 
Q 43.21875 53.03125 46.453125 50.46875 
Q 49.703125 47.90625 50.734375 43.3125 
Q 54.6875 48.1875 59.046875 50.609375 
Q 63.421875 53.03125 68.265625 53.03125 
Q 74.75 53.03125 78 49.953125 
Q 81.25 46.875 81.25 41.3125 
Q 81.25 38.921875 80.125 33.40625 
L 73.140625 0 
L 64.3125 0 
L 71.4375 34.28125 
Q 72.359375 38.484375 72.359375 40.28125 
Q 72.359375 42.828125 70.75 44.28125 
Q 69.140625 45.75 66.21875 45.75 
Q 62.25 45.75 58.140625 43.359375 
Q 54.046875 40.96875 51.78125 37.078125 
Q 49.515625 33.203125 47.796875 25.140625 
L 42.53125 0 
L 33.6875 0 
L 41.015625 35.015625 
Q 41.796875 38.578125 41.796875 40.09375 
Q 41.796875 42.625 40.203125 44.1875 
Q 38.625 45.75 36.078125 45.75 
Q 32.328125 45.75 28.203125 43.359375 
Q 24.078125 40.96875 21.484375 36.6875 
Q 18.890625 32.421875 17.234375 24.515625 
L 12.109375 0 
z
" id="Arial-ItalicMT-109"/>
     </defs>
     <use xlink:href="#Arial-ItalicMT-70"/>
     <use x="61.083984" xlink:href="#Arial-ItalicMT-97"/>
     <use x="116.699219" xlink:href="#Arial-ItalicMT-101"/>
     <use x="172.314453" xlink:href="#Arial-ItalicMT-99"/>
     <use x="222.314453" xlink:href="#Arial-ItalicMT-97"/>
     <use x="277.929688" xlink:href="#Arial-ItalicMT-108"/>
     <use x="300.146484" xlink:href="#Arial-ItalicMT-105"/>
     <use x="322.363281" xlink:href="#Arial-ItalicMT-98"/>
     <use x="377.978516" xlink:href="#Arial-ItalicMT-97"/>
     <use x="433.59375" xlink:href="#Arial-ItalicMT-99"/>
     <use x="483.59375" xlink:href="#Arial-ItalicMT-116"/>
     <use x="511.376953" xlink:href="#Arial-ItalicMT-101"/>
     <use x="566.992188" xlink:href="#Arial-ItalicMT-114"/>
     <use x="600.292969" xlink:href="#Arial-ItalicMT-105"/>
     <use x="622.509766" xlink:href="#Arial-ItalicMT-117"/>
     <use x="678.125" xlink:href="#Arial-ItalicMT-109"/>
    </g>
   </g>
   <g id="text_2">
    <!-- 67.1% -->
    <g style="fill:#404040;" transform="translate(135.208193 51.890644)scale(0.105 -0.105)">
     <defs>
      <path d="M 20.125 41.5 
Q 23.828125 44.578125 27.515625 46.109375 
Q 31.203125 47.65625 34.8125 47.65625 
Q 42.96875 47.65625 48.28125 42.09375 
Q 53.609375 36.53125 53.609375 27.09375 
Q 53.609375 14.9375 45.703125 6.25 
Q 38.875 -1.21875 29.109375 -1.21875 
Q 20.21875 -1.21875 14.28125 5.296875 
Q 8.34375 11.8125 8.34375 23.875 
Q 8.34375 34.671875 12.15625 46.1875 
Q 15.09375 55.03125 19.40625 60.765625 
Q 23.734375 66.5 28.59375 69.1875 
Q 33.453125 71.875 39.546875 71.875 
Q 46.875 71.875 51.515625 67.3125 
Q 56.15625 62.75 56.78125 54.25 
L 48.578125 53.46875 
Q 47.90625 59.28125 45.28125 61.859375 
Q 42.671875 64.453125 38.921875 64.453125 
Q 34.96875 64.453125 30.953125 61.375 
Q 26.953125 58.296875 24.0625 52.265625 
Q 21.1875 46.234375 20.125 41.5 
z
M 17.046875 20.125 
Q 17.046875 14.0625 20.796875 9.9375 
Q 24.5625 5.8125 29.296875 5.8125 
Q 32.625 5.8125 36.328125 8.328125 
Q 40.046875 10.84375 42.625 15.96875 
Q 45.21875 21.09375 45.21875 26.171875 
Q 45.21875 32.71875 41.625 36.640625 
Q 38.03125 40.578125 32.953125 40.578125 
Q 27.09375 40.578125 22.0625 34.84375 
Q 17.046875 29.109375 17.046875 20.125 
z
" id="Arial-ItalicMT-54"/>
      <path d="M 14.5 0 
Q 15.671875 7.234375 19.484375 17.390625 
Q 24.03125 29.640625 31.390625 41.71875 
Q 38.765625 53.8125 47.796875 62.5 
L 12.109375 62.5 
L 13.8125 70.609375 
L 59.515625 70.609375 
L 57.859375 62.5 
Q 46.234375 52.296875 37.546875 36.1875 
Q 27.4375 17.578125 23.734375 0 
z
" id="Arial-ItalicMT-55"/>
      <path d="M 5.765625 0 
L 7.859375 10.015625 
L 17.875 10.015625 
L 15.71875 0 
z
" id="Arial-ItalicMT-46"/>
      <path d="M 24.078125 0 
L 35.40625 54.046875 
Q 28.078125 48.296875 14.796875 44.828125 
L 16.453125 52.828125 
Q 23.046875 55.46875 29.46875 59.71875 
Q 35.890625 63.96875 39.109375 67.140625 
Q 41.0625 69.09375 42.828125 71.875 
L 47.953125 71.875 
L 32.953125 0 
z
" id="Arial-ItalicMT-49"/>
      <path d="M 13.96875 -2.640625 
L 73.09375 72.796875 
L 81.109375 72.796875 
L 22.21875 -2.640625 
z
M 9.71875 49.5625 
Q 9.71875 51.5625 10.625 55.703125 
Q 11.53125 59.859375 13.28125 63.125 
Q 15.046875 66.40625 17.1875 68.359375 
Q 19.34375 70.3125 21.875 71.234375 
Q 24.421875 72.171875 27.640625 72.171875 
Q 34.515625 72.171875 38.0625 68.671875 
Q 41.609375 65.1875 41.609375 58.453125 
Q 41.609375 52.828125 39.234375 46.578125 
Q 36.859375 40.328125 32.734375 37.421875 
Q 28.609375 34.515625 22.859375 34.515625 
Q 16.453125 34.515625 13.078125 38.15625 
Q 9.71875 41.796875 9.71875 49.5625 
z
M 17.234375 47.953125 
Q 17.234375 43.84375 18.765625 42.140625 
Q 20.3125 40.4375 22.90625 40.4375 
Q 25.984375 40.4375 28.484375 42.796875 
Q 31 45.171875 32.4375 50.4375 
Q 33.890625 55.71875 33.890625 59.46875 
Q 33.890625 62.75 32.21875 64.5 
Q 30.5625 66.265625 27.875 66.265625 
Q 25.046875 66.265625 22.65625 63.984375 
Q 20.265625 61.71875 18.75 56.78125 
Q 17.234375 51.859375 17.234375 47.953125 
z
M 53.375 12.40625 
Q 53.375 14.40625 54.265625 18.546875 
Q 55.171875 22.703125 56.921875 25.96875 
Q 58.6875 29.25 60.828125 31.203125 
Q 62.984375 33.15625 65.515625 34.078125 
Q 68.0625 35.015625 71.296875 35.015625 
Q 78.171875 35.015625 81.703125 31.515625 
Q 85.25 28.03125 85.25 21.296875 
Q 85.25 15.671875 82.875 9.421875 
Q 80.515625 3.171875 76.390625 0.265625 
Q 72.265625 -2.640625 66.5 -2.640625 
Q 60.109375 -2.640625 56.734375 0.96875 
Q 53.375 4.59375 53.375 12.40625 
z
M 60.890625 10.75 
Q 60.890625 6.6875 62.421875 4.953125 
Q 63.96875 3.21875 66.546875 3.21875 
Q 69.625 3.21875 72.109375 5.578125 
Q 74.609375 7.953125 76.078125 13.203125 
Q 77.546875 18.453125 77.546875 22.265625 
Q 77.546875 25.59375 75.875 27.34375 
Q 74.21875 29.109375 71.53125 29.109375 
Q 68.703125 29.109375 66.3125 26.828125 
Q 63.921875 24.5625 62.40625 19.625 
Q 60.890625 14.703125 60.890625 10.75 
z
" id="Arial-ItalicMT-37"/>
     </defs>
     <use xlink:href="#Arial-ItalicMT-54"/>
     <use x="55.615234" xlink:href="#Arial-ItalicMT-55"/>
     <use x="111.230469" xlink:href="#Arial-ItalicMT-46"/>
     <use x="139.013672" xlink:href="#Arial-ItalicMT-49"/>
     <use x="194.628906" xlink:href="#Arial-ItalicMT-37"/>
    </g>
   </g>
   <g id="text_3">
    <!-- Subdoligranulum -->
    <g style="fill:#404040;" transform="translate(82.451604 156.890665)scale(0.105 -0.105)">
     <defs>
      <path d="M 7.03125 23.140625 
L 16.40625 24.03125 
L 16.3125 21.53125 
Q 16.3125 17.390625 18.21875 13.9375 
Q 20.125 10.5 24.515625 8.609375 
Q 28.90625 6.734375 34.96875 6.734375 
Q 43.5625 6.734375 48.078125 10.5 
Q 52.59375 14.265625 52.59375 19.09375 
Q 52.59375 22.46875 50.203125 25.25 
Q 47.75 27.984375 36.859375 32.671875 
Q 28.421875 36.328125 25.34375 38.28125 
Q 20.515625 41.453125 18.21875 45.1875 
Q 15.921875 48.921875 15.921875 53.71875 
Q 15.921875 59.234375 18.9375 63.671875 
Q 21.96875 68.109375 27.796875 70.453125 
Q 33.640625 72.796875 40.96875 72.796875 
Q 49.703125 72.796875 55.703125 69.859375 
Q 61.71875 66.9375 64.421875 62.046875 
Q 67.140625 57.171875 67.140625 52.734375 
Q 67.140625 52.296875 67.09375 51.265625 
L 57.859375 50.53125 
Q 57.859375 53.5625 57.328125 55.28125 
Q 56.34375 58.25 54.296875 60.296875 
Q 52.25 62.359375 48.65625 63.59375 
Q 45.0625 64.84375 40.625 64.84375 
Q 32.8125 64.84375 28.46875 61.328125 
Q 25.140625 58.640625 25.140625 54.203125 
Q 25.140625 51.5625 26.5 49.484375 
Q 27.875 47.40625 31.453125 45.40625 
Q 33.984375 44 43.5 39.796875 
Q 51.21875 36.375 54.15625 34.421875 
Q 58.0625 31.84375 60.15625 28.15625 
Q 62.25 24.46875 62.25 19.78125 
Q 62.25 13.96875 58.703125 9.0625 
Q 55.171875 4.15625 48.921875 1.46875 
Q 42.671875 -1.21875 34.625 -1.21875 
Q 22.46875 -1.21875 14.765625 4.078125 
Q 7.078125 9.375 7.03125 23.140625 
z
" id="Arial-ItalicMT-83"/>
      <path d="M 38.28125 7.515625 
Q 30.71875 -1.171875 22.46875 -1.171875 
Q 15.09375 -1.171875 10.1875 4.265625 
Q 5.28125 9.71875 5.28125 20.0625 
Q 5.28125 29.546875 9.15625 37.375 
Q 13.03125 45.21875 18.859375 49.125 
Q 24.703125 53.03125 30.5625 53.03125 
Q 40.234375 53.03125 45.171875 43.703125 
L 51.03125 71.578125 
L 59.8125 71.578125 
L 44.875 0 
L 36.71875 0 
z
M 14.0625 21.734375 
Q 14.0625 16.3125 15.140625 13.1875 
Q 16.21875 10.0625 18.796875 7.984375 
Q 21.390625 5.90625 25 5.90625 
Q 31 5.90625 35.890625 12.15625 
Q 42.4375 20.453125 42.4375 32.671875 
Q 42.4375 38.8125 39.203125 42.28125 
Q 35.984375 45.75 31.109375 45.75 
Q 27.9375 45.75 25.3125 44.328125 
Q 22.703125 42.921875 20.140625 39.53125 
Q 17.578125 36.140625 15.8125 30.90625 
Q 14.0625 25.6875 14.0625 21.734375 
z
" id="Arial-ItalicMT-100"/>
      <path d="M 4.890625 19.671875 
Q 4.890625 34.859375 13.8125 44.828125 
Q 21.1875 53.03125 33.15625 53.03125 
Q 42.53125 53.03125 48.265625 47.171875 
Q 54 41.3125 54 31.34375 
Q 54 22.40625 50.390625 14.71875 
Q 46.78125 7.03125 40.109375 2.921875 
Q 33.453125 -1.171875 26.078125 -1.171875 
Q 20.015625 -1.171875 15.0625 1.40625 
Q 10.109375 4 7.5 8.734375 
Q 4.890625 13.484375 4.890625 19.671875 
z
M 13.71875 20.5625 
Q 13.71875 13.234375 17.234375 9.453125 
Q 20.75 5.671875 26.171875 5.671875 
Q 29 5.671875 31.78125 6.8125 
Q 34.578125 7.953125 36.96875 10.296875 
Q 39.359375 12.640625 41.03125 15.640625 
Q 42.71875 18.65625 43.75 22.125 
Q 45.265625 26.953125 45.265625 31.390625 
Q 45.265625 38.421875 41.71875 42.296875 
Q 38.1875 46.1875 32.8125 46.1875 
Q 28.65625 46.1875 25.234375 44.203125 
Q 21.828125 42.234375 19.0625 38.421875 
Q 16.3125 34.625 15.015625 29.5625 
Q 13.71875 24.515625 13.71875 20.5625 
z
" id="Arial-ItalicMT-111"/>
      <path d="M 2.828125 -4.6875 
L 11.765625 -5.515625 
Q 11.671875 -8.546875 12.5 -10.0625 
Q 13.328125 -11.578125 15.140625 -12.40625 
Q 17.53125 -13.484375 21.34375 -13.484375 
Q 29.34375 -13.484375 32.859375 -9.328125 
Q 35.15625 -6.546875 37.109375 2.78125 
L 37.984375 6.984375 
Q 31.109375 0 23.34375 0 
Q 15.484375 0 10.1875 5.78125 
Q 4.890625 11.578125 4.890625 22.171875 
Q 4.890625 30.90625 9.0625 38.234375 
Q 13.234375 45.5625 18.984375 49.296875 
Q 24.75 53.03125 30.859375 53.03125 
Q 41.0625 53.03125 46.578125 43.359375 
L 48.34375 51.859375 
L 56.453125 51.859375 
L 46 1.8125 
Q 44.28125 -6.453125 41.5 -11.0625 
Q 38.71875 -15.671875 33.765625 -18.203125 
Q 28.8125 -20.75 22.3125 -20.75 
Q 16.0625 -20.75 11.546875 -19.140625 
Q 7.03125 -17.53125 4.8125 -14.421875 
Q 2.59375 -11.328125 2.59375 -7.328125 
Q 2.59375 -6.109375 2.828125 -4.6875 
z
M 13.875 22.953125 
Q 13.875 17.625 14.890625 14.9375 
Q 16.359375 11.1875 19.0625 9.203125 
Q 21.78125 7.234375 25.09375 7.234375 
Q 29.4375 7.234375 33.734375 10.28125 
Q 38.03125 13.328125 40.6875 19.71875 
Q 43.359375 26.125 43.359375 31.9375 
Q 43.359375 38.328125 39.8125 42.109375 
Q 36.28125 45.90625 31.0625 45.90625 
Q 27.828125 45.90625 24.796875 44.171875 
Q 21.78125 42.4375 19.15625 38.890625 
Q 16.546875 35.359375 15.203125 30.421875 
Q 13.875 25.484375 13.875 22.953125 
z
" id="Arial-ItalicMT-103"/>
      <path d="M 3.328125 0 
L 14.15625 51.859375 
L 22.171875 51.859375 
L 20.265625 42.828125 
Q 25.484375 48.140625 30.03125 50.578125 
Q 34.578125 53.03125 39.3125 53.03125 
Q 45.609375 53.03125 49.1875 49.609375 
Q 52.78125 46.1875 52.78125 40.484375 
Q 52.78125 37.59375 51.515625 31.390625 
L 44.921875 0 
L 36.078125 0 
L 42.96875 32.859375 
Q 44 37.640625 44 39.9375 
Q 44 42.53125 42.21875 44.140625 
Q 40.4375 45.75 37.0625 45.75 
Q 30.28125 45.75 24.96875 40.859375 
Q 19.671875 35.984375 17.1875 24.125 
L 12.15625 0 
z
" id="Arial-ItalicMT-110"/>
     </defs>
     <use xlink:href="#Arial-ItalicMT-83"/>
     <use x="66.699219" xlink:href="#Arial-ItalicMT-117"/>
     <use x="122.314453" xlink:href="#Arial-ItalicMT-98"/>
     <use x="177.929688" xlink:href="#Arial-ItalicMT-100"/>
     <use x="233.544922" xlink:href="#Arial-ItalicMT-111"/>
     <use x="289.160156" xlink:href="#Arial-ItalicMT-108"/>
     <use x="311.376953" xlink:href="#Arial-ItalicMT-105"/>
     <use x="333.59375" xlink:href="#Arial-ItalicMT-103"/>
     <use x="389.208984" xlink:href="#Arial-ItalicMT-114"/>
     <use x="422.509766" xlink:href="#Arial-ItalicMT-97"/>
     <use x="478.125" xlink:href="#Arial-ItalicMT-110"/>
     <use x="533.740234" xlink:href="#Arial-ItalicMT-117"/>
     <use x="589.355469" xlink:href="#Arial-ItalicMT-108"/>
     <use x="611.572266" xlink:href="#Arial-ItalicMT-117"/>
     <use x="667.1875" xlink:href="#Arial-ItalicMT-109"/>
    </g>
   </g>
   <g id="text_4">
    <!-- 11.7% -->
    <g style="fill:#404040;" transform="translate(150.818273 124.453725)scale(0.105 -0.105)">
     <use xlink:href="#Arial-ItalicMT-49"/>
     <use x="48.240234" xlink:href="#Arial-ItalicMT-49"/>
     <use x="103.855469" xlink:href="#Arial-ItalicMT-46"/>
     <use x="131.638672" xlink:href="#Arial-ItalicMT-55"/>
     <use x="187.253906" xlink:href="#Arial-ItalicMT-37"/>
    </g>
   </g>
   <g id="text_5">
    <!-- Ruminococcus -->
    <g style="fill:#404040;" transform="translate(203.686132 149.15548)scale(0.105 -0.105)">
     <defs>
      <path d="M 4.6875 0 
L 19.671875 71.578125 
L 49.703125 71.578125 
Q 58.59375 71.578125 63.1875 70.09375 
Q 67.78125 68.609375 70.390625 64.5 
Q 73 60.40625 73 54.15625 
Q 73 45.40625 67.28125 39.640625 
Q 61.578125 33.890625 48.828125 32.171875 
Q 52.734375 29.296875 54.734375 26.515625 
Q 59.234375 20.21875 61.96875 13.484375 
L 67.4375 0 
L 56.734375 0 
L 51.609375 13.328125 
Q 48.828125 20.5625 45.265625 25.828125 
Q 42.828125 29.5 40.28125 30.640625 
Q 37.75 31.78125 32.03125 31.78125 
L 20.90625 31.78125 
L 14.265625 0 
z
M 22.515625 39.546875 
L 35.75 39.546875 
Q 44.921875 39.546875 47.703125 39.796875 
Q 53.125 40.328125 56.59375 42.234375 
Q 60.0625 44.140625 61.96875 47.359375 
Q 63.875 50.59375 63.875 54.296875 
Q 63.875 57.421875 62.453125 59.734375 
Q 61.03125 62.0625 58.734375 62.890625 
Q 56.453125 63.71875 50.921875 63.71875 
L 27.59375 63.71875 
z
" id="Arial-ItalicMT-82"/>
      <path d="M 4.15625 17.71875 
L 12.984375 18.265625 
Q 12.984375 14.453125 14.15625 11.765625 
Q 15.328125 9.078125 18.46875 7.375 
Q 21.625 5.671875 25.828125 5.671875 
Q 31.6875 5.671875 34.609375 8.015625 
Q 37.546875 10.359375 37.546875 13.53125 
Q 37.546875 15.828125 35.796875 17.875 
Q 33.984375 19.921875 26.96875 22.921875 
Q 19.96875 25.921875 18.015625 27.15625 
Q 14.75 29.15625 13.078125 31.859375 
Q 11.421875 34.578125 11.421875 38.09375 
Q 11.421875 44.234375 16.296875 48.625 
Q 21.1875 53.03125 29.984375 53.03125 
Q 39.75 53.03125 44.84375 48.515625 
Q 49.953125 44 50.140625 36.625 
L 41.5 36.03125 
Q 41.3125 40.71875 38.1875 43.453125 
Q 35.0625 46.1875 29.34375 46.1875 
Q 24.75 46.1875 22.203125 44.09375 
Q 19.671875 42 19.671875 39.546875 
Q 19.671875 37.109375 21.875 35.25 
Q 23.34375 33.984375 29.4375 31.34375 
Q 39.59375 26.953125 42.234375 24.421875 
Q 46.4375 20.359375 46.4375 14.546875 
Q 46.4375 10.6875 44.0625 6.96875 
Q 41.703125 3.265625 36.84375 1.046875 
Q 31.984375 -1.171875 25.390625 -1.171875 
Q 16.40625 -1.171875 10.109375 3.265625 
Q 3.8125 7.71875 4.15625 17.71875 
z
" id="Arial-ItalicMT-115"/>
     </defs>
     <use xlink:href="#Arial-ItalicMT-82"/>
     <use x="72.216797" xlink:href="#Arial-ItalicMT-117"/>
     <use x="127.832031" xlink:href="#Arial-ItalicMT-109"/>
     <use x="211.132812" xlink:href="#Arial-ItalicMT-105"/>
     <use x="233.349609" xlink:href="#Arial-ItalicMT-110"/>
     <use x="288.964844" xlink:href="#Arial-ItalicMT-111"/>
     <use x="344.580078" xlink:href="#Arial-ItalicMT-99"/>
     <use x="394.580078" xlink:href="#Arial-ItalicMT-111"/>
     <use x="450.195312" xlink:href="#Arial-ItalicMT-99"/>
     <use x="500.195312" xlink:href="#Arial-ItalicMT-99"/>
     <use x="550.195312" xlink:href="#Arial-ItalicMT-117"/>
     <use x="605.810547" xlink:href="#Arial-ItalicMT-115"/>
    </g>
   </g>
   <g id="text_6">
    <!-- 7.7% -->
    <g style="fill:#404040;" transform="translate(176.4989 120.244377)scale(0.105 -0.105)">
     <use xlink:href="#Arial-ItalicMT-55"/>
     <use x="55.615234" xlink:href="#Arial-ItalicMT-46"/>
     <use x="83.398438" xlink:href="#Arial-ItalicMT-55"/>
     <use x="139.013672" xlink:href="#Arial-ItalicMT-37"/>
    </g>
   </g>
   <g id="text_7">
    <!-- Others -->
    <g style="fill:#404040;" transform="translate(235.74814 115.050784)scale(0.105 -0.105)">
     <defs>
      <path d="M 9.125 29.984375 
Q 9.125 49.125 20.1875 60.953125 
Q 31.25 72.796875 47.015625 72.796875 
Q 60.40625 72.796875 68.828125 64.078125 
Q 77.25 55.375 77.25 40.71875 
Q 77.25 30.28125 73 21.34375 
Q 69.828125 14.65625 64.984375 9.796875 
Q 60.15625 4.9375 54.640625 2.296875 
Q 47.3125 -1.21875 39.109375 -1.21875 
Q 30.515625 -1.21875 23.453125 2.875 
Q 16.40625 6.984375 12.765625 14.328125 
Q 9.125 21.6875 9.125 29.984375 
z
M 18.5625 29.5 
Q 18.5625 23.1875 21.171875 17.90625 
Q 23.78125 12.640625 28.953125 9.65625 
Q 34.125 6.6875 39.84375 6.6875 
Q 45.359375 6.6875 50.34375 9.296875 
Q 55.328125 11.921875 59.25 16.578125 
Q 63.1875 21.234375 65.453125 28.046875 
Q 67.71875 34.859375 67.71875 41.453125 
Q 67.71875 52.15625 61.734375 58.5 
Q 55.765625 64.84375 46.96875 64.84375 
Q 35.75 64.84375 27.15625 55.25 
Q 18.5625 45.65625 18.5625 29.5 
z
" id="Arial-ItalicMT-79"/>
      <path d="M 3.328125 0 
L 18.265625 71.578125 
L 27.09375 71.578125 
L 21.390625 44.09375 
Q 26.3125 48.875 30.5625 50.953125 
Q 34.8125 53.03125 39.3125 53.03125 
Q 45.75 53.03125 49.3125 49.625 
Q 52.875 46.234375 52.875 40.671875 
Q 52.875 37.9375 51.3125 30.609375 
L 44.921875 0 
L 36.078125 0 
L 42.671875 31.390625 
Q 44.09375 38.234375 44.09375 39.984375 
Q 44.09375 42.53125 42.328125 44.140625 
Q 40.578125 45.75 37.25 45.75 
Q 32.46875 45.75 28.125 43.234375 
Q 23.78125 40.71875 21.3125 36.34375 
Q 18.84375 31.984375 16.796875 22.265625 
L 12.15625 0 
z
" id="Arial-ItalicMT-104"/>
     </defs>
     <use xlink:href="#Arial-ItalicMT-79"/>
     <use x="77.783203" xlink:href="#Arial-ItalicMT-116"/>
     <use x="105.566406" xlink:href="#Arial-ItalicMT-104"/>
     <use x="161.181641" xlink:href="#Arial-ItalicMT-101"/>
     <use x="216.796875" xlink:href="#Arial-ItalicMT-114"/>
     <use x="250.097656" xlink:href="#Arial-ItalicMT-115"/>
    </g>
   </g>
   <g id="text_8">
    <!-- 13.5% -->
    <g style="fill:#404040;" transform="translate(191.067776 101.641815)scale(0.105 -0.105)">
     <defs>
      <path d="M 5.46875 18.75 
L 14.0625 19.828125 
Q 15.046875 12.3125 18.390625 9.0625 
Q 21.734375 5.8125 27.15625 5.8125 
Q 33.6875 5.8125 38.453125 10.5 
Q 43.21875 15.1875 43.21875 21.234375 
Q 43.21875 26.515625 39.640625 29.953125 
Q 36.078125 33.40625 30.078125 33.40625 
Q 29.390625 33.40625 27.25 33.203125 
L 28.765625 40.578125 
Q 30.03125 40.375 31.203125 40.375 
Q 38.765625 40.375 42.84375 44.0625 
Q 46.921875 47.75 46.921875 53.125 
Q 46.921875 58.0625 43.578125 61.421875 
Q 40.234375 64.796875 35.40625 64.796875 
Q 30.671875 64.796875 26.875 61.34375 
Q 23.09375 57.90625 22.015625 51.609375 
L 13.328125 53.375 
Q 15.484375 62.203125 21.578125 67.03125 
Q 27.6875 71.875 36.03125 71.875 
Q 44.828125 71.875 50.265625 66.546875 
Q 55.71875 61.234375 55.71875 53.46875 
Q 55.71875 47.796875 52.765625 43.578125 
Q 49.8125 39.359375 43.890625 36.578125 
Q 48.09375 34.078125 50.171875 30.5625 
Q 52.25 27.046875 52.25 22.515625 
Q 52.25 12.890625 45.046875 5.828125 
Q 37.84375 -1.21875 27.828125 -1.21875 
Q 18.109375 -1.21875 12.125 4.21875 
Q 6.15625 9.671875 5.46875 18.75 
z
" id="Arial-ItalicMT-51"/>
      <path d="M 6.984375 20.453125 
L 15.96875 21.34375 
Q 15.875 19.4375 15.875 19.046875 
Q 15.875 15.828125 17.5 12.546875 
Q 19.140625 9.28125 21.9375 7.546875 
Q 24.75 5.8125 27.875 5.8125 
Q 31.984375 5.8125 36.234375 8.640625 
Q 40.484375 11.46875 43.109375 16.890625 
Q 45.75 22.3125 45.75 27.640625 
Q 45.75 33.640625 42.203125 37.25 
Q 38.671875 40.875 32.90625 40.875 
Q 29.046875 40.875 25.609375 39.015625 
Q 22.171875 37.15625 19.1875 33.453125 
L 11.46875 33.984375 
L 22.265625 70.609375 
L 57.234375 70.609375 
L 55.515625 62.5 
L 28.328125 62.5 
L 22.953125 44.28125 
Q 25.984375 46.484375 29.171875 47.578125 
Q 32.375 48.6875 35.75 48.6875 
Q 43.953125 48.6875 49.21875 43.265625 
Q 54.5 37.84375 54.5 28.421875 
Q 54.5 20.171875 50.875 13.203125 
Q 47.265625 6.25 40.9375 2.515625 
Q 34.625 -1.21875 27.296875 -1.21875 
Q 21.140625 -1.21875 16.40625 1.5625 
Q 11.671875 4.34375 9.296875 9.21875 
Q 6.9375 14.109375 6.9375 19 
Q 6.9375 19.484375 6.984375 20.453125 
z
" id="Arial-ItalicMT-53"/>
     </defs>
     <use xlink:href="#Arial-ItalicMT-49"/>
     <use x="55.615234" xlink:href="#Arial-ItalicMT-51"/>
     <use x="111.230469" xlink:href="#Arial-ItalicMT-46"/>
     <use x="139.013672" xlink:href="#Arial-ItalicMT-53"/>
     <use x="194.628906" xlink:href="#Arial-ItalicMT-37"/>
    </g>
   </g>
  </g>
  <g id="text_9">
   <!-- Ruminococcaceae -->
   <g style="fill:#915cc8;" transform="translate(126.891748 93.543307)scale(0.105 -0.105)">
    <defs>
     <path d="M 7.859375 0 
L 7.859375 71.578125 
L 39.59375 71.578125 
Q 49.171875 71.578125 54.140625 69.640625 
Q 59.125 67.71875 62.109375 62.828125 
Q 65.09375 57.953125 65.09375 52.046875 
Q 65.09375 44.4375 60.15625 39.203125 
Q 55.21875 33.984375 44.921875 32.5625 
Q 48.6875 30.765625 50.640625 29 
Q 54.78125 25.203125 58.5 19.484375 
L 70.953125 0 
L 59.03125 0 
L 49.5625 14.890625 
Q 45.40625 21.34375 42.71875 24.75 
Q 40.046875 28.171875 37.921875 29.53125 
Q 35.796875 30.90625 33.59375 31.453125 
Q 31.984375 31.78125 28.328125 31.78125 
L 17.328125 31.78125 
L 17.328125 0 
z
M 17.328125 39.984375 
L 37.703125 39.984375 
Q 44.1875 39.984375 47.84375 41.328125 
Q 51.515625 42.671875 53.421875 45.625 
Q 55.328125 48.578125 55.328125 52.046875 
Q 55.328125 57.125 51.640625 60.390625 
Q 47.953125 63.671875 39.984375 63.671875 
L 17.328125 63.671875 
z
" id="ArialMT-82"/>
     <path d="M 40.578125 0 
L 40.578125 7.625 
Q 34.515625 -1.171875 24.125 -1.171875 
Q 19.53125 -1.171875 15.546875 0.578125 
Q 11.578125 2.34375 9.640625 5 
Q 7.71875 7.671875 6.9375 11.53125 
Q 6.390625 14.109375 6.390625 19.734375 
L 6.390625 51.859375 
L 15.1875 51.859375 
L 15.1875 23.09375 
Q 15.1875 16.21875 15.71875 13.8125 
Q 16.546875 10.359375 19.234375 8.375 
Q 21.921875 6.390625 25.875 6.390625 
Q 29.828125 6.390625 33.296875 8.421875 
Q 36.765625 10.453125 38.203125 13.9375 
Q 39.65625 17.4375 39.65625 24.078125 
L 39.65625 51.859375 
L 48.4375 51.859375 
L 48.4375 0 
z
" id="ArialMT-117"/>
     <path d="M 6.59375 0 
L 6.59375 51.859375 
L 14.453125 51.859375 
L 14.453125 44.578125 
Q 16.890625 48.390625 20.9375 50.703125 
Q 25 53.03125 30.171875 53.03125 
Q 35.9375 53.03125 39.625 50.640625 
Q 43.3125 48.25 44.828125 43.953125 
Q 50.984375 53.03125 60.84375 53.03125 
Q 68.5625 53.03125 72.703125 48.75 
Q 76.859375 44.484375 76.859375 35.59375 
L 76.859375 0 
L 68.109375 0 
L 68.109375 32.671875 
Q 68.109375 37.9375 67.25 40.25 
Q 66.40625 42.578125 64.15625 43.984375 
Q 61.921875 45.40625 58.890625 45.40625 
Q 53.421875 45.40625 49.796875 41.765625 
Q 46.1875 38.140625 46.1875 30.125 
L 46.1875 0 
L 37.40625 0 
L 37.40625 33.6875 
Q 37.40625 39.546875 35.25 42.46875 
Q 33.109375 45.40625 28.21875 45.40625 
Q 24.515625 45.40625 21.359375 43.453125 
Q 18.21875 41.5 16.796875 37.734375 
Q 15.375 33.984375 15.375 26.90625 
L 15.375 0 
z
" id="ArialMT-109"/>
     <path d="M 6.640625 61.46875 
L 6.640625 71.578125 
L 15.4375 71.578125 
L 15.4375 61.46875 
z
M 6.640625 0 
L 6.640625 51.859375 
L 15.4375 51.859375 
L 15.4375 0 
z
" id="ArialMT-105"/>
     <path d="M 6.59375 0 
L 6.59375 51.859375 
L 14.5 51.859375 
L 14.5 44.484375 
Q 20.21875 53.03125 31 53.03125 
Q 35.6875 53.03125 39.625 51.34375 
Q 43.5625 49.65625 45.515625 46.921875 
Q 47.46875 44.1875 48.25 40.4375 
Q 48.734375 37.984375 48.734375 31.890625 
L 48.734375 0 
L 39.9375 0 
L 39.9375 31.546875 
Q 39.9375 36.921875 38.90625 39.578125 
Q 37.890625 42.234375 35.28125 43.8125 
Q 32.671875 45.40625 29.15625 45.40625 
Q 23.53125 45.40625 19.453125 41.84375 
Q 15.375 38.28125 15.375 28.328125 
L 15.375 0 
z
" id="ArialMT-110"/>
     <path d="M 3.328125 25.921875 
Q 3.328125 40.328125 11.328125 47.265625 
Q 18.015625 53.03125 27.640625 53.03125 
Q 38.328125 53.03125 45.109375 46.015625 
Q 51.90625 39.015625 51.90625 26.65625 
Q 51.90625 16.65625 48.90625 10.90625 
Q 45.90625 5.171875 40.15625 2 
Q 34.421875 -1.171875 27.640625 -1.171875 
Q 16.75 -1.171875 10.03125 5.8125 
Q 3.328125 12.796875 3.328125 25.921875 
z
M 12.359375 25.921875 
Q 12.359375 15.96875 16.703125 11.015625 
Q 21.046875 6.0625 27.640625 6.0625 
Q 34.1875 6.0625 38.53125 11.03125 
Q 42.875 16.015625 42.875 26.21875 
Q 42.875 35.84375 38.5 40.796875 
Q 34.125 45.75 27.640625 45.75 
Q 21.046875 45.75 16.703125 40.8125 
Q 12.359375 35.890625 12.359375 25.921875 
z
" id="ArialMT-111"/>
     <path d="M 40.4375 19 
L 49.078125 17.875 
Q 47.65625 8.9375 41.8125 3.875 
Q 35.984375 -1.171875 27.484375 -1.171875 
Q 16.84375 -1.171875 10.375 5.78125 
Q 3.90625 12.75 3.90625 25.734375 
Q 3.90625 34.125 6.6875 40.421875 
Q 9.46875 46.734375 15.15625 49.875 
Q 20.84375 53.03125 27.546875 53.03125 
Q 35.984375 53.03125 41.359375 48.75 
Q 46.734375 44.484375 48.25 36.625 
L 39.703125 35.296875 
Q 38.484375 40.53125 35.375 43.15625 
Q 32.28125 45.796875 27.875 45.796875 
Q 21.234375 45.796875 17.078125 41.03125 
Q 12.9375 36.28125 12.9375 25.984375 
Q 12.9375 15.53125 16.9375 10.796875 
Q 20.953125 6.0625 27.390625 6.0625 
Q 32.5625 6.0625 36.03125 9.234375 
Q 39.5 12.40625 40.4375 19 
z
" id="ArialMT-99"/>
     <path d="M 40.4375 6.390625 
Q 35.546875 2.25 31.03125 0.53125 
Q 26.515625 -1.171875 21.34375 -1.171875 
Q 12.796875 -1.171875 8.203125 3 
Q 3.609375 7.171875 3.609375 13.671875 
Q 3.609375 17.484375 5.34375 20.625 
Q 7.078125 23.78125 9.890625 25.6875 
Q 12.703125 27.59375 16.21875 28.5625 
Q 18.796875 29.25 24.03125 29.890625 
Q 34.671875 31.15625 39.703125 32.90625 
Q 39.75 34.71875 39.75 35.203125 
Q 39.75 40.578125 37.25 42.78125 
Q 33.890625 45.75 27.25 45.75 
Q 21.046875 45.75 18.09375 43.578125 
Q 15.140625 41.40625 13.71875 35.890625 
L 5.125 37.0625 
Q 6.296875 42.578125 8.984375 45.96875 
Q 11.671875 49.359375 16.75 51.1875 
Q 21.828125 53.03125 28.515625 53.03125 
Q 35.15625 53.03125 39.296875 51.46875 
Q 43.453125 49.90625 45.40625 47.53125 
Q 47.359375 45.171875 48.140625 41.546875 
Q 48.578125 39.3125 48.578125 33.453125 
L 48.578125 21.734375 
Q 48.578125 9.46875 49.140625 6.21875 
Q 49.703125 2.984375 51.375 0 
L 42.1875 0 
Q 40.828125 2.734375 40.4375 6.390625 
z
M 39.703125 26.03125 
Q 34.90625 24.078125 25.34375 22.703125 
Q 19.921875 21.921875 17.671875 20.9375 
Q 15.4375 19.96875 14.203125 18.09375 
Q 12.984375 16.21875 12.984375 13.921875 
Q 12.984375 10.40625 15.640625 8.0625 
Q 18.3125 5.71875 23.4375 5.71875 
Q 28.515625 5.71875 32.46875 7.9375 
Q 36.421875 10.15625 38.28125 14.015625 
Q 39.703125 17 39.703125 22.796875 
z
" id="ArialMT-97"/>
     <path d="M 42.09375 16.703125 
L 51.171875 15.578125 
Q 49.03125 7.625 43.21875 3.21875 
Q 37.40625 -1.171875 28.375 -1.171875 
Q 17 -1.171875 10.328125 5.828125 
Q 3.65625 12.84375 3.65625 25.484375 
Q 3.65625 38.578125 10.390625 45.796875 
Q 17.140625 53.03125 27.875 53.03125 
Q 38.28125 53.03125 44.875 45.953125 
Q 51.46875 38.875 51.46875 26.03125 
Q 51.46875 25.25 51.421875 23.6875 
L 12.75 23.6875 
Q 13.234375 15.140625 17.578125 10.59375 
Q 21.921875 6.0625 28.421875 6.0625 
Q 33.25 6.0625 36.671875 8.59375 
Q 40.09375 11.140625 42.09375 16.703125 
z
M 13.234375 30.90625 
L 42.1875 30.90625 
Q 41.609375 37.453125 38.875 40.71875 
Q 34.671875 45.796875 27.984375 45.796875 
Q 21.921875 45.796875 17.796875 41.75 
Q 13.671875 37.703125 13.234375 30.90625 
z
" id="ArialMT-101"/>
    </defs>
    <use xlink:href="#ArialMT-82"/>
    <use x="72.216797" xlink:href="#ArialMT-117"/>
    <use x="127.832031" xlink:href="#ArialMT-109"/>
    <use x="211.132812" xlink:href="#ArialMT-105"/>
    <use x="233.349609" xlink:href="#ArialMT-110"/>
    <use x="288.964844" xlink:href="#ArialMT-111"/>
    <use x="344.580078" xlink:href="#ArialMT-99"/>
    <use x="394.580078" xlink:href="#ArialMT-111"/>
    <use x="450.195312" xlink:href="#ArialMT-99"/>
    <use x="500.195312" xlink:href="#ArialMT-99"/>
    <use x="550.195312" xlink:href="#ArialMT-97"/>
    <use x="605.810547" xlink:href="#ArialMT-99"/>
    <use x="655.810547" xlink:href="#ArialMT-101"/>
    <use x="711.425781" xlink:href="#ArialMT-97"/>
    <use x="767.041016" xlink:href="#ArialMT-101"/>
   </g>
  </g>
 </g>
 <defs>
  <clipPath id="pa20ede2957">
   <rect height="144.444025" width="318.55748" x="10.8" y="10.8"/>
  </clipPath>
 </defs>
</svg>
