<?xml version="1.0" encoding="utf-8" standalone="no"?>
<!DOCTYPE svg PUBLIC "-//W3C//DTD SVG 1.1//EN"
  "http://www.w3.org/Graphics/SVG/1.1/DTD/svg11.dtd">
<!-- Created with matplotlib (https://matplotlib.org/) -->
<svg height="422.1575pt" version="1.1" viewBox="0 0 1287.082045 422.1575" width="1287.082045pt" xmlns="http://www.w3.org/2000/svg" xmlns:xlink="http://www.w3.org/1999/xlink">
 <metadata>
  <rdf:RDF xmlns:cc="http://creativecommons.org/ns#" xmlns:dc="http://purl.org/dc/elements/1.1/" xmlns:rdf="http://www.w3.org/1999/02/22-rdf-syntax-ns#">
   <cc:Work>
    <dc:type rdf:resource="http://purl.org/dc/dcmitype/StillImage"/>
    <dc:date>2021-11-17T13:15:29.869104</dc:date>
    <dc:format>image/svg+xml</dc:format>
    <dc:creator>
     <cc:Agent>
      <dc:title>Matplotlib v3.3.4, https://matplotlib.org/</dc:title>
     </cc:Agent>
    </dc:creator>
   </cc:Work>
  </rdf:RDF>
 </metadata>
 <defs>
  <style type="text/css">*{stroke-linecap:butt;stroke-linejoin:round;}</style>
 </defs>
 <g id="figure_1">
  <g id="patch_1">
   <path d="M 0 422.1575 
L 1287.082045 422.1575 
L 1287.082045 0 
L 0 0 
z
" style="fill:#ffffff;"/>
  </g>
  <g id="axes_1">
   <g id="patch_2">
    <path d="M 70.00875 363.27875 
L 512.332614 363.27875 
L 512.332614 30.37875 
L 70.00875 30.37875 
z
" style="fill:#ffffff;"/>
   </g>
   <g id="matplotlib.axis_1">
    <g id="xtick_1">
     <g id="line2d_1"/>
     <g id="text_1">
      <!-- 0 -->
      <g style="fill:#262626;" transform="translate(83.441255 383.9575)scale(0.24 -0.24)">
       <defs>
        <path d="M 4.15625 35.296875 
Q 4.15625 48 6.765625 55.734375 
Q 9.375 63.484375 14.515625 67.671875 
Q 19.671875 71.875 27.484375 71.875 
Q 33.25 71.875 37.59375 69.546875 
Q 41.9375 67.234375 44.765625 62.859375 
Q 47.609375 58.5 49.21875 52.21875 
Q 50.828125 45.953125 50.828125 35.296875 
Q 50.828125 22.703125 48.234375 14.96875 
Q 45.65625 7.234375 40.5 3 
Q 35.359375 -1.21875 27.484375 -1.21875 
Q 17.140625 -1.21875 11.234375 6.203125 
Q 4.15625 15.140625 4.15625 35.296875 
z
M 13.1875 35.296875 
Q 13.1875 17.671875 17.3125 11.828125 
Q 21.4375 6 27.484375 6 
Q 33.546875 6 37.671875 11.859375 
Q 41.796875 17.71875 41.796875 35.296875 
Q 41.796875 52.984375 37.671875 58.78125 
Q 33.546875 64.59375 27.390625 64.59375 
Q 21.34375 64.59375 17.71875 59.46875 
Q 13.1875 52.9375 13.1875 35.296875 
z
" id="ArialMT-48"/>
       </defs>
       <use xlink:href="#ArialMT-48"/>
      </g>
     </g>
    </g>
    <g id="xtick_2">
     <g id="line2d_2"/>
     <g id="text_2">
      <!-- 10 -->
      <g style="fill:#262626;" transform="translate(220.379774 383.9575)scale(0.24 -0.24)">
       <defs>
        <path d="M 37.25 0 
L 28.46875 0 
L 28.46875 56 
Q 25.296875 52.984375 20.140625 49.953125 
Q 14.984375 46.921875 10.890625 45.40625 
L 10.890625 53.90625 
Q 18.265625 57.375 23.78125 62.296875 
Q 29.296875 67.234375 31.59375 71.875 
L 37.25 71.875 
z
" id="ArialMT-49"/>
       </defs>
       <use xlink:href="#ArialMT-49"/>
       <use x="55.615234" xlink:href="#ArialMT-48"/>
      </g>
     </g>
    </g>
    <g id="xtick_3">
     <g id="line2d_3"/>
     <g id="text_3">
      <!-- 20 -->
      <g style="fill:#262626;" transform="translate(363.991418 383.9575)scale(0.24 -0.24)">
       <defs>
        <path d="M 50.34375 8.453125 
L 50.34375 0 
L 3.03125 0 
Q 2.9375 3.171875 4.046875 6.109375 
Q 5.859375 10.9375 9.828125 15.625 
Q 13.8125 20.3125 21.34375 26.46875 
Q 33.015625 36.03125 37.109375 41.625 
Q 41.21875 47.21875 41.21875 52.203125 
Q 41.21875 57.421875 37.46875 61 
Q 33.734375 64.59375 27.734375 64.59375 
Q 21.390625 64.59375 17.578125 60.78125 
Q 13.765625 56.984375 13.71875 50.25 
L 4.6875 51.171875 
Q 5.609375 61.28125 11.65625 66.578125 
Q 17.71875 71.875 27.9375 71.875 
Q 38.234375 71.875 44.234375 66.15625 
Q 50.25 60.453125 50.25 52 
Q 50.25 47.703125 48.484375 43.546875 
Q 46.734375 39.40625 42.65625 34.8125 
Q 38.578125 30.21875 29.109375 22.21875 
Q 21.1875 15.578125 18.9375 13.203125 
Q 16.703125 10.84375 15.234375 8.453125 
z
" id="ArialMT-50"/>
       </defs>
       <use xlink:href="#ArialMT-50"/>
       <use x="55.615234" xlink:href="#ArialMT-48"/>
      </g>
     </g>
    </g>
    <g id="text_4">
     <!-- Day -->
     <g style="fill:#262626;" transform="translate(269.831307 409.90625)scale(0.24 -0.24)">
      <defs>
       <path d="M 7.71875 0 
L 7.71875 71.578125 
L 32.375 71.578125 
Q 40.71875 71.578125 45.125 70.5625 
Q 51.265625 69.140625 55.609375 65.4375 
Q 61.28125 60.640625 64.078125 53.1875 
Q 66.890625 45.75 66.890625 36.1875 
Q 66.890625 28.03125 64.984375 21.734375 
Q 63.09375 15.4375 60.109375 11.296875 
Q 57.125 7.171875 53.578125 4.796875 
Q 50.046875 2.4375 45.046875 1.21875 
Q 40.046875 0 33.546875 0 
z
M 17.1875 8.453125 
L 32.46875 8.453125 
Q 39.546875 8.453125 43.578125 9.765625 
Q 47.609375 11.078125 50 13.484375 
Q 53.375 16.84375 55.25 22.53125 
Q 57.125 28.21875 57.125 36.328125 
Q 57.125 47.5625 53.4375 53.59375 
Q 49.75 59.625 44.484375 61.671875 
Q 40.671875 63.140625 32.234375 63.140625 
L 17.1875 63.140625 
z
" id="ArialMT-68"/>
       <path d="M 40.4375 6.390625 
Q 35.546875 2.25 31.03125 0.53125 
Q 26.515625 -1.171875 21.34375 -1.171875 
Q 12.796875 -1.171875 8.203125 3 
Q 3.609375 7.171875 3.609375 13.671875 
Q 3.609375 17.484375 5.34375 20.625 
Q 7.078125 23.78125 9.890625 25.6875 
Q 12.703125 27.59375 16.21875 28.5625 
Q 18.796875 29.25 24.03125 29.890625 
Q 34.671875 31.15625 39.703125 32.90625 
Q 39.75 34.71875 39.75 35.203125 
Q 39.75 40.578125 37.25 42.78125 
Q 33.890625 45.75 27.25 45.75 
Q 21.046875 45.75 18.09375 43.578125 
Q 15.140625 41.40625 13.71875 35.890625 
L 5.125 37.0625 
Q 6.296875 42.578125 8.984375 45.96875 
Q 11.671875 49.359375 16.75 51.1875 
Q 21.828125 53.03125 28.515625 53.03125 
Q 35.15625 53.03125 39.296875 51.46875 
Q 43.453125 49.90625 45.40625 47.53125 
Q 47.359375 45.171875 48.140625 41.546875 
Q 48.578125 39.3125 48.578125 33.453125 
L 48.578125 21.734375 
Q 48.578125 9.46875 49.140625 6.21875 
Q 49.703125 2.984375 51.375 0 
L 42.1875 0 
Q 40.828125 2.734375 40.4375 6.390625 
z
M 39.703125 26.03125 
Q 34.90625 24.078125 25.34375 22.703125 
Q 19.921875 21.921875 17.671875 20.9375 
Q 15.4375 19.96875 14.203125 18.09375 
Q 12.984375 16.21875 12.984375 13.921875 
Q 12.984375 10.40625 15.640625 8.0625 
Q 18.3125 5.71875 23.4375 5.71875 
Q 28.515625 5.71875 32.46875 7.9375 
Q 36.421875 10.15625 38.28125 14.015625 
Q 39.703125 17 39.703125 22.796875 
z
" id="ArialMT-97"/>
       <path d="M 6.203125 -19.96875 
L 5.21875 -11.71875 
Q 8.109375 -12.5 10.25 -12.5 
Q 13.1875 -12.5 14.9375 -11.515625 
Q 16.703125 -10.546875 17.828125 -8.796875 
Q 18.65625 -7.46875 20.515625 -2.25 
Q 20.75 -1.515625 21.296875 -0.09375 
L 1.609375 51.859375 
L 11.078125 51.859375 
L 21.875 21.828125 
Q 23.96875 16.109375 25.640625 9.8125 
Q 27.15625 15.875 29.25 21.625 
L 40.328125 51.859375 
L 49.125 51.859375 
L 29.390625 -0.875 
Q 26.21875 -9.421875 24.46875 -12.640625 
Q 22.125 -17 19.09375 -19.015625 
Q 16.0625 -21.046875 11.859375 -21.046875 
Q 9.328125 -21.046875 6.203125 -19.96875 
z
" id="ArialMT-121"/>
      </defs>
      <use xlink:href="#ArialMT-68"/>
      <use x="72.216797" xlink:href="#ArialMT-97"/>
      <use x="127.832031" xlink:href="#ArialMT-121"/>
     </g>
    </g>
   </g>
   <g id="matplotlib.axis_2">
    <g id="ytick_1">
     <g id="line2d_4"/>
     <g id="text_5">
      <!-- 0.0 -->
      <g style="fill:#262626;" transform="translate(33.14875 360.653031)scale(0.24 -0.24)">
       <defs>
        <path d="M 9.078125 0 
L 9.078125 10.015625 
L 19.09375 10.015625 
L 19.09375 0 
z
" id="ArialMT-46"/>
       </defs>
       <use xlink:href="#ArialMT-48"/>
       <use x="55.615234" xlink:href="#ArialMT-46"/>
       <use x="83.398438" xlink:href="#ArialMT-48"/>
      </g>
     </g>
    </g>
    <g id="ytick_2">
     <g id="line2d_5"/>
     <g id="text_6">
      <!-- 0.2 -->
      <g style="fill:#262626;" transform="translate(33.14875 251.959133)scale(0.24 -0.24)">
       <use xlink:href="#ArialMT-48"/>
       <use x="55.615234" xlink:href="#ArialMT-46"/>
       <use x="83.398438" xlink:href="#ArialMT-50"/>
      </g>
     </g>
    </g>
    <g id="ytick_3">
     <g id="line2d_6"/>
     <g id="text_7">
      <!-- 0.4 -->
      <g style="fill:#262626;" transform="translate(33.14875 143.265234)scale(0.24 -0.24)">
       <defs>
        <path d="M 32.328125 0 
L 32.328125 17.140625 
L 1.265625 17.140625 
L 1.265625 25.203125 
L 33.9375 71.578125 
L 41.109375 71.578125 
L 41.109375 25.203125 
L 50.78125 25.203125 
L 50.78125 17.140625 
L 41.109375 17.140625 
L 41.109375 0 
z
M 32.328125 25.203125 
L 32.328125 57.46875 
L 9.90625 25.203125 
z
" id="ArialMT-52"/>
       </defs>
       <use xlink:href="#ArialMT-48"/>
       <use x="55.615234" xlink:href="#ArialMT-46"/>
       <use x="83.398438" xlink:href="#ArialMT-52"/>
      </g>
     </g>
    </g>
    <g id="text_8">
     <!-- Relative abundance -->
     <g style="fill:#262626;" transform="translate(24.37875 302.899375)rotate(-90)scale(0.24 -0.24)">
      <defs>
       <path d="M 7.859375 0 
L 7.859375 71.578125 
L 39.59375 71.578125 
Q 49.171875 71.578125 54.140625 69.640625 
Q 59.125 67.71875 62.109375 62.828125 
Q 65.09375 57.953125 65.09375 52.046875 
Q 65.09375 44.4375 60.15625 39.203125 
Q 55.21875 33.984375 44.921875 32.5625 
Q 48.6875 30.765625 50.640625 29 
Q 54.78125 25.203125 58.5 19.484375 
L 70.953125 0 
L 59.03125 0 
L 49.5625 14.890625 
Q 45.40625 21.34375 42.71875 24.75 
Q 40.046875 28.171875 37.921875 29.53125 
Q 35.796875 30.90625 33.59375 31.453125 
Q 31.984375 31.78125 28.328125 31.78125 
L 17.328125 31.78125 
L 17.328125 0 
z
M 17.328125 39.984375 
L 37.703125 39.984375 
Q 44.1875 39.984375 47.84375 41.328125 
Q 51.515625 42.671875 53.421875 45.625 
Q 55.328125 48.578125 55.328125 52.046875 
Q 55.328125 57.125 51.640625 60.390625 
Q 47.953125 63.671875 39.984375 63.671875 
L 17.328125 63.671875 
z
" id="ArialMT-82"/>
       <path d="M 42.09375 16.703125 
L 51.171875 15.578125 
Q 49.03125 7.625 43.21875 3.21875 
Q 37.40625 -1.171875 28.375 -1.171875 
Q 17 -1.171875 10.328125 5.828125 
Q 3.65625 12.84375 3.65625 25.484375 
Q 3.65625 38.578125 10.390625 45.796875 
Q 17.140625 53.03125 27.875 53.03125 
Q 38.28125 53.03125 44.875 45.953125 
Q 51.46875 38.875 51.46875 26.03125 
Q 51.46875 25.25 51.421875 23.6875 
L 12.75 23.6875 
Q 13.234375 15.140625 17.578125 10.59375 
Q 21.921875 6.0625 28.421875 6.0625 
Q 33.25 6.0625 36.671875 8.59375 
Q 40.09375 11.140625 42.09375 16.703125 
z
M 13.234375 30.90625 
L 42.1875 30.90625 
Q 41.609375 37.453125 38.875 40.71875 
Q 34.671875 45.796875 27.984375 45.796875 
Q 21.921875 45.796875 17.796875 41.75 
Q 13.671875 37.703125 13.234375 30.90625 
z
" id="ArialMT-101"/>
       <path d="M 6.390625 0 
L 6.390625 71.578125 
L 15.1875 71.578125 
L 15.1875 0 
z
" id="ArialMT-108"/>
       <path d="M 25.78125 7.859375 
L 27.046875 0.09375 
Q 23.34375 -0.6875 20.40625 -0.6875 
Q 15.625 -0.6875 12.984375 0.828125 
Q 10.359375 2.34375 9.28125 4.8125 
Q 8.203125 7.28125 8.203125 15.1875 
L 8.203125 45.015625 
L 1.765625 45.015625 
L 1.765625 51.859375 
L 8.203125 51.859375 
L 8.203125 64.703125 
L 16.9375 69.96875 
L 16.9375 51.859375 
L 25.78125 51.859375 
L 25.78125 45.015625 
L 16.9375 45.015625 
L 16.9375 14.703125 
Q 16.9375 10.9375 17.40625 9.859375 
Q 17.875 8.796875 18.921875 8.15625 
Q 19.96875 7.515625 21.921875 7.515625 
Q 23.390625 7.515625 25.78125 7.859375 
z
" id="ArialMT-116"/>
       <path d="M 6.640625 61.46875 
L 6.640625 71.578125 
L 15.4375 71.578125 
L 15.4375 61.46875 
z
M 6.640625 0 
L 6.640625 51.859375 
L 15.4375 51.859375 
L 15.4375 0 
z
" id="ArialMT-105"/>
       <path d="M 21 0 
L 1.265625 51.859375 
L 10.546875 51.859375 
L 21.6875 20.796875 
Q 23.484375 15.765625 25 10.359375 
Q 26.171875 14.453125 28.265625 20.21875 
L 39.796875 51.859375 
L 48.828125 51.859375 
L 29.203125 0 
z
" id="ArialMT-118"/>
       <path id="ArialMT-32"/>
       <path d="M 14.703125 0 
L 6.546875 0 
L 6.546875 71.578125 
L 15.328125 71.578125 
L 15.328125 46.046875 
Q 20.90625 53.03125 29.546875 53.03125 
Q 34.328125 53.03125 38.59375 51.09375 
Q 42.875 49.171875 45.625 45.671875 
Q 48.390625 42.1875 49.953125 37.25 
Q 51.515625 32.328125 51.515625 26.703125 
Q 51.515625 13.375 44.921875 6.09375 
Q 38.328125 -1.171875 29.109375 -1.171875 
Q 19.921875 -1.171875 14.703125 6.5 
z
M 14.59375 26.3125 
Q 14.59375 17 17.140625 12.84375 
Q 21.296875 6.0625 28.375 6.0625 
Q 34.125 6.0625 38.328125 11.0625 
Q 42.53125 16.0625 42.53125 25.984375 
Q 42.53125 36.140625 38.5 40.96875 
Q 34.46875 45.796875 28.765625 45.796875 
Q 23 45.796875 18.796875 40.796875 
Q 14.59375 35.796875 14.59375 26.3125 
z
" id="ArialMT-98"/>
       <path d="M 40.578125 0 
L 40.578125 7.625 
Q 34.515625 -1.171875 24.125 -1.171875 
Q 19.53125 -1.171875 15.546875 0.578125 
Q 11.578125 2.34375 9.640625 5 
Q 7.71875 7.671875 6.9375 11.53125 
Q 6.390625 14.109375 6.390625 19.734375 
L 6.390625 51.859375 
L 15.1875 51.859375 
L 15.1875 23.09375 
Q 15.1875 16.21875 15.71875 13.8125 
Q 16.546875 10.359375 19.234375 8.375 
Q 21.921875 6.390625 25.875 6.390625 
Q 29.828125 6.390625 33.296875 8.421875 
Q 36.765625 10.453125 38.203125 13.9375 
Q 39.65625 17.4375 39.65625 24.078125 
L 39.65625 51.859375 
L 48.4375 51.859375 
L 48.4375 0 
z
" id="ArialMT-117"/>
       <path d="M 6.59375 0 
L 6.59375 51.859375 
L 14.5 51.859375 
L 14.5 44.484375 
Q 20.21875 53.03125 31 53.03125 
Q 35.6875 53.03125 39.625 51.34375 
Q 43.5625 49.65625 45.515625 46.921875 
Q 47.46875 44.1875 48.25 40.4375 
Q 48.734375 37.984375 48.734375 31.890625 
L 48.734375 0 
L 39.9375 0 
L 39.9375 31.546875 
Q 39.9375 36.921875 38.90625 39.578125 
Q 37.890625 42.234375 35.28125 43.8125 
Q 32.671875 45.40625 29.15625 45.40625 
Q 23.53125 45.40625 19.453125 41.84375 
Q 15.375 38.28125 15.375 28.328125 
L 15.375 0 
z
" id="ArialMT-110"/>
       <path d="M 40.234375 0 
L 40.234375 6.546875 
Q 35.296875 -1.171875 25.734375 -1.171875 
Q 19.53125 -1.171875 14.328125 2.25 
Q 9.125 5.671875 6.265625 11.796875 
Q 3.421875 17.921875 3.421875 25.875 
Q 3.421875 33.640625 6 39.96875 
Q 8.59375 46.296875 13.765625 49.65625 
Q 18.953125 53.03125 25.34375 53.03125 
Q 30.03125 53.03125 33.6875 51.046875 
Q 37.359375 49.078125 39.65625 45.90625 
L 39.65625 71.578125 
L 48.390625 71.578125 
L 48.390625 0 
z
M 12.453125 25.875 
Q 12.453125 15.921875 16.640625 10.984375 
Q 20.84375 6.0625 26.5625 6.0625 
Q 32.328125 6.0625 36.34375 10.765625 
Q 40.375 15.484375 40.375 25.140625 
Q 40.375 35.796875 36.265625 40.765625 
Q 32.171875 45.75 26.171875 45.75 
Q 20.3125 45.75 16.375 40.96875 
Q 12.453125 36.1875 12.453125 25.875 
z
" id="ArialMT-100"/>
       <path d="M 40.4375 19 
L 49.078125 17.875 
Q 47.65625 8.9375 41.8125 3.875 
Q 35.984375 -1.171875 27.484375 -1.171875 
Q 16.84375 -1.171875 10.375 5.78125 
Q 3.90625 12.75 3.90625 25.734375 
Q 3.90625 34.125 6.6875 40.421875 
Q 9.46875 46.734375 15.15625 49.875 
Q 20.84375 53.03125 27.546875 53.03125 
Q 35.984375 53.03125 41.359375 48.75 
Q 46.734375 44.484375 48.25 36.625 
L 39.703125 35.296875 
Q 38.484375 40.53125 35.375 43.15625 
Q 32.28125 45.796875 27.875 45.796875 
Q 21.234375 45.796875 17.078125 41.03125 
Q 12.9375 36.28125 12.9375 25.984375 
Q 12.9375 15.53125 16.9375 10.796875 
Q 20.953125 6.0625 27.390625 6.0625 
Q 32.5625 6.0625 36.03125 9.234375 
Q 39.5 12.40625 40.4375 19 
z
" id="ArialMT-99"/>
      </defs>
      <use xlink:href="#ArialMT-82"/>
      <use x="72.216797" xlink:href="#ArialMT-101"/>
      <use x="127.832031" xlink:href="#ArialMT-108"/>
      <use x="150.048828" xlink:href="#ArialMT-97"/>
      <use x="205.664062" xlink:href="#ArialMT-116"/>
      <use x="233.447266" xlink:href="#ArialMT-105"/>
      <use x="255.664062" xlink:href="#ArialMT-118"/>
      <use x="305.664062" xlink:href="#ArialMT-101"/>
      <use x="361.279297" xlink:href="#ArialMT-32"/>
      <use x="389.0625" xlink:href="#ArialMT-97"/>
      <use x="444.677734" xlink:href="#ArialMT-98"/>
      <use x="500.292969" xlink:href="#ArialMT-117"/>
      <use x="555.908203" xlink:href="#ArialMT-110"/>
      <use x="611.523438" xlink:href="#ArialMT-100"/>
      <use x="667.138672" xlink:href="#ArialMT-97"/>
      <use x="722.753906" xlink:href="#ArialMT-110"/>
      <use x="778.369141" xlink:href="#ArialMT-99"/>
      <use x="828.369141" xlink:href="#ArialMT-101"/>
     </g>
    </g>
   </g>
   <g id="PolyCollection_1">
    <defs>
     <path d="M 90.11438 -323.004592 
L 90.11438 -267.432153 
L 104.475545 -193.824208 
L 118.836709 -116.603537 
L 133.197873 -123.584124 
L 190.642531 -203.294018 
L 291.170682 -216.14621 
L 492.226983 -241.356683 
L 492.226983 -297.748149 
L 492.226983 -297.748149 
L 291.170682 -289.626441 
L 190.642531 -273.360262 
L 133.197873 -176.071344 
L 118.836709 -170.455658 
L 104.475545 -267.530228 
L 90.11438 -323.004592 
z
" id="me006bba401" style="stroke:#368c7d;stroke-opacity:0.2;"/>
    </defs>
    <g clip-path="url(#pac249d5e8c)">
     <use style="fill:#368c7d;fill-opacity:0.2;stroke:#368c7d;stroke-opacity:0.2;" x="0" xlink:href="#me006bba401" y="422.1575"/>
    </g>
   </g>
   <g id="PolyCollection_2">
    <defs>
     <path d="M 90.11438 -170.122496 
L 90.11438 -110.329784 
L 104.475545 -107.123942 
L 118.836709 -120.584062 
L 133.197873 -142.185984 
L 190.642531 -105.319707 
L 291.170682 -98.061004 
L 492.226983 -117.127375 
L 492.226983 -188.800035 
L 492.226983 -188.800035 
L 291.170682 -172.22146 
L 190.642531 -187.258833 
L 133.197873 -231.31997 
L 118.836709 -238.823302 
L 104.475545 -176.721841 
L 90.11438 -170.122496 
z
" id="m98511f402a" style="stroke:#be6502;stroke-opacity:0.2;"/>
    </defs>
    <g clip-path="url(#pac249d5e8c)">
     <use style="fill:#be6502;fill-opacity:0.2;stroke:#be6502;stroke-opacity:0.2;" x="0" xlink:href="#m98511f402a" y="422.1575"/>
    </g>
   </g>
   <g id="PolyCollection_3">
    <defs>
     <path d="M 90.11438 -130.114756 
L 90.11438 -103.311449 
L 104.475545 -94.105339 
L 118.836709 -86.187993 
L 133.197873 -88.170038 
L 190.642531 -95.066671 
L 291.170682 -93.142759 
L 492.226983 -109.032526 
L 492.226983 -144.224268 
L 492.226983 -144.224268 
L 291.170682 -129.532452 
L 190.642531 -136.439852 
L 133.197873 -120.005256 
L 118.836709 -109.414291 
L 104.475545 -121.21813 
L 90.11438 -130.114756 
z
" id="m594337cb46" style="stroke:#7d75b5;stroke-opacity:0.2;"/>
    </defs>
    <g clip-path="url(#pac249d5e8c)">
     <use style="fill:#7d75b5;fill-opacity:0.2;stroke:#7d75b5;stroke-opacity:0.2;" x="0" xlink:href="#m594337cb46" y="422.1575"/>
    </g>
   </g>
   <g id="PolyCollection_4">
    <defs>
     <path d="M 90.11438 -88.576242 
L 90.11438 -76.680615 
L 104.475545 -98.784394 
L 118.836709 -188.185007 
L 133.197873 -157.595887 
L 190.642531 -77.611378 
L 291.170682 -77.347019 
L 492.226983 -76.473584 
L 492.226983 -87.244621 
L 492.226983 -87.244621 
L 291.170682 -103.524773 
L 190.642531 -87.859803 
L 133.197873 -321.385522 
L 118.836709 -376.646932 
L 104.475545 -215.848328 
L 90.11438 -88.576242 
z
" id="md0c6bc6f5e" style="stroke:#d61b06;stroke-opacity:0.2;"/>
    </defs>
    <g clip-path="url(#pac249d5e8c)">
     <use style="fill:#d61b06;fill-opacity:0.2;stroke:#d61b06;stroke-opacity:0.2;" x="0" xlink:href="#md0c6bc6f5e" y="422.1575"/>
    </g>
   </g>
   <g id="PolyCollection_5">
    <defs>
     <path d="M 90.11438 -141.924712 
L 90.11438 -92.588902 
L 104.475545 -88.691849 
L 118.836709 -74.218646 
L 133.197873 -75.145568 
L 190.642531 -108.386094 
L 291.170682 -102.455776 
L 492.226983 -105.152849 
L 492.226983 -144.485192 
L 492.226983 -144.485192 
L 291.170682 -192.651703 
L 190.642531 -170.196447 
L 133.197873 -87.339159 
L 118.836709 -86.236573 
L 104.475545 -166.983873 
L 90.11438 -141.924712 
z
" id="mabbc937572" style="stroke:#2b5b7d;stroke-opacity:0.2;"/>
    </defs>
    <g clip-path="url(#pac249d5e8c)">
     <use style="fill:#2b5b7d;fill-opacity:0.2;stroke:#2b5b7d;stroke-opacity:0.2;" x="0" xlink:href="#mabbc937572" y="422.1575"/>
    </g>
   </g>
   <g id="line2d_7">
    <path clip-path="url(#pac249d5e8c)" d="M 90.11438 127.674756 
L 104.475545 189.609661 
L 118.836709 281.897667 
L 133.197873 273.854105 
L 190.642531 181.836918 
L 291.170682 169.748455 
L 492.226983 151.62689 
" style="fill:none;stroke:#368c7d;stroke-linecap:round;stroke-width:3;"/>
   </g>
   <g id="line2d_8">
    <path clip-path="url(#pac249d5e8c)" d="M 90.11438 284.727242 
L 104.475545 282.334638 
L 118.836709 248.213268 
L 133.197873 235.056508 
L 190.642531 283.154434 
L 291.170682 293.481162 
L 492.226983 271.57861 
" style="fill:none;stroke:#be6502;stroke-linecap:round;stroke-width:3;"/>
   </g>
   <g id="line2d_9">
    <path clip-path="url(#pac249d5e8c)" d="M 90.11438 306.196615 
L 104.475545 315.408105 
L 118.836709 324.546435 
L 133.197873 319.045635 
L 190.642531 306.901114 
L 291.170682 311.526141 
L 492.226983 296.409112 
" style="fill:none;stroke:#7d75b5;stroke-linecap:round;stroke-width:3;"/>
   </g>
   <g id="line2d_10">
    <path clip-path="url(#pac249d5e8c)" d="M 90.11438 339.761748 
L 104.475545 271.808323 
L 118.836709 138.030403 
L 133.197873 185.230892 
L 190.642531 339.937702 
L 291.170682 334.449657 
L 492.226983 340.795024 
" style="fill:none;stroke:#d61b06;stroke-linecap:round;stroke-width:3;"/>
   </g>
   <g id="line2d_11">
    <path clip-path="url(#pac249d5e8c)" d="M 90.11438 309.061705 
L 104.475545 299.571529 
L 118.836709 342.327353 
L 133.197873 342.166056 
L 190.642531 283.797836 
L 291.170682 281.940721 
L 492.226983 298.320024 
" style="fill:none;stroke:#2b5b7d;stroke-linecap:round;stroke-width:3;"/>
   </g>
   <g id="line2d_12"/>
   <g id="line2d_13"/>
   <g id="line2d_14"/>
   <g id="line2d_15"/>
   <g id="line2d_16"/>
   <g id="patch_3">
    <path d="M 70.00875 363.27875 
L 70.00875 30.37875 
" style="fill:none;stroke:#262626;stroke-linecap:square;stroke-linejoin:miter;stroke-width:1.25;"/>
   </g>
   <g id="patch_4">
    <path d="M 512.332614 363.27875 
L 512.332614 30.37875 
" style="fill:none;stroke:#262626;stroke-linecap:square;stroke-linejoin:miter;stroke-width:1.25;"/>
   </g>
   <g id="patch_5">
    <path d="M 70.00875 363.27875 
L 512.332614 363.27875 
" style="fill:none;stroke:#262626;stroke-linecap:square;stroke-linejoin:miter;stroke-width:1.25;"/>
   </g>
   <g id="patch_6">
    <path d="M 70.00875 30.37875 
L 512.332614 30.37875 
" style="fill:none;stroke:#262626;stroke-linecap:square;stroke-linejoin:miter;stroke-width:1.25;"/>
   </g>
   <g id="text_9">
    <!-- AAD -->
    <g style="fill:#262626;" transform="translate(266.495682 24.37875)scale(0.24 -0.24)">
     <defs>
      <path d="M -0.140625 0 
L 27.34375 71.578125 
L 37.546875 71.578125 
L 66.84375 0 
L 56.0625 0 
L 47.703125 21.6875 
L 17.78125 21.6875 
L 9.90625 0 
z
M 20.515625 29.390625 
L 44.78125 29.390625 
L 37.3125 49.21875 
Q 33.890625 58.25 32.234375 64.0625 
Q 30.859375 57.171875 28.375 50.390625 
z
" id="ArialMT-65"/>
     </defs>
     <use xlink:href="#ArialMT-65"/>
     <use x="66.699219" xlink:href="#ArialMT-65"/>
     <use x="133.398438" xlink:href="#ArialMT-68"/>
    </g>
   </g>
  </g>
  <g id="axes_2">
   <g id="patch_7">
    <path d="M 560.007614 363.27875 
L 1002.331477 363.27875 
L 1002.331477 30.37875 
L 560.007614 30.37875 
z
" style="fill:#ffffff;"/>
   </g>
   <g id="matplotlib.axis_3">
    <g id="xtick_4">
     <g id="line2d_17"/>
     <g id="text_10">
      <!-- 0 -->
      <g style="fill:#262626;" transform="translate(573.440119 383.9575)scale(0.24 -0.24)">
       <use xlink:href="#ArialMT-48"/>
      </g>
     </g>
    </g>
    <g id="xtick_5">
     <g id="line2d_18"/>
     <g id="text_11">
      <!-- 10 -->
      <g style="fill:#262626;" transform="translate(710.378638 383.9575)scale(0.24 -0.24)">
       <use xlink:href="#ArialMT-49"/>
       <use x="55.615234" xlink:href="#ArialMT-48"/>
      </g>
     </g>
    </g>
    <g id="xtick_6">
     <g id="line2d_19"/>
     <g id="text_12">
      <!-- 20 -->
      <g style="fill:#262626;" transform="translate(853.990282 383.9575)scale(0.24 -0.24)">
       <use xlink:href="#ArialMT-50"/>
       <use x="55.615234" xlink:href="#ArialMT-48"/>
      </g>
     </g>
    </g>
    <g id="text_13">
     <!-- Day -->
     <g style="fill:#262626;" transform="translate(759.83017 409.90625)scale(0.24 -0.24)">
      <use xlink:href="#ArialMT-68"/>
      <use x="72.216797" xlink:href="#ArialMT-97"/>
      <use x="127.832031" xlink:href="#ArialMT-121"/>
     </g>
    </g>
   </g>
   <g id="matplotlib.axis_4">
    <g id="ytick_4">
     <g id="line2d_20"/>
     <g id="text_14">
      <!-- 0.0 -->
      <g style="fill:#262626;" transform="translate(523.147614 360.653031)scale(0.24 -0.24)">
       <use xlink:href="#ArialMT-48"/>
       <use x="55.615234" xlink:href="#ArialMT-46"/>
       <use x="83.398438" xlink:href="#ArialMT-48"/>
      </g>
     </g>
    </g>
    <g id="ytick_5">
     <g id="line2d_21"/>
     <g id="text_15">
      <!-- 0.2 -->
      <g style="fill:#262626;" transform="translate(523.147614 251.959133)scale(0.24 -0.24)">
       <use xlink:href="#ArialMT-48"/>
       <use x="55.615234" xlink:href="#ArialMT-46"/>
       <use x="83.398438" xlink:href="#ArialMT-50"/>
      </g>
     </g>
    </g>
    <g id="ytick_6">
     <g id="line2d_22"/>
     <g id="text_16">
      <!-- 0.4 -->
      <g style="fill:#262626;" transform="translate(523.147614 143.265234)scale(0.24 -0.24)">
       <use xlink:href="#ArialMT-48"/>
       <use x="55.615234" xlink:href="#ArialMT-46"/>
       <use x="83.398438" xlink:href="#ArialMT-52"/>
      </g>
     </g>
    </g>
   </g>
   <g id="PolyCollection_6">
    <defs>
     <path d="M 580.113244 -287.822384 
L 580.113244 -250.389562 
L 594.474408 -229.424146 
L 608.835573 -163.362445 
L 623.196737 -158.062383 
L 680.641395 -211.746224 
L 781.169545 -240.82724 
L 982.225847 -251.697871 
L 982.225847 -305.986396 
L 982.225847 -305.986396 
L 781.169545 -292.607942 
L 680.641395 -261.594546 
L 623.196737 -214.077327 
L 608.835573 -229.004106 
L 594.474408 -274.413342 
L 580.113244 -287.822384 
z
" id="mc157824dad" style="stroke:#368c7d;stroke-opacity:0.2;"/>
    </defs>
    <g clip-path="url(#p6e45906ba8)">
     <use style="fill:#368c7d;fill-opacity:0.2;stroke:#368c7d;stroke-opacity:0.2;" x="0" xlink:href="#mc157824dad" y="422.1575"/>
    </g>
   </g>
   <g id="PolyCollection_7">
    <defs>
     <path d="M 580.113244 -177.515234 
L 580.113244 -136.461377 
L 594.474408 -141.445354 
L 608.835573 -162.053407 
L 623.196737 -188.714888 
L 680.641395 -153.358941 
L 781.169545 -132.169519 
L 982.225847 -131.382855 
L 982.225847 -173.854899 
L 982.225847 -173.854899 
L 781.169545 -163.641188 
L 680.641395 -214.623648 
L 623.196737 -252.536113 
L 608.835573 -218.905306 
L 594.474408 -173.36533 
L 580.113244 -177.515234 
z
" id="m6437e0bb5a" style="stroke:#be6502;stroke-opacity:0.2;"/>
    </defs>
    <g clip-path="url(#p6e45906ba8)">
     <use style="fill:#be6502;fill-opacity:0.2;stroke:#be6502;stroke-opacity:0.2;" x="0" xlink:href="#m6437e0bb5a" y="422.1575"/>
    </g>
   </g>
   <g id="PolyCollection_8">
    <defs>
     <path d="M 580.113244 -158.348654 
L 580.113244 -138.499164 
L 594.474408 -133.546747 
L 608.835573 -128.745422 
L 623.196737 -144.716388 
L 680.641395 -147.104711 
L 781.169545 -136.159897 
L 982.225847 -131.732948 
L 982.225847 -159.969971 
L 982.225847 -159.969971 
L 781.169545 -169.847713 
L 680.641395 -165.603113 
L 623.196737 -177.420491 
L 608.835573 -177.867172 
L 594.474408 -168.297813 
L 580.113244 -158.348654 
z
" id="m32a8be4c1b" style="stroke:#7d75b5;stroke-opacity:0.2;"/>
    </defs>
    <g clip-path="url(#p6e45906ba8)">
     <use style="fill:#7d75b5;fill-opacity:0.2;stroke:#7d75b5;stroke-opacity:0.2;" x="0" xlink:href="#m32a8be4c1b" y="422.1575"/>
    </g>
   </g>
   <g id="PolyCollection_9">
    <defs>
     <path d="M 580.113244 -77.761274 
L 580.113244 -74.12802 
L 594.474408 -82.764448 
L 608.835573 -102.25113 
L 623.196737 -99.527093 
L 680.641395 -77.694494 
L 781.169545 -75.635367 
L 982.225847 -74.010568 
L 982.225847 -79.09589 
L 982.225847 -79.09589 
L 781.169545 -83.86304 
L 680.641395 -97.68097 
L 623.196737 -132.391718 
L 608.835573 -148.876828 
L 594.474408 -111.211091 
L 580.113244 -77.761274 
z
" id="m73bfe8c579" style="stroke:#d61b06;stroke-opacity:0.2;"/>
    </defs>
    <g clip-path="url(#p6e45906ba8)">
     <use style="fill:#d61b06;fill-opacity:0.2;stroke:#d61b06;stroke-opacity:0.2;" x="0" xlink:href="#m73bfe8c579" y="422.1575"/>
    </g>
   </g>
   <g id="PolyCollection_10">
    <defs>
     <path d="M 580.113244 -112.714704 
L 580.113244 -91.558683 
L 594.474408 -94.037885 
L 608.835573 -84.452157 
L 623.196737 -79.78426 
L 680.641395 -89.151724 
L 781.169545 -103.213233 
L 982.225847 -98.481503 
L 982.225847 -127.675283 
L 982.225847 -127.675283 
L 781.169545 -136.788583 
L 680.641395 -110.550915 
L 623.196737 -90.358535 
L 608.835573 -107.361312 
L 594.474408 -116.799866 
L 580.113244 -112.714704 
z
" id="m2c018f4301" style="stroke:#2b5b7d;stroke-opacity:0.2;"/>
    </defs>
    <g clip-path="url(#p6e45906ba8)">
     <use style="fill:#2b5b7d;fill-opacity:0.2;stroke:#2b5b7d;stroke-opacity:0.2;" x="0" xlink:href="#m2c018f4301" y="422.1575"/>
    </g>
   </g>
   <g id="line2d_23">
    <path clip-path="url(#p6e45906ba8)" d="M 580.113244 151.812146 
L 594.474408 169.074481 
L 608.835573 227.714321 
L 623.196737 238.73186 
L 680.641395 185.996596 
L 781.169545 154.93866 
L 982.225847 143.673394 
" style="fill:none;stroke:#368c7d;stroke-linecap:round;stroke-width:3;"/>
   </g>
   <g id="line2d_24">
    <path clip-path="url(#p6e45906ba8)" d="M 580.113244 265.900178 
L 594.474408 265.6338 
L 608.835573 233.368344 
L 623.196737 200.427911 
L 680.641395 240.06149 
L 781.169545 275.20819 
L 982.225847 267.609009 
" style="fill:none;stroke:#be6502;stroke-linecap:round;stroke-width:3;"/>
   </g>
   <g id="line2d_25">
    <path clip-path="url(#p6e45906ba8)" d="M 580.113244 273.935193 
L 594.474408 271.208625 
L 608.835573 269.344461 
L 623.196737 261.9738 
L 680.641395 265.577664 
L 781.169545 267.999628 
L 982.225847 275.293012 
" style="fill:none;stroke:#7d75b5;stroke-linecap:round;stroke-width:3;"/>
   </g>
   <g id="line2d_26">
    <path clip-path="url(#p6e45906ba8)" d="M 580.113244 346.267756 
L 594.474408 326.223254 
L 608.835573 298.542764 
L 623.196737 306.8688 
L 680.641395 336.451355 
L 781.169545 342.914426 
L 982.225847 345.899841 
" style="fill:none;stroke:#d61b06;stroke-linecap:round;stroke-width:3;"/>
   </g>
   <g id="line2d_27">
    <path clip-path="url(#p6e45906ba8)" d="M 580.113244 320.668033 
L 594.474408 316.988248 
L 608.835573 327.538711 
L 623.196737 337.518648 
L 680.641395 322.599864 
L 781.169545 302.757177 
L 982.225847 309.033998 
" style="fill:none;stroke:#2b5b7d;stroke-linecap:round;stroke-width:3;"/>
   </g>
   <g id="line2d_28"/>
   <g id="line2d_29"/>
   <g id="line2d_30"/>
   <g id="line2d_31"/>
   <g id="line2d_32"/>
   <g id="patch_8">
    <path d="M 560.007614 363.27875 
L 560.007614 30.37875 
" style="fill:none;stroke:#262626;stroke-linecap:square;stroke-linejoin:miter;stroke-width:1.25;"/>
   </g>
   <g id="patch_9">
    <path d="M 1002.331477 363.27875 
L 1002.331477 30.37875 
" style="fill:none;stroke:#262626;stroke-linecap:square;stroke-linejoin:miter;stroke-width:1.25;"/>
   </g>
   <g id="patch_10">
    <path d="M 560.007614 363.27875 
L 1002.331477 363.27875 
" style="fill:none;stroke:#262626;stroke-linecap:square;stroke-linejoin:miter;stroke-width:1.25;"/>
   </g>
   <g id="patch_11">
    <path d="M 560.007614 30.37875 
L 1002.331477 30.37875 
" style="fill:none;stroke:#262626;stroke-linecap:square;stroke-linejoin:miter;stroke-width:1.25;"/>
   </g>
   <g id="text_17">
    <!-- non-AAD -->
    <g style="fill:#262626;" transform="translate(732.479545 24.37875)scale(0.24 -0.24)">
     <defs>
      <path d="M 3.328125 25.921875 
Q 3.328125 40.328125 11.328125 47.265625 
Q 18.015625 53.03125 27.640625 53.03125 
Q 38.328125 53.03125 45.109375 46.015625 
Q 51.90625 39.015625 51.90625 26.65625 
Q 51.90625 16.65625 48.90625 10.90625 
Q 45.90625 5.171875 40.15625 2 
Q 34.421875 -1.171875 27.640625 -1.171875 
Q 16.75 -1.171875 10.03125 5.8125 
Q 3.328125 12.796875 3.328125 25.921875 
z
M 12.359375 25.921875 
Q 12.359375 15.96875 16.703125 11.015625 
Q 21.046875 6.0625 27.640625 6.0625 
Q 34.1875 6.0625 38.53125 11.03125 
Q 42.875 16.015625 42.875 26.21875 
Q 42.875 35.84375 38.5 40.796875 
Q 34.125 45.75 27.640625 45.75 
Q 21.046875 45.75 16.703125 40.8125 
Q 12.359375 35.890625 12.359375 25.921875 
z
" id="ArialMT-111"/>
      <path d="M 3.171875 21.484375 
L 3.171875 30.328125 
L 30.171875 30.328125 
L 30.171875 21.484375 
z
" id="ArialMT-45"/>
     </defs>
     <use xlink:href="#ArialMT-110"/>
     <use x="55.615234" xlink:href="#ArialMT-111"/>
     <use x="111.230469" xlink:href="#ArialMT-110"/>
     <use x="166.845703" xlink:href="#ArialMT-45"/>
     <use x="200.146484" xlink:href="#ArialMT-65"/>
     <use x="266.845703" xlink:href="#ArialMT-65"/>
     <use x="333.544922" xlink:href="#ArialMT-68"/>
    </g>
   </g>
   <g id="legend_1">
    <g id="line2d_33">
     <path d="M 1042.44767 55.694375 
L 1082.44767 55.694375 
" style="fill:none;stroke:#368c7d;stroke-linecap:round;stroke-width:1.5;"/>
    </g>
    <g id="line2d_34"/>
    <g id="text_18">
     <!-- Lachnospiraceae -->
     <g style="fill:#262626;" transform="translate(1098.44767 62.694375)scale(0.2 -0.2)">
      <defs>
       <path d="M 7.328125 0 
L 7.328125 71.578125 
L 16.796875 71.578125 
L 16.796875 8.453125 
L 52.046875 8.453125 
L 52.046875 0 
z
" id="ArialMT-76"/>
       <path d="M 6.59375 0 
L 6.59375 71.578125 
L 15.375 71.578125 
L 15.375 45.90625 
Q 21.53125 53.03125 30.90625 53.03125 
Q 36.671875 53.03125 40.921875 50.75 
Q 45.171875 48.484375 47 44.484375 
Q 48.828125 40.484375 48.828125 32.859375 
L 48.828125 0 
L 40.046875 0 
L 40.046875 32.859375 
Q 40.046875 39.453125 37.1875 42.453125 
Q 34.328125 45.453125 29.109375 45.453125 
Q 25.203125 45.453125 21.75 43.421875 
Q 18.3125 41.40625 16.84375 37.9375 
Q 15.375 34.46875 15.375 28.375 
L 15.375 0 
z
" id="ArialMT-104"/>
       <path d="M 3.078125 15.484375 
L 11.765625 16.84375 
Q 12.5 11.625 15.84375 8.84375 
Q 19.1875 6.0625 25.203125 6.0625 
Q 31.25 6.0625 34.171875 8.515625 
Q 37.109375 10.984375 37.109375 14.3125 
Q 37.109375 17.28125 34.515625 19 
Q 32.71875 20.171875 25.53125 21.96875 
Q 15.875 24.421875 12.140625 26.203125 
Q 8.40625 27.984375 6.46875 31.125 
Q 4.546875 34.28125 4.546875 38.09375 
Q 4.546875 41.546875 6.125 44.5 
Q 7.71875 47.46875 10.453125 49.421875 
Q 12.5 50.921875 16.03125 51.96875 
Q 19.578125 53.03125 23.640625 53.03125 
Q 29.734375 53.03125 34.34375 51.265625 
Q 38.96875 49.515625 41.15625 46.5 
Q 43.359375 43.5 44.1875 38.484375 
L 35.59375 37.3125 
Q 35.015625 41.3125 32.203125 43.546875 
Q 29.390625 45.796875 24.265625 45.796875 
Q 18.21875 45.796875 15.625 43.796875 
Q 13.03125 41.796875 13.03125 39.109375 
Q 13.03125 37.40625 14.109375 36.03125 
Q 15.1875 34.625 17.484375 33.6875 
Q 18.796875 33.203125 25.25 31.453125 
Q 34.578125 28.953125 38.25 27.359375 
Q 41.9375 25.78125 44.03125 22.75 
Q 46.140625 19.734375 46.140625 15.234375 
Q 46.140625 10.84375 43.578125 6.953125 
Q 41.015625 3.078125 36.171875 0.953125 
Q 31.34375 -1.171875 25.25 -1.171875 
Q 15.140625 -1.171875 9.84375 3.03125 
Q 4.546875 7.234375 3.078125 15.484375 
z
" id="ArialMT-115"/>
       <path d="M 6.59375 -19.875 
L 6.59375 51.859375 
L 14.59375 51.859375 
L 14.59375 45.125 
Q 17.4375 49.078125 21 51.046875 
Q 24.5625 53.03125 29.640625 53.03125 
Q 36.28125 53.03125 41.359375 49.609375 
Q 46.4375 46.1875 49.015625 39.953125 
Q 51.609375 33.734375 51.609375 26.3125 
Q 51.609375 18.359375 48.75 11.984375 
Q 45.90625 5.609375 40.453125 2.21875 
Q 35.015625 -1.171875 29 -1.171875 
Q 24.609375 -1.171875 21.109375 0.6875 
Q 17.625 2.546875 15.375 5.375 
L 15.375 -19.875 
z
M 14.546875 25.640625 
Q 14.546875 15.625 18.59375 10.84375 
Q 22.65625 6.0625 28.421875 6.0625 
Q 34.28125 6.0625 38.453125 11.015625 
Q 42.625 15.96875 42.625 26.375 
Q 42.625 36.28125 38.546875 41.203125 
Q 34.46875 46.140625 28.8125 46.140625 
Q 23.1875 46.140625 18.859375 40.890625 
Q 14.546875 35.640625 14.546875 25.640625 
z
" id="ArialMT-112"/>
       <path d="M 6.5 0 
L 6.5 51.859375 
L 14.40625 51.859375 
L 14.40625 44 
Q 17.4375 49.515625 20 51.265625 
Q 22.5625 53.03125 25.640625 53.03125 
Q 30.078125 53.03125 34.671875 50.203125 
L 31.640625 42.046875 
Q 28.421875 43.953125 25.203125 43.953125 
Q 22.3125 43.953125 20.015625 42.21875 
Q 17.71875 40.484375 16.75 37.40625 
Q 15.28125 32.71875 15.28125 27.15625 
L 15.28125 0 
z
" id="ArialMT-114"/>
      </defs>
      <use xlink:href="#ArialMT-76"/>
      <use x="55.615234" xlink:href="#ArialMT-97"/>
      <use x="111.230469" xlink:href="#ArialMT-99"/>
      <use x="161.230469" xlink:href="#ArialMT-104"/>
      <use x="216.845703" xlink:href="#ArialMT-110"/>
      <use x="272.460938" xlink:href="#ArialMT-111"/>
      <use x="328.076172" xlink:href="#ArialMT-115"/>
      <use x="378.076172" xlink:href="#ArialMT-112"/>
      <use x="433.691406" xlink:href="#ArialMT-105"/>
      <use x="455.908203" xlink:href="#ArialMT-114"/>
      <use x="489.208984" xlink:href="#ArialMT-97"/>
      <use x="544.824219" xlink:href="#ArialMT-99"/>
      <use x="594.824219" xlink:href="#ArialMT-101"/>
      <use x="650.439453" xlink:href="#ArialMT-97"/>
      <use x="706.054688" xlink:href="#ArialMT-101"/>
     </g>
    </g>
    <g id="line2d_35">
     <path d="M 1042.44767 83.985 
L 1082.44767 83.985 
" style="fill:none;stroke:#be6502;stroke-linecap:round;stroke-width:1.5;"/>
    </g>
    <g id="line2d_36"/>
    <g id="text_19">
     <!-- Bacteroidaceae -->
     <g style="fill:#262626;" transform="translate(1098.44767 90.985)scale(0.2 -0.2)">
      <defs>
       <path d="M 7.328125 0 
L 7.328125 71.578125 
L 34.1875 71.578125 
Q 42.390625 71.578125 47.34375 69.40625 
Q 52.296875 67.234375 55.09375 62.71875 
Q 57.90625 58.203125 57.90625 53.265625 
Q 57.90625 48.6875 55.421875 44.625 
Q 52.9375 40.578125 47.90625 38.09375 
Q 54.390625 36.1875 57.875 31.59375 
Q 61.375 27 61.375 20.75 
Q 61.375 15.71875 59.25 11.390625 
Q 57.125 7.078125 54 4.734375 
Q 50.875 2.390625 46.15625 1.1875 
Q 41.453125 0 34.625 0 
z
M 16.796875 41.5 
L 32.28125 41.5 
Q 38.578125 41.5 41.3125 42.328125 
Q 44.921875 43.40625 46.75 45.890625 
Q 48.578125 48.390625 48.578125 52.15625 
Q 48.578125 55.71875 46.875 58.421875 
Q 45.171875 61.140625 41.984375 62.140625 
Q 38.8125 63.140625 31.109375 63.140625 
L 16.796875 63.140625 
z
M 16.796875 8.453125 
L 34.625 8.453125 
Q 39.203125 8.453125 41.0625 8.796875 
Q 44.34375 9.375 46.53125 10.734375 
Q 48.734375 12.109375 50.140625 14.71875 
Q 51.5625 17.328125 51.5625 20.75 
Q 51.5625 24.75 49.515625 27.703125 
Q 47.46875 30.671875 43.828125 31.859375 
Q 40.1875 33.0625 33.34375 33.0625 
L 16.796875 33.0625 
z
" id="ArialMT-66"/>
      </defs>
      <use xlink:href="#ArialMT-66"/>
      <use x="66.699219" xlink:href="#ArialMT-97"/>
      <use x="122.314453" xlink:href="#ArialMT-99"/>
      <use x="172.314453" xlink:href="#ArialMT-116"/>
      <use x="200.097656" xlink:href="#ArialMT-101"/>
      <use x="255.712891" xlink:href="#ArialMT-114"/>
      <use x="289.013672" xlink:href="#ArialMT-111"/>
      <use x="344.628906" xlink:href="#ArialMT-105"/>
      <use x="366.845703" xlink:href="#ArialMT-100"/>
      <use x="422.460938" xlink:href="#ArialMT-97"/>
      <use x="478.076172" xlink:href="#ArialMT-99"/>
      <use x="528.076172" xlink:href="#ArialMT-101"/>
      <use x="583.691406" xlink:href="#ArialMT-97"/>
      <use x="639.306641" xlink:href="#ArialMT-101"/>
     </g>
    </g>
    <g id="line2d_37">
     <path d="M 1042.44767 112.275625 
L 1082.44767 112.275625 
" style="fill:none;stroke:#7d75b5;stroke-linecap:round;stroke-width:1.5;"/>
    </g>
    <g id="line2d_38"/>
    <g id="text_20">
     <!-- Ruminococcaceae -->
     <g style="fill:#262626;" transform="translate(1098.44767 119.275625)scale(0.2 -0.2)">
      <defs>
       <path d="M 6.59375 0 
L 6.59375 51.859375 
L 14.453125 51.859375 
L 14.453125 44.578125 
Q 16.890625 48.390625 20.9375 50.703125 
Q 25 53.03125 30.171875 53.03125 
Q 35.9375 53.03125 39.625 50.640625 
Q 43.3125 48.25 44.828125 43.953125 
Q 50.984375 53.03125 60.84375 53.03125 
Q 68.5625 53.03125 72.703125 48.75 
Q 76.859375 44.484375 76.859375 35.59375 
L 76.859375 0 
L 68.109375 0 
L 68.109375 32.671875 
Q 68.109375 37.9375 67.25 40.25 
Q 66.40625 42.578125 64.15625 43.984375 
Q 61.921875 45.40625 58.890625 45.40625 
Q 53.421875 45.40625 49.796875 41.765625 
Q 46.1875 38.140625 46.1875 30.125 
L 46.1875 0 
L 37.40625 0 
L 37.40625 33.6875 
Q 37.40625 39.546875 35.25 42.46875 
Q 33.109375 45.40625 28.21875 45.40625 
Q 24.515625 45.40625 21.359375 43.453125 
Q 18.21875 41.5 16.796875 37.734375 
Q 15.375 33.984375 15.375 26.90625 
L 15.375 0 
z
" id="ArialMT-109"/>
      </defs>
      <use xlink:href="#ArialMT-82"/>
      <use x="72.216797" xlink:href="#ArialMT-117"/>
      <use x="127.832031" xlink:href="#ArialMT-109"/>
      <use x="211.132812" xlink:href="#ArialMT-105"/>
      <use x="233.349609" xlink:href="#ArialMT-110"/>
      <use x="288.964844" xlink:href="#ArialMT-111"/>
      <use x="344.580078" xlink:href="#ArialMT-99"/>
      <use x="394.580078" xlink:href="#ArialMT-111"/>
      <use x="450.195312" xlink:href="#ArialMT-99"/>
      <use x="500.195312" xlink:href="#ArialMT-99"/>
      <use x="550.195312" xlink:href="#ArialMT-97"/>
      <use x="605.810547" xlink:href="#ArialMT-99"/>
      <use x="655.810547" xlink:href="#ArialMT-101"/>
      <use x="711.425781" xlink:href="#ArialMT-97"/>
      <use x="767.041016" xlink:href="#ArialMT-101"/>
     </g>
    </g>
    <g id="line2d_39">
     <path d="M 1042.44767 140.56625 
L 1082.44767 140.56625 
" style="fill:none;stroke:#d61b06;stroke-linecap:round;stroke-width:1.5;"/>
    </g>
    <g id="line2d_40"/>
    <g id="text_21">
     <!-- Enterobacteriaceae -->
     <g style="fill:#262626;" transform="translate(1098.44767 147.56625)scale(0.2 -0.2)">
      <defs>
       <path d="M 7.90625 0 
L 7.90625 71.578125 
L 59.671875 71.578125 
L 59.671875 63.140625 
L 17.390625 63.140625 
L 17.390625 41.21875 
L 56.984375 41.21875 
L 56.984375 32.8125 
L 17.390625 32.8125 
L 17.390625 8.453125 
L 61.328125 8.453125 
L 61.328125 0 
z
" id="ArialMT-69"/>
      </defs>
      <use xlink:href="#ArialMT-69"/>
      <use x="66.699219" xlink:href="#ArialMT-110"/>
      <use x="122.314453" xlink:href="#ArialMT-116"/>
      <use x="150.097656" xlink:href="#ArialMT-101"/>
      <use x="205.712891" xlink:href="#ArialMT-114"/>
      <use x="239.013672" xlink:href="#ArialMT-111"/>
      <use x="294.628906" xlink:href="#ArialMT-98"/>
      <use x="350.244141" xlink:href="#ArialMT-97"/>
      <use x="405.859375" xlink:href="#ArialMT-99"/>
      <use x="455.859375" xlink:href="#ArialMT-116"/>
      <use x="483.642578" xlink:href="#ArialMT-101"/>
      <use x="539.257812" xlink:href="#ArialMT-114"/>
      <use x="572.558594" xlink:href="#ArialMT-105"/>
      <use x="594.775391" xlink:href="#ArialMT-97"/>
      <use x="650.390625" xlink:href="#ArialMT-99"/>
      <use x="700.390625" xlink:href="#ArialMT-101"/>
      <use x="756.005859" xlink:href="#ArialMT-97"/>
      <use x="811.621094" xlink:href="#ArialMT-101"/>
     </g>
    </g>
    <g id="line2d_41">
     <path d="M 1042.44767 168.856875 
L 1082.44767 168.856875 
" style="fill:none;stroke:#2b5b7d;stroke-linecap:round;stroke-width:1.5;"/>
    </g>
    <g id="line2d_42"/>
    <g id="text_22">
     <!-- Bifidobacteriaceae -->
     <g style="fill:#262626;" transform="translate(1098.44767 175.856875)scale(0.2 -0.2)">
      <defs>
       <path d="M 8.6875 0 
L 8.6875 45.015625 
L 0.921875 45.015625 
L 0.921875 51.859375 
L 8.6875 51.859375 
L 8.6875 57.375 
Q 8.6875 62.59375 9.625 65.140625 
Q 10.890625 68.5625 14.078125 70.671875 
Q 17.28125 72.796875 23.046875 72.796875 
Q 26.765625 72.796875 31.25 71.921875 
L 29.9375 64.265625 
Q 27.203125 64.75 24.75 64.75 
Q 20.75 64.75 19.09375 63.03125 
Q 17.4375 61.328125 17.4375 56.640625 
L 17.4375 51.859375 
L 27.546875 51.859375 
L 27.546875 45.015625 
L 17.4375 45.015625 
L 17.4375 0 
z
" id="ArialMT-102"/>
      </defs>
      <use xlink:href="#ArialMT-66"/>
      <use x="66.699219" xlink:href="#ArialMT-105"/>
      <use x="88.916016" xlink:href="#ArialMT-102"/>
      <use x="116.699219" xlink:href="#ArialMT-105"/>
      <use x="138.916016" xlink:href="#ArialMT-100"/>
      <use x="194.53125" xlink:href="#ArialMT-111"/>
      <use x="250.146484" xlink:href="#ArialMT-98"/>
      <use x="305.761719" xlink:href="#ArialMT-97"/>
      <use x="361.376953" xlink:href="#ArialMT-99"/>
      <use x="411.376953" xlink:href="#ArialMT-116"/>
      <use x="439.160156" xlink:href="#ArialMT-101"/>
      <use x="494.775391" xlink:href="#ArialMT-114"/>
      <use x="528.076172" xlink:href="#ArialMT-105"/>
      <use x="550.292969" xlink:href="#ArialMT-97"/>
      <use x="605.908203" xlink:href="#ArialMT-99"/>
      <use x="655.908203" xlink:href="#ArialMT-101"/>
      <use x="711.523438" xlink:href="#ArialMT-97"/>
      <use x="767.138672" xlink:href="#ArialMT-101"/>
     </g>
    </g>
   </g>
  </g>
 </g>
 <defs>
  <clipPath id="pac249d5e8c">
   <rect height="332.9" width="442.323864" x="70.00875" y="30.37875"/>
  </clipPath>
  <clipPath id="p6e45906ba8">
   <rect height="332.9" width="442.323864" x="560.007614" y="30.37875"/>
  </clipPath>
 </defs>
</svg>
