<?xml version="1.0" encoding="utf-8" standalone="no"?>
<!DOCTYPE svg PUBLIC "-//W3C//DTD SVG 1.1//EN"
  "http://www.w3.org/Graphics/SVG/1.1/DTD/svg11.dtd">
<!-- Created with matplotlib (https://matplotlib.org/) -->
<svg height="198.425197pt" version="1.1" viewBox="0 0 510.23622 198.425197" width="510.23622pt" xmlns="http://www.w3.org/2000/svg" xmlns:xlink="http://www.w3.org/1999/xlink">
 <metadata>
  <rdf:RDF xmlns:cc="http://creativecommons.org/ns#" xmlns:dc="http://purl.org/dc/elements/1.1/" xmlns:rdf="http://www.w3.org/1999/02/22-rdf-syntax-ns#">
   <cc:Work>
    <dc:type rdf:resource="http://purl.org/dc/dcmitype/StillImage"/>
    <dc:date>2021-11-17T17:19:28.827446</dc:date>
    <dc:format>image/svg+xml</dc:format>
    <dc:creator>
     <cc:Agent>
      <dc:title>Matplotlib v3.3.4, https://matplotlib.org/</dc:title>
     </cc:Agent>
    </dc:creator>
   </cc:Work>
  </rdf:RDF>
 </metadata>
 <defs>
  <style type="text/css">*{stroke-linecap:butt;stroke-linejoin:round;}</style>
 </defs>
 <g id="figure_1">
  <g id="patch_1">
   <path d="M 0 198.425197 
L 510.23622 198.425197 
L 510.23622 0 
L 0 0 
z
" style="fill:#ffffff;"/>
  </g>
  <g id="axes_1">
   <g id="patch_2">
    <path d="M 75.591738 160.715197 
L 497.27622 160.715197 
L 497.27622 12.96 
L 75.591738 12.96 
z
" style="fill:#ffffff;"/>
   </g>
   <g id="matplotlib.axis_1">
    <g id="xtick_1">
     <g id="text_1">
      <!-- S2 -->
      <g style="fill:#262626;" transform="translate(85.722 178.892697)rotate(-90)scale(0.12 -0.12)">
       <defs>
        <path d="M 4.5 23 
L 13.421875 23.78125 
Q 14.0625 18.40625 16.375 14.96875 
Q 18.703125 11.53125 23.578125 9.40625 
Q 28.46875 7.28125 34.578125 7.28125 
Q 39.984375 7.28125 44.140625 8.890625 
Q 48.296875 10.5 50.3125 13.296875 
Q 52.34375 16.109375 52.34375 19.4375 
Q 52.34375 22.796875 50.390625 25.3125 
Q 48.4375 27.828125 43.953125 29.546875 
Q 41.0625 30.671875 31.203125 33.03125 
Q 21.34375 35.40625 17.390625 37.5 
Q 12.25 40.1875 9.734375 44.15625 
Q 7.234375 48.140625 7.234375 53.078125 
Q 7.234375 58.5 10.296875 63.203125 
Q 13.375 67.921875 19.28125 70.359375 
Q 25.203125 72.796875 32.421875 72.796875 
Q 40.375 72.796875 46.453125 70.234375 
Q 52.546875 67.671875 55.8125 62.6875 
Q 59.078125 57.71875 59.328125 51.421875 
L 50.25 50.734375 
Q 49.515625 57.515625 45.28125 60.984375 
Q 41.0625 64.453125 32.8125 64.453125 
Q 24.21875 64.453125 20.28125 61.296875 
Q 16.359375 58.15625 16.359375 53.71875 
Q 16.359375 49.859375 19.140625 47.359375 
Q 21.875 44.875 33.421875 42.265625 
Q 44.96875 39.65625 49.265625 37.703125 
Q 55.515625 34.8125 58.484375 30.390625 
Q 61.46875 25.984375 61.46875 20.21875 
Q 61.46875 14.5 58.203125 9.4375 
Q 54.9375 4.390625 48.796875 1.578125 
Q 42.671875 -1.21875 35.015625 -1.21875 
Q 25.296875 -1.21875 18.71875 1.609375 
Q 12.15625 4.4375 8.421875 10.125 
Q 4.6875 15.828125 4.5 23 
z
" id="ArialMT-83"/>
        <path d="M 50.34375 8.453125 
L 50.34375 0 
L 3.03125 0 
Q 2.9375 3.171875 4.046875 6.109375 
Q 5.859375 10.9375 9.828125 15.625 
Q 13.8125 20.3125 21.34375 26.46875 
Q 33.015625 36.03125 37.109375 41.625 
Q 41.21875 47.21875 41.21875 52.203125 
Q 41.21875 57.421875 37.46875 61 
Q 33.734375 64.59375 27.734375 64.59375 
Q 21.390625 64.59375 17.578125 60.78125 
Q 13.765625 56.984375 13.71875 50.25 
L 4.6875 51.171875 
Q 5.609375 61.28125 11.65625 66.578125 
Q 17.71875 71.875 27.9375 71.875 
Q 38.234375 71.875 44.234375 66.15625 
Q 50.25 60.453125 50.25 52 
Q 50.25 47.703125 48.484375 43.546875 
Q 46.734375 39.40625 42.65625 34.8125 
Q 38.578125 30.21875 29.109375 22.21875 
Q 21.1875 15.578125 18.9375 13.203125 
Q 16.703125 10.84375 15.234375 8.453125 
z
" id="ArialMT-50"/>
       </defs>
       <use xlink:href="#ArialMT-83"/>
       <use x="66.699219" xlink:href="#ArialMT-50"/>
      </g>
     </g>
    </g>
    <g id="xtick_2">
     <g id="text_2">
      <!-- S1 -->
      <g style="fill:#262626;" transform="translate(99.778149 178.892697)rotate(-90)scale(0.12 -0.12)">
       <defs>
        <path d="M 37.25 0 
L 28.46875 0 
L 28.46875 56 
Q 25.296875 52.984375 20.140625 49.953125 
Q 14.984375 46.921875 10.890625 45.40625 
L 10.890625 53.90625 
Q 18.265625 57.375 23.78125 62.296875 
Q 29.296875 67.234375 31.59375 71.875 
L 37.25 71.875 
z
" id="ArialMT-49"/>
       </defs>
       <use xlink:href="#ArialMT-83"/>
       <use x="66.699219" xlink:href="#ArialMT-49"/>
      </g>
     </g>
    </g>
    <g id="xtick_3">
     <g id="text_3">
      <!-- S13 -->
      <g style="fill:#262626;" transform="translate(113.834299 185.565822)rotate(-90)scale(0.12 -0.12)">
       <defs>
        <path d="M 4.203125 18.890625 
L 12.984375 20.0625 
Q 14.5 12.59375 18.140625 9.296875 
Q 21.78125 6 27 6 
Q 33.203125 6 37.46875 10.296875 
Q 41.75 14.59375 41.75 20.953125 
Q 41.75 27 37.796875 30.921875 
Q 33.84375 34.859375 27.734375 34.859375 
Q 25.25 34.859375 21.53125 33.890625 
L 22.515625 41.609375 
Q 23.390625 41.5 23.921875 41.5 
Q 29.546875 41.5 34.03125 44.421875 
Q 38.53125 47.359375 38.53125 53.46875 
Q 38.53125 58.296875 35.25 61.46875 
Q 31.984375 64.65625 26.8125 64.65625 
Q 21.6875 64.65625 18.265625 61.421875 
Q 14.84375 58.203125 13.875 51.765625 
L 5.078125 53.328125 
Q 6.6875 62.15625 12.390625 67.015625 
Q 18.109375 71.875 26.609375 71.875 
Q 32.46875 71.875 37.390625 69.359375 
Q 42.328125 66.84375 44.9375 62.5 
Q 47.5625 58.15625 47.5625 53.265625 
Q 47.5625 48.640625 45.0625 44.828125 
Q 42.578125 41.015625 37.703125 38.765625 
Q 44.046875 37.3125 47.5625 32.6875 
Q 51.078125 28.078125 51.078125 21.140625 
Q 51.078125 11.765625 44.234375 5.25 
Q 37.40625 -1.265625 26.953125 -1.265625 
Q 17.53125 -1.265625 11.296875 4.34375 
Q 5.078125 9.96875 4.203125 18.890625 
z
" id="ArialMT-51"/>
       </defs>
       <use xlink:href="#ArialMT-83"/>
       <use x="66.699219" xlink:href="#ArialMT-49"/>
       <use x="122.314453" xlink:href="#ArialMT-51"/>
      </g>
     </g>
    </g>
    <g id="xtick_4">
     <g id="text_4">
      <!-- S20 -->
      <g style="fill:#262626;" transform="translate(127.890448 185.565822)rotate(-90)scale(0.12 -0.12)">
       <defs>
        <path d="M 4.15625 35.296875 
Q 4.15625 48 6.765625 55.734375 
Q 9.375 63.484375 14.515625 67.671875 
Q 19.671875 71.875 27.484375 71.875 
Q 33.25 71.875 37.59375 69.546875 
Q 41.9375 67.234375 44.765625 62.859375 
Q 47.609375 58.5 49.21875 52.21875 
Q 50.828125 45.953125 50.828125 35.296875 
Q 50.828125 22.703125 48.234375 14.96875 
Q 45.65625 7.234375 40.5 3 
Q 35.359375 -1.21875 27.484375 -1.21875 
Q 17.140625 -1.21875 11.234375 6.203125 
Q 4.15625 15.140625 4.15625 35.296875 
z
M 13.1875 35.296875 
Q 13.1875 17.671875 17.3125 11.828125 
Q 21.4375 6 27.484375 6 
Q 33.546875 6 37.671875 11.859375 
Q 41.796875 17.71875 41.796875 35.296875 
Q 41.796875 52.984375 37.671875 58.78125 
Q 33.546875 64.59375 27.390625 64.59375 
Q 21.34375 64.59375 17.71875 59.46875 
Q 13.1875 52.9375 13.1875 35.296875 
z
" id="ArialMT-48"/>
       </defs>
       <use xlink:href="#ArialMT-83"/>
       <use x="66.699219" xlink:href="#ArialMT-50"/>
       <use x="122.314453" xlink:href="#ArialMT-48"/>
      </g>
     </g>
    </g>
    <g id="xtick_5">
     <g id="text_5">
      <!-- S24 -->
      <g style="fill:#262626;" transform="translate(141.946597 185.565822)rotate(-90)scale(0.12 -0.12)">
       <defs>
        <path d="M 32.328125 0 
L 32.328125 17.140625 
L 1.265625 17.140625 
L 1.265625 25.203125 
L 33.9375 71.578125 
L 41.109375 71.578125 
L 41.109375 25.203125 
L 50.78125 25.203125 
L 50.78125 17.140625 
L 41.109375 17.140625 
L 41.109375 0 
z
M 32.328125 25.203125 
L 32.328125 57.46875 
L 9.90625 25.203125 
z
" id="ArialMT-52"/>
       </defs>
       <use xlink:href="#ArialMT-83"/>
       <use x="66.699219" xlink:href="#ArialMT-50"/>
       <use x="122.314453" xlink:href="#ArialMT-52"/>
      </g>
     </g>
    </g>
    <g id="xtick_6">
     <g id="text_6">
      <!-- S30 -->
      <g style="fill:#262626;" transform="translate(156.002747 185.565822)rotate(-90)scale(0.12 -0.12)">
       <use xlink:href="#ArialMT-83"/>
       <use x="66.699219" xlink:href="#ArialMT-51"/>
       <use x="122.314453" xlink:href="#ArialMT-48"/>
      </g>
     </g>
    </g>
    <g id="xtick_7">
     <g id="text_7">
      <!-- S19 -->
      <g style="fill:#262626;" transform="translate(170.058896 185.565822)rotate(-90)scale(0.12 -0.12)">
       <defs>
        <path d="M 5.46875 16.546875 
L 13.921875 17.328125 
Q 14.984375 11.375 18.015625 8.6875 
Q 21.046875 6 25.78125 6 
Q 29.828125 6 32.875 7.859375 
Q 35.9375 9.71875 37.890625 12.8125 
Q 39.84375 15.921875 41.15625 21.1875 
Q 42.484375 26.46875 42.484375 31.9375 
Q 42.484375 32.515625 42.4375 33.6875 
Q 39.796875 29.5 35.234375 26.875 
Q 30.671875 24.265625 25.34375 24.265625 
Q 16.453125 24.265625 10.296875 30.703125 
Q 4.15625 37.15625 4.15625 47.703125 
Q 4.15625 58.59375 10.578125 65.234375 
Q 17 71.875 26.65625 71.875 
Q 33.640625 71.875 39.421875 68.109375 
Q 45.21875 64.359375 48.21875 57.390625 
Q 51.21875 50.4375 51.21875 37.25 
Q 51.21875 23.53125 48.234375 15.40625 
Q 45.265625 7.28125 39.375 3.03125 
Q 33.5 -1.21875 25.59375 -1.21875 
Q 17.1875 -1.21875 11.859375 3.4375 
Q 6.546875 8.109375 5.46875 16.546875 
z
M 41.453125 48.140625 
Q 41.453125 55.71875 37.421875 60.15625 
Q 33.40625 64.59375 27.734375 64.59375 
Q 21.875 64.59375 17.53125 59.8125 
Q 13.1875 55.03125 13.1875 47.40625 
Q 13.1875 40.578125 17.3125 36.296875 
Q 21.4375 32.03125 27.484375 32.03125 
Q 33.59375 32.03125 37.515625 36.296875 
Q 41.453125 40.578125 41.453125 48.140625 
z
" id="ArialMT-57"/>
       </defs>
       <use xlink:href="#ArialMT-83"/>
       <use x="66.699219" xlink:href="#ArialMT-49"/>
       <use x="122.314453" xlink:href="#ArialMT-57"/>
      </g>
     </g>
    </g>
    <g id="xtick_8">
     <g id="text_8">
      <!-- S5 -->
      <g style="fill:#262626;" transform="translate(184.115046 178.892697)rotate(-90)scale(0.12 -0.12)">
       <defs>
        <path d="M 4.15625 18.75 
L 13.375 19.53125 
Q 14.40625 12.796875 18.140625 9.390625 
Q 21.875 6 27.15625 6 
Q 33.5 6 37.890625 10.78125 
Q 42.28125 15.578125 42.28125 23.484375 
Q 42.28125 31 38.0625 35.34375 
Q 33.84375 39.703125 27 39.703125 
Q 22.75 39.703125 19.328125 37.765625 
Q 15.921875 35.84375 13.96875 32.765625 
L 5.71875 33.84375 
L 12.640625 70.609375 
L 48.25 70.609375 
L 48.25 62.203125 
L 19.671875 62.203125 
L 15.828125 42.96875 
Q 22.265625 47.46875 29.34375 47.46875 
Q 38.71875 47.46875 45.15625 40.96875 
Q 51.609375 34.46875 51.609375 24.265625 
Q 51.609375 14.546875 45.953125 7.46875 
Q 39.0625 -1.21875 27.15625 -1.21875 
Q 17.390625 -1.21875 11.203125 4.25 
Q 5.03125 9.71875 4.15625 18.75 
z
" id="ArialMT-53"/>
       </defs>
       <use xlink:href="#ArialMT-83"/>
       <use x="66.699219" xlink:href="#ArialMT-53"/>
      </g>
     </g>
    </g>
    <g id="xtick_9">
     <g id="text_9">
      <!-- S8 -->
      <g style="fill:#262626;" transform="translate(198.171195 178.892697)rotate(-90)scale(0.12 -0.12)">
       <defs>
        <path d="M 17.671875 38.8125 
Q 12.203125 40.828125 9.5625 44.53125 
Q 6.9375 48.25 6.9375 53.421875 
Q 6.9375 61.234375 12.546875 66.546875 
Q 18.171875 71.875 27.484375 71.875 
Q 36.859375 71.875 42.578125 66.421875 
Q 48.296875 60.984375 48.296875 53.171875 
Q 48.296875 48.1875 45.671875 44.5 
Q 43.0625 40.828125 37.75 38.8125 
Q 44.34375 36.671875 47.78125 31.875 
Q 51.21875 27.09375 51.21875 20.453125 
Q 51.21875 11.28125 44.71875 5.03125 
Q 38.234375 -1.21875 27.640625 -1.21875 
Q 17.046875 -1.21875 10.546875 5.046875 
Q 4.046875 11.328125 4.046875 20.703125 
Q 4.046875 27.6875 7.59375 32.390625 
Q 11.140625 37.109375 17.671875 38.8125 
z
M 15.921875 53.71875 
Q 15.921875 48.640625 19.1875 45.40625 
Q 22.46875 42.1875 27.6875 42.1875 
Q 32.765625 42.1875 36.015625 45.375 
Q 39.265625 48.578125 39.265625 53.21875 
Q 39.265625 58.0625 35.90625 61.359375 
Q 32.5625 64.65625 27.59375 64.65625 
Q 22.5625 64.65625 19.234375 61.421875 
Q 15.921875 58.203125 15.921875 53.71875 
z
M 13.09375 20.65625 
Q 13.09375 16.890625 14.875 13.375 
Q 16.65625 9.859375 20.171875 7.921875 
Q 23.6875 6 27.734375 6 
Q 34.03125 6 38.125 10.046875 
Q 42.234375 14.109375 42.234375 20.359375 
Q 42.234375 26.703125 38.015625 30.859375 
Q 33.796875 35.015625 27.4375 35.015625 
Q 21.234375 35.015625 17.15625 30.90625 
Q 13.09375 26.8125 13.09375 20.65625 
z
" id="ArialMT-56"/>
       </defs>
       <use xlink:href="#ArialMT-83"/>
       <use x="66.699219" xlink:href="#ArialMT-56"/>
      </g>
     </g>
    </g>
    <g id="xtick_10">
     <g id="text_10">
      <!-- S21 -->
      <g style="fill:#262626;" transform="translate(212.227345 185.565822)rotate(-90)scale(0.12 -0.12)">
       <use xlink:href="#ArialMT-83"/>
       <use x="66.699219" xlink:href="#ArialMT-50"/>
       <use x="122.314453" xlink:href="#ArialMT-49"/>
      </g>
     </g>
    </g>
    <g id="xtick_11">
     <g id="text_11">
      <!-- S10 -->
      <g style="fill:#262626;" transform="translate(226.283494 185.565822)rotate(-90)scale(0.12 -0.12)">
       <use xlink:href="#ArialMT-83"/>
       <use x="66.699219" xlink:href="#ArialMT-49"/>
       <use x="122.314453" xlink:href="#ArialMT-48"/>
      </g>
     </g>
    </g>
    <g id="xtick_12">
     <g id="text_12">
      <!-- S22 -->
      <g style="fill:#262626;" transform="translate(240.339643 185.565822)rotate(-90)scale(0.12 -0.12)">
       <use xlink:href="#ArialMT-83"/>
       <use x="66.699219" xlink:href="#ArialMT-50"/>
       <use x="122.314453" xlink:href="#ArialMT-50"/>
      </g>
     </g>
    </g>
    <g id="xtick_13">
     <g id="text_13">
      <!-- S29 -->
      <g style="fill:#262626;" transform="translate(254.395793 185.565822)rotate(-90)scale(0.12 -0.12)">
       <use xlink:href="#ArialMT-83"/>
       <use x="66.699219" xlink:href="#ArialMT-50"/>
       <use x="122.314453" xlink:href="#ArialMT-57"/>
      </g>
     </g>
    </g>
    <g id="xtick_14">
     <g id="text_14">
      <!-- S4 -->
      <g style="fill:#262626;" transform="translate(268.451942 178.892697)rotate(-90)scale(0.12 -0.12)">
       <use xlink:href="#ArialMT-83"/>
       <use x="66.699219" xlink:href="#ArialMT-52"/>
      </g>
     </g>
    </g>
    <g id="xtick_15">
     <g id="text_15">
      <!-- S7 -->
      <g style="fill:#262626;" transform="translate(282.508092 178.892697)rotate(-90)scale(0.12 -0.12)">
       <defs>
        <path d="M 4.734375 62.203125 
L 4.734375 70.65625 
L 51.078125 70.65625 
L 51.078125 63.8125 
Q 44.234375 56.546875 37.515625 44.484375 
Q 30.8125 32.421875 27.15625 19.671875 
Q 24.515625 10.6875 23.78125 0 
L 14.75 0 
Q 14.890625 8.453125 18.0625 20.40625 
Q 21.234375 32.375 27.171875 43.484375 
Q 33.109375 54.59375 39.796875 62.203125 
z
" id="ArialMT-55"/>
       </defs>
       <use xlink:href="#ArialMT-83"/>
       <use x="66.699219" xlink:href="#ArialMT-55"/>
      </g>
     </g>
    </g>
    <g id="xtick_16">
     <g id="text_16">
      <!-- S25 -->
      <g style="fill:#262626;" transform="translate(296.564241 185.565822)rotate(-90)scale(0.12 -0.12)">
       <use xlink:href="#ArialMT-83"/>
       <use x="66.699219" xlink:href="#ArialMT-50"/>
       <use x="122.314453" xlink:href="#ArialMT-53"/>
      </g>
     </g>
    </g>
    <g id="xtick_17">
     <g id="text_17">
      <!-- S27 -->
      <g style="fill:#262626;" transform="translate(310.620391 185.565822)rotate(-90)scale(0.12 -0.12)">
       <use xlink:href="#ArialMT-83"/>
       <use x="66.699219" xlink:href="#ArialMT-50"/>
       <use x="122.314453" xlink:href="#ArialMT-55"/>
      </g>
     </g>
    </g>
    <g id="xtick_18">
     <g id="text_18">
      <!-- S14 -->
      <g style="fill:#262626;" transform="translate(324.67654 185.565822)rotate(-90)scale(0.12 -0.12)">
       <use xlink:href="#ArialMT-83"/>
       <use x="66.699219" xlink:href="#ArialMT-49"/>
       <use x="122.314453" xlink:href="#ArialMT-52"/>
      </g>
     </g>
    </g>
    <g id="xtick_19">
     <g id="text_19">
      <!-- S17 -->
      <g style="fill:#262626;" transform="translate(338.732689 185.565822)rotate(-90)scale(0.12 -0.12)">
       <use xlink:href="#ArialMT-83"/>
       <use x="66.699219" xlink:href="#ArialMT-49"/>
       <use x="122.314453" xlink:href="#ArialMT-55"/>
      </g>
     </g>
    </g>
    <g id="xtick_20">
     <g id="text_20">
      <!-- S9 -->
      <g style="fill:#262626;" transform="translate(352.788839 178.892697)rotate(-90)scale(0.12 -0.12)">
       <use xlink:href="#ArialMT-83"/>
       <use x="66.699219" xlink:href="#ArialMT-57"/>
      </g>
     </g>
    </g>
    <g id="xtick_21">
     <g id="text_21">
      <!-- S16 -->
      <g style="fill:#262626;" transform="translate(366.844988 185.565822)rotate(-90)scale(0.12 -0.12)">
       <defs>
        <path d="M 49.75 54.046875 
L 41.015625 53.375 
Q 39.84375 58.546875 37.703125 60.890625 
Q 34.125 64.65625 28.90625 64.65625 
Q 24.703125 64.65625 21.53125 62.3125 
Q 17.390625 59.28125 14.984375 53.46875 
Q 12.59375 47.65625 12.5 36.921875 
Q 15.671875 41.75 20.265625 44.09375 
Q 24.859375 46.4375 29.890625 46.4375 
Q 38.671875 46.4375 44.84375 39.96875 
Q 51.03125 33.5 51.03125 23.25 
Q 51.03125 16.5 48.125 10.71875 
Q 45.21875 4.9375 40.140625 1.859375 
Q 35.0625 -1.21875 28.609375 -1.21875 
Q 17.625 -1.21875 10.6875 6.859375 
Q 3.765625 14.9375 3.765625 33.5 
Q 3.765625 54.25 11.421875 63.671875 
Q 18.109375 71.875 29.4375 71.875 
Q 37.890625 71.875 43.28125 67.140625 
Q 48.6875 62.40625 49.75 54.046875 
z
M 13.875 23.1875 
Q 13.875 18.65625 15.796875 14.5 
Q 17.71875 10.359375 21.1875 8.171875 
Q 24.65625 6 28.46875 6 
Q 34.03125 6 38.03125 10.484375 
Q 42.046875 14.984375 42.046875 22.703125 
Q 42.046875 30.125 38.078125 34.390625 
Q 34.125 38.671875 28.125 38.671875 
Q 22.171875 38.671875 18.015625 34.390625 
Q 13.875 30.125 13.875 23.1875 
z
" id="ArialMT-54"/>
       </defs>
       <use xlink:href="#ArialMT-83"/>
       <use x="66.699219" xlink:href="#ArialMT-49"/>
       <use x="122.314453" xlink:href="#ArialMT-54"/>
      </g>
     </g>
    </g>
    <g id="xtick_22">
     <g id="text_22">
      <!-- S6 -->
      <g style="fill:#262626;" transform="translate(380.901138 178.892697)rotate(-90)scale(0.12 -0.12)">
       <use xlink:href="#ArialMT-83"/>
       <use x="66.699219" xlink:href="#ArialMT-54"/>
      </g>
     </g>
    </g>
    <g id="xtick_23">
     <g id="text_23">
      <!-- S26 -->
      <g style="fill:#262626;" transform="translate(394.957287 185.565822)rotate(-90)scale(0.12 -0.12)">
       <use xlink:href="#ArialMT-83"/>
       <use x="66.699219" xlink:href="#ArialMT-50"/>
       <use x="122.314453" xlink:href="#ArialMT-54"/>
      </g>
     </g>
    </g>
    <g id="xtick_24">
     <g id="text_24">
      <!-- S15 -->
      <g style="fill:#262626;" transform="translate(409.013437 185.565822)rotate(-90)scale(0.12 -0.12)">
       <use xlink:href="#ArialMT-83"/>
       <use x="66.699219" xlink:href="#ArialMT-49"/>
       <use x="122.314453" xlink:href="#ArialMT-53"/>
      </g>
     </g>
    </g>
    <g id="xtick_25">
     <g id="text_25">
      <!-- S12 -->
      <g style="fill:#262626;" transform="translate(423.069586 185.565822)rotate(-90)scale(0.12 -0.12)">
       <use xlink:href="#ArialMT-83"/>
       <use x="66.699219" xlink:href="#ArialMT-49"/>
       <use x="122.314453" xlink:href="#ArialMT-50"/>
      </g>
     </g>
    </g>
    <g id="xtick_26">
     <g id="text_26">
      <!-- S33 -->
      <g style="fill:#262626;" transform="translate(437.125736 185.565822)rotate(-90)scale(0.12 -0.12)">
       <use xlink:href="#ArialMT-83"/>
       <use x="66.699219" xlink:href="#ArialMT-51"/>
       <use x="122.314453" xlink:href="#ArialMT-51"/>
      </g>
     </g>
    </g>
    <g id="xtick_27">
     <g id="text_27">
      <!-- S11 -->
      <g style="fill:#262626;" transform="translate(451.181885 184.680822)rotate(-90)scale(0.12 -0.12)">
       <use xlink:href="#ArialMT-83"/>
       <use x="66.699219" xlink:href="#ArialMT-49"/>
       <use x="114.939453" xlink:href="#ArialMT-49"/>
      </g>
     </g>
    </g>
    <g id="xtick_28">
     <g id="text_28">
      <!-- S3 -->
      <g style="fill:#262626;" transform="translate(465.238034 178.892697)rotate(-90)scale(0.12 -0.12)">
       <use xlink:href="#ArialMT-83"/>
       <use x="66.699219" xlink:href="#ArialMT-51"/>
      </g>
     </g>
    </g>
    <g id="xtick_29">
     <g id="text_29">
      <!-- S23 -->
      <g style="fill:#262626;" transform="translate(479.294184 185.565822)rotate(-90)scale(0.12 -0.12)">
       <use xlink:href="#ArialMT-83"/>
       <use x="66.699219" xlink:href="#ArialMT-50"/>
       <use x="122.314453" xlink:href="#ArialMT-51"/>
      </g>
     </g>
    </g>
    <g id="xtick_30">
     <g id="text_30">
      <!-- S31 -->
      <g style="fill:#262626;" transform="translate(493.350333 185.565822)rotate(-90)scale(0.12 -0.12)">
       <use xlink:href="#ArialMT-83"/>
       <use x="66.699219" xlink:href="#ArialMT-51"/>
       <use x="122.314453" xlink:href="#ArialMT-49"/>
      </g>
     </g>
    </g>
   </g>
   <g id="matplotlib.axis_2">
    <g id="ytick_1">
     <g id="text_31">
      <!-- $\mathdefault{10^{7}}$ -->
      <g style="fill:#262626;" transform="translate(53.251738 119.330169)scale(0.12 -0.12)">
       <use transform="translate(0 0.846875)" xlink:href="#ArialMT-49"/>
       <use transform="translate(55.615234 0.846875)" xlink:href="#ArialMT-48"/>
       <use transform="translate(112.972813 70.540625)scale(0.7)" xlink:href="#ArialMT-55"/>
      </g>
     </g>
    </g>
    <g id="ytick_2">
     <g id="text_32">
      <!-- $\mathdefault{10^{8}}$ -->
      <g style="fill:#262626;" transform="translate(53.251738 37.62901)scale(0.12 -0.12)">
       <use transform="translate(0 0.99375)" xlink:href="#ArialMT-49"/>
       <use transform="translate(55.615234 0.99375)" xlink:href="#ArialMT-48"/>
       <use transform="translate(112.972813 70.6875)scale(0.7)" xlink:href="#ArialMT-56"/>
      </g>
     </g>
    </g>
    <g id="ytick_3"/>
    <g id="ytick_4"/>
    <g id="ytick_5"/>
    <g id="ytick_6"/>
    <g id="ytick_7"/>
    <g id="ytick_8"/>
    <g id="ytick_9"/>
    <g id="ytick_10"/>
    <g id="ytick_11"/>
    <g id="ytick_12"/>
    <g id="ytick_13"/>
    <g id="ytick_14"/>
    <g id="ytick_15"/>
    <g id="ytick_16"/>
    <g id="ytick_17"/>
    <g id="text_33">
     <!-- $\it{F.prausnitzii}$ qPCR  -->
     <g style="fill:#262626;" transform="translate(33.579738 143.897598)rotate(-90)scale(0.12 -0.12)">
      <defs>
       <path d="M 16.890625 72.90625 
L 58.6875 72.90625 
L 57.078125 64.59375 
L 25.09375 64.59375 
L 20.90625 43.109375 
L 49.8125 43.109375 
L 48.1875 34.8125 
L 19.28125 34.8125 
L 12.5 0 
L 2.6875 0 
z
" id="DejaVuSans-Oblique-70"/>
       <path d="M 10.6875 12.40625 
L 21 12.40625 
L 21 0 
L 10.6875 0 
z
" id="DejaVuSans-46"/>
       <path d="M 49.609375 33.6875 
Q 49.609375 40.875 46.484375 44.671875 
Q 43.359375 48.484375 37.5 48.484375 
Q 33.5 48.484375 29.859375 46.4375 
Q 26.21875 44.390625 23.390625 40.484375 
Q 20.609375 36.625 18.9375 31.15625 
Q 17.28125 25.6875 17.28125 20.3125 
Q 17.28125 13.484375 20.40625 9.796875 
Q 23.53125 6.109375 29.296875 6.109375 
Q 33.546875 6.109375 37.1875 8.109375 
Q 40.828125 10.109375 43.40625 13.921875 
Q 46.1875 17.921875 47.890625 23.34375 
Q 49.609375 28.765625 49.609375 33.6875 
z
M 21.78125 46.390625 
Q 25.390625 51.125 30.296875 53.5625 
Q 35.203125 56 41.21875 56 
Q 49.609375 56 54.25 50.5 
Q 58.890625 45.015625 58.890625 35.109375 
Q 58.890625 27 56 19.65625 
Q 53.125 12.3125 47.703125 6.5 
Q 44.09375 2.640625 39.546875 0.609375 
Q 35.015625 -1.421875 29.984375 -1.421875 
Q 24.171875 -1.421875 20.21875 1 
Q 16.265625 3.421875 14.3125 8.203125 
L 8.6875 -20.796875 
L -0.296875 -20.796875 
L 14.40625 54.6875 
L 23.390625 54.6875 
z
" id="DejaVuSans-Oblique-112"/>
       <path d="M 44.578125 46.390625 
Q 43.21875 47.125 41.453125 47.515625 
Q 39.703125 47.90625 37.703125 47.90625 
Q 30.515625 47.90625 25.140625 42.453125 
Q 19.78125 37.015625 18.015625 27.875 
L 12.5 0 
L 3.515625 0 
L 14.203125 54.6875 
L 23.1875 54.6875 
L 21.484375 46.1875 
Q 25.046875 50.921875 30 53.453125 
Q 34.96875 56 40.578125 56 
Q 42.046875 56 43.453125 55.828125 
Q 44.875 55.671875 46.296875 55.28125 
z
" id="DejaVuSans-Oblique-114"/>
       <path d="M 53.71875 31.203125 
L 47.609375 0 
L 38.625 0 
L 40.28125 8.296875 
Q 36.328125 3.421875 31.265625 1 
Q 26.21875 -1.421875 20.015625 -1.421875 
Q 13.03125 -1.421875 8.5625 2.84375 
Q 4.109375 7.125 4.109375 13.8125 
Q 4.109375 23.390625 11.75 28.953125 
Q 19.390625 34.515625 32.8125 34.515625 
L 45.3125 34.515625 
L 45.796875 36.921875 
Q 45.90625 37.3125 45.953125 37.765625 
Q 46 38.234375 46 39.203125 
Q 46 43.5625 42.453125 45.96875 
Q 38.921875 48.390625 32.515625 48.390625 
Q 28.125 48.390625 23.5 47.265625 
Q 18.890625 46.140625 14.015625 43.890625 
L 15.578125 52.203125 
Q 20.65625 54.109375 25.515625 55.046875 
Q 30.375 56 34.90625 56 
Q 44.578125 56 49.625 51.796875 
Q 54.6875 47.609375 54.6875 39.59375 
Q 54.6875 37.984375 54.4375 35.8125 
Q 54.203125 33.640625 53.71875 31.203125 
z
M 44 27.484375 
L 35.015625 27.484375 
Q 23.96875 27.484375 18.671875 24.53125 
Q 13.375 21.578125 13.375 15.375 
Q 13.375 11.078125 16.078125 8.640625 
Q 18.796875 6.203125 23.578125 6.203125 
Q 30.90625 6.203125 36.375 11.453125 
Q 41.84375 16.703125 43.609375 25.484375 
z
" id="DejaVuSans-Oblique-97"/>
       <path d="M 6.6875 21.6875 
L 13.09375 54.6875 
L 22.125 54.6875 
L 15.71875 22.015625 
Q 15.234375 19.625 15.015625 17.921875 
Q 14.796875 16.21875 14.796875 15.09375 
Q 14.796875 10.9375 17.328125 8.65625 
Q 19.875 6.390625 24.515625 6.390625 
Q 31.734375 6.390625 37 11.265625 
Q 42.28125 16.15625 43.890625 24.421875 
L 49.90625 54.6875 
L 58.890625 54.6875 
L 48.296875 0 
L 39.3125 0 
L 41.109375 8.59375 
Q 37.3125 3.8125 32.0625 1.1875 
Q 26.8125 -1.421875 20.90625 -1.421875 
Q 13.71875 -1.421875 9.71875 2.515625 
Q 5.71875 6.453125 5.71875 13.484375 
Q 5.71875 14.9375 5.953125 17.140625 
Q 6.203125 19.34375 6.6875 21.6875 
z
" id="DejaVuSans-Oblique-117"/>
       <path d="M 50 53.078125 
L 48.296875 44.578125 
Q 44.734375 46.53125 40.765625 47.5 
Q 36.8125 48.484375 32.625 48.484375 
Q 25.53125 48.484375 21.453125 46.0625 
Q 17.390625 43.65625 17.390625 39.5 
Q 17.390625 34.671875 26.859375 32.078125 
Q 27.59375 31.890625 27.9375 31.78125 
L 30.8125 30.90625 
Q 39.796875 28.421875 42.796875 25.6875 
Q 45.796875 22.953125 45.796875 18.21875 
Q 45.796875 9.515625 38.890625 4.046875 
Q 31.984375 -1.421875 20.796875 -1.421875 
Q 16.453125 -1.421875 11.671875 -0.578125 
Q 6.890625 0.25 1.125 2 
L 2.875 11.28125 
Q 7.8125 8.734375 12.59375 7.421875 
Q 17.390625 6.109375 21.78125 6.109375 
Q 28.375 6.109375 32.5 8.9375 
Q 36.625 11.765625 36.625 16.109375 
Q 36.625 20.796875 25.78125 23.6875 
L 24.859375 23.921875 
L 21.78125 24.703125 
Q 14.9375 26.515625 11.765625 29.46875 
Q 8.59375 32.421875 8.59375 37.015625 
Q 8.59375 45.75 15.15625 50.875 
Q 21.734375 56 33.015625 56 
Q 37.453125 56 41.671875 55.265625 
Q 45.90625 54.546875 50 53.078125 
z
" id="DejaVuSans-Oblique-115"/>
       <path d="M 55.71875 33.015625 
L 49.3125 0 
L 40.28125 0 
L 46.6875 32.671875 
Q 47.125 34.96875 47.359375 36.71875 
Q 47.609375 38.484375 47.609375 39.5 
Q 47.609375 43.609375 45.015625 45.890625 
Q 42.4375 48.1875 37.796875 48.1875 
Q 30.5625 48.1875 25.34375 43.375 
Q 20.125 38.578125 18.5 30.328125 
L 12.5 0 
L 3.515625 0 
L 14.109375 54.6875 
L 23.09375 54.6875 
L 21.296875 46.09375 
Q 25.046875 50.828125 30.3125 53.40625 
Q 35.59375 56 41.40625 56 
Q 48.640625 56 52.609375 52.09375 
Q 56.59375 48.1875 56.59375 41.109375 
Q 56.59375 39.359375 56.375 37.359375 
Q 56.15625 35.359375 55.71875 33.015625 
z
" id="DejaVuSans-Oblique-110"/>
       <path d="M 18.3125 75.984375 
L 27.296875 75.984375 
L 25.09375 64.59375 
L 16.109375 64.59375 
z
M 14.203125 54.6875 
L 23.1875 54.6875 
L 12.5 0 
L 3.515625 0 
z
" id="DejaVuSans-Oblique-105"/>
       <path d="M 42.28125 54.6875 
L 40.921875 47.703125 
L 23 47.703125 
L 17.1875 18.015625 
Q 16.890625 16.359375 16.75 15.234375 
Q 16.609375 14.109375 16.609375 13.484375 
Q 16.609375 10.359375 18.484375 8.9375 
Q 20.359375 7.515625 24.515625 7.515625 
L 33.59375 7.515625 
L 32.078125 0 
L 23.484375 0 
Q 15.484375 0 11.546875 3.125 
Q 7.625 6.25 7.625 12.59375 
Q 7.625 13.71875 7.765625 15.0625 
Q 7.90625 16.40625 8.203125 18.015625 
L 14.015625 47.703125 
L 6.390625 47.703125 
L 7.8125 54.6875 
L 15.28125 54.6875 
L 18.3125 70.21875 
L 27.296875 70.21875 
L 24.3125 54.6875 
z
" id="DejaVuSans-Oblique-116"/>
       <path d="M 11.625 54.6875 
L 54.296875 54.6875 
L 52.6875 46.484375 
L 11.53125 7.171875 
L 45.515625 7.171875 
L 44.09375 0 
L -0.296875 0 
L 1.3125 8.203125 
L 42.484375 47.515625 
L 10.203125 47.515625 
z
" id="DejaVuSans-Oblique-122"/>
       <path id="ArialMT-32"/>
       <path d="M 39.65625 -19.875 
L 39.65625 5.515625 
Q 37.59375 2.640625 33.90625 0.734375 
Q 30.21875 -1.171875 26.078125 -1.171875 
Q 16.84375 -1.171875 10.171875 6.203125 
Q 3.515625 13.578125 3.515625 26.421875 
Q 3.515625 34.234375 6.21875 40.421875 
Q 8.9375 46.625 14.078125 49.828125 
Q 19.234375 53.03125 25.390625 53.03125 
Q 35.015625 53.03125 40.53125 44.921875 
L 40.53125 51.859375 
L 48.4375 51.859375 
L 48.4375 -19.875 
z
M 12.546875 26.078125 
Q 12.546875 16.0625 16.75 11.0625 
Q 20.953125 6.0625 26.8125 6.0625 
Q 32.421875 6.0625 36.46875 10.8125 
Q 40.53125 15.578125 40.53125 25.296875 
Q 40.53125 35.640625 36.25 40.859375 
Q 31.984375 46.09375 26.21875 46.09375 
Q 20.515625 46.09375 16.53125 41.234375 
Q 12.546875 36.375 12.546875 26.078125 
z
" id="ArialMT-113"/>
       <path d="M 7.71875 0 
L 7.71875 71.578125 
L 34.71875 71.578125 
Q 41.84375 71.578125 45.609375 70.90625 
Q 50.875 70.015625 54.4375 67.546875 
Q 58.015625 65.09375 60.1875 60.640625 
Q 62.359375 56.203125 62.359375 50.875 
Q 62.359375 41.75 56.546875 35.421875 
Q 50.734375 29.109375 35.546875 29.109375 
L 17.1875 29.109375 
L 17.1875 0 
z
M 17.1875 37.546875 
L 35.6875 37.546875 
Q 44.875 37.546875 48.734375 40.96875 
Q 52.59375 44.390625 52.59375 50.59375 
Q 52.59375 55.078125 50.3125 58.265625 
Q 48.046875 61.46875 44.34375 62.5 
Q 41.9375 63.140625 35.5 63.140625 
L 17.1875 63.140625 
z
" id="ArialMT-80"/>
       <path d="M 58.796875 25.09375 
L 68.265625 22.703125 
Q 65.28125 11.03125 57.546875 4.90625 
Q 49.8125 -1.21875 38.625 -1.21875 
Q 27.046875 -1.21875 19.796875 3.484375 
Q 12.546875 8.203125 8.765625 17.140625 
Q 4.984375 26.078125 4.984375 36.328125 
Q 4.984375 47.515625 9.25 55.828125 
Q 13.53125 64.15625 21.40625 68.46875 
Q 29.296875 72.796875 38.765625 72.796875 
Q 49.515625 72.796875 56.828125 67.328125 
Q 64.15625 61.859375 67.046875 51.953125 
L 57.71875 49.75 
Q 55.21875 57.5625 50.484375 61.125 
Q 45.75 64.703125 38.578125 64.703125 
Q 30.328125 64.703125 24.78125 60.734375 
Q 19.234375 56.78125 16.984375 50.109375 
Q 14.75 43.453125 14.75 36.375 
Q 14.75 27.25 17.40625 20.4375 
Q 20.0625 13.625 25.671875 10.25 
Q 31.296875 6.890625 37.84375 6.890625 
Q 45.796875 6.890625 51.3125 11.46875 
Q 56.84375 16.0625 58.796875 25.09375 
z
" id="ArialMT-67"/>
       <path d="M 7.859375 0 
L 7.859375 71.578125 
L 39.59375 71.578125 
Q 49.171875 71.578125 54.140625 69.640625 
Q 59.125 67.71875 62.109375 62.828125 
Q 65.09375 57.953125 65.09375 52.046875 
Q 65.09375 44.4375 60.15625 39.203125 
Q 55.21875 33.984375 44.921875 32.5625 
Q 48.6875 30.765625 50.640625 29 
Q 54.78125 25.203125 58.5 19.484375 
L 70.953125 0 
L 59.03125 0 
L 49.5625 14.890625 
Q 45.40625 21.34375 42.71875 24.75 
Q 40.046875 28.171875 37.921875 29.53125 
Q 35.796875 30.90625 33.59375 31.453125 
Q 31.984375 31.78125 28.328125 31.78125 
L 17.328125 31.78125 
L 17.328125 0 
z
M 17.328125 39.984375 
L 37.703125 39.984375 
Q 44.1875 39.984375 47.84375 41.328125 
Q 51.515625 42.671875 53.421875 45.625 
Q 55.328125 48.578125 55.328125 52.046875 
Q 55.328125 57.125 51.640625 60.390625 
Q 47.953125 63.671875 39.984375 63.671875 
L 17.328125 63.671875 
z
" id="ArialMT-82"/>
      </defs>
      <use transform="translate(0 0.015625)" xlink:href="#DejaVuSans-Oblique-70"/>
      <use transform="translate(57.519531 0.015625)" xlink:href="#DejaVuSans-46"/>
      <use transform="translate(108.789062 0.015625)" xlink:href="#DejaVuSans-Oblique-112"/>
      <use transform="translate(172.265625 0.015625)" xlink:href="#DejaVuSans-Oblique-114"/>
      <use transform="translate(213.378906 0.015625)" xlink:href="#DejaVuSans-Oblique-97"/>
      <use transform="translate(274.658203 0.015625)" xlink:href="#DejaVuSans-Oblique-117"/>
      <use transform="translate(338.037109 0.015625)" xlink:href="#DejaVuSans-Oblique-115"/>
      <use transform="translate(390.136719 0.015625)" xlink:href="#DejaVuSans-Oblique-110"/>
      <use transform="translate(453.515625 0.015625)" xlink:href="#DejaVuSans-Oblique-105"/>
      <use transform="translate(481.298828 0.015625)" xlink:href="#DejaVuSans-Oblique-116"/>
      <use transform="translate(520.507812 0.015625)" xlink:href="#DejaVuSans-Oblique-122"/>
      <use transform="translate(572.998047 0.015625)" xlink:href="#DejaVuSans-Oblique-105"/>
      <use transform="translate(600.78125 0.015625)" xlink:href="#DejaVuSans-Oblique-105"/>
      <use transform="translate(628.564453 0.015625)" xlink:href="#ArialMT-32"/>
      <use transform="translate(656.347656 0.015625)" xlink:href="#ArialMT-113"/>
      <use transform="translate(711.962891 0.015625)" xlink:href="#ArialMT-80"/>
      <use transform="translate(778.662109 0.015625)" xlink:href="#ArialMT-67"/>
      <use transform="translate(850.878906 0.015625)" xlink:href="#ArialMT-82"/>
      <use transform="translate(923.095703 0.015625)" xlink:href="#ArialMT-32"/>
     </g>
     <!--   concentration (GC/$\mu$L) -->
     <g style="fill:#262626;" transform="translate(46.611738 149.717598)rotate(-90)scale(0.12 -0.12)">
      <defs>
       <path d="M 40.4375 19 
L 49.078125 17.875 
Q 47.65625 8.9375 41.8125 3.875 
Q 35.984375 -1.171875 27.484375 -1.171875 
Q 16.84375 -1.171875 10.375 5.78125 
Q 3.90625 12.75 3.90625 25.734375 
Q 3.90625 34.125 6.6875 40.421875 
Q 9.46875 46.734375 15.15625 49.875 
Q 20.84375 53.03125 27.546875 53.03125 
Q 35.984375 53.03125 41.359375 48.75 
Q 46.734375 44.484375 48.25 36.625 
L 39.703125 35.296875 
Q 38.484375 40.53125 35.375 43.15625 
Q 32.28125 45.796875 27.875 45.796875 
Q 21.234375 45.796875 17.078125 41.03125 
Q 12.9375 36.28125 12.9375 25.984375 
Q 12.9375 15.53125 16.9375 10.796875 
Q 20.953125 6.0625 27.390625 6.0625 
Q 32.5625 6.0625 36.03125 9.234375 
Q 39.5 12.40625 40.4375 19 
z
" id="ArialMT-99"/>
       <path d="M 3.328125 25.921875 
Q 3.328125 40.328125 11.328125 47.265625 
Q 18.015625 53.03125 27.640625 53.03125 
Q 38.328125 53.03125 45.109375 46.015625 
Q 51.90625 39.015625 51.90625 26.65625 
Q 51.90625 16.65625 48.90625 10.90625 
Q 45.90625 5.171875 40.15625 2 
Q 34.421875 -1.171875 27.640625 -1.171875 
Q 16.75 -1.171875 10.03125 5.8125 
Q 3.328125 12.796875 3.328125 25.921875 
z
M 12.359375 25.921875 
Q 12.359375 15.96875 16.703125 11.015625 
Q 21.046875 6.0625 27.640625 6.0625 
Q 34.1875 6.0625 38.53125 11.03125 
Q 42.875 16.015625 42.875 26.21875 
Q 42.875 35.84375 38.5 40.796875 
Q 34.125 45.75 27.640625 45.75 
Q 21.046875 45.75 16.703125 40.8125 
Q 12.359375 35.890625 12.359375 25.921875 
z
" id="ArialMT-111"/>
       <path d="M 6.59375 0 
L 6.59375 51.859375 
L 14.5 51.859375 
L 14.5 44.484375 
Q 20.21875 53.03125 31 53.03125 
Q 35.6875 53.03125 39.625 51.34375 
Q 43.5625 49.65625 45.515625 46.921875 
Q 47.46875 44.1875 48.25 40.4375 
Q 48.734375 37.984375 48.734375 31.890625 
L 48.734375 0 
L 39.9375 0 
L 39.9375 31.546875 
Q 39.9375 36.921875 38.90625 39.578125 
Q 37.890625 42.234375 35.28125 43.8125 
Q 32.671875 45.40625 29.15625 45.40625 
Q 23.53125 45.40625 19.453125 41.84375 
Q 15.375 38.28125 15.375 28.328125 
L 15.375 0 
z
" id="ArialMT-110"/>
       <path d="M 42.09375 16.703125 
L 51.171875 15.578125 
Q 49.03125 7.625 43.21875 3.21875 
Q 37.40625 -1.171875 28.375 -1.171875 
Q 17 -1.171875 10.328125 5.828125 
Q 3.65625 12.84375 3.65625 25.484375 
Q 3.65625 38.578125 10.390625 45.796875 
Q 17.140625 53.03125 27.875 53.03125 
Q 38.28125 53.03125 44.875 45.953125 
Q 51.46875 38.875 51.46875 26.03125 
Q 51.46875 25.25 51.421875 23.6875 
L 12.75 23.6875 
Q 13.234375 15.140625 17.578125 10.59375 
Q 21.921875 6.0625 28.421875 6.0625 
Q 33.25 6.0625 36.671875 8.59375 
Q 40.09375 11.140625 42.09375 16.703125 
z
M 13.234375 30.90625 
L 42.1875 30.90625 
Q 41.609375 37.453125 38.875 40.71875 
Q 34.671875 45.796875 27.984375 45.796875 
Q 21.921875 45.796875 17.796875 41.75 
Q 13.671875 37.703125 13.234375 30.90625 
z
" id="ArialMT-101"/>
       <path d="M 25.78125 7.859375 
L 27.046875 0.09375 
Q 23.34375 -0.6875 20.40625 -0.6875 
Q 15.625 -0.6875 12.984375 0.828125 
Q 10.359375 2.34375 9.28125 4.8125 
Q 8.203125 7.28125 8.203125 15.1875 
L 8.203125 45.015625 
L 1.765625 45.015625 
L 1.765625 51.859375 
L 8.203125 51.859375 
L 8.203125 64.703125 
L 16.9375 69.96875 
L 16.9375 51.859375 
L 25.78125 51.859375 
L 25.78125 45.015625 
L 16.9375 45.015625 
L 16.9375 14.703125 
Q 16.9375 10.9375 17.40625 9.859375 
Q 17.875 8.796875 18.921875 8.15625 
Q 19.96875 7.515625 21.921875 7.515625 
Q 23.390625 7.515625 25.78125 7.859375 
z
" id="ArialMT-116"/>
       <path d="M 6.5 0 
L 6.5 51.859375 
L 14.40625 51.859375 
L 14.40625 44 
Q 17.4375 49.515625 20 51.265625 
Q 22.5625 53.03125 25.640625 53.03125 
Q 30.078125 53.03125 34.671875 50.203125 
L 31.640625 42.046875 
Q 28.421875 43.953125 25.203125 43.953125 
Q 22.3125 43.953125 20.015625 42.21875 
Q 17.71875 40.484375 16.75 37.40625 
Q 15.28125 32.71875 15.28125 27.15625 
L 15.28125 0 
z
" id="ArialMT-114"/>
       <path d="M 40.4375 6.390625 
Q 35.546875 2.25 31.03125 0.53125 
Q 26.515625 -1.171875 21.34375 -1.171875 
Q 12.796875 -1.171875 8.203125 3 
Q 3.609375 7.171875 3.609375 13.671875 
Q 3.609375 17.484375 5.34375 20.625 
Q 7.078125 23.78125 9.890625 25.6875 
Q 12.703125 27.59375 16.21875 28.5625 
Q 18.796875 29.25 24.03125 29.890625 
Q 34.671875 31.15625 39.703125 32.90625 
Q 39.75 34.71875 39.75 35.203125 
Q 39.75 40.578125 37.25 42.78125 
Q 33.890625 45.75 27.25 45.75 
Q 21.046875 45.75 18.09375 43.578125 
Q 15.140625 41.40625 13.71875 35.890625 
L 5.125 37.0625 
Q 6.296875 42.578125 8.984375 45.96875 
Q 11.671875 49.359375 16.75 51.1875 
Q 21.828125 53.03125 28.515625 53.03125 
Q 35.15625 53.03125 39.296875 51.46875 
Q 43.453125 49.90625 45.40625 47.53125 
Q 47.359375 45.171875 48.140625 41.546875 
Q 48.578125 39.3125 48.578125 33.453125 
L 48.578125 21.734375 
Q 48.578125 9.46875 49.140625 6.21875 
Q 49.703125 2.984375 51.375 0 
L 42.1875 0 
Q 40.828125 2.734375 40.4375 6.390625 
z
M 39.703125 26.03125 
Q 34.90625 24.078125 25.34375 22.703125 
Q 19.921875 21.921875 17.671875 20.9375 
Q 15.4375 19.96875 14.203125 18.09375 
Q 12.984375 16.21875 12.984375 13.921875 
Q 12.984375 10.40625 15.640625 8.0625 
Q 18.3125 5.71875 23.4375 5.71875 
Q 28.515625 5.71875 32.46875 7.9375 
Q 36.421875 10.15625 38.28125 14.015625 
Q 39.703125 17 39.703125 22.796875 
z
" id="ArialMT-97"/>
       <path d="M 6.640625 61.46875 
L 6.640625 71.578125 
L 15.4375 71.578125 
L 15.4375 61.46875 
z
M 6.640625 0 
L 6.640625 51.859375 
L 15.4375 51.859375 
L 15.4375 0 
z
" id="ArialMT-105"/>
       <path d="M 23.390625 -21.046875 
Q 16.109375 -11.859375 11.078125 0.4375 
Q 6.0625 12.75 6.0625 25.921875 
Q 6.0625 37.546875 9.8125 48.1875 
Q 14.203125 60.546875 23.390625 72.796875 
L 29.6875 72.796875 
Q 23.78125 62.640625 21.875 58.296875 
Q 18.890625 51.5625 17.1875 44.234375 
Q 15.09375 35.109375 15.09375 25.875 
Q 15.09375 2.390625 29.6875 -21.046875 
z
" id="ArialMT-40"/>
       <path d="M 41.21875 28.078125 
L 41.21875 36.46875 
L 71.53125 36.53125 
L 71.53125 9.96875 
Q 64.546875 4.390625 57.125 1.578125 
Q 49.703125 -1.21875 41.890625 -1.21875 
Q 31.34375 -1.21875 22.71875 3.296875 
Q 14.109375 7.8125 9.71875 16.359375 
Q 5.328125 24.90625 5.328125 35.453125 
Q 5.328125 45.90625 9.6875 54.953125 
Q 14.0625 64.015625 22.265625 68.40625 
Q 30.46875 72.796875 41.15625 72.796875 
Q 48.921875 72.796875 55.1875 70.28125 
Q 61.46875 67.78125 65.03125 63.28125 
Q 68.609375 58.796875 70.453125 51.5625 
L 61.921875 49.21875 
Q 60.296875 54.6875 57.90625 57.8125 
Q 55.515625 60.9375 51.0625 62.8125 
Q 46.625 64.703125 41.21875 64.703125 
Q 34.71875 64.703125 29.984375 62.71875 
Q 25.25 60.75 22.34375 57.515625 
Q 19.4375 54.296875 17.828125 50.4375 
Q 15.09375 43.796875 15.09375 36.03125 
Q 15.09375 26.46875 18.390625 20.015625 
Q 21.6875 13.578125 27.984375 10.453125 
Q 34.28125 7.328125 41.359375 7.328125 
Q 47.515625 7.328125 53.375 9.6875 
Q 59.234375 12.0625 62.25 14.75 
L 62.25 28.078125 
z
" id="ArialMT-71"/>
       <path d="M 0 -1.21875 
L 20.75 72.796875 
L 27.78125 72.796875 
L 7.078125 -1.21875 
z
" id="ArialMT-47"/>
       <path d="M -1.3125 -20.796875 
L 13.375 54.6875 
L 22.40625 54.6875 
L 15.765625 20.65625 
Q 15.578125 19.625 15.421875 18.359375 
Q 15.28125 17.09375 15.28125 15.828125 
Q 15.28125 11.28125 18.140625 8.828125 
Q 21 6.390625 26.3125 6.390625 
Q 33.546875 6.390625 37.984375 10.484375 
Q 42.4375 14.59375 44 22.796875 
L 50.203125 54.6875 
L 59.1875 54.6875 
L 51.03125 12.640625 
Q 50.828125 11.71875 50.75 11.03125 
Q 50.6875 10.359375 50.6875 9.8125 
Q 50.6875 8.296875 51.296875 7.59375 
Q 51.90625 6.890625 53.21875 6.890625 
Q 53.71875 6.890625 54.5625 7.125 
Q 55.421875 7.375 56.984375 8.015625 
L 55.609375 0.78125 
Q 53.46875 -0.296875 51.515625 -0.859375 
Q 49.5625 -1.421875 47.703125 -1.421875 
Q 44.484375 -1.421875 42.65625 0.625 
Q 40.828125 2.6875 40.828125 6.296875 
Q 38.09375 2.390625 34.296875 0.484375 
Q 30.515625 -1.421875 25.390625 -1.421875 
Q 20.84375 -1.421875 17.453125 0.671875 
Q 14.0625 2.78125 12.984375 6.203125 
L 7.71875 -20.796875 
z
" id="DejaVuSans-Oblique-956"/>
       <path d="M 7.328125 0 
L 7.328125 71.578125 
L 16.796875 71.578125 
L 16.796875 8.453125 
L 52.046875 8.453125 
L 52.046875 0 
z
" id="ArialMT-76"/>
       <path d="M 12.359375 -21.046875 
L 6.0625 -21.046875 
Q 20.65625 2.390625 20.65625 25.875 
Q 20.65625 35.0625 18.5625 44.09375 
Q 16.890625 51.421875 13.921875 58.15625 
Q 12.015625 62.546875 6.0625 72.796875 
L 12.359375 72.796875 
Q 21.53125 60.546875 25.921875 48.1875 
Q 29.6875 37.546875 29.6875 25.921875 
Q 29.6875 12.75 24.625 0.4375 
Q 19.578125 -11.859375 12.359375 -21.046875 
z
" id="ArialMT-41"/>
      </defs>
      <use transform="translate(0 0.203125)" xlink:href="#ArialMT-32"/>
      <use transform="translate(27.783203 0.203125)" xlink:href="#ArialMT-32"/>
      <use transform="translate(55.566406 0.203125)" xlink:href="#ArialMT-99"/>
      <use transform="translate(105.566406 0.203125)" xlink:href="#ArialMT-111"/>
      <use transform="translate(161.181641 0.203125)" xlink:href="#ArialMT-110"/>
      <use transform="translate(216.796875 0.203125)" xlink:href="#ArialMT-99"/>
      <use transform="translate(266.796875 0.203125)" xlink:href="#ArialMT-101"/>
      <use transform="translate(322.412109 0.203125)" xlink:href="#ArialMT-110"/>
      <use transform="translate(378.027344 0.203125)" xlink:href="#ArialMT-116"/>
      <use transform="translate(405.810547 0.203125)" xlink:href="#ArialMT-114"/>
      <use transform="translate(439.111328 0.203125)" xlink:href="#ArialMT-97"/>
      <use transform="translate(494.726562 0.203125)" xlink:href="#ArialMT-116"/>
      <use transform="translate(522.509766 0.203125)" xlink:href="#ArialMT-105"/>
      <use transform="translate(544.726562 0.203125)" xlink:href="#ArialMT-111"/>
      <use transform="translate(600.341797 0.203125)" xlink:href="#ArialMT-110"/>
      <use transform="translate(655.957031 0.203125)" xlink:href="#ArialMT-32"/>
      <use transform="translate(683.740234 0.203125)" xlink:href="#ArialMT-40"/>
      <use transform="translate(717.041016 0.203125)" xlink:href="#ArialMT-71"/>
      <use transform="translate(794.824219 0.203125)" xlink:href="#ArialMT-67"/>
      <use transform="translate(867.041016 0.203125)" xlink:href="#ArialMT-47"/>
      <use transform="translate(894.824219 0.203125)" xlink:href="#DejaVuSans-Oblique-956"/>
      <use transform="translate(958.447266 0.203125)" xlink:href="#ArialMT-76"/>
      <use transform="translate(1014.0625 0.203125)" xlink:href="#ArialMT-41"/>
     </g>
    </g>
   </g>
   <g id="patch_3">
    <path clip-path="url(#p668bd1c042)" d="M 77.053577 82.517037 
L 82.563588 82.517037 
L 82.563588 75.264664 
L 77.053577 75.264664 
L 77.053577 82.517037 
z
" style="fill:#ea8e83;stroke:#666666;stroke-linejoin:miter;"/>
   </g>
   <g id="patch_4">
    <path clip-path="url(#p668bd1c042)" d="M 91.109726 146.872939 
L 96.619737 146.872939 
L 96.619737 138.347028 
L 91.109726 138.347028 
L 91.109726 146.872939 
z
" style="fill:#ea8e83;stroke:#666666;stroke-linejoin:miter;"/>
   </g>
   <g id="patch_5">
    <path clip-path="url(#p668bd1c042)" d="M 105.165876 121.684293 
L 110.675886 121.684293 
L 110.675886 116.437771 
L 105.165876 116.437771 
L 105.165876 121.684293 
z
" style="fill:#ea8e83;stroke:#666666;stroke-linejoin:miter;"/>
   </g>
   <g id="patch_6">
    <path clip-path="url(#p668bd1c042)" d="M 119.222025 121.929269 
L 124.732036 121.929269 
L 124.732036 115.553378 
L 119.222025 115.553378 
L 119.222025 121.929269 
z
" style="fill:#ea8e83;stroke:#666666;stroke-linejoin:miter;"/>
   </g>
   <g id="patch_7">
    <path clip-path="url(#p668bd1c042)" d="M 133.278175 98.293041 
L 138.788185 98.293041 
L 138.788185 87.003846 
L 133.278175 87.003846 
L 133.278175 98.293041 
z
" style="fill:#ea8e83;stroke:#666666;stroke-linejoin:miter;"/>
   </g>
   <g id="patch_8">
    <path clip-path="url(#p668bd1c042)" d="M 152.956784 108.893982 
L 158.466795 108.893982 
L 158.466795 100.565928 
L 152.956784 100.565928 
L 152.956784 108.893982 
z
" style="fill:#8aafc9;stroke:#666666;stroke-linejoin:miter;"/>
   </g>
   <g id="patch_9">
    <path clip-path="url(#p668bd1c042)" d="M 161.390474 69.728823 
L 166.900484 69.728823 
L 166.900484 67.329851 
L 161.390474 67.329851 
L 161.390474 69.728823 
z
" style="fill:#ea8e83;stroke:#666666;stroke-linejoin:miter;"/>
   </g>
   <g id="patch_10">
    <path clip-path="url(#p668bd1c042)" d="M 175.446623 48.116152 
L 180.956634 48.116152 
L 180.956634 43.85324 
L 175.446623 43.85324 
L 175.446623 48.116152 
z
" style="fill:#ea8e83;stroke:#666666;stroke-linejoin:miter;"/>
   </g>
   <g id="patch_11">
    <path clip-path="url(#p668bd1c042)" d="M 195.125232 60.858392 
L 200.635243 60.858392 
L 200.635243 56.357522 
L 195.125232 56.357522 
L 195.125232 60.858392 
z
" style="fill:#8aafc9;stroke:#666666;stroke-linejoin:miter;"/>
   </g>
   <g id="patch_12">
    <path clip-path="url(#p668bd1c042)" d="M 203.558922 50.463621 
L 209.068933 50.463621 
L 209.068933 42.806154 
L 203.558922 42.806154 
L 203.558922 50.463621 
z
" style="fill:#ea8e83;stroke:#666666;stroke-linejoin:miter;"/>
   </g>
   <g id="patch_13">
    <path clip-path="url(#p668bd1c042)" d="M 217.615071 73.271061 
L 223.125082 73.271061 
L 223.125082 66.258557 
L 217.615071 66.258557 
L 217.615071 73.271061 
z
" style="fill:#ea8e83;stroke:#666666;stroke-linejoin:miter;"/>
   </g>
   <g id="patch_14">
    <path clip-path="url(#p668bd1c042)" d="M 237.293681 45.500572 
L 242.803691 45.500572 
L 242.803691 35.414647 
L 237.293681 35.414647 
L 237.293681 45.500572 
z
" style="fill:#8aafc9;stroke:#666666;stroke-linejoin:miter;"/>
   </g>
   <g id="patch_15">
    <path clip-path="url(#p668bd1c042)" d="M 251.34983 50.694295 
L 256.859841 50.694295 
L 256.859841 43.312133 
L 251.34983 43.312133 
L 251.34983 50.694295 
z
" style="fill:#8aafc9;stroke:#666666;stroke-linejoin:miter;"/>
   </g>
   <g id="patch_16">
    <path clip-path="url(#p668bd1c042)" d="M 265.405979 57.989879 
L 270.91599 57.989879 
L 270.91599 46.313359 
L 265.405979 46.313359 
L 265.405979 57.989879 
z
" style="fill:#8aafc9;stroke:#666666;stroke-linejoin:miter;"/>
   </g>
   <g id="patch_17">
    <path clip-path="url(#p668bd1c042)" d="M 273.839669 47.94032 
L 279.34968 47.94032 
L 279.34968 44.268164 
L 273.839669 44.268164 
L 273.839669 47.94032 
z
" style="fill:#ea8e83;stroke:#666666;stroke-linejoin:miter;"/>
   </g>
   <g id="patch_18">
    <path clip-path="url(#p668bd1c042)" d="M 293.518278 49.10324 
L 299.028289 49.10324 
L 299.028289 46.157742 
L 293.518278 46.157742 
L 293.518278 49.10324 
z
" style="fill:#8aafc9;stroke:#666666;stroke-linejoin:miter;"/>
   </g>
   <g id="patch_19">
    <path clip-path="url(#p668bd1c042)" d="M 307.574428 64.500769 
L 313.084438 64.500769 
L 313.084438 54.718111 
L 307.574428 54.718111 
L 307.574428 64.500769 
z
" style="fill:#8aafc9;stroke:#666666;stroke-linejoin:miter;"/>
   </g>
   <g id="patch_20">
    <path clip-path="url(#p668bd1c042)" d="M 321.630577 62.822154 
L 327.140588 62.822154 
L 327.140588 59.814763 
L 321.630577 59.814763 
L 321.630577 62.822154 
z
" style="fill:#8aafc9;stroke:#666666;stroke-linejoin:miter;"/>
   </g>
   <g id="patch_21">
    <path clip-path="url(#p668bd1c042)" d="M 335.686727 43.204061 
L 341.196737 43.204061 
L 341.196737 29.493624 
L 335.686727 29.493624 
L 335.686727 43.204061 
z
" style="fill:#8aafc9;stroke:#666666;stroke-linejoin:miter;"/>
   </g>
   <g id="patch_22">
    <path clip-path="url(#p668bd1c042)" d="M 349.742876 50.618568 
L 355.252887 50.618568 
L 355.252887 46.014473 
L 349.742876 46.014473 
L 349.742876 50.618568 
z
" style="fill:#8aafc9;stroke:#666666;stroke-linejoin:miter;"/>
   </g>
   <g id="patch_23">
    <path clip-path="url(#p668bd1c042)" d="M 358.176566 56.347677 
L 363.686576 56.347677 
L 363.686576 56.281127 
L 358.176566 56.281127 
L 358.176566 56.347677 
z
" style="fill:#ea8e83;stroke:#666666;stroke-linejoin:miter;"/>
   </g>
   <g id="patch_24">
    <path clip-path="url(#p668bd1c042)" d="M 372.232715 48.167392 
L 377.742726 48.167392 
L 377.742726 42.243781 
L 372.232715 42.243781 
L 372.232715 48.167392 
z
" style="fill:#ea8e83;stroke:#666666;stroke-linejoin:miter;"/>
   </g>
   <g id="patch_25">
    <path clip-path="url(#p668bd1c042)" d="M 391.911324 43.339157 
L 397.421335 43.339157 
L 397.421335 35.280625 
L 391.911324 35.280625 
L 391.911324 43.339157 
z
" style="fill:#8aafc9;stroke:#666666;stroke-linejoin:miter;"/>
   </g>
   <g id="patch_26">
    <path clip-path="url(#p668bd1c042)" d="M 400.345014 52.173786 
L 405.855025 52.173786 
L 405.855025 43.952109 
L 400.345014 43.952109 
L 400.345014 52.173786 
z
" style="fill:#ea8e83;stroke:#666666;stroke-linejoin:miter;"/>
   </g>
   <g id="patch_27">
    <path clip-path="url(#p668bd1c042)" d="M 420.023623 45.980518 
L 425.533634 45.980518 
L 425.533634 40.646448 
L 420.023623 40.646448 
L 420.023623 45.980518 
z
" style="fill:#8aafc9;stroke:#666666;stroke-linejoin:miter;"/>
   </g>
   <g id="patch_28">
    <path clip-path="url(#p668bd1c042)" d="M 434.079773 31.913146 
L 439.589783 31.913146 
L 439.589783 26.17896 
L 434.079773 26.17896 
L 434.079773 31.913146 
z
" style="fill:#8aafc9;stroke:#666666;stroke-linejoin:miter;"/>
   </g>
   <g id="patch_29">
    <path clip-path="url(#p668bd1c042)" d="M 448.135922 45.720331 
L 453.645933 45.720331 
L 453.645933 36.639717 
L 448.135922 36.639717 
L 448.135922 45.720331 
z
" style="fill:#8aafc9;stroke:#666666;stroke-linejoin:miter;"/>
   </g>
   <g id="patch_30">
    <path clip-path="url(#p668bd1c042)" d="M 462.192071 33.120785 
L 467.702082 33.120785 
L 467.702082 30.35353 
L 462.192071 30.35353 
L 462.192071 33.120785 
z
" style="fill:#8aafc9;stroke:#666666;stroke-linejoin:miter;"/>
   </g>
   <g id="patch_31">
    <path clip-path="url(#p668bd1c042)" d="M 476.248221 38.908031 
L 481.758231 38.908031 
L 481.758231 34.406584 
L 476.248221 34.406584 
L 476.248221 38.908031 
z
" style="fill:#8aafc9;stroke:#666666;stroke-linejoin:miter;"/>
   </g>
   <g id="patch_32">
    <path clip-path="url(#p668bd1c042)" d="M 490.30437 44.593746 
L 495.814381 44.593746 
L 495.814381 38.594525 
L 490.30437 38.594525 
L 490.30437 44.593746 
z
" style="fill:#8aafc9;stroke:#666666;stroke-linejoin:miter;"/>
   </g>
   <g id="patch_33">
    <path clip-path="url(#p668bd1c042)" d="M 82.619812 82446.689791 
L 82.619812 82446.689791 
L 82.619812 82446.689791 
L 82.619812 82446.689791 
z
" style="fill:#ea8e83;stroke:#666666;stroke-linejoin:miter;stroke-width:0.5;"/>
   </g>
   <g id="patch_34">
    <path clip-path="url(#p668bd1c042)" d="M 82.619812 82446.689791 
L 82.619812 82446.689791 
L 82.619812 82446.689791 
L 82.619812 82446.689791 
z
" style="fill:#8aafc9;stroke:#666666;stroke-linejoin:miter;stroke-width:0.5;"/>
   </g>
   <g id="line2d_1">
    <path clip-path="url(#p668bd1c042)" d="M 79.808582 82.517037 
L 79.808582 87.801912 
" style="fill:none;stroke:#666666;stroke-linecap:round;"/>
   </g>
   <g id="line2d_2">
    <path clip-path="url(#p668bd1c042)" d="M 79.808582 75.264664 
L 79.808582 72.796068 
" style="fill:none;stroke:#666666;stroke-linecap:round;"/>
   </g>
   <g id="line2d_3">
    <path clip-path="url(#p668bd1c042)" d="M 78.43108 87.801912 
L 81.186085 87.801912 
" style="fill:none;stroke:#666666;stroke-linecap:round;"/>
   </g>
   <g id="line2d_4">
    <path clip-path="url(#p668bd1c042)" d="M 78.43108 72.796068 
L 81.186085 72.796068 
" style="fill:none;stroke:#666666;stroke-linecap:round;"/>
   </g>
   <g id="line2d_5"/>
   <g id="line2d_6">
    <path clip-path="url(#p668bd1c042)" d="M 93.864732 146.872939 
L 93.864732 153.999052 
" style="fill:none;stroke:#666666;stroke-linecap:round;"/>
   </g>
   <g id="line2d_7">
    <path clip-path="url(#p668bd1c042)" d="M 93.864732 138.347028 
L 93.864732 135.929992 
" style="fill:none;stroke:#666666;stroke-linecap:round;"/>
   </g>
   <g id="line2d_8">
    <path clip-path="url(#p668bd1c042)" d="M 92.487229 153.999052 
L 95.242234 153.999052 
" style="fill:none;stroke:#666666;stroke-linecap:round;"/>
   </g>
   <g id="line2d_9">
    <path clip-path="url(#p668bd1c042)" d="M 92.487229 135.929992 
L 95.242234 135.929992 
" style="fill:none;stroke:#666666;stroke-linecap:round;"/>
   </g>
   <g id="line2d_10"/>
   <g id="line2d_11">
    <path clip-path="url(#p668bd1c042)" d="M 107.920881 121.684293 
L 107.920881 125.988707 
" style="fill:none;stroke:#666666;stroke-linecap:round;"/>
   </g>
   <g id="line2d_12">
    <path clip-path="url(#p668bd1c042)" d="M 107.920881 116.437771 
L 107.920881 115.083534 
" style="fill:none;stroke:#666666;stroke-linecap:round;"/>
   </g>
   <g id="line2d_13">
    <path clip-path="url(#p668bd1c042)" d="M 106.543379 125.988707 
L 109.298384 125.988707 
" style="fill:none;stroke:#666666;stroke-linecap:round;"/>
   </g>
   <g id="line2d_14">
    <path clip-path="url(#p668bd1c042)" d="M 106.543379 115.083534 
L 109.298384 115.083534 
" style="fill:none;stroke:#666666;stroke-linecap:round;"/>
   </g>
   <g id="line2d_15"/>
   <g id="line2d_16">
    <path clip-path="url(#p668bd1c042)" d="M 121.977031 121.929269 
L 121.977031 125.244834 
" style="fill:none;stroke:#666666;stroke-linecap:round;"/>
   </g>
   <g id="line2d_17">
    <path clip-path="url(#p668bd1c042)" d="M 121.977031 115.553378 
L 121.977031 112.497665 
" style="fill:none;stroke:#666666;stroke-linecap:round;"/>
   </g>
   <g id="line2d_18">
    <path clip-path="url(#p668bd1c042)" d="M 120.599528 125.244834 
L 123.354533 125.244834 
" style="fill:none;stroke:#666666;stroke-linecap:round;"/>
   </g>
   <g id="line2d_19">
    <path clip-path="url(#p668bd1c042)" d="M 120.599528 112.497665 
L 123.354533 112.497665 
" style="fill:none;stroke:#666666;stroke-linecap:round;"/>
   </g>
   <g id="line2d_20"/>
   <g id="line2d_21">
    <path clip-path="url(#p668bd1c042)" d="M 136.03318 98.293041 
L 136.03318 107.08672 
" style="fill:none;stroke:#666666;stroke-linecap:round;"/>
   </g>
   <g id="line2d_22">
    <path clip-path="url(#p668bd1c042)" d="M 136.03318 87.003846 
L 136.03318 83.211189 
" style="fill:none;stroke:#666666;stroke-linecap:round;"/>
   </g>
   <g id="line2d_23">
    <path clip-path="url(#p668bd1c042)" d="M 134.655677 107.08672 
L 137.410683 107.08672 
" style="fill:none;stroke:#666666;stroke-linecap:round;"/>
   </g>
   <g id="line2d_24">
    <path clip-path="url(#p668bd1c042)" d="M 134.655677 83.211189 
L 137.410683 83.211189 
" style="fill:none;stroke:#666666;stroke-linecap:round;"/>
   </g>
   <g id="line2d_25"/>
   <g id="line2d_26">
    <path clip-path="url(#p668bd1c042)" d="M 155.711789 108.893982 
L 155.711789 111.135662 
" style="fill:none;stroke:#666666;stroke-linecap:round;"/>
   </g>
   <g id="line2d_27">
    <path clip-path="url(#p668bd1c042)" d="M 155.711789 100.565928 
L 155.711789 95.275133 
" style="fill:none;stroke:#666666;stroke-linecap:round;"/>
   </g>
   <g id="line2d_28">
    <path clip-path="url(#p668bd1c042)" d="M 154.334287 111.135662 
L 157.089292 111.135662 
" style="fill:none;stroke:#666666;stroke-linecap:round;"/>
   </g>
   <g id="line2d_29">
    <path clip-path="url(#p668bd1c042)" d="M 154.334287 95.275133 
L 157.089292 95.275133 
" style="fill:none;stroke:#666666;stroke-linecap:round;"/>
   </g>
   <g id="line2d_30"/>
   <g id="line2d_31">
    <path clip-path="url(#p668bd1c042)" d="M 164.145479 69.728823 
L 164.145479 70.772562 
" style="fill:none;stroke:#666666;stroke-linecap:round;"/>
   </g>
   <g id="line2d_32">
    <path clip-path="url(#p668bd1c042)" d="M 164.145479 67.329851 
L 164.145479 65.996814 
" style="fill:none;stroke:#666666;stroke-linecap:round;"/>
   </g>
   <g id="line2d_33">
    <path clip-path="url(#p668bd1c042)" d="M 162.767976 70.772562 
L 165.522982 70.772562 
" style="fill:none;stroke:#666666;stroke-linecap:round;"/>
   </g>
   <g id="line2d_34">
    <path clip-path="url(#p668bd1c042)" d="M 162.767976 65.996814 
L 165.522982 65.996814 
" style="fill:none;stroke:#666666;stroke-linecap:round;"/>
   </g>
   <g id="line2d_35"/>
   <g id="line2d_36">
    <path clip-path="url(#p668bd1c042)" d="M 178.201628 48.116152 
L 178.201628 49.612349 
" style="fill:none;stroke:#666666;stroke-linecap:round;"/>
   </g>
   <g id="line2d_37">
    <path clip-path="url(#p668bd1c042)" d="M 178.201628 43.85324 
L 178.201628 41.234621 
" style="fill:none;stroke:#666666;stroke-linecap:round;"/>
   </g>
   <g id="line2d_38">
    <path clip-path="url(#p668bd1c042)" d="M 176.824126 49.612349 
L 179.579131 49.612349 
" style="fill:none;stroke:#666666;stroke-linecap:round;"/>
   </g>
   <g id="line2d_39">
    <path clip-path="url(#p668bd1c042)" d="M 176.824126 41.234621 
L 179.579131 41.234621 
" style="fill:none;stroke:#666666;stroke-linecap:round;"/>
   </g>
   <g id="line2d_40"/>
   <g id="line2d_41">
    <path clip-path="url(#p668bd1c042)" d="M 197.880238 60.858392 
L 197.880238 62.181584 
" style="fill:none;stroke:#666666;stroke-linecap:round;"/>
   </g>
   <g id="line2d_42">
    <path clip-path="url(#p668bd1c042)" d="M 197.880238 56.357522 
L 197.880238 53.401011 
" style="fill:none;stroke:#666666;stroke-linecap:round;"/>
   </g>
   <g id="line2d_43">
    <path clip-path="url(#p668bd1c042)" d="M 196.502735 62.181584 
L 199.25774 62.181584 
" style="fill:none;stroke:#666666;stroke-linecap:round;"/>
   </g>
   <g id="line2d_44">
    <path clip-path="url(#p668bd1c042)" d="M 196.502735 53.401011 
L 199.25774 53.401011 
" style="fill:none;stroke:#666666;stroke-linecap:round;"/>
   </g>
   <g id="line2d_45"/>
   <g id="line2d_46">
    <path clip-path="url(#p668bd1c042)" d="M 206.313927 50.463621 
L 206.313927 53.436242 
" style="fill:none;stroke:#666666;stroke-linecap:round;"/>
   </g>
   <g id="line2d_47">
    <path clip-path="url(#p668bd1c042)" d="M 206.313927 42.806154 
L 206.313927 38.489809 
" style="fill:none;stroke:#666666;stroke-linecap:round;"/>
   </g>
   <g id="line2d_48">
    <path clip-path="url(#p668bd1c042)" d="M 204.936425 53.436242 
L 207.69143 53.436242 
" style="fill:none;stroke:#666666;stroke-linecap:round;"/>
   </g>
   <g id="line2d_49">
    <path clip-path="url(#p668bd1c042)" d="M 204.936425 38.489809 
L 207.69143 38.489809 
" style="fill:none;stroke:#666666;stroke-linecap:round;"/>
   </g>
   <g id="line2d_50"/>
   <g id="line2d_51">
    <path clip-path="url(#p668bd1c042)" d="M 220.370077 73.271061 
L 220.370077 75.473213 
" style="fill:none;stroke:#666666;stroke-linecap:round;"/>
   </g>
   <g id="line2d_52">
    <path clip-path="url(#p668bd1c042)" d="M 220.370077 66.258557 
L 220.370077 61.923413 
" style="fill:none;stroke:#666666;stroke-linecap:round;"/>
   </g>
   <g id="line2d_53">
    <path clip-path="url(#p668bd1c042)" d="M 218.992574 75.473213 
L 221.747579 75.473213 
" style="fill:none;stroke:#666666;stroke-linecap:round;"/>
   </g>
   <g id="line2d_54">
    <path clip-path="url(#p668bd1c042)" d="M 218.992574 61.923413 
L 221.747579 61.923413 
" style="fill:none;stroke:#666666;stroke-linecap:round;"/>
   </g>
   <g id="line2d_55"/>
   <g id="line2d_56">
    <path clip-path="url(#p668bd1c042)" d="M 240.048686 45.500572 
L 240.048686 48.526648 
" style="fill:none;stroke:#666666;stroke-linecap:round;"/>
   </g>
   <g id="line2d_57">
    <path clip-path="url(#p668bd1c042)" d="M 240.048686 35.414647 
L 240.048686 29.364155 
" style="fill:none;stroke:#666666;stroke-linecap:round;"/>
   </g>
   <g id="line2d_58">
    <path clip-path="url(#p668bd1c042)" d="M 238.671183 48.526648 
L 241.426189 48.526648 
" style="fill:none;stroke:#666666;stroke-linecap:round;"/>
   </g>
   <g id="line2d_59">
    <path clip-path="url(#p668bd1c042)" d="M 238.671183 29.364155 
L 241.426189 29.364155 
" style="fill:none;stroke:#666666;stroke-linecap:round;"/>
   </g>
   <g id="line2d_60"/>
   <g id="line2d_61">
    <path clip-path="url(#p668bd1c042)" d="M 254.104835 50.694295 
L 254.104835 55.221222 
" style="fill:none;stroke:#666666;stroke-linecap:round;"/>
   </g>
   <g id="line2d_62">
    <path clip-path="url(#p668bd1c042)" d="M 254.104835 43.312133 
L 254.104835 40.236385 
" style="fill:none;stroke:#666666;stroke-linecap:round;"/>
   </g>
   <g id="line2d_63">
    <path clip-path="url(#p668bd1c042)" d="M 252.727333 55.221222 
L 255.482338 55.221222 
" style="fill:none;stroke:#666666;stroke-linecap:round;"/>
   </g>
   <g id="line2d_64">
    <path clip-path="url(#p668bd1c042)" d="M 252.727333 40.236385 
L 255.482338 40.236385 
" style="fill:none;stroke:#666666;stroke-linecap:round;"/>
   </g>
   <g id="line2d_65"/>
   <g id="line2d_66">
    <path clip-path="url(#p668bd1c042)" d="M 268.160985 57.989879 
L 268.160985 68.682618 
" style="fill:none;stroke:#666666;stroke-linecap:round;"/>
   </g>
   <g id="line2d_67">
    <path clip-path="url(#p668bd1c042)" d="M 268.160985 46.313359 
L 268.160985 43.152859 
" style="fill:none;stroke:#666666;stroke-linecap:round;"/>
   </g>
   <g id="line2d_68">
    <path clip-path="url(#p668bd1c042)" d="M 266.783482 68.682618 
L 269.538487 68.682618 
" style="fill:none;stroke:#666666;stroke-linecap:round;"/>
   </g>
   <g id="line2d_69">
    <path clip-path="url(#p668bd1c042)" d="M 266.783482 43.152859 
L 269.538487 43.152859 
" style="fill:none;stroke:#666666;stroke-linecap:round;"/>
   </g>
   <g id="line2d_70"/>
   <g id="line2d_71">
    <path clip-path="url(#p668bd1c042)" d="M 276.594674 47.94032 
L 276.594674 49.49723 
" style="fill:none;stroke:#666666;stroke-linecap:round;"/>
   </g>
   <g id="line2d_72">
    <path clip-path="url(#p668bd1c042)" d="M 276.594674 44.268164 
L 276.594674 42.213717 
" style="fill:none;stroke:#666666;stroke-linecap:round;"/>
   </g>
   <g id="line2d_73">
    <path clip-path="url(#p668bd1c042)" d="M 275.217172 49.49723 
L 277.972177 49.49723 
" style="fill:none;stroke:#666666;stroke-linecap:round;"/>
   </g>
   <g id="line2d_74">
    <path clip-path="url(#p668bd1c042)" d="M 275.217172 42.213717 
L 277.972177 42.213717 
" style="fill:none;stroke:#666666;stroke-linecap:round;"/>
   </g>
   <g id="line2d_75"/>
   <g id="line2d_76">
    <path clip-path="url(#p668bd1c042)" d="M 296.273284 49.10324 
L 296.273284 49.66447 
" style="fill:none;stroke:#666666;stroke-linecap:round;"/>
   </g>
   <g id="line2d_77">
    <path clip-path="url(#p668bd1c042)" d="M 296.273284 46.157742 
L 296.273284 43.91588 
" style="fill:none;stroke:#666666;stroke-linecap:round;"/>
   </g>
   <g id="line2d_78">
    <path clip-path="url(#p668bd1c042)" d="M 294.895781 49.66447 
L 297.650786 49.66447 
" style="fill:none;stroke:#666666;stroke-linecap:round;"/>
   </g>
   <g id="line2d_79">
    <path clip-path="url(#p668bd1c042)" d="M 294.895781 43.91588 
L 297.650786 43.91588 
" style="fill:none;stroke:#666666;stroke-linecap:round;"/>
   </g>
   <g id="line2d_80"/>
   <g id="line2d_81">
    <path clip-path="url(#p668bd1c042)" d="M 310.329433 64.500769 
L 310.329433 73.608086 
" style="fill:none;stroke:#666666;stroke-linecap:round;"/>
   </g>
   <g id="line2d_82">
    <path clip-path="url(#p668bd1c042)" d="M 310.329433 54.718111 
L 310.329433 52.346994 
" style="fill:none;stroke:#666666;stroke-linecap:round;"/>
   </g>
   <g id="line2d_83">
    <path clip-path="url(#p668bd1c042)" d="M 308.95193 73.608086 
L 311.706936 73.608086 
" style="fill:none;stroke:#666666;stroke-linecap:round;"/>
   </g>
   <g id="line2d_84">
    <path clip-path="url(#p668bd1c042)" d="M 308.95193 52.346994 
L 311.706936 52.346994 
" style="fill:none;stroke:#666666;stroke-linecap:round;"/>
   </g>
   <g id="line2d_85"/>
   <g id="line2d_86">
    <path clip-path="url(#p668bd1c042)" d="M 324.385582 62.822154 
L 324.385582 64.776507 
" style="fill:none;stroke:#666666;stroke-linecap:round;"/>
   </g>
   <g id="line2d_87">
    <path clip-path="url(#p668bd1c042)" d="M 324.385582 59.814763 
L 324.385582 58.696137 
" style="fill:none;stroke:#666666;stroke-linecap:round;"/>
   </g>
   <g id="line2d_88">
    <path clip-path="url(#p668bd1c042)" d="M 323.00808 64.776507 
L 325.763085 64.776507 
" style="fill:none;stroke:#666666;stroke-linecap:round;"/>
   </g>
   <g id="line2d_89">
    <path clip-path="url(#p668bd1c042)" d="M 323.00808 58.696137 
L 325.763085 58.696137 
" style="fill:none;stroke:#666666;stroke-linecap:round;"/>
   </g>
   <g id="line2d_90"/>
   <g id="line2d_91">
    <path clip-path="url(#p668bd1c042)" d="M 338.441732 43.204061 
L 338.441732 43.299527 
" style="fill:none;stroke:#666666;stroke-linecap:round;"/>
   </g>
   <g id="line2d_92">
    <path clip-path="url(#p668bd1c042)" d="M 338.441732 29.493624 
L 338.441732 19.676145 
" style="fill:none;stroke:#666666;stroke-linecap:round;"/>
   </g>
   <g id="line2d_93">
    <path clip-path="url(#p668bd1c042)" d="M 337.064229 43.299527 
L 339.819235 43.299527 
" style="fill:none;stroke:#666666;stroke-linecap:round;"/>
   </g>
   <g id="line2d_94">
    <path clip-path="url(#p668bd1c042)" d="M 337.064229 19.676145 
L 339.819235 19.676145 
" style="fill:none;stroke:#666666;stroke-linecap:round;"/>
   </g>
   <g id="line2d_95"/>
   <g id="line2d_96">
    <path clip-path="url(#p668bd1c042)" d="M 352.497881 50.618568 
L 352.497881 55.228011 
" style="fill:none;stroke:#666666;stroke-linecap:round;"/>
   </g>
   <g id="line2d_97">
    <path clip-path="url(#p668bd1c042)" d="M 352.497881 46.014473 
L 352.497881 45.49727 
" style="fill:none;stroke:#666666;stroke-linecap:round;"/>
   </g>
   <g id="line2d_98">
    <path clip-path="url(#p668bd1c042)" d="M 351.120379 55.228011 
L 353.875384 55.228011 
" style="fill:none;stroke:#666666;stroke-linecap:round;"/>
   </g>
   <g id="line2d_99">
    <path clip-path="url(#p668bd1c042)" d="M 351.120379 45.49727 
L 353.875384 45.49727 
" style="fill:none;stroke:#666666;stroke-linecap:round;"/>
   </g>
   <g id="line2d_100"/>
   <g id="line2d_101">
    <path clip-path="url(#p668bd1c042)" d="M 360.931571 56.347677 
L 360.931571 56.380999 
" style="fill:none;stroke:#666666;stroke-linecap:round;"/>
   </g>
   <g id="line2d_102">
    <path clip-path="url(#p668bd1c042)" d="M 360.931571 56.281127 
L 360.931571 56.247898 
" style="fill:none;stroke:#666666;stroke-linecap:round;"/>
   </g>
   <g id="line2d_103">
    <path clip-path="url(#p668bd1c042)" d="M 359.554068 56.380999 
L 362.309074 56.380999 
" style="fill:none;stroke:#666666;stroke-linecap:round;"/>
   </g>
   <g id="line2d_104">
    <path clip-path="url(#p668bd1c042)" d="M 359.554068 56.247898 
L 362.309074 56.247898 
" style="fill:none;stroke:#666666;stroke-linecap:round;"/>
   </g>
   <g id="line2d_105"/>
   <g id="line2d_106">
    <path clip-path="url(#p668bd1c042)" d="M 374.98772 48.167392 
L 374.98772 49.876574 
" style="fill:none;stroke:#666666;stroke-linecap:round;"/>
   </g>
   <g id="line2d_107">
    <path clip-path="url(#p668bd1c042)" d="M 374.98772 42.243781 
L 374.98772 38.414326 
" style="fill:none;stroke:#666666;stroke-linecap:round;"/>
   </g>
   <g id="line2d_108">
    <path clip-path="url(#p668bd1c042)" d="M 373.610218 49.876574 
L 376.365223 49.876574 
" style="fill:none;stroke:#666666;stroke-linecap:round;"/>
   </g>
   <g id="line2d_109">
    <path clip-path="url(#p668bd1c042)" d="M 373.610218 38.414326 
L 376.365223 38.414326 
" style="fill:none;stroke:#666666;stroke-linecap:round;"/>
   </g>
   <g id="line2d_110"/>
   <g id="line2d_111">
    <path clip-path="url(#p668bd1c042)" d="M 394.66633 43.339157 
L 394.66633 49.395607 
" style="fill:none;stroke:#666666;stroke-linecap:round;"/>
   </g>
   <g id="line2d_112">
    <path clip-path="url(#p668bd1c042)" d="M 394.66633 35.280625 
L 394.66633 32.611545 
" style="fill:none;stroke:#666666;stroke-linecap:round;"/>
   </g>
   <g id="line2d_113">
    <path clip-path="url(#p668bd1c042)" d="M 393.288827 49.395607 
L 396.043832 49.395607 
" style="fill:none;stroke:#666666;stroke-linecap:round;"/>
   </g>
   <g id="line2d_114">
    <path clip-path="url(#p668bd1c042)" d="M 393.288827 32.611545 
L 396.043832 32.611545 
" style="fill:none;stroke:#666666;stroke-linecap:round;"/>
   </g>
   <g id="line2d_115"/>
   <g id="line2d_116">
    <path clip-path="url(#p668bd1c042)" d="M 403.100019 52.173786 
L 403.100019 61.01412 
" style="fill:none;stroke:#666666;stroke-linecap:round;"/>
   </g>
   <g id="line2d_117">
    <path clip-path="url(#p668bd1c042)" d="M 403.100019 43.952109 
L 403.100019 42.838769 
" style="fill:none;stroke:#666666;stroke-linecap:round;"/>
   </g>
   <g id="line2d_118">
    <path clip-path="url(#p668bd1c042)" d="M 401.722517 61.01412 
L 404.477522 61.01412 
" style="fill:none;stroke:#666666;stroke-linecap:round;"/>
   </g>
   <g id="line2d_119">
    <path clip-path="url(#p668bd1c042)" d="M 401.722517 42.838769 
L 404.477522 42.838769 
" style="fill:none;stroke:#666666;stroke-linecap:round;"/>
   </g>
   <g id="line2d_120"/>
   <g id="line2d_121">
    <path clip-path="url(#p668bd1c042)" d="M 422.778628 45.980518 
L 422.778628 48.271811 
" style="fill:none;stroke:#666666;stroke-linecap:round;"/>
   </g>
   <g id="line2d_122">
    <path clip-path="url(#p668bd1c042)" d="M 422.778628 40.646448 
L 422.778628 37.726535 
" style="fill:none;stroke:#666666;stroke-linecap:round;"/>
   </g>
   <g id="line2d_123">
    <path clip-path="url(#p668bd1c042)" d="M 421.401126 48.271811 
L 424.156131 48.271811 
" style="fill:none;stroke:#666666;stroke-linecap:round;"/>
   </g>
   <g id="line2d_124">
    <path clip-path="url(#p668bd1c042)" d="M 421.401126 37.726535 
L 424.156131 37.726535 
" style="fill:none;stroke:#666666;stroke-linecap:round;"/>
   </g>
   <g id="line2d_125"/>
   <g id="line2d_126">
    <path clip-path="url(#p668bd1c042)" d="M 436.834778 31.913146 
L 436.834778 33.648912 
" style="fill:none;stroke:#666666;stroke-linecap:round;"/>
   </g>
   <g id="line2d_127">
    <path clip-path="url(#p668bd1c042)" d="M 436.834778 26.17896 
L 436.834778 22.520358 
" style="fill:none;stroke:#666666;stroke-linecap:round;"/>
   </g>
   <g id="line2d_128">
    <path clip-path="url(#p668bd1c042)" d="M 435.457275 33.648912 
L 438.212281 33.648912 
" style="fill:none;stroke:#666666;stroke-linecap:round;"/>
   </g>
   <g id="line2d_129">
    <path clip-path="url(#p668bd1c042)" d="M 435.457275 22.520358 
L 438.212281 22.520358 
" style="fill:none;stroke:#666666;stroke-linecap:round;"/>
   </g>
   <g id="line2d_130"/>
   <g id="line2d_131">
    <path clip-path="url(#p668bd1c042)" d="M 450.890927 45.720331 
L 450.890927 47.297092 
" style="fill:none;stroke:#666666;stroke-linecap:round;"/>
   </g>
   <g id="line2d_132">
    <path clip-path="url(#p668bd1c042)" d="M 450.890927 36.639717 
L 450.890927 30.402774 
" style="fill:none;stroke:#666666;stroke-linecap:round;"/>
   </g>
   <g id="line2d_133">
    <path clip-path="url(#p668bd1c042)" d="M 449.513425 47.297092 
L 452.26843 47.297092 
" style="fill:none;stroke:#666666;stroke-linecap:round;"/>
   </g>
   <g id="line2d_134">
    <path clip-path="url(#p668bd1c042)" d="M 449.513425 30.402774 
L 452.26843 30.402774 
" style="fill:none;stroke:#666666;stroke-linecap:round;"/>
   </g>
   <g id="line2d_135"/>
   <g id="line2d_136">
    <path clip-path="url(#p668bd1c042)" d="M 464.947077 33.120785 
L 464.947077 34.589725 
" style="fill:none;stroke:#666666;stroke-linecap:round;"/>
   </g>
   <g id="line2d_137">
    <path clip-path="url(#p668bd1c042)" d="M 464.947077 30.35353 
L 464.947077 29.046786 
" style="fill:none;stroke:#666666;stroke-linecap:round;"/>
   </g>
   <g id="line2d_138">
    <path clip-path="url(#p668bd1c042)" d="M 463.569574 34.589725 
L 466.324579 34.589725 
" style="fill:none;stroke:#666666;stroke-linecap:round;"/>
   </g>
   <g id="line2d_139">
    <path clip-path="url(#p668bd1c042)" d="M 463.569574 29.046786 
L 466.324579 29.046786 
" style="fill:none;stroke:#666666;stroke-linecap:round;"/>
   </g>
   <g id="line2d_140"/>
   <g id="line2d_141">
    <path clip-path="url(#p668bd1c042)" d="M 479.003226 38.908031 
L 479.003226 41.574761 
" style="fill:none;stroke:#666666;stroke-linecap:round;"/>
   </g>
   <g id="line2d_142">
    <path clip-path="url(#p668bd1c042)" d="M 479.003226 34.406584 
L 479.003226 32.494373 
" style="fill:none;stroke:#666666;stroke-linecap:round;"/>
   </g>
   <g id="line2d_143">
    <path clip-path="url(#p668bd1c042)" d="M 477.625724 41.574761 
L 480.380729 41.574761 
" style="fill:none;stroke:#666666;stroke-linecap:round;"/>
   </g>
   <g id="line2d_144">
    <path clip-path="url(#p668bd1c042)" d="M 477.625724 32.494373 
L 480.380729 32.494373 
" style="fill:none;stroke:#666666;stroke-linecap:round;"/>
   </g>
   <g id="line2d_145"/>
   <g id="line2d_146">
    <path clip-path="url(#p668bd1c042)" d="M 493.059376 44.593746 
L 493.059376 46.780604 
" style="fill:none;stroke:#666666;stroke-linecap:round;"/>
   </g>
   <g id="line2d_147">
    <path clip-path="url(#p668bd1c042)" d="M 493.059376 38.594525 
L 493.059376 35.048963 
" style="fill:none;stroke:#666666;stroke-linecap:round;"/>
   </g>
   <g id="line2d_148">
    <path clip-path="url(#p668bd1c042)" d="M 491.681873 46.780604 
L 494.436878 46.780604 
" style="fill:none;stroke:#666666;stroke-linecap:round;"/>
   </g>
   <g id="line2d_149">
    <path clip-path="url(#p668bd1c042)" d="M 491.681873 35.048963 
L 494.436878 35.048963 
" style="fill:none;stroke:#666666;stroke-linecap:round;"/>
   </g>
   <g id="line2d_150"/>
   <g id="line2d_151">
    <path clip-path="url(#p668bd1c042)" d="M 77.053577 77.917788 
L 82.563588 77.917788 
" style="fill:none;stroke:#666666;stroke-linecap:round;"/>
   </g>
   <g id="line2d_152">
    <path clip-path="url(#p668bd1c042)" d="M 91.109726 140.940687 
L 96.619737 140.940687 
" style="fill:none;stroke:#666666;stroke-linecap:round;"/>
   </g>
   <g id="line2d_153">
    <path clip-path="url(#p668bd1c042)" d="M 105.165876 117.845711 
L 110.675886 117.845711 
" style="fill:none;stroke:#666666;stroke-linecap:round;"/>
   </g>
   <g id="line2d_154">
    <path clip-path="url(#p668bd1c042)" d="M 119.222025 118.897026 
L 124.732036 118.897026 
" style="fill:none;stroke:#666666;stroke-linecap:round;"/>
   </g>
   <g id="line2d_155">
    <path clip-path="url(#p668bd1c042)" d="M 133.278175 91.250581 
L 138.788185 91.250581 
" style="fill:none;stroke:#666666;stroke-linecap:round;"/>
   </g>
   <g id="line2d_156">
    <path clip-path="url(#p668bd1c042)" d="M 152.956784 106.785457 
L 158.466795 106.785457 
" style="fill:none;stroke:#666666;stroke-linecap:round;"/>
   </g>
   <g id="line2d_157">
    <path clip-path="url(#p668bd1c042)" d="M 161.390474 68.714891 
L 166.900484 68.714891 
" style="fill:none;stroke:#666666;stroke-linecap:round;"/>
   </g>
   <g id="line2d_158">
    <path clip-path="url(#p668bd1c042)" d="M 175.446623 46.680458 
L 180.956634 46.680458 
" style="fill:none;stroke:#666666;stroke-linecap:round;"/>
   </g>
   <g id="line2d_159">
    <path clip-path="url(#p668bd1c042)" d="M 195.125232 59.582741 
L 200.635243 59.582741 
" style="fill:none;stroke:#666666;stroke-linecap:round;"/>
   </g>
   <g id="line2d_160">
    <path clip-path="url(#p668bd1c042)" d="M 203.558922 47.720747 
L 209.068933 47.720747 
" style="fill:none;stroke:#666666;stroke-linecap:round;"/>
   </g>
   <g id="line2d_161">
    <path clip-path="url(#p668bd1c042)" d="M 217.615071 71.197544 
L 223.125082 71.197544 
" style="fill:none;stroke:#666666;stroke-linecap:round;"/>
   </g>
   <g id="line2d_162">
    <path clip-path="url(#p668bd1c042)" d="M 237.293681 42.712254 
L 242.803691 42.712254 
" style="fill:none;stroke:#666666;stroke-linecap:round;"/>
   </g>
   <g id="line2d_163">
    <path clip-path="url(#p668bd1c042)" d="M 251.34983 46.679788 
L 256.859841 46.679788 
" style="fill:none;stroke:#666666;stroke-linecap:round;"/>
   </g>
   <g id="line2d_164">
    <path clip-path="url(#p668bd1c042)" d="M 265.405979 49.782895 
L 270.91599 49.782895 
" style="fill:none;stroke:#666666;stroke-linecap:round;"/>
   </g>
   <g id="line2d_165">
    <path clip-path="url(#p668bd1c042)" d="M 273.839669 46.448817 
L 279.34968 46.448817 
" style="fill:none;stroke:#666666;stroke-linecap:round;"/>
   </g>
   <g id="line2d_166">
    <path clip-path="url(#p668bd1c042)" d="M 293.518278 48.550742 
L 299.028289 48.550742 
" style="fill:none;stroke:#666666;stroke-linecap:round;"/>
   </g>
   <g id="line2d_167">
    <path clip-path="url(#p668bd1c042)" d="M 307.574428 57.258964 
L 313.084438 57.258964 
" style="fill:none;stroke:#666666;stroke-linecap:round;"/>
   </g>
   <g id="line2d_168">
    <path clip-path="url(#p668bd1c042)" d="M 321.630577 60.969778 
L 327.140588 60.969778 
" style="fill:none;stroke:#666666;stroke-linecap:round;"/>
   </g>
   <g id="line2d_169">
    <path clip-path="url(#p668bd1c042)" d="M 335.686727 43.108851 
L 341.196737 43.108851 
" style="fill:none;stroke:#666666;stroke-linecap:round;"/>
   </g>
   <g id="line2d_170">
    <path clip-path="url(#p668bd1c042)" d="M 349.742876 46.539321 
L 355.252887 46.539321 
" style="fill:none;stroke:#666666;stroke-linecap:round;"/>
   </g>
   <g id="line2d_171">
    <path clip-path="url(#p668bd1c042)" d="M 358.176566 56.314386 
L 363.686576 56.314386 
" style="fill:none;stroke:#666666;stroke-linecap:round;"/>
   </g>
   <g id="line2d_172">
    <path clip-path="url(#p668bd1c042)" d="M 372.232715 46.536717 
L 377.742726 46.536717 
" style="fill:none;stroke:#666666;stroke-linecap:round;"/>
   </g>
   <g id="line2d_173">
    <path clip-path="url(#p668bd1c042)" d="M 391.911324 38.166759 
L 397.421335 38.166759 
" style="fill:none;stroke:#666666;stroke-linecap:round;"/>
   </g>
   <g id="line2d_174">
    <path clip-path="url(#p668bd1c042)" d="M 400.345014 45.10149 
L 405.855025 45.10149 
" style="fill:none;stroke:#666666;stroke-linecap:round;"/>
   </g>
   <g id="line2d_175">
    <path clip-path="url(#p668bd1c042)" d="M 420.023623 43.828159 
L 425.533634 43.828159 
" style="fill:none;stroke:#666666;stroke-linecap:round;"/>
   </g>
   <g id="line2d_176">
    <path clip-path="url(#p668bd1c042)" d="M 434.079773 30.25829 
L 439.589783 30.25829 
" style="fill:none;stroke:#666666;stroke-linecap:round;"/>
   </g>
   <g id="line2d_177">
    <path clip-path="url(#p668bd1c042)" d="M 448.135922 44.210621 
L 453.645933 44.210621 
" style="fill:none;stroke:#666666;stroke-linecap:round;"/>
   </g>
   <g id="line2d_178">
    <path clip-path="url(#p668bd1c042)" d="M 462.192071 31.710207 
L 467.702082 31.710207 
" style="fill:none;stroke:#666666;stroke-linecap:round;"/>
   </g>
   <g id="line2d_179">
    <path clip-path="url(#p668bd1c042)" d="M 476.248221 36.427662 
L 481.758231 36.427662 
" style="fill:none;stroke:#666666;stroke-linecap:round;"/>
   </g>
   <g id="line2d_180">
    <path clip-path="url(#p668bd1c042)" d="M 490.30437 42.533791 
L 495.814381 42.533791 
" style="fill:none;stroke:#666666;stroke-linecap:round;"/>
   </g>
   <g id="patch_35">
    <path d="M 75.591738 160.715197 
L 75.591738 12.96 
" style="fill:none;stroke:#262626;stroke-linecap:square;stroke-linejoin:miter;stroke-width:1.25;"/>
   </g>
   <g id="patch_36">
    <path d="M 497.27622 160.715197 
L 497.27622 12.96 
" style="fill:none;stroke:#262626;stroke-linecap:square;stroke-linejoin:miter;stroke-width:1.25;"/>
   </g>
   <g id="patch_37">
    <path d="M 75.591737 160.715197 
L 497.27622 160.715197 
" style="fill:none;stroke:#262626;stroke-linecap:square;stroke-linejoin:miter;stroke-width:1.25;"/>
   </g>
   <g id="patch_38">
    <path d="M 75.591737 12.96 
L 497.27622 12.96 
" style="fill:none;stroke:#262626;stroke-linecap:square;stroke-linejoin:miter;stroke-width:1.25;"/>
   </g>
   <g id="legend_1">
    <g id="patch_39">
     <path d="M 404.18622 130.555822 
L 428.18622 130.555822 
L 428.18622 122.155822 
L 404.18622 122.155822 
z
" style="fill:#ea8e83;stroke:#666666;stroke-linejoin:miter;stroke-width:0.5;"/>
    </g>
    <g id="text_34">
     <!-- AAD -->
     <g style="fill:#262626;" transform="translate(437.78622 130.555822)scale(0.12 -0.12)">
      <defs>
       <path d="M -0.140625 0 
L 27.34375 71.578125 
L 37.546875 71.578125 
L 66.84375 0 
L 56.0625 0 
L 47.703125 21.6875 
L 17.78125 21.6875 
L 9.90625 0 
z
M 20.515625 29.390625 
L 44.78125 29.390625 
L 37.3125 49.21875 
Q 33.890625 58.25 32.234375 64.0625 
Q 30.859375 57.171875 28.375 50.390625 
z
" id="ArialMT-65"/>
       <path d="M 7.71875 0 
L 7.71875 71.578125 
L 32.375 71.578125 
Q 40.71875 71.578125 45.125 70.5625 
Q 51.265625 69.140625 55.609375 65.4375 
Q 61.28125 60.640625 64.078125 53.1875 
Q 66.890625 45.75 66.890625 36.1875 
Q 66.890625 28.03125 64.984375 21.734375 
Q 63.09375 15.4375 60.109375 11.296875 
Q 57.125 7.171875 53.578125 4.796875 
Q 50.046875 2.4375 45.046875 1.21875 
Q 40.046875 0 33.546875 0 
z
M 17.1875 8.453125 
L 32.46875 8.453125 
Q 39.546875 8.453125 43.578125 9.765625 
Q 47.609375 11.078125 50 13.484375 
Q 53.375 16.84375 55.25 22.53125 
Q 57.125 28.21875 57.125 36.328125 
Q 57.125 47.5625 53.4375 53.59375 
Q 49.75 59.625 44.484375 61.671875 
Q 40.671875 63.140625 32.234375 63.140625 
L 17.1875 63.140625 
z
" id="ArialMT-68"/>
      </defs>
      <use xlink:href="#ArialMT-65"/>
      <use x="66.699219" xlink:href="#ArialMT-65"/>
      <use x="133.398438" xlink:href="#ArialMT-68"/>
     </g>
    </g>
    <g id="patch_40">
     <path d="M 404.18622 147.530197 
L 428.18622 147.530197 
L 428.18622 139.130197 
L 404.18622 139.130197 
z
" style="fill:#8aafc9;stroke:#666666;stroke-linejoin:miter;stroke-width:0.5;"/>
    </g>
    <g id="text_35">
     <!-- non-AAD -->
     <g style="fill:#262626;" transform="translate(437.78622 147.530197)scale(0.12 -0.12)">
      <defs>
       <path d="M 3.171875 21.484375 
L 3.171875 30.328125 
L 30.171875 30.328125 
L 30.171875 21.484375 
z
" id="ArialMT-45"/>
      </defs>
      <use xlink:href="#ArialMT-110"/>
      <use x="55.615234" xlink:href="#ArialMT-111"/>
      <use x="111.230469" xlink:href="#ArialMT-110"/>
      <use x="166.845703" xlink:href="#ArialMT-45"/>
      <use x="200.146484" xlink:href="#ArialMT-65"/>
      <use x="266.845703" xlink:href="#ArialMT-65"/>
      <use x="333.544922" xlink:href="#ArialMT-68"/>
     </g>
    </g>
   </g>
  </g>
 </g>
 <defs>
  <clipPath id="p668bd1c042">
   <rect height="147.755197" width="421.684483" x="75.591738" y="12.96"/>
  </clipPath>
 </defs>
</svg>
