<?xml version="1.0" encoding="utf-8" standalone="no"?>
<!DOCTYPE svg PUBLIC "-//W3C//DTD SVG 1.1//EN"
  "http://www.w3.org/Graphics/SVG/1.1/DTD/svg11.dtd">
<!-- Created with matplotlib (https://matplotlib.org/) -->
<svg height="170.07874pt" version="1.1" viewBox="0 0 155.905512 170.07874" width="155.905512pt" xmlns="http://www.w3.org/2000/svg" xmlns:xlink="http://www.w3.org/1999/xlink">
 <metadata>
  <rdf:RDF xmlns:cc="http://creativecommons.org/ns#" xmlns:dc="http://purl.org/dc/elements/1.1/" xmlns:rdf="http://www.w3.org/1999/02/22-rdf-syntax-ns#">
   <cc:Work>
    <dc:type rdf:resource="http://purl.org/dc/dcmitype/StillImage"/>
    <dc:date>2021-11-17T13:19:51.927885</dc:date>
    <dc:format>image/svg+xml</dc:format>
    <dc:creator>
     <cc:Agent>
      <dc:title>Matplotlib v3.3.4, https://matplotlib.org/</dc:title>
     </cc:Agent>
    </dc:creator>
   </cc:Work>
  </rdf:RDF>
 </metadata>
 <defs>
  <style type="text/css">*{stroke-linecap:butt;stroke-linejoin:round;}</style>
 </defs>
 <g id="figure_1">
  <g id="patch_1">
   <path d="M 0 170.07874 
L 155.905512 170.07874 
L 155.905512 0 
L 0 0 
z
" style="fill:#ffffff;"/>
  </g>
  <g id="axes_1">
   <g id="patch_2">
    <path d="M 19.488189 148.818898 
L 140.314961 148.818898 
L 140.314961 20.409449 
L 19.488189 20.409449 
z
" style="fill:#ffffff;"/>
   </g>
   <g id="matplotlib.axis_1">
    <g id="xtick_1">
     <g id="text_1">
      <!-- 0.1 -->
      <g style="fill:#262626;" transform="translate(58.796815 166.908273)scale(0.12 -0.12)">
       <defs>
        <path d="M 4.15625 35.296875 
Q 4.15625 48 6.765625 55.734375 
Q 9.375 63.484375 14.515625 67.671875 
Q 19.671875 71.875 27.484375 71.875 
Q 33.25 71.875 37.59375 69.546875 
Q 41.9375 67.234375 44.765625 62.859375 
Q 47.609375 58.5 49.21875 52.21875 
Q 50.828125 45.953125 50.828125 35.296875 
Q 50.828125 22.703125 48.234375 14.96875 
Q 45.65625 7.234375 40.5 3 
Q 35.359375 -1.21875 27.484375 -1.21875 
Q 17.140625 -1.21875 11.234375 6.203125 
Q 4.15625 15.140625 4.15625 35.296875 
z
M 13.1875 35.296875 
Q 13.1875 17.671875 17.3125 11.828125 
Q 21.4375 6 27.484375 6 
Q 33.546875 6 37.671875 11.859375 
Q 41.796875 17.71875 41.796875 35.296875 
Q 41.796875 52.984375 37.671875 58.78125 
Q 33.546875 64.59375 27.390625 64.59375 
Q 21.34375 64.59375 17.71875 59.46875 
Q 13.1875 52.9375 13.1875 35.296875 
z
" id="ArialMT-48"/>
        <path d="M 9.078125 0 
L 9.078125 10.015625 
L 19.09375 10.015625 
L 19.09375 0 
z
" id="ArialMT-46"/>
        <path d="M 37.25 0 
L 28.46875 0 
L 28.46875 56 
Q 25.296875 52.984375 20.140625 49.953125 
Q 14.984375 46.921875 10.890625 45.40625 
L 10.890625 53.90625 
Q 18.265625 57.375 23.78125 62.296875 
Q 29.296875 67.234375 31.59375 71.875 
L 37.25 71.875 
z
" id="ArialMT-49"/>
       </defs>
       <use xlink:href="#ArialMT-48"/>
       <use x="55.615234" xlink:href="#ArialMT-46"/>
       <use x="83.398438" xlink:href="#ArialMT-49"/>
      </g>
     </g>
    </g>
    <g id="xtick_2">
     <g id="text_2">
      <!-- 0.2 -->
      <g style="fill:#262626;" transform="translate(123.992993 166.908273)scale(0.12 -0.12)">
       <defs>
        <path d="M 50.34375 8.453125 
L 50.34375 0 
L 3.03125 0 
Q 2.9375 3.171875 4.046875 6.109375 
Q 5.859375 10.9375 9.828125 15.625 
Q 13.8125 20.3125 21.34375 26.46875 
Q 33.015625 36.03125 37.109375 41.625 
Q 41.21875 47.21875 41.21875 52.203125 
Q 41.21875 57.421875 37.46875 61 
Q 33.734375 64.59375 27.734375 64.59375 
Q 21.390625 64.59375 17.578125 60.78125 
Q 13.765625 56.984375 13.71875 50.25 
L 4.6875 51.171875 
Q 5.609375 61.28125 11.65625 66.578125 
Q 17.71875 71.875 27.9375 71.875 
Q 38.234375 71.875 44.234375 66.15625 
Q 50.25 60.453125 50.25 52 
Q 50.25 47.703125 48.484375 43.546875 
Q 46.734375 39.40625 42.65625 34.8125 
Q 38.578125 30.21875 29.109375 22.21875 
Q 21.1875 15.578125 18.9375 13.203125 
Q 16.703125 10.84375 15.234375 8.453125 
z
" id="ArialMT-50"/>
       </defs>
       <use xlink:href="#ArialMT-48"/>
       <use x="55.615234" xlink:href="#ArialMT-46"/>
       <use x="83.398438" xlink:href="#ArialMT-50"/>
      </g>
     </g>
    </g>
    <g id="text_3">
     <!-- Ruminococaceae -->
     <g style="fill:#262626;" transform="translate(33.545012 181.882648)scale(0.12 -0.12)">
      <defs>
       <path d="M 7.859375 0 
L 7.859375 71.578125 
L 39.59375 71.578125 
Q 49.171875 71.578125 54.140625 69.640625 
Q 59.125 67.71875 62.109375 62.828125 
Q 65.09375 57.953125 65.09375 52.046875 
Q 65.09375 44.4375 60.15625 39.203125 
Q 55.21875 33.984375 44.921875 32.5625 
Q 48.6875 30.765625 50.640625 29 
Q 54.78125 25.203125 58.5 19.484375 
L 70.953125 0 
L 59.03125 0 
L 49.5625 14.890625 
Q 45.40625 21.34375 42.71875 24.75 
Q 40.046875 28.171875 37.921875 29.53125 
Q 35.796875 30.90625 33.59375 31.453125 
Q 31.984375 31.78125 28.328125 31.78125 
L 17.328125 31.78125 
L 17.328125 0 
z
M 17.328125 39.984375 
L 37.703125 39.984375 
Q 44.1875 39.984375 47.84375 41.328125 
Q 51.515625 42.671875 53.421875 45.625 
Q 55.328125 48.578125 55.328125 52.046875 
Q 55.328125 57.125 51.640625 60.390625 
Q 47.953125 63.671875 39.984375 63.671875 
L 17.328125 63.671875 
z
" id="ArialMT-82"/>
       <path d="M 40.578125 0 
L 40.578125 7.625 
Q 34.515625 -1.171875 24.125 -1.171875 
Q 19.53125 -1.171875 15.546875 0.578125 
Q 11.578125 2.34375 9.640625 5 
Q 7.71875 7.671875 6.9375 11.53125 
Q 6.390625 14.109375 6.390625 19.734375 
L 6.390625 51.859375 
L 15.1875 51.859375 
L 15.1875 23.09375 
Q 15.1875 16.21875 15.71875 13.8125 
Q 16.546875 10.359375 19.234375 8.375 
Q 21.921875 6.390625 25.875 6.390625 
Q 29.828125 6.390625 33.296875 8.421875 
Q 36.765625 10.453125 38.203125 13.9375 
Q 39.65625 17.4375 39.65625 24.078125 
L 39.65625 51.859375 
L 48.4375 51.859375 
L 48.4375 0 
z
" id="ArialMT-117"/>
       <path d="M 6.59375 0 
L 6.59375 51.859375 
L 14.453125 51.859375 
L 14.453125 44.578125 
Q 16.890625 48.390625 20.9375 50.703125 
Q 25 53.03125 30.171875 53.03125 
Q 35.9375 53.03125 39.625 50.640625 
Q 43.3125 48.25 44.828125 43.953125 
Q 50.984375 53.03125 60.84375 53.03125 
Q 68.5625 53.03125 72.703125 48.75 
Q 76.859375 44.484375 76.859375 35.59375 
L 76.859375 0 
L 68.109375 0 
L 68.109375 32.671875 
Q 68.109375 37.9375 67.25 40.25 
Q 66.40625 42.578125 64.15625 43.984375 
Q 61.921875 45.40625 58.890625 45.40625 
Q 53.421875 45.40625 49.796875 41.765625 
Q 46.1875 38.140625 46.1875 30.125 
L 46.1875 0 
L 37.40625 0 
L 37.40625 33.6875 
Q 37.40625 39.546875 35.25 42.46875 
Q 33.109375 45.40625 28.21875 45.40625 
Q 24.515625 45.40625 21.359375 43.453125 
Q 18.21875 41.5 16.796875 37.734375 
Q 15.375 33.984375 15.375 26.90625 
L 15.375 0 
z
" id="ArialMT-109"/>
       <path d="M 6.640625 61.46875 
L 6.640625 71.578125 
L 15.4375 71.578125 
L 15.4375 61.46875 
z
M 6.640625 0 
L 6.640625 51.859375 
L 15.4375 51.859375 
L 15.4375 0 
z
" id="ArialMT-105"/>
       <path d="M 6.59375 0 
L 6.59375 51.859375 
L 14.5 51.859375 
L 14.5 44.484375 
Q 20.21875 53.03125 31 53.03125 
Q 35.6875 53.03125 39.625 51.34375 
Q 43.5625 49.65625 45.515625 46.921875 
Q 47.46875 44.1875 48.25 40.4375 
Q 48.734375 37.984375 48.734375 31.890625 
L 48.734375 0 
L 39.9375 0 
L 39.9375 31.546875 
Q 39.9375 36.921875 38.90625 39.578125 
Q 37.890625 42.234375 35.28125 43.8125 
Q 32.671875 45.40625 29.15625 45.40625 
Q 23.53125 45.40625 19.453125 41.84375 
Q 15.375 38.28125 15.375 28.328125 
L 15.375 0 
z
" id="ArialMT-110"/>
       <path d="M 3.328125 25.921875 
Q 3.328125 40.328125 11.328125 47.265625 
Q 18.015625 53.03125 27.640625 53.03125 
Q 38.328125 53.03125 45.109375 46.015625 
Q 51.90625 39.015625 51.90625 26.65625 
Q 51.90625 16.65625 48.90625 10.90625 
Q 45.90625 5.171875 40.15625 2 
Q 34.421875 -1.171875 27.640625 -1.171875 
Q 16.75 -1.171875 10.03125 5.8125 
Q 3.328125 12.796875 3.328125 25.921875 
z
M 12.359375 25.921875 
Q 12.359375 15.96875 16.703125 11.015625 
Q 21.046875 6.0625 27.640625 6.0625 
Q 34.1875 6.0625 38.53125 11.03125 
Q 42.875 16.015625 42.875 26.21875 
Q 42.875 35.84375 38.5 40.796875 
Q 34.125 45.75 27.640625 45.75 
Q 21.046875 45.75 16.703125 40.8125 
Q 12.359375 35.890625 12.359375 25.921875 
z
" id="ArialMT-111"/>
       <path d="M 40.4375 19 
L 49.078125 17.875 
Q 47.65625 8.9375 41.8125 3.875 
Q 35.984375 -1.171875 27.484375 -1.171875 
Q 16.84375 -1.171875 10.375 5.78125 
Q 3.90625 12.75 3.90625 25.734375 
Q 3.90625 34.125 6.6875 40.421875 
Q 9.46875 46.734375 15.15625 49.875 
Q 20.84375 53.03125 27.546875 53.03125 
Q 35.984375 53.03125 41.359375 48.75 
Q 46.734375 44.484375 48.25 36.625 
L 39.703125 35.296875 
Q 38.484375 40.53125 35.375 43.15625 
Q 32.28125 45.796875 27.875 45.796875 
Q 21.234375 45.796875 17.078125 41.03125 
Q 12.9375 36.28125 12.9375 25.984375 
Q 12.9375 15.53125 16.9375 10.796875 
Q 20.953125 6.0625 27.390625 6.0625 
Q 32.5625 6.0625 36.03125 9.234375 
Q 39.5 12.40625 40.4375 19 
z
" id="ArialMT-99"/>
       <path d="M 40.4375 6.390625 
Q 35.546875 2.25 31.03125 0.53125 
Q 26.515625 -1.171875 21.34375 -1.171875 
Q 12.796875 -1.171875 8.203125 3 
Q 3.609375 7.171875 3.609375 13.671875 
Q 3.609375 17.484375 5.34375 20.625 
Q 7.078125 23.78125 9.890625 25.6875 
Q 12.703125 27.59375 16.21875 28.5625 
Q 18.796875 29.25 24.03125 29.890625 
Q 34.671875 31.15625 39.703125 32.90625 
Q 39.75 34.71875 39.75 35.203125 
Q 39.75 40.578125 37.25 42.78125 
Q 33.890625 45.75 27.25 45.75 
Q 21.046875 45.75 18.09375 43.578125 
Q 15.140625 41.40625 13.71875 35.890625 
L 5.125 37.0625 
Q 6.296875 42.578125 8.984375 45.96875 
Q 11.671875 49.359375 16.75 51.1875 
Q 21.828125 53.03125 28.515625 53.03125 
Q 35.15625 53.03125 39.296875 51.46875 
Q 43.453125 49.90625 45.40625 47.53125 
Q 47.359375 45.171875 48.140625 41.546875 
Q 48.578125 39.3125 48.578125 33.453125 
L 48.578125 21.734375 
Q 48.578125 9.46875 49.140625 6.21875 
Q 49.703125 2.984375 51.375 0 
L 42.1875 0 
Q 40.828125 2.734375 40.4375 6.390625 
z
M 39.703125 26.03125 
Q 34.90625 24.078125 25.34375 22.703125 
Q 19.921875 21.921875 17.671875 20.9375 
Q 15.4375 19.96875 14.203125 18.09375 
Q 12.984375 16.21875 12.984375 13.921875 
Q 12.984375 10.40625 15.640625 8.0625 
Q 18.3125 5.71875 23.4375 5.71875 
Q 28.515625 5.71875 32.46875 7.9375 
Q 36.421875 10.15625 38.28125 14.015625 
Q 39.703125 17 39.703125 22.796875 
z
" id="ArialMT-97"/>
       <path d="M 42.09375 16.703125 
L 51.171875 15.578125 
Q 49.03125 7.625 43.21875 3.21875 
Q 37.40625 -1.171875 28.375 -1.171875 
Q 17 -1.171875 10.328125 5.828125 
Q 3.65625 12.84375 3.65625 25.484375 
Q 3.65625 38.578125 10.390625 45.796875 
Q 17.140625 53.03125 27.875 53.03125 
Q 38.28125 53.03125 44.875 45.953125 
Q 51.46875 38.875 51.46875 26.03125 
Q 51.46875 25.25 51.421875 23.6875 
L 12.75 23.6875 
Q 13.234375 15.140625 17.578125 10.59375 
Q 21.921875 6.0625 28.421875 6.0625 
Q 33.25 6.0625 36.671875 8.59375 
Q 40.09375 11.140625 42.09375 16.703125 
z
M 13.234375 30.90625 
L 42.1875 30.90625 
Q 41.609375 37.453125 38.875 40.71875 
Q 34.671875 45.796875 27.984375 45.796875 
Q 21.921875 45.796875 17.796875 41.75 
Q 13.671875 37.703125 13.234375 30.90625 
z
" id="ArialMT-101"/>
      </defs>
      <use xlink:href="#ArialMT-82"/>
      <use x="72.216797" xlink:href="#ArialMT-117"/>
      <use x="127.832031" xlink:href="#ArialMT-109"/>
      <use x="211.132812" xlink:href="#ArialMT-105"/>
      <use x="233.349609" xlink:href="#ArialMT-110"/>
      <use x="288.964844" xlink:href="#ArialMT-111"/>
      <use x="344.580078" xlink:href="#ArialMT-99"/>
      <use x="394.580078" xlink:href="#ArialMT-111"/>
      <use x="450.195312" xlink:href="#ArialMT-99"/>
      <use x="500.195312" xlink:href="#ArialMT-97"/>
      <use x="555.810547" xlink:href="#ArialMT-99"/>
      <use x="605.810547" xlink:href="#ArialMT-101"/>
      <use x="661.425781" xlink:href="#ArialMT-97"/>
      <use x="717.041016" xlink:href="#ArialMT-101"/>
     </g>
     <!--  relative abundance -->
     <g style="fill:#262626;" transform="translate(27.5347 194.574898)scale(0.12 -0.12)">
      <defs>
       <path id="ArialMT-32"/>
       <path d="M 6.5 0 
L 6.5 51.859375 
L 14.40625 51.859375 
L 14.40625 44 
Q 17.4375 49.515625 20 51.265625 
Q 22.5625 53.03125 25.640625 53.03125 
Q 30.078125 53.03125 34.671875 50.203125 
L 31.640625 42.046875 
Q 28.421875 43.953125 25.203125 43.953125 
Q 22.3125 43.953125 20.015625 42.21875 
Q 17.71875 40.484375 16.75 37.40625 
Q 15.28125 32.71875 15.28125 27.15625 
L 15.28125 0 
z
" id="ArialMT-114"/>
       <path d="M 6.390625 0 
L 6.390625 71.578125 
L 15.1875 71.578125 
L 15.1875 0 
z
" id="ArialMT-108"/>
       <path d="M 25.78125 7.859375 
L 27.046875 0.09375 
Q 23.34375 -0.6875 20.40625 -0.6875 
Q 15.625 -0.6875 12.984375 0.828125 
Q 10.359375 2.34375 9.28125 4.8125 
Q 8.203125 7.28125 8.203125 15.1875 
L 8.203125 45.015625 
L 1.765625 45.015625 
L 1.765625 51.859375 
L 8.203125 51.859375 
L 8.203125 64.703125 
L 16.9375 69.96875 
L 16.9375 51.859375 
L 25.78125 51.859375 
L 25.78125 45.015625 
L 16.9375 45.015625 
L 16.9375 14.703125 
Q 16.9375 10.9375 17.40625 9.859375 
Q 17.875 8.796875 18.921875 8.15625 
Q 19.96875 7.515625 21.921875 7.515625 
Q 23.390625 7.515625 25.78125 7.859375 
z
" id="ArialMT-116"/>
       <path d="M 21 0 
L 1.265625 51.859375 
L 10.546875 51.859375 
L 21.6875 20.796875 
Q 23.484375 15.765625 25 10.359375 
Q 26.171875 14.453125 28.265625 20.21875 
L 39.796875 51.859375 
L 48.828125 51.859375 
L 29.203125 0 
z
" id="ArialMT-118"/>
       <path d="M 14.703125 0 
L 6.546875 0 
L 6.546875 71.578125 
L 15.328125 71.578125 
L 15.328125 46.046875 
Q 20.90625 53.03125 29.546875 53.03125 
Q 34.328125 53.03125 38.59375 51.09375 
Q 42.875 49.171875 45.625 45.671875 
Q 48.390625 42.1875 49.953125 37.25 
Q 51.515625 32.328125 51.515625 26.703125 
Q 51.515625 13.375 44.921875 6.09375 
Q 38.328125 -1.171875 29.109375 -1.171875 
Q 19.921875 -1.171875 14.703125 6.5 
z
M 14.59375 26.3125 
Q 14.59375 17 17.140625 12.84375 
Q 21.296875 6.0625 28.375 6.0625 
Q 34.125 6.0625 38.328125 11.0625 
Q 42.53125 16.0625 42.53125 25.984375 
Q 42.53125 36.140625 38.5 40.96875 
Q 34.46875 45.796875 28.765625 45.796875 
Q 23 45.796875 18.796875 40.796875 
Q 14.59375 35.796875 14.59375 26.3125 
z
" id="ArialMT-98"/>
       <path d="M 40.234375 0 
L 40.234375 6.546875 
Q 35.296875 -1.171875 25.734375 -1.171875 
Q 19.53125 -1.171875 14.328125 2.25 
Q 9.125 5.671875 6.265625 11.796875 
Q 3.421875 17.921875 3.421875 25.875 
Q 3.421875 33.640625 6 39.96875 
Q 8.59375 46.296875 13.765625 49.65625 
Q 18.953125 53.03125 25.34375 53.03125 
Q 30.03125 53.03125 33.6875 51.046875 
Q 37.359375 49.078125 39.65625 45.90625 
L 39.65625 71.578125 
L 48.390625 71.578125 
L 48.390625 0 
z
M 12.453125 25.875 
Q 12.453125 15.921875 16.640625 10.984375 
Q 20.84375 6.0625 26.5625 6.0625 
Q 32.328125 6.0625 36.34375 10.765625 
Q 40.375 15.484375 40.375 25.140625 
Q 40.375 35.796875 36.265625 40.765625 
Q 32.171875 45.75 26.171875 45.75 
Q 20.3125 45.75 16.375 40.96875 
Q 12.453125 36.1875 12.453125 25.875 
z
" id="ArialMT-100"/>
      </defs>
      <use xlink:href="#ArialMT-32"/>
      <use x="27.783203" xlink:href="#ArialMT-114"/>
      <use x="61.083984" xlink:href="#ArialMT-101"/>
      <use x="116.699219" xlink:href="#ArialMT-108"/>
      <use x="138.916016" xlink:href="#ArialMT-97"/>
      <use x="194.53125" xlink:href="#ArialMT-116"/>
      <use x="222.314453" xlink:href="#ArialMT-105"/>
      <use x="244.53125" xlink:href="#ArialMT-118"/>
      <use x="294.53125" xlink:href="#ArialMT-101"/>
      <use x="350.146484" xlink:href="#ArialMT-32"/>
      <use x="377.929688" xlink:href="#ArialMT-97"/>
      <use x="433.544922" xlink:href="#ArialMT-98"/>
      <use x="489.160156" xlink:href="#ArialMT-117"/>
      <use x="544.775391" xlink:href="#ArialMT-110"/>
      <use x="600.390625" xlink:href="#ArialMT-100"/>
      <use x="656.005859" xlink:href="#ArialMT-97"/>
      <use x="711.621094" xlink:href="#ArialMT-110"/>
      <use x="767.236328" xlink:href="#ArialMT-99"/>
      <use x="817.236328" xlink:href="#ArialMT-101"/>
     </g>
    </g>
   </g>
   <g id="matplotlib.axis_2">
    <g id="ytick_1">
     <g id="text_4">
      <!-- 0.0 -->
      <g style="fill:#262626;" transform="translate(-6.691811 152.563836)scale(0.12 -0.12)">
       <use xlink:href="#ArialMT-48"/>
       <use x="55.615234" xlink:href="#ArialMT-46"/>
       <use x="83.398438" xlink:href="#ArialMT-48"/>
      </g>
     </g>
    </g>
    <g id="ytick_2">
     <g id="text_5">
      <!-- 0.5 -->
      <g style="fill:#262626;" transform="translate(-6.691811 94.828783)scale(0.12 -0.12)">
       <defs>
        <path d="M 4.15625 18.75 
L 13.375 19.53125 
Q 14.40625 12.796875 18.140625 9.390625 
Q 21.875 6 27.15625 6 
Q 33.5 6 37.890625 10.78125 
Q 42.28125 15.578125 42.28125 23.484375 
Q 42.28125 31 38.0625 35.34375 
Q 33.84375 39.703125 27 39.703125 
Q 22.75 39.703125 19.328125 37.765625 
Q 15.921875 35.84375 13.96875 32.765625 
L 5.71875 33.84375 
L 12.640625 70.609375 
L 48.25 70.609375 
L 48.25 62.203125 
L 19.671875 62.203125 
L 15.828125 42.96875 
Q 22.265625 47.46875 29.34375 47.46875 
Q 38.71875 47.46875 45.15625 40.96875 
Q 51.609375 34.46875 51.609375 24.265625 
Q 51.609375 14.546875 45.953125 7.46875 
Q 39.0625 -1.21875 27.15625 -1.21875 
Q 17.390625 -1.21875 11.203125 4.25 
Q 5.03125 9.71875 4.15625 18.75 
z
" id="ArialMT-53"/>
       </defs>
       <use xlink:href="#ArialMT-48"/>
       <use x="55.615234" xlink:href="#ArialMT-46"/>
       <use x="83.398438" xlink:href="#ArialMT-53"/>
      </g>
     </g>
    </g>
    <g id="ytick_3">
     <g id="text_6">
      <!-- 1.0 -->
      <g style="fill:#262626;" transform="translate(-6.691811 37.09373)scale(0.12 -0.12)">
       <use xlink:href="#ArialMT-49"/>
       <use x="55.615234" xlink:href="#ArialMT-46"/>
       <use x="83.398438" xlink:href="#ArialMT-48"/>
      </g>
     </g>
    </g>
    <g id="text_7">
     <!-- $\it{F.prausnitzii}$ qPCR -->
     <g style="fill:#262626;" transform="translate(-25.057811 135.434173)rotate(-90)scale(0.11 -0.11)">
      <defs>
       <path d="M 16.890625 72.90625 
L 58.6875 72.90625 
L 57.078125 64.59375 
L 25.09375 64.59375 
L 20.90625 43.109375 
L 49.8125 43.109375 
L 48.1875 34.8125 
L 19.28125 34.8125 
L 12.5 0 
L 2.6875 0 
z
" id="DejaVuSans-Oblique-70"/>
       <path d="M 10.6875 12.40625 
L 21 12.40625 
L 21 0 
L 10.6875 0 
z
" id="DejaVuSans-46"/>
       <path d="M 49.609375 33.6875 
Q 49.609375 40.875 46.484375 44.671875 
Q 43.359375 48.484375 37.5 48.484375 
Q 33.5 48.484375 29.859375 46.4375 
Q 26.21875 44.390625 23.390625 40.484375 
Q 20.609375 36.625 18.9375 31.15625 
Q 17.28125 25.6875 17.28125 20.3125 
Q 17.28125 13.484375 20.40625 9.796875 
Q 23.53125 6.109375 29.296875 6.109375 
Q 33.546875 6.109375 37.1875 8.109375 
Q 40.828125 10.109375 43.40625 13.921875 
Q 46.1875 17.921875 47.890625 23.34375 
Q 49.609375 28.765625 49.609375 33.6875 
z
M 21.78125 46.390625 
Q 25.390625 51.125 30.296875 53.5625 
Q 35.203125 56 41.21875 56 
Q 49.609375 56 54.25 50.5 
Q 58.890625 45.015625 58.890625 35.109375 
Q 58.890625 27 56 19.65625 
Q 53.125 12.3125 47.703125 6.5 
Q 44.09375 2.640625 39.546875 0.609375 
Q 35.015625 -1.421875 29.984375 -1.421875 
Q 24.171875 -1.421875 20.21875 1 
Q 16.265625 3.421875 14.3125 8.203125 
L 8.6875 -20.796875 
L -0.296875 -20.796875 
L 14.40625 54.6875 
L 23.390625 54.6875 
z
" id="DejaVuSans-Oblique-112"/>
       <path d="M 44.578125 46.390625 
Q 43.21875 47.125 41.453125 47.515625 
Q 39.703125 47.90625 37.703125 47.90625 
Q 30.515625 47.90625 25.140625 42.453125 
Q 19.78125 37.015625 18.015625 27.875 
L 12.5 0 
L 3.515625 0 
L 14.203125 54.6875 
L 23.1875 54.6875 
L 21.484375 46.1875 
Q 25.046875 50.921875 30 53.453125 
Q 34.96875 56 40.578125 56 
Q 42.046875 56 43.453125 55.828125 
Q 44.875 55.671875 46.296875 55.28125 
z
" id="DejaVuSans-Oblique-114"/>
       <path d="M 53.71875 31.203125 
L 47.609375 0 
L 38.625 0 
L 40.28125 8.296875 
Q 36.328125 3.421875 31.265625 1 
Q 26.21875 -1.421875 20.015625 -1.421875 
Q 13.03125 -1.421875 8.5625 2.84375 
Q 4.109375 7.125 4.109375 13.8125 
Q 4.109375 23.390625 11.75 28.953125 
Q 19.390625 34.515625 32.8125 34.515625 
L 45.3125 34.515625 
L 45.796875 36.921875 
Q 45.90625 37.3125 45.953125 37.765625 
Q 46 38.234375 46 39.203125 
Q 46 43.5625 42.453125 45.96875 
Q 38.921875 48.390625 32.515625 48.390625 
Q 28.125 48.390625 23.5 47.265625 
Q 18.890625 46.140625 14.015625 43.890625 
L 15.578125 52.203125 
Q 20.65625 54.109375 25.515625 55.046875 
Q 30.375 56 34.90625 56 
Q 44.578125 56 49.625 51.796875 
Q 54.6875 47.609375 54.6875 39.59375 
Q 54.6875 37.984375 54.4375 35.8125 
Q 54.203125 33.640625 53.71875 31.203125 
z
M 44 27.484375 
L 35.015625 27.484375 
Q 23.96875 27.484375 18.671875 24.53125 
Q 13.375 21.578125 13.375 15.375 
Q 13.375 11.078125 16.078125 8.640625 
Q 18.796875 6.203125 23.578125 6.203125 
Q 30.90625 6.203125 36.375 11.453125 
Q 41.84375 16.703125 43.609375 25.484375 
z
" id="DejaVuSans-Oblique-97"/>
       <path d="M 6.6875 21.6875 
L 13.09375 54.6875 
L 22.125 54.6875 
L 15.71875 22.015625 
Q 15.234375 19.625 15.015625 17.921875 
Q 14.796875 16.21875 14.796875 15.09375 
Q 14.796875 10.9375 17.328125 8.65625 
Q 19.875 6.390625 24.515625 6.390625 
Q 31.734375 6.390625 37 11.265625 
Q 42.28125 16.15625 43.890625 24.421875 
L 49.90625 54.6875 
L 58.890625 54.6875 
L 48.296875 0 
L 39.3125 0 
L 41.109375 8.59375 
Q 37.3125 3.8125 32.0625 1.1875 
Q 26.8125 -1.421875 20.90625 -1.421875 
Q 13.71875 -1.421875 9.71875 2.515625 
Q 5.71875 6.453125 5.71875 13.484375 
Q 5.71875 14.9375 5.953125 17.140625 
Q 6.203125 19.34375 6.6875 21.6875 
z
" id="DejaVuSans-Oblique-117"/>
       <path d="M 50 53.078125 
L 48.296875 44.578125 
Q 44.734375 46.53125 40.765625 47.5 
Q 36.8125 48.484375 32.625 48.484375 
Q 25.53125 48.484375 21.453125 46.0625 
Q 17.390625 43.65625 17.390625 39.5 
Q 17.390625 34.671875 26.859375 32.078125 
Q 27.59375 31.890625 27.9375 31.78125 
L 30.8125 30.90625 
Q 39.796875 28.421875 42.796875 25.6875 
Q 45.796875 22.953125 45.796875 18.21875 
Q 45.796875 9.515625 38.890625 4.046875 
Q 31.984375 -1.421875 20.796875 -1.421875 
Q 16.453125 -1.421875 11.671875 -0.578125 
Q 6.890625 0.25 1.125 2 
L 2.875 11.28125 
Q 7.8125 8.734375 12.59375 7.421875 
Q 17.390625 6.109375 21.78125 6.109375 
Q 28.375 6.109375 32.5 8.9375 
Q 36.625 11.765625 36.625 16.109375 
Q 36.625 20.796875 25.78125 23.6875 
L 24.859375 23.921875 
L 21.78125 24.703125 
Q 14.9375 26.515625 11.765625 29.46875 
Q 8.59375 32.421875 8.59375 37.015625 
Q 8.59375 45.75 15.15625 50.875 
Q 21.734375 56 33.015625 56 
Q 37.453125 56 41.671875 55.265625 
Q 45.90625 54.546875 50 53.078125 
z
" id="DejaVuSans-Oblique-115"/>
       <path d="M 55.71875 33.015625 
L 49.3125 0 
L 40.28125 0 
L 46.6875 32.671875 
Q 47.125 34.96875 47.359375 36.71875 
Q 47.609375 38.484375 47.609375 39.5 
Q 47.609375 43.609375 45.015625 45.890625 
Q 42.4375 48.1875 37.796875 48.1875 
Q 30.5625 48.1875 25.34375 43.375 
Q 20.125 38.578125 18.5 30.328125 
L 12.5 0 
L 3.515625 0 
L 14.109375 54.6875 
L 23.09375 54.6875 
L 21.296875 46.09375 
Q 25.046875 50.828125 30.3125 53.40625 
Q 35.59375 56 41.40625 56 
Q 48.640625 56 52.609375 52.09375 
Q 56.59375 48.1875 56.59375 41.109375 
Q 56.59375 39.359375 56.375 37.359375 
Q 56.15625 35.359375 55.71875 33.015625 
z
" id="DejaVuSans-Oblique-110"/>
       <path d="M 18.3125 75.984375 
L 27.296875 75.984375 
L 25.09375 64.59375 
L 16.109375 64.59375 
z
M 14.203125 54.6875 
L 23.1875 54.6875 
L 12.5 0 
L 3.515625 0 
z
" id="DejaVuSans-Oblique-105"/>
       <path d="M 42.28125 54.6875 
L 40.921875 47.703125 
L 23 47.703125 
L 17.1875 18.015625 
Q 16.890625 16.359375 16.75 15.234375 
Q 16.609375 14.109375 16.609375 13.484375 
Q 16.609375 10.359375 18.484375 8.9375 
Q 20.359375 7.515625 24.515625 7.515625 
L 33.59375 7.515625 
L 32.078125 0 
L 23.484375 0 
Q 15.484375 0 11.546875 3.125 
Q 7.625 6.25 7.625 12.59375 
Q 7.625 13.71875 7.765625 15.0625 
Q 7.90625 16.40625 8.203125 18.015625 
L 14.015625 47.703125 
L 6.390625 47.703125 
L 7.8125 54.6875 
L 15.28125 54.6875 
L 18.3125 70.21875 
L 27.296875 70.21875 
L 24.3125 54.6875 
z
" id="DejaVuSans-Oblique-116"/>
       <path d="M 11.625 54.6875 
L 54.296875 54.6875 
L 52.6875 46.484375 
L 11.53125 7.171875 
L 45.515625 7.171875 
L 44.09375 0 
L -0.296875 0 
L 1.3125 8.203125 
L 42.484375 47.515625 
L 10.203125 47.515625 
z
" id="DejaVuSans-Oblique-122"/>
       <path d="M 39.65625 -19.875 
L 39.65625 5.515625 
Q 37.59375 2.640625 33.90625 0.734375 
Q 30.21875 -1.171875 26.078125 -1.171875 
Q 16.84375 -1.171875 10.171875 6.203125 
Q 3.515625 13.578125 3.515625 26.421875 
Q 3.515625 34.234375 6.21875 40.421875 
Q 8.9375 46.625 14.078125 49.828125 
Q 19.234375 53.03125 25.390625 53.03125 
Q 35.015625 53.03125 40.53125 44.921875 
L 40.53125 51.859375 
L 48.4375 51.859375 
L 48.4375 -19.875 
z
M 12.546875 26.078125 
Q 12.546875 16.0625 16.75 11.0625 
Q 20.953125 6.0625 26.8125 6.0625 
Q 32.421875 6.0625 36.46875 10.8125 
Q 40.53125 15.578125 40.53125 25.296875 
Q 40.53125 35.640625 36.25 40.859375 
Q 31.984375 46.09375 26.21875 46.09375 
Q 20.515625 46.09375 16.53125 41.234375 
Q 12.546875 36.375 12.546875 26.078125 
z
" id="ArialMT-113"/>
       <path d="M 7.71875 0 
L 7.71875 71.578125 
L 34.71875 71.578125 
Q 41.84375 71.578125 45.609375 70.90625 
Q 50.875 70.015625 54.4375 67.546875 
Q 58.015625 65.09375 60.1875 60.640625 
Q 62.359375 56.203125 62.359375 50.875 
Q 62.359375 41.75 56.546875 35.421875 
Q 50.734375 29.109375 35.546875 29.109375 
L 17.1875 29.109375 
L 17.1875 0 
z
M 17.1875 37.546875 
L 35.6875 37.546875 
Q 44.875 37.546875 48.734375 40.96875 
Q 52.59375 44.390625 52.59375 50.59375 
Q 52.59375 55.078125 50.3125 58.265625 
Q 48.046875 61.46875 44.34375 62.5 
Q 41.9375 63.140625 35.5 63.140625 
L 17.1875 63.140625 
z
" id="ArialMT-80"/>
       <path d="M 58.796875 25.09375 
L 68.265625 22.703125 
Q 65.28125 11.03125 57.546875 4.90625 
Q 49.8125 -1.21875 38.625 -1.21875 
Q 27.046875 -1.21875 19.796875 3.484375 
Q 12.546875 8.203125 8.765625 17.140625 
Q 4.984375 26.078125 4.984375 36.328125 
Q 4.984375 47.515625 9.25 55.828125 
Q 13.53125 64.15625 21.40625 68.46875 
Q 29.296875 72.796875 38.765625 72.796875 
Q 49.515625 72.796875 56.828125 67.328125 
Q 64.15625 61.859375 67.046875 51.953125 
L 57.71875 49.75 
Q 55.21875 57.5625 50.484375 61.125 
Q 45.75 64.703125 38.578125 64.703125 
Q 30.328125 64.703125 24.78125 60.734375 
Q 19.234375 56.78125 16.984375 50.109375 
Q 14.75 43.453125 14.75 36.375 
Q 14.75 27.25 17.40625 20.4375 
Q 20.0625 13.625 25.671875 10.25 
Q 31.296875 6.890625 37.84375 6.890625 
Q 45.796875 6.890625 51.3125 11.46875 
Q 56.84375 16.0625 58.796875 25.09375 
z
" id="ArialMT-67"/>
      </defs>
      <use transform="translate(0 0.015625)" xlink:href="#DejaVuSans-Oblique-70"/>
      <use transform="translate(57.519531 0.015625)" xlink:href="#DejaVuSans-46"/>
      <use transform="translate(108.789062 0.015625)" xlink:href="#DejaVuSans-Oblique-112"/>
      <use transform="translate(172.265625 0.015625)" xlink:href="#DejaVuSans-Oblique-114"/>
      <use transform="translate(213.378906 0.015625)" xlink:href="#DejaVuSans-Oblique-97"/>
      <use transform="translate(274.658203 0.015625)" xlink:href="#DejaVuSans-Oblique-117"/>
      <use transform="translate(338.037109 0.015625)" xlink:href="#DejaVuSans-Oblique-115"/>
      <use transform="translate(390.136719 0.015625)" xlink:href="#DejaVuSans-Oblique-110"/>
      <use transform="translate(453.515625 0.015625)" xlink:href="#DejaVuSans-Oblique-105"/>
      <use transform="translate(481.298828 0.015625)" xlink:href="#DejaVuSans-Oblique-116"/>
      <use transform="translate(520.507812 0.015625)" xlink:href="#DejaVuSans-Oblique-122"/>
      <use transform="translate(572.998047 0.015625)" xlink:href="#DejaVuSans-Oblique-105"/>
      <use transform="translate(600.78125 0.015625)" xlink:href="#DejaVuSans-Oblique-105"/>
      <use transform="translate(628.564453 0.015625)" xlink:href="#ArialMT-32"/>
      <use transform="translate(656.347656 0.015625)" xlink:href="#ArialMT-113"/>
      <use transform="translate(711.962891 0.015625)" xlink:href="#ArialMT-80"/>
      <use transform="translate(778.662109 0.015625)" xlink:href="#ArialMT-67"/>
      <use transform="translate(850.878906 0.015625)" xlink:href="#ArialMT-82"/>
     </g>
     <!--  concentration (GC/$\mu$L,1e8) -->
     <g style="fill:#262626;" transform="translate(-13.111811 151.439173)rotate(-90)scale(0.11 -0.11)">
      <defs>
       <path d="M 23.390625 -21.046875 
Q 16.109375 -11.859375 11.078125 0.4375 
Q 6.0625 12.75 6.0625 25.921875 
Q 6.0625 37.546875 9.8125 48.1875 
Q 14.203125 60.546875 23.390625 72.796875 
L 29.6875 72.796875 
Q 23.78125 62.640625 21.875 58.296875 
Q 18.890625 51.5625 17.1875 44.234375 
Q 15.09375 35.109375 15.09375 25.875 
Q 15.09375 2.390625 29.6875 -21.046875 
z
" id="ArialMT-40"/>
       <path d="M 41.21875 28.078125 
L 41.21875 36.46875 
L 71.53125 36.53125 
L 71.53125 9.96875 
Q 64.546875 4.390625 57.125 1.578125 
Q 49.703125 -1.21875 41.890625 -1.21875 
Q 31.34375 -1.21875 22.71875 3.296875 
Q 14.109375 7.8125 9.71875 16.359375 
Q 5.328125 24.90625 5.328125 35.453125 
Q 5.328125 45.90625 9.6875 54.953125 
Q 14.0625 64.015625 22.265625 68.40625 
Q 30.46875 72.796875 41.15625 72.796875 
Q 48.921875 72.796875 55.1875 70.28125 
Q 61.46875 67.78125 65.03125 63.28125 
Q 68.609375 58.796875 70.453125 51.5625 
L 61.921875 49.21875 
Q 60.296875 54.6875 57.90625 57.8125 
Q 55.515625 60.9375 51.0625 62.8125 
Q 46.625 64.703125 41.21875 64.703125 
Q 34.71875 64.703125 29.984375 62.71875 
Q 25.25 60.75 22.34375 57.515625 
Q 19.4375 54.296875 17.828125 50.4375 
Q 15.09375 43.796875 15.09375 36.03125 
Q 15.09375 26.46875 18.390625 20.015625 
Q 21.6875 13.578125 27.984375 10.453125 
Q 34.28125 7.328125 41.359375 7.328125 
Q 47.515625 7.328125 53.375 9.6875 
Q 59.234375 12.0625 62.25 14.75 
L 62.25 28.078125 
z
" id="ArialMT-71"/>
       <path d="M 0 -1.21875 
L 20.75 72.796875 
L 27.78125 72.796875 
L 7.078125 -1.21875 
z
" id="ArialMT-47"/>
       <path d="M -1.3125 -20.796875 
L 13.375 54.6875 
L 22.40625 54.6875 
L 15.765625 20.65625 
Q 15.578125 19.625 15.421875 18.359375 
Q 15.28125 17.09375 15.28125 15.828125 
Q 15.28125 11.28125 18.140625 8.828125 
Q 21 6.390625 26.3125 6.390625 
Q 33.546875 6.390625 37.984375 10.484375 
Q 42.4375 14.59375 44 22.796875 
L 50.203125 54.6875 
L 59.1875 54.6875 
L 51.03125 12.640625 
Q 50.828125 11.71875 50.75 11.03125 
Q 50.6875 10.359375 50.6875 9.8125 
Q 50.6875 8.296875 51.296875 7.59375 
Q 51.90625 6.890625 53.21875 6.890625 
Q 53.71875 6.890625 54.5625 7.125 
Q 55.421875 7.375 56.984375 8.015625 
L 55.609375 0.78125 
Q 53.46875 -0.296875 51.515625 -0.859375 
Q 49.5625 -1.421875 47.703125 -1.421875 
Q 44.484375 -1.421875 42.65625 0.625 
Q 40.828125 2.6875 40.828125 6.296875 
Q 38.09375 2.390625 34.296875 0.484375 
Q 30.515625 -1.421875 25.390625 -1.421875 
Q 20.84375 -1.421875 17.453125 0.671875 
Q 14.0625 2.78125 12.984375 6.203125 
L 7.71875 -20.796875 
z
" id="DejaVuSans-Oblique-956"/>
       <path d="M 7.328125 0 
L 7.328125 71.578125 
L 16.796875 71.578125 
L 16.796875 8.453125 
L 52.046875 8.453125 
L 52.046875 0 
z
" id="ArialMT-76"/>
       <path d="M 8.890625 0 
L 8.890625 10.015625 
L 18.890625 10.015625 
L 18.890625 0 
Q 18.890625 -5.515625 16.9375 -8.90625 
Q 14.984375 -12.3125 10.75 -14.15625 
L 8.296875 -10.40625 
Q 11.078125 -9.1875 12.390625 -6.8125 
Q 13.71875 -4.4375 13.875 0 
z
" id="ArialMT-44"/>
       <path d="M 17.671875 38.8125 
Q 12.203125 40.828125 9.5625 44.53125 
Q 6.9375 48.25 6.9375 53.421875 
Q 6.9375 61.234375 12.546875 66.546875 
Q 18.171875 71.875 27.484375 71.875 
Q 36.859375 71.875 42.578125 66.421875 
Q 48.296875 60.984375 48.296875 53.171875 
Q 48.296875 48.1875 45.671875 44.5 
Q 43.0625 40.828125 37.75 38.8125 
Q 44.34375 36.671875 47.78125 31.875 
Q 51.21875 27.09375 51.21875 20.453125 
Q 51.21875 11.28125 44.71875 5.03125 
Q 38.234375 -1.21875 27.640625 -1.21875 
Q 17.046875 -1.21875 10.546875 5.046875 
Q 4.046875 11.328125 4.046875 20.703125 
Q 4.046875 27.6875 7.59375 32.390625 
Q 11.140625 37.109375 17.671875 38.8125 
z
M 15.921875 53.71875 
Q 15.921875 48.640625 19.1875 45.40625 
Q 22.46875 42.1875 27.6875 42.1875 
Q 32.765625 42.1875 36.015625 45.375 
Q 39.265625 48.578125 39.265625 53.21875 
Q 39.265625 58.0625 35.90625 61.359375 
Q 32.5625 64.65625 27.59375 64.65625 
Q 22.5625 64.65625 19.234375 61.421875 
Q 15.921875 58.203125 15.921875 53.71875 
z
M 13.09375 20.65625 
Q 13.09375 16.890625 14.875 13.375 
Q 16.65625 9.859375 20.171875 7.921875 
Q 23.6875 6 27.734375 6 
Q 34.03125 6 38.125 10.046875 
Q 42.234375 14.109375 42.234375 20.359375 
Q 42.234375 26.703125 38.015625 30.859375 
Q 33.796875 35.015625 27.4375 35.015625 
Q 21.234375 35.015625 17.15625 30.90625 
Q 13.09375 26.8125 13.09375 20.65625 
z
" id="ArialMT-56"/>
       <path d="M 12.359375 -21.046875 
L 6.0625 -21.046875 
Q 20.65625 2.390625 20.65625 25.875 
Q 20.65625 35.0625 18.5625 44.09375 
Q 16.890625 51.421875 13.921875 58.15625 
Q 12.015625 62.546875 6.0625 72.796875 
L 12.359375 72.796875 
Q 21.53125 60.546875 25.921875 48.1875 
Q 29.6875 37.546875 29.6875 25.921875 
Q 29.6875 12.75 24.625 0.4375 
Q 19.578125 -11.859375 12.359375 -21.046875 
z
" id="ArialMT-41"/>
      </defs>
      <use transform="translate(0 0.203125)" xlink:href="#ArialMT-32"/>
      <use transform="translate(27.783203 0.203125)" xlink:href="#ArialMT-99"/>
      <use transform="translate(77.783203 0.203125)" xlink:href="#ArialMT-111"/>
      <use transform="translate(133.398438 0.203125)" xlink:href="#ArialMT-110"/>
      <use transform="translate(189.013672 0.203125)" xlink:href="#ArialMT-99"/>
      <use transform="translate(239.013672 0.203125)" xlink:href="#ArialMT-101"/>
      <use transform="translate(294.628906 0.203125)" xlink:href="#ArialMT-110"/>
      <use transform="translate(350.244141 0.203125)" xlink:href="#ArialMT-116"/>
      <use transform="translate(378.027344 0.203125)" xlink:href="#ArialMT-114"/>
      <use transform="translate(411.328125 0.203125)" xlink:href="#ArialMT-97"/>
      <use transform="translate(466.943359 0.203125)" xlink:href="#ArialMT-116"/>
      <use transform="translate(494.726562 0.203125)" xlink:href="#ArialMT-105"/>
      <use transform="translate(516.943359 0.203125)" xlink:href="#ArialMT-111"/>
      <use transform="translate(572.558594 0.203125)" xlink:href="#ArialMT-110"/>
      <use transform="translate(628.173828 0.203125)" xlink:href="#ArialMT-32"/>
      <use transform="translate(655.957031 0.203125)" xlink:href="#ArialMT-40"/>
      <use transform="translate(689.257812 0.203125)" xlink:href="#ArialMT-71"/>
      <use transform="translate(767.041016 0.203125)" xlink:href="#ArialMT-67"/>
      <use transform="translate(839.257812 0.203125)" xlink:href="#ArialMT-47"/>
      <use transform="translate(867.041016 0.203125)" xlink:href="#DejaVuSans-Oblique-956"/>
      <use transform="translate(930.664062 0.203125)" xlink:href="#ArialMT-76"/>
      <use transform="translate(986.279297 0.203125)" xlink:href="#ArialMT-44"/>
      <use transform="translate(1014.0625 0.203125)" xlink:href="#ArialMT-49"/>
      <use transform="translate(1069.677734 0.203125)" xlink:href="#ArialMT-101"/>
      <use transform="translate(1125.292969 0.203125)" xlink:href="#ArialMT-56"/>
      <use transform="translate(1180.908203 0.203125)" xlink:href="#ArialMT-41"/>
     </g>
    </g>
    <g id="text_8">
     <!-- 1e6 -->
     <g style="fill:#262626;" transform="translate(19.488189 17.409449)scale(0.12 -0.12)">
      <defs>
       <path d="M 49.75 54.046875 
L 41.015625 53.375 
Q 39.84375 58.546875 37.703125 60.890625 
Q 34.125 64.65625 28.90625 64.65625 
Q 24.703125 64.65625 21.53125 62.3125 
Q 17.390625 59.28125 14.984375 53.46875 
Q 12.59375 47.65625 12.5 36.921875 
Q 15.671875 41.75 20.265625 44.09375 
Q 24.859375 46.4375 29.890625 46.4375 
Q 38.671875 46.4375 44.84375 39.96875 
Q 51.03125 33.5 51.03125 23.25 
Q 51.03125 16.5 48.125 10.71875 
Q 45.21875 4.9375 40.140625 1.859375 
Q 35.0625 -1.21875 28.609375 -1.21875 
Q 17.625 -1.21875 10.6875 6.859375 
Q 3.765625 14.9375 3.765625 33.5 
Q 3.765625 54.25 11.421875 63.671875 
Q 18.109375 71.875 29.4375 71.875 
Q 37.890625 71.875 43.28125 67.140625 
Q 48.6875 62.40625 49.75 54.046875 
z
M 13.875 23.1875 
Q 13.875 18.65625 15.796875 14.5 
Q 17.71875 10.359375 21.1875 8.171875 
Q 24.65625 6 28.46875 6 
Q 34.03125 6 38.03125 10.484375 
Q 42.046875 14.984375 42.046875 22.703125 
Q 42.046875 30.125 38.078125 34.390625 
Q 34.125 38.671875 28.125 38.671875 
Q 22.171875 38.671875 18.015625 34.390625 
Q 13.875 30.125 13.875 23.1875 
z
" id="ArialMT-54"/>
      </defs>
      <use xlink:href="#ArialMT-49"/>
      <use x="55.615234" xlink:href="#ArialMT-101"/>
      <use x="111.230469" xlink:href="#ArialMT-54"/>
     </g>
    </g>
   </g>
   <g id="PathCollection_1">
    <defs>
     <path d="M 0 2.738613 
C 0.726289 2.738613 1.422928 2.450055 1.936492 1.936492 
C 2.450055 1.422928 2.738613 0.726289 2.738613 0 
C 2.738613 -0.726289 2.450055 -1.422928 1.936492 -1.936492 
C 1.422928 -2.450055 0.726289 -2.738613 0 -2.738613 
C -0.726289 -2.738613 -1.422928 -2.450055 -1.936492 -1.936492 
C -2.450055 -1.422928 -2.738613 -0.726289 -2.738613 0 
C -2.738613 0.726289 -2.450055 1.422928 -1.936492 1.936492 
C -1.422928 2.450055 -0.726289 2.738613 0 2.738613 
z
" id="m2c11a0bede" style="stroke:#696969;stroke-opacity:0.8;"/>
    </defs>
    <g clip-path="url(#p384a1868ba)">
     <use style="fill:#696969;fill-opacity:0.8;stroke:#696969;stroke-opacity:0.8;" x="126.470552" xlink:href="#m2c11a0bede" y="33.669524"/>
     <use style="fill:#696969;fill-opacity:0.8;stroke:#696969;stroke-opacity:0.8;" x="117.502818" xlink:href="#m2c11a0bede" y="28.886498"/>
     <use style="fill:#696969;fill-opacity:0.8;stroke:#696969;stroke-opacity:0.8;" x="94.297543" xlink:href="#m2c11a0bede" y="65.13695"/>
     <use style="fill:#696969;fill-opacity:0.8;stroke:#696969;stroke-opacity:0.8;" x="137.626922" xlink:href="#m2c11a0bede" y="47.926585"/>
     <use style="fill:#696969;fill-opacity:0.8;stroke:#696969;stroke-opacity:0.8;" x="73.84485" xlink:href="#m2c11a0bede" y="64.203233"/>
     <use style="fill:#696969;fill-opacity:0.8;stroke:#696969;stroke-opacity:0.8;" x="102.942556" xlink:href="#m2c11a0bede" y="52.722658"/>
     <use style="fill:#696969;fill-opacity:0.8;stroke:#696969;stroke-opacity:0.8;" x="123.159239" xlink:href="#m2c11a0bede" y="67.676801"/>
     <use style="fill:#696969;fill-opacity:0.8;stroke:#696969;stroke-opacity:0.8;" x="140.314961" xlink:href="#m2c11a0bede" y="63.77966"/>
     <use style="fill:#696969;fill-opacity:0.8;stroke:#696969;stroke-opacity:0.8;" x="111.174877" xlink:href="#m2c11a0bede" y="66.804048"/>
     <use style="fill:#696969;fill-opacity:0.8;stroke:#696969;stroke-opacity:0.8;" x="102.830418" xlink:href="#m2c11a0bede" y="72.78706"/>
     <use style="fill:#696969;fill-opacity:0.8;stroke:#696969;stroke-opacity:0.8;" x="53.362167" xlink:href="#m2c11a0bede" y="73.092"/>
     <use style="fill:#696969;fill-opacity:0.8;stroke:#696969;stroke-opacity:0.8;" x="79.221579" xlink:href="#m2c11a0bede" y="72.599974"/>
     <use style="fill:#696969;fill-opacity:0.8;stroke:#696969;stroke-opacity:0.8;" x="65.677725" xlink:href="#m2c11a0bede" y="75.262512"/>
     <use style="fill:#696969;fill-opacity:0.8;stroke:#696969;stroke-opacity:0.8;" x="75.24396" xlink:href="#m2c11a0bede" y="73.090581"/>
     <use style="fill:#696969;fill-opacity:0.8;stroke:#696969;stroke-opacity:0.8;" x="80.232119" xlink:href="#m2c11a0bede" y="76.949223"/>
     <use style="fill:#696969;fill-opacity:0.8;stroke:#696969;stroke-opacity:0.8;" x="103.839655" xlink:href="#m2c11a0bede" y="69.673626"/>
     <use style="fill:#696969;fill-opacity:0.8;stroke:#696969;stroke-opacity:0.8;" x="96.406639" xlink:href="#m2c11a0bede" y="72.792595"/>
     <use style="fill:#696969;fill-opacity:0.8;stroke:#696969;stroke-opacity:0.8;" x="77.876582" xlink:href="#m2c11a0bede" y="79.381601"/>
     <use style="fill:#696969;fill-opacity:0.8;stroke:#696969;stroke-opacity:0.8;" x="98.254299" xlink:href="#m2c11a0bede" y="90.955809"/>
     <use style="fill:#696969;fill-opacity:0.8;stroke:#696969;stroke-opacity:0.8;" x="64.026306" xlink:href="#m2c11a0bede" y="95.995682"/>
     <use style="fill:#696969;fill-opacity:0.8;stroke:#696969;stroke-opacity:0.8;" x="81.965686" xlink:href="#m2c11a0bede" y="92.460331"/>
     <use style="fill:#696969;fill-opacity:0.8;stroke:#696969;stroke-opacity:0.8;" x="89.156172" xlink:href="#m2c11a0bede" y="97.998232"/>
     <use style="fill:#696969;fill-opacity:0.8;stroke:#696969;stroke-opacity:0.8;" x="38.03259" xlink:href="#m2c11a0bede" y="107.849894"/>
     <use style="fill:#696969;fill-opacity:0.8;stroke:#696969;stroke-opacity:0.8;" x="68.122581" xlink:href="#m2c11a0bede" y="110.579369"/>
     <use style="fill:#696969;fill-opacity:0.8;stroke:#696969;stroke-opacity:0.8;" x="19.488189" xlink:href="#m2c11a0bede" y="117.078099"/>
     <use style="fill:#696969;fill-opacity:0.8;stroke:#696969;stroke-opacity:0.8;" x="31.969345" xlink:href="#m2c11a0bede" y="126.842217"/>
     <use style="fill:#696969;fill-opacity:0.8;stroke:#696969;stroke-opacity:0.8;" x="34.076486" xlink:href="#m2c11a0bede" y="134.434859"/>
     <use style="fill:#696969;fill-opacity:0.8;stroke:#696969;stroke-opacity:0.8;" x="29.585121" xlink:href="#m2c11a0bede" y="138.433039"/>
     <use style="fill:#696969;fill-opacity:0.8;stroke:#696969;stroke-opacity:0.8;" x="27.312382" xlink:href="#m2c11a0bede" y="138.137463"/>
     <use style="fill:#696969;fill-opacity:0.8;stroke:#696969;stroke-opacity:0.8;" x="22.837317" xlink:href="#m2c11a0bede" y="142.982105"/>
    </g>
   </g>
   <g id="PolyCollection_1">
    <defs>
     <path d="M 19.488189 -53.315824 
L 19.488189 -31.250098 
L 20.708661 -32.33186 
L 21.929134 -33.413702 
L 23.149606 -34.493049 
L 24.370079 -35.533602 
L 25.590551 -36.510011 
L 26.811024 -37.513178 
L 28.031496 -38.507317 
L 29.251969 -39.575013 
L 30.472441 -40.669021 
L 31.692913 -41.765282 
L 32.913386 -42.76204 
L 34.133858 -43.777599 
L 35.354331 -44.776248 
L 36.574803 -45.821378 
L 37.795276 -46.878193 
L 39.015748 -47.911721 
L 40.23622 -48.906621 
L 41.456693 -49.900831 
L 42.677165 -50.890264 
L 43.897638 -51.879285 
L 45.11811 -52.870312 
L 46.338583 -53.852494 
L 47.559055 -54.838176 
L 48.779528 -55.826163 
L 50 -56.811635 
L 51.220472 -57.79853 
L 52.440945 -58.785426 
L 53.661417 -59.770827 
L 54.88189 -60.725977 
L 56.102362 -61.629386 
L 57.322835 -62.521851 
L 58.543307 -63.522967 
L 59.76378 -64.526304 
L 60.984252 -65.527157 
L 62.204724 -66.579805 
L 63.425197 -67.54727 
L 64.645669 -68.545242 
L 65.866142 -69.547746 
L 67.086614 -70.520678 
L 68.307087 -71.503805 
L 69.527559 -72.45931 
L 70.748031 -73.453404 
L 71.968504 -74.414594 
L 73.188976 -75.385986 
L 74.409449 -76.361641 
L 75.629921 -77.319808 
L 76.850394 -78.197604 
L 78.070866 -79.131145 
L 79.291339 -80.109712 
L 80.511811 -80.940311 
L 81.732283 -81.858822 
L 82.952756 -82.797449 
L 84.173228 -83.740608 
L 85.393701 -84.684378 
L 86.614173 -85.552745 
L 87.834646 -86.461535 
L 89.055118 -87.380108 
L 90.275591 -88.239989 
L 91.496063 -89.129914 
L 92.716535 -89.970467 
L 93.937008 -90.820911 
L 95.15748 -91.681008 
L 96.377953 -92.539753 
L 97.598425 -93.344113 
L 98.818898 -94.123674 
L 100.03937 -94.958496 
L 101.259843 -95.790076 
L 102.480315 -96.607496 
L 103.700787 -97.382458 
L 104.92126 -98.146443 
L 106.141732 -98.930877 
L 107.362205 -99.695521 
L 108.582677 -100.533924 
L 109.80315 -101.282527 
L 111.023622 -102.136359 
L 112.244094 -102.963249 
L 113.464567 -103.702512 
L 114.685039 -104.481752 
L 115.905512 -105.281792 
L 117.125984 -106.093651 
L 118.346457 -106.818105 
L 119.566929 -107.628416 
L 120.787402 -108.411112 
L 122.007874 -109.184848 
L 123.228346 -109.957473 
L 124.448819 -110.762047 
L 125.669291 -111.616663 
L 126.889764 -112.40569 
L 128.110236 -113.127227 
L 129.330709 -113.946239 
L 130.551181 -114.764494 
L 131.771654 -115.483112 
L 132.992126 -116.289798 
L 134.212598 -117.126868 
L 135.433071 -117.912711 
L 136.653543 -118.699947 
L 137.874016 -119.482724 
L 139.094488 -120.265883 
L 140.314961 -121.051795 
L 140.314961 -143.832498 
L 140.314961 -143.832498 
L 139.094488 -142.748816 
L 137.874016 -141.665134 
L 136.653543 -140.581452 
L 135.433071 -139.49777 
L 134.212598 -138.414088 
L 132.992126 -137.328846 
L 131.771654 -136.243423 
L 130.551181 -135.124495 
L 129.330709 -133.991393 
L 128.110236 -132.968172 
L 126.889764 -131.908911 
L 125.669291 -130.824749 
L 124.448819 -129.719004 
L 123.228346 -128.595995 
L 122.007874 -127.486462 
L 120.787402 -126.359525 
L 119.566929 -125.230743 
L 118.346457 -124.135718 
L 117.125984 -123.069578 
L 115.905512 -121.942505 
L 114.685039 -120.814186 
L 113.464567 -119.685128 
L 112.244094 -118.634671 
L 111.023622 -117.585987 
L 109.80315 -116.537302 
L 108.582677 -115.488617 
L 107.362205 -114.471618 
L 106.141732 -113.486535 
L 104.92126 -112.405221 
L 103.700787 -111.41687 
L 102.480315 -110.320942 
L 101.259843 -109.277774 
L 100.03937 -108.234313 
L 98.818898 -107.266042 
L 97.598425 -106.274849 
L 96.377953 -105.251477 
L 95.15748 -104.148936 
L 93.937008 -103.045281 
L 92.716535 -101.940717 
L 91.496063 -100.857578 
L 90.275591 -99.768295 
L 89.055118 -98.73793 
L 87.834646 -97.687707 
L 86.614173 -96.68158 
L 85.393701 -95.677335 
L 84.173228 -94.677828 
L 82.952756 -93.738737 
L 81.732283 -92.687941 
L 80.511811 -91.861659 
L 79.291339 -90.947554 
L 78.070866 -89.947748 
L 76.850394 -89.00127 
L 75.629921 -88.263748 
L 74.409449 -87.342011 
L 73.188976 -86.477756 
L 71.968504 -85.635319 
L 70.748031 -84.86806 
L 69.527559 -84.003892 
L 68.307087 -83.270432 
L 67.086614 -82.467228 
L 65.866142 -81.714213 
L 64.645669 -80.841081 
L 63.425197 -79.870131 
L 62.204724 -79.218825 
L 60.984252 -78.347551 
L 59.76378 -77.647116 
L 58.543307 -76.910548 
L 57.322835 -76.212415 
L 56.102362 -75.514281 
L 54.88189 -74.814671 
L 53.661417 -74.114281 
L 52.440945 -73.413892 
L 51.220472 -72.676352 
L 50 -71.920329 
L 48.779528 -71.072527 
L 47.559055 -70.269358 
L 46.338583 -69.571075 
L 45.11811 -68.872791 
L 43.897638 -68.127113 
L 42.677165 -67.290012 
L 41.456693 -66.45291 
L 40.23622 -65.716172 
L 39.015748 -65.096196 
L 37.795276 -64.304208 
L 36.574803 -63.508935 
L 35.354331 -62.713662 
L 34.133858 -62.019065 
L 32.913386 -61.380642 
L 31.692913 -60.630858 
L 30.472441 -59.881074 
L 29.251969 -59.130044 
L 28.031496 -58.376516 
L 26.811024 -57.628541 
L 25.590551 -56.967365 
L 24.370079 -56.306189 
L 23.149606 -55.622002 
L 21.929134 -54.853276 
L 20.708661 -54.08455 
L 19.488189 -53.315824 
z
" id="m3131f86e82" style="stroke:#ffffff;stroke-opacity:0.15;"/>
    </defs>
    <g clip-path="url(#p384a1868ba)">
     <use style="fill:#1a1a1a;fill-opacity:0.15;stroke:#ffffff;stroke-opacity:0.15;" x="0" xlink:href="#m3131f86e82" y="170.07874"/>
    </g>
   </g>
   <g id="line2d_1">
    <path clip-path="url(#p384a1868ba)" d="M 19.488189 129.441843 
L 20.708661 128.528941 
L 21.929134 127.616039 
L 23.149606 126.703138 
L 24.370079 125.790236 
L 25.590551 124.877334 
L 26.811024 123.964432 
L 28.031496 123.051531 
L 29.251969 122.138629 
L 30.472441 121.225727 
L 31.692913 120.312825 
L 32.913386 119.399924 
L 34.133858 118.487022 
L 35.354331 117.57412 
L 36.574803 116.661218 
L 37.795276 115.748317 
L 39.015748 114.835415 
L 40.23622 113.922513 
L 41.456693 113.009611 
L 42.677165 112.09671 
L 43.897638 111.183808 
L 45.11811 110.270906 
L 46.338583 109.358005 
L 47.559055 108.445103 
L 48.779528 107.532201 
L 50 106.619299 
L 51.220472 105.706398 
L 52.440945 104.793496 
L 53.661417 103.880594 
L 54.88189 102.967692 
L 56.102362 102.054791 
L 57.322835 101.141889 
L 58.543307 100.228987 
L 59.76378 99.316085 
L 60.984252 98.403184 
L 62.204724 97.490282 
L 63.425197 96.57738 
L 64.645669 95.664478 
L 65.866142 94.751577 
L 67.086614 93.838675 
L 68.307087 92.925773 
L 69.527559 92.012871 
L 70.748031 91.09997 
L 71.968504 90.187068 
L 73.188976 89.274166 
L 74.409449 88.361264 
L 75.629921 87.448363 
L 76.850394 86.535461 
L 78.070866 85.622559 
L 79.291339 84.709657 
L 80.511811 83.796756 
L 81.732283 82.883854 
L 82.952756 81.970952 
L 84.173228 81.05805 
L 85.393701 80.145149 
L 86.614173 79.232247 
L 87.834646 78.319345 
L 89.055118 77.406443 
L 90.275591 76.493542 
L 91.496063 75.58064 
L 92.716535 74.667738 
L 93.937008 73.754837 
L 95.15748 72.841935 
L 96.377953 71.929033 
L 97.598425 71.016131 
L 98.818898 70.10323 
L 100.03937 69.190328 
L 101.259843 68.277426 
L 102.480315 67.364524 
L 103.700787 66.451623 
L 104.92126 65.538721 
L 106.141732 64.625819 
L 107.362205 63.712917 
L 108.582677 62.800016 
L 109.80315 61.887114 
L 111.023622 60.974212 
L 112.244094 60.06131 
L 113.464567 59.148409 
L 114.685039 58.235507 
L 115.905512 57.322605 
L 117.125984 56.409703 
L 118.346457 55.496802 
L 119.566929 54.5839 
L 120.787402 53.670998 
L 122.007874 52.758096 
L 123.228346 51.845195 
L 124.448819 50.932293 
L 125.669291 50.019391 
L 126.889764 49.106489 
L 128.110236 48.193588 
L 129.330709 47.280686 
L 130.551181 46.367784 
L 131.771654 45.454882 
L 132.992126 44.541981 
L 134.212598 43.629079 
L 135.433071 42.716177 
L 136.653543 41.803275 
L 137.874016 40.890374 
L 139.094488 39.977472 
L 140.314961 39.06457 
" style="fill:none;stroke:#1a1a1a;stroke-linecap:round;stroke-width:2;"/>
   </g>
   <g id="patch_3">
    <path d="M 19.488189 148.818898 
L 19.488189 20.409449 
" style="fill:none;stroke:#262626;stroke-linecap:square;stroke-linejoin:miter;stroke-width:1.25;"/>
   </g>
   <g id="patch_4">
    <path d="M 140.314961 148.818898 
L 140.314961 20.409449 
" style="fill:none;stroke:#262626;stroke-linecap:square;stroke-linejoin:miter;stroke-width:1.25;"/>
   </g>
   <g id="patch_5">
    <path d="M 19.488189 148.818898 
L 140.314961 148.818898 
" style="fill:none;stroke:#262626;stroke-linecap:square;stroke-linejoin:miter;stroke-width:1.25;"/>
   </g>
   <g id="patch_6">
    <path d="M 19.488189 20.409449 
L 140.314961 20.409449 
" style="fill:none;stroke:#262626;stroke-linecap:square;stroke-linejoin:miter;stroke-width:1.25;"/>
   </g>
   <g id="text_9">
    <!-- r = 0.850, p = 3e-9 -->
    <g style="fill:#1a1a1a;" transform="translate(31.570866 33.250394)scale(0.1 -0.1)">
     <defs>
      <path d="M 52.828125 42.09375 
L 5.5625 42.09375 
L 5.5625 50.296875 
L 52.828125 50.296875 
z
M 52.828125 20.359375 
L 5.5625 20.359375 
L 5.5625 28.5625 
L 52.828125 28.5625 
z
" id="ArialMT-61"/>
      <path d="M 6.59375 -19.875 
L 6.59375 51.859375 
L 14.59375 51.859375 
L 14.59375 45.125 
Q 17.4375 49.078125 21 51.046875 
Q 24.5625 53.03125 29.640625 53.03125 
Q 36.28125 53.03125 41.359375 49.609375 
Q 46.4375 46.1875 49.015625 39.953125 
Q 51.609375 33.734375 51.609375 26.3125 
Q 51.609375 18.359375 48.75 11.984375 
Q 45.90625 5.609375 40.453125 2.21875 
Q 35.015625 -1.171875 29 -1.171875 
Q 24.609375 -1.171875 21.109375 0.6875 
Q 17.625 2.546875 15.375 5.375 
L 15.375 -19.875 
z
M 14.546875 25.640625 
Q 14.546875 15.625 18.59375 10.84375 
Q 22.65625 6.0625 28.421875 6.0625 
Q 34.28125 6.0625 38.453125 11.015625 
Q 42.625 15.96875 42.625 26.375 
Q 42.625 36.28125 38.546875 41.203125 
Q 34.46875 46.140625 28.8125 46.140625 
Q 23.1875 46.140625 18.859375 40.890625 
Q 14.546875 35.640625 14.546875 25.640625 
z
" id="ArialMT-112"/>
      <path d="M 4.203125 18.890625 
L 12.984375 20.0625 
Q 14.5 12.59375 18.140625 9.296875 
Q 21.78125 6 27 6 
Q 33.203125 6 37.46875 10.296875 
Q 41.75 14.59375 41.75 20.953125 
Q 41.75 27 37.796875 30.921875 
Q 33.84375 34.859375 27.734375 34.859375 
Q 25.25 34.859375 21.53125 33.890625 
L 22.515625 41.609375 
Q 23.390625 41.5 23.921875 41.5 
Q 29.546875 41.5 34.03125 44.421875 
Q 38.53125 47.359375 38.53125 53.46875 
Q 38.53125 58.296875 35.25 61.46875 
Q 31.984375 64.65625 26.8125 64.65625 
Q 21.6875 64.65625 18.265625 61.421875 
Q 14.84375 58.203125 13.875 51.765625 
L 5.078125 53.328125 
Q 6.6875 62.15625 12.390625 67.015625 
Q 18.109375 71.875 26.609375 71.875 
Q 32.46875 71.875 37.390625 69.359375 
Q 42.328125 66.84375 44.9375 62.5 
Q 47.5625 58.15625 47.5625 53.265625 
Q 47.5625 48.640625 45.0625 44.828125 
Q 42.578125 41.015625 37.703125 38.765625 
Q 44.046875 37.3125 47.5625 32.6875 
Q 51.078125 28.078125 51.078125 21.140625 
Q 51.078125 11.765625 44.234375 5.25 
Q 37.40625 -1.265625 26.953125 -1.265625 
Q 17.53125 -1.265625 11.296875 4.34375 
Q 5.078125 9.96875 4.203125 18.890625 
z
" id="ArialMT-51"/>
      <path d="M 3.171875 21.484375 
L 3.171875 30.328125 
L 30.171875 30.328125 
L 30.171875 21.484375 
z
" id="ArialMT-45"/>
      <path d="M 5.46875 16.546875 
L 13.921875 17.328125 
Q 14.984375 11.375 18.015625 8.6875 
Q 21.046875 6 25.78125 6 
Q 29.828125 6 32.875 7.859375 
Q 35.9375 9.71875 37.890625 12.8125 
Q 39.84375 15.921875 41.15625 21.1875 
Q 42.484375 26.46875 42.484375 31.9375 
Q 42.484375 32.515625 42.4375 33.6875 
Q 39.796875 29.5 35.234375 26.875 
Q 30.671875 24.265625 25.34375 24.265625 
Q 16.453125 24.265625 10.296875 30.703125 
Q 4.15625 37.15625 4.15625 47.703125 
Q 4.15625 58.59375 10.578125 65.234375 
Q 17 71.875 26.65625 71.875 
Q 33.640625 71.875 39.421875 68.109375 
Q 45.21875 64.359375 48.21875 57.390625 
Q 51.21875 50.4375 51.21875 37.25 
Q 51.21875 23.53125 48.234375 15.40625 
Q 45.265625 7.28125 39.375 3.03125 
Q 33.5 -1.21875 25.59375 -1.21875 
Q 17.1875 -1.21875 11.859375 3.4375 
Q 6.546875 8.109375 5.46875 16.546875 
z
M 41.453125 48.140625 
Q 41.453125 55.71875 37.421875 60.15625 
Q 33.40625 64.59375 27.734375 64.59375 
Q 21.875 64.59375 17.53125 59.8125 
Q 13.1875 55.03125 13.1875 47.40625 
Q 13.1875 40.578125 17.3125 36.296875 
Q 21.4375 32.03125 27.484375 32.03125 
Q 33.59375 32.03125 37.515625 36.296875 
Q 41.453125 40.578125 41.453125 48.140625 
z
" id="ArialMT-57"/>
     </defs>
     <use xlink:href="#ArialMT-114"/>
     <use x="33.300781" xlink:href="#ArialMT-32"/>
     <use x="61.083984" xlink:href="#ArialMT-61"/>
     <use x="119.482422" xlink:href="#ArialMT-32"/>
     <use x="147.265625" xlink:href="#ArialMT-48"/>
     <use x="202.880859" xlink:href="#ArialMT-46"/>
     <use x="230.664062" xlink:href="#ArialMT-56"/>
     <use x="286.279297" xlink:href="#ArialMT-53"/>
     <use x="341.894531" xlink:href="#ArialMT-48"/>
     <use x="397.509766" xlink:href="#ArialMT-44"/>
     <use x="425.292969" xlink:href="#ArialMT-32"/>
     <use x="453.076172" xlink:href="#ArialMT-112"/>
     <use x="508.691406" xlink:href="#ArialMT-32"/>
     <use x="536.474609" xlink:href="#ArialMT-61"/>
     <use x="594.873047" xlink:href="#ArialMT-32"/>
     <use x="622.65625" xlink:href="#ArialMT-51"/>
     <use x="678.271484" xlink:href="#ArialMT-101"/>
     <use x="733.886719" xlink:href="#ArialMT-45"/>
     <use x="767.1875" xlink:href="#ArialMT-57"/>
    </g>
   </g>
  </g>
 </g>
 <defs>
  <clipPath id="p384a1868ba">
   <rect height="128.409449" width="120.826772" x="19.488189" y="20.409449"/>
  </clipPath>
 </defs>
</svg>
