<?xml version="1.0" encoding="utf-8" standalone="no"?>
<!DOCTYPE svg PUBLIC "-//W3C//DTD SVG 1.1//EN"
  "http://www.w3.org/Graphics/SVG/1.1/DTD/svg11.dtd">
<!-- Created with matplotlib (https://matplotlib.org/) -->
<svg height="504pt" version="1.1" viewBox="0 0 1440 504" width="1440pt" xmlns="http://www.w3.org/2000/svg" xmlns:xlink="http://www.w3.org/1999/xlink">
 <metadata>
  <rdf:RDF xmlns:cc="http://creativecommons.org/ns#" xmlns:dc="http://purl.org/dc/elements/1.1/" xmlns:rdf="http://www.w3.org/1999/02/22-rdf-syntax-ns#">
   <cc:Work>
    <dc:type rdf:resource="http://purl.org/dc/dcmitype/StillImage"/>
    <dc:date>2021-11-17T13:22:42.346907</dc:date>
    <dc:format>image/svg+xml</dc:format>
    <dc:creator>
     <cc:Agent>
      <dc:title>Matplotlib v3.3.4, https://matplotlib.org/</dc:title>
     </cc:Agent>
    </dc:creator>
   </cc:Work>
  </rdf:RDF>
 </metadata>
 <defs>
  <style type="text/css">*{stroke-linecap:butt;stroke-linejoin:round;}</style>
 </defs>
 <g id="figure_1">
  <g id="patch_1">
   <path d="M 0 504 
L 1440 504 
L 1440 0 
L 0 0 
z
" style="fill:#ffffff;"/>
  </g>
  <g id="axes_1">
   <g id="patch_2">
    <path d="M 111.3225 421.54 
L 698.8325 421.54 
L 698.8325 12.96 
L 111.3225 12.96 
z
" style="fill:#ffffff;"/>
   </g>
   <g id="matplotlib.axis_1">
    <g id="xtick_1">
     <g id="line2d_1">
      <path clip-path="url(#p1f9273ec71)" d="M 161.969914 421.54 
L 161.969914 12.96 
" style="fill:none;stroke:#cccccc;stroke-dasharray:3.7,1.6;stroke-dashoffset:0;"/>
     </g>
     <g id="line2d_2">
      <defs>
       <path d="M 0 0 
L 0 -6 
" id="m4bfbfdc76f" style="stroke:#262626;stroke-width:1.25;"/>
      </defs>
      <g>
       <use style="fill:#262626;stroke:#262626;stroke-width:1.25;" x="161.969914" xlink:href="#m4bfbfdc76f" y="421.54"/>
      </g>
     </g>
     <g id="text_1">
      <!-- 0 -->
      <g style="fill:#262626;" transform="translate(152.51632 449.376562)scale(0.34 -0.34)">
       <defs>
        <path d="M 4.15625 35.296875 
Q 4.15625 48 6.765625 55.734375 
Q 9.375 63.484375 14.515625 67.671875 
Q 19.671875 71.875 27.484375 71.875 
Q 33.25 71.875 37.59375 69.546875 
Q 41.9375 67.234375 44.765625 62.859375 
Q 47.609375 58.5 49.21875 52.21875 
Q 50.828125 45.953125 50.828125 35.296875 
Q 50.828125 22.703125 48.234375 14.96875 
Q 45.65625 7.234375 40.5 3 
Q 35.359375 -1.21875 27.484375 -1.21875 
Q 17.140625 -1.21875 11.234375 6.203125 
Q 4.15625 15.140625 4.15625 35.296875 
z
M 13.1875 35.296875 
Q 13.1875 17.671875 17.3125 11.828125 
Q 21.4375 6 27.484375 6 
Q 33.546875 6 37.671875 11.859375 
Q 41.796875 17.71875 41.796875 35.296875 
Q 41.796875 52.984375 37.671875 58.78125 
Q 33.546875 64.59375 27.390625 64.59375 
Q 21.34375 64.59375 17.71875 59.46875 
Q 13.1875 52.9375 13.1875 35.296875 
z
" id="ArialMT-48"/>
       </defs>
       <use xlink:href="#ArialMT-48"/>
      </g>
     </g>
    </g>
    <g id="xtick_2">
     <g id="line2d_3">
      <path clip-path="url(#p1f9273ec71)" d="M 243.005776 421.54 
L 243.005776 12.96 
" style="fill:none;stroke:#cccccc;stroke-dasharray:3.7,1.6;stroke-dashoffset:0;"/>
     </g>
     <g id="line2d_4">
      <g>
       <use style="fill:#262626;stroke:#262626;stroke-width:1.25;" x="243.005776" xlink:href="#m4bfbfdc76f" y="421.54"/>
      </g>
     </g>
     <g id="text_2">
      <!-- 1 -->
      <g style="fill:#262626;" transform="translate(233.552182 449.376562)scale(0.34 -0.34)">
       <defs>
        <path d="M 37.25 0 
L 28.46875 0 
L 28.46875 56 
Q 25.296875 52.984375 20.140625 49.953125 
Q 14.984375 46.921875 10.890625 45.40625 
L 10.890625 53.90625 
Q 18.265625 57.375 23.78125 62.296875 
Q 29.296875 67.234375 31.59375 71.875 
L 37.25 71.875 
z
" id="ArialMT-49"/>
       </defs>
       <use xlink:href="#ArialMT-49"/>
      </g>
     </g>
    </g>
    <g id="xtick_3">
     <g id="line2d_5">
      <path clip-path="url(#p1f9273ec71)" d="M 324.041638 421.54 
L 324.041638 12.96 
" style="fill:none;stroke:#cccccc;stroke-dasharray:3.7,1.6;stroke-dashoffset:0;"/>
     </g>
     <g id="line2d_6">
      <g>
       <use style="fill:#262626;stroke:#262626;stroke-width:1.25;" x="324.041638" xlink:href="#m4bfbfdc76f" y="421.54"/>
      </g>
     </g>
     <g id="text_3">
      <!-- 2 -->
      <g style="fill:#262626;" transform="translate(314.588044 449.376562)scale(0.34 -0.34)">
       <defs>
        <path d="M 50.34375 8.453125 
L 50.34375 0 
L 3.03125 0 
Q 2.9375 3.171875 4.046875 6.109375 
Q 5.859375 10.9375 9.828125 15.625 
Q 13.8125 20.3125 21.34375 26.46875 
Q 33.015625 36.03125 37.109375 41.625 
Q 41.21875 47.21875 41.21875 52.203125 
Q 41.21875 57.421875 37.46875 61 
Q 33.734375 64.59375 27.734375 64.59375 
Q 21.390625 64.59375 17.578125 60.78125 
Q 13.765625 56.984375 13.71875 50.25 
L 4.6875 51.171875 
Q 5.609375 61.28125 11.65625 66.578125 
Q 17.71875 71.875 27.9375 71.875 
Q 38.234375 71.875 44.234375 66.15625 
Q 50.25 60.453125 50.25 52 
Q 50.25 47.703125 48.484375 43.546875 
Q 46.734375 39.40625 42.65625 34.8125 
Q 38.578125 30.21875 29.109375 22.21875 
Q 21.1875 15.578125 18.9375 13.203125 
Q 16.703125 10.84375 15.234375 8.453125 
z
" id="ArialMT-50"/>
       </defs>
       <use xlink:href="#ArialMT-50"/>
      </g>
     </g>
    </g>
    <g id="xtick_4">
     <g id="line2d_7">
      <path clip-path="url(#p1f9273ec71)" d="M 405.0775 421.54 
L 405.0775 12.96 
" style="fill:none;stroke:#cccccc;stroke-dasharray:3.7,1.6;stroke-dashoffset:0;"/>
     </g>
     <g id="line2d_8">
      <g>
       <use style="fill:#262626;stroke:#262626;stroke-width:1.25;" x="405.0775" xlink:href="#m4bfbfdc76f" y="421.54"/>
      </g>
     </g>
     <g id="text_4">
      <!-- 3 -->
      <g style="fill:#262626;" transform="translate(395.623906 449.376562)scale(0.34 -0.34)">
       <defs>
        <path d="M 4.203125 18.890625 
L 12.984375 20.0625 
Q 14.5 12.59375 18.140625 9.296875 
Q 21.78125 6 27 6 
Q 33.203125 6 37.46875 10.296875 
Q 41.75 14.59375 41.75 20.953125 
Q 41.75 27 37.796875 30.921875 
Q 33.84375 34.859375 27.734375 34.859375 
Q 25.25 34.859375 21.53125 33.890625 
L 22.515625 41.609375 
Q 23.390625 41.5 23.921875 41.5 
Q 29.546875 41.5 34.03125 44.421875 
Q 38.53125 47.359375 38.53125 53.46875 
Q 38.53125 58.296875 35.25 61.46875 
Q 31.984375 64.65625 26.8125 64.65625 
Q 21.6875 64.65625 18.265625 61.421875 
Q 14.84375 58.203125 13.875 51.765625 
L 5.078125 53.328125 
Q 6.6875 62.15625 12.390625 67.015625 
Q 18.109375 71.875 26.609375 71.875 
Q 32.46875 71.875 37.390625 69.359375 
Q 42.328125 66.84375 44.9375 62.5 
Q 47.5625 58.15625 47.5625 53.265625 
Q 47.5625 48.640625 45.0625 44.828125 
Q 42.578125 41.015625 37.703125 38.765625 
Q 44.046875 37.3125 47.5625 32.6875 
Q 51.078125 28.078125 51.078125 21.140625 
Q 51.078125 11.765625 44.234375 5.25 
Q 37.40625 -1.265625 26.953125 -1.265625 
Q 17.53125 -1.265625 11.296875 4.34375 
Q 5.078125 9.96875 4.203125 18.890625 
z
" id="ArialMT-51"/>
       </defs>
       <use xlink:href="#ArialMT-51"/>
      </g>
     </g>
    </g>
    <g id="xtick_5">
     <g id="line2d_9">
      <path clip-path="url(#p1f9273ec71)" d="M 486.113362 421.54 
L 486.113362 12.96 
" style="fill:none;stroke:#cccccc;stroke-dasharray:3.7,1.6;stroke-dashoffset:0;"/>
     </g>
     <g id="line2d_10">
      <g>
       <use style="fill:#262626;stroke:#262626;stroke-width:1.25;" x="486.113362" xlink:href="#m4bfbfdc76f" y="421.54"/>
      </g>
     </g>
     <g id="text_5">
      <!-- 7 -->
      <g style="fill:#262626;" transform="translate(476.659768 449.376562)scale(0.34 -0.34)">
       <defs>
        <path d="M 4.734375 62.203125 
L 4.734375 70.65625 
L 51.078125 70.65625 
L 51.078125 63.8125 
Q 44.234375 56.546875 37.515625 44.484375 
Q 30.8125 32.421875 27.15625 19.671875 
Q 24.515625 10.6875 23.78125 0 
L 14.75 0 
Q 14.890625 8.453125 18.0625 20.40625 
Q 21.234375 32.375 27.171875 43.484375 
Q 33.109375 54.59375 39.796875 62.203125 
z
" id="ArialMT-55"/>
       </defs>
       <use xlink:href="#ArialMT-55"/>
      </g>
     </g>
    </g>
    <g id="xtick_6">
     <g id="line2d_11">
      <path clip-path="url(#p1f9273ec71)" d="M 567.149224 421.54 
L 567.149224 12.96 
" style="fill:none;stroke:#cccccc;stroke-dasharray:3.7,1.6;stroke-dashoffset:0;"/>
     </g>
     <g id="line2d_12">
      <g>
       <use style="fill:#262626;stroke:#262626;stroke-width:1.25;" x="567.149224" xlink:href="#m4bfbfdc76f" y="421.54"/>
      </g>
     </g>
     <g id="text_6">
      <!-- 14 -->
      <g style="fill:#262626;" transform="translate(548.242037 449.376562)scale(0.34 -0.34)">
       <defs>
        <path d="M 32.328125 0 
L 32.328125 17.140625 
L 1.265625 17.140625 
L 1.265625 25.203125 
L 33.9375 71.578125 
L 41.109375 71.578125 
L 41.109375 25.203125 
L 50.78125 25.203125 
L 50.78125 17.140625 
L 41.109375 17.140625 
L 41.109375 0 
z
M 32.328125 25.203125 
L 32.328125 57.46875 
L 9.90625 25.203125 
z
" id="ArialMT-52"/>
       </defs>
       <use xlink:href="#ArialMT-49"/>
       <use x="55.615234" xlink:href="#ArialMT-52"/>
      </g>
     </g>
    </g>
    <g id="xtick_7">
     <g id="line2d_13">
      <path clip-path="url(#p1f9273ec71)" d="M 648.185086 421.54 
L 648.185086 12.96 
" style="fill:none;stroke:#cccccc;stroke-dasharray:3.7,1.6;stroke-dashoffset:0;"/>
     </g>
     <g id="line2d_14">
      <g>
       <use style="fill:#262626;stroke:#262626;stroke-width:1.25;" x="648.185086" xlink:href="#m4bfbfdc76f" y="421.54"/>
      </g>
     </g>
     <g id="text_7">
      <!-- 28 -->
      <g style="fill:#262626;" transform="translate(629.277899 449.376562)scale(0.34 -0.34)">
       <defs>
        <path d="M 17.671875 38.8125 
Q 12.203125 40.828125 9.5625 44.53125 
Q 6.9375 48.25 6.9375 53.421875 
Q 6.9375 61.234375 12.546875 66.546875 
Q 18.171875 71.875 27.484375 71.875 
Q 36.859375 71.875 42.578125 66.421875 
Q 48.296875 60.984375 48.296875 53.171875 
Q 48.296875 48.1875 45.671875 44.5 
Q 43.0625 40.828125 37.75 38.8125 
Q 44.34375 36.671875 47.78125 31.875 
Q 51.21875 27.09375 51.21875 20.453125 
Q 51.21875 11.28125 44.71875 5.03125 
Q 38.234375 -1.21875 27.640625 -1.21875 
Q 17.046875 -1.21875 10.546875 5.046875 
Q 4.046875 11.328125 4.046875 20.703125 
Q 4.046875 27.6875 7.59375 32.390625 
Q 11.140625 37.109375 17.671875 38.8125 
z
M 15.921875 53.71875 
Q 15.921875 48.640625 19.1875 45.40625 
Q 22.46875 42.1875 27.6875 42.1875 
Q 32.765625 42.1875 36.015625 45.375 
Q 39.265625 48.578125 39.265625 53.21875 
Q 39.265625 58.0625 35.90625 61.359375 
Q 32.5625 64.65625 27.59375 64.65625 
Q 22.5625 64.65625 19.234375 61.421875 
Q 15.921875 58.203125 15.921875 53.71875 
z
M 13.09375 20.65625 
Q 13.09375 16.890625 14.875 13.375 
Q 16.65625 9.859375 20.171875 7.921875 
Q 23.6875 6 27.734375 6 
Q 34.03125 6 38.125 10.046875 
Q 42.234375 14.109375 42.234375 20.359375 
Q 42.234375 26.703125 38.015625 30.859375 
Q 33.796875 35.015625 27.4375 35.015625 
Q 21.234375 35.015625 17.15625 30.90625 
Q 13.09375 26.8125 13.09375 20.65625 
z
" id="ArialMT-56"/>
       </defs>
       <use xlink:href="#ArialMT-50"/>
       <use x="55.615234" xlink:href="#ArialMT-56"/>
      </g>
     </g>
    </g>
    <g id="text_8">
     <!-- Day -->
     <g style="fill:#262626;" transform="translate(374.846719 484.470625)scale(0.34 -0.34)">
      <defs>
       <path d="M 7.71875 0 
L 7.71875 71.578125 
L 32.375 71.578125 
Q 40.71875 71.578125 45.125 70.5625 
Q 51.265625 69.140625 55.609375 65.4375 
Q 61.28125 60.640625 64.078125 53.1875 
Q 66.890625 45.75 66.890625 36.1875 
Q 66.890625 28.03125 64.984375 21.734375 
Q 63.09375 15.4375 60.109375 11.296875 
Q 57.125 7.171875 53.578125 4.796875 
Q 50.046875 2.4375 45.046875 1.21875 
Q 40.046875 0 33.546875 0 
z
M 17.1875 8.453125 
L 32.46875 8.453125 
Q 39.546875 8.453125 43.578125 9.765625 
Q 47.609375 11.078125 50 13.484375 
Q 53.375 16.84375 55.25 22.53125 
Q 57.125 28.21875 57.125 36.328125 
Q 57.125 47.5625 53.4375 53.59375 
Q 49.75 59.625 44.484375 61.671875 
Q 40.671875 63.140625 32.234375 63.140625 
L 17.1875 63.140625 
z
" id="ArialMT-68"/>
       <path d="M 40.4375 6.390625 
Q 35.546875 2.25 31.03125 0.53125 
Q 26.515625 -1.171875 21.34375 -1.171875 
Q 12.796875 -1.171875 8.203125 3 
Q 3.609375 7.171875 3.609375 13.671875 
Q 3.609375 17.484375 5.34375 20.625 
Q 7.078125 23.78125 9.890625 25.6875 
Q 12.703125 27.59375 16.21875 28.5625 
Q 18.796875 29.25 24.03125 29.890625 
Q 34.671875 31.15625 39.703125 32.90625 
Q 39.75 34.71875 39.75 35.203125 
Q 39.75 40.578125 37.25 42.78125 
Q 33.890625 45.75 27.25 45.75 
Q 21.046875 45.75 18.09375 43.578125 
Q 15.140625 41.40625 13.71875 35.890625 
L 5.125 37.0625 
Q 6.296875 42.578125 8.984375 45.96875 
Q 11.671875 49.359375 16.75 51.1875 
Q 21.828125 53.03125 28.515625 53.03125 
Q 35.15625 53.03125 39.296875 51.46875 
Q 43.453125 49.90625 45.40625 47.53125 
Q 47.359375 45.171875 48.140625 41.546875 
Q 48.578125 39.3125 48.578125 33.453125 
L 48.578125 21.734375 
Q 48.578125 9.46875 49.140625 6.21875 
Q 49.703125 2.984375 51.375 0 
L 42.1875 0 
Q 40.828125 2.734375 40.4375 6.390625 
z
M 39.703125 26.03125 
Q 34.90625 24.078125 25.34375 22.703125 
Q 19.921875 21.921875 17.671875 20.9375 
Q 15.4375 19.96875 14.203125 18.09375 
Q 12.984375 16.21875 12.984375 13.921875 
Q 12.984375 10.40625 15.640625 8.0625 
Q 18.3125 5.71875 23.4375 5.71875 
Q 28.515625 5.71875 32.46875 7.9375 
Q 36.421875 10.15625 38.28125 14.015625 
Q 39.703125 17 39.703125 22.796875 
z
" id="ArialMT-97"/>
       <path d="M 6.203125 -19.96875 
L 5.21875 -11.71875 
Q 8.109375 -12.5 10.25 -12.5 
Q 13.1875 -12.5 14.9375 -11.515625 
Q 16.703125 -10.546875 17.828125 -8.796875 
Q 18.65625 -7.46875 20.515625 -2.25 
Q 20.75 -1.515625 21.296875 -0.09375 
L 1.609375 51.859375 
L 11.078125 51.859375 
L 21.875 21.828125 
Q 23.96875 16.109375 25.640625 9.8125 
Q 27.15625 15.875 29.25 21.625 
L 40.328125 51.859375 
L 49.125 51.859375 
L 29.390625 -0.875 
Q 26.21875 -9.421875 24.46875 -12.640625 
Q 22.125 -17 19.09375 -19.015625 
Q 16.0625 -21.046875 11.859375 -21.046875 
Q 9.328125 -21.046875 6.203125 -19.96875 
z
" id="ArialMT-121"/>
      </defs>
      <use xlink:href="#ArialMT-68"/>
      <use x="72.216797" xlink:href="#ArialMT-97"/>
      <use x="127.832031" xlink:href="#ArialMT-121"/>
     </g>
    </g>
   </g>
   <g id="matplotlib.axis_2">
    <g id="ytick_1">
     <g id="line2d_15">
      <path clip-path="url(#p1f9273ec71)" d="M 111.3225 406.249997 
L 698.8325 406.249997 
" style="fill:none;stroke:#cccccc;stroke-dasharray:3.7,1.6;stroke-dashoffset:0;"/>
     </g>
     <g id="line2d_16">
      <defs>
       <path d="M 0 0 
L 6 0 
" id="m5e0f6b80cc" style="stroke:#262626;stroke-width:1.25;"/>
      </defs>
      <g>
       <use style="fill:#262626;stroke:#262626;stroke-width:1.25;" x="111.3225" xlink:href="#m5e0f6b80cc" y="406.249997"/>
      </g>
     </g>
     <g id="text_9">
      <!-- 2 -->
      <g style="fill:#262626;" transform="translate(88.915312 418.418278)scale(0.34 -0.34)">
       <use xlink:href="#ArialMT-50"/>
      </g>
     </g>
    </g>
    <g id="ytick_2">
     <g id="line2d_17">
      <path clip-path="url(#p1f9273ec71)" d="M 111.3225 337.738679 
L 698.8325 337.738679 
" style="fill:none;stroke:#cccccc;stroke-dasharray:3.7,1.6;stroke-dashoffset:0;"/>
     </g>
     <g id="line2d_18">
      <g>
       <use style="fill:#262626;stroke:#262626;stroke-width:1.25;" x="111.3225" xlink:href="#m5e0f6b80cc" y="337.738679"/>
      </g>
     </g>
     <g id="text_10">
      <!-- 3 -->
      <g style="fill:#262626;" transform="translate(88.915312 349.906961)scale(0.34 -0.34)">
       <use xlink:href="#ArialMT-51"/>
      </g>
     </g>
    </g>
    <g id="ytick_3">
     <g id="line2d_19">
      <path clip-path="url(#p1f9273ec71)" d="M 111.3225 269.227361 
L 698.8325 269.227361 
" style="fill:none;stroke:#cccccc;stroke-dasharray:3.7,1.6;stroke-dashoffset:0;"/>
     </g>
     <g id="line2d_20">
      <g>
       <use style="fill:#262626;stroke:#262626;stroke-width:1.25;" x="111.3225" xlink:href="#m5e0f6b80cc" y="269.227361"/>
      </g>
     </g>
     <g id="text_11">
      <!-- 4 -->
      <g style="fill:#262626;" transform="translate(88.915312 281.395643)scale(0.34 -0.34)">
       <use xlink:href="#ArialMT-52"/>
      </g>
     </g>
    </g>
    <g id="ytick_4">
     <g id="line2d_21">
      <path clip-path="url(#p1f9273ec71)" d="M 111.3225 200.716043 
L 698.8325 200.716043 
" style="fill:none;stroke:#cccccc;stroke-dasharray:3.7,1.6;stroke-dashoffset:0;"/>
     </g>
     <g id="line2d_22">
      <g>
       <use style="fill:#262626;stroke:#262626;stroke-width:1.25;" x="111.3225" xlink:href="#m5e0f6b80cc" y="200.716043"/>
      </g>
     </g>
     <g id="text_12">
      <!-- 5 -->
      <g style="fill:#262626;" transform="translate(88.915312 212.884325)scale(0.34 -0.34)">
       <defs>
        <path d="M 4.15625 18.75 
L 13.375 19.53125 
Q 14.40625 12.796875 18.140625 9.390625 
Q 21.875 6 27.15625 6 
Q 33.5 6 37.890625 10.78125 
Q 42.28125 15.578125 42.28125 23.484375 
Q 42.28125 31 38.0625 35.34375 
Q 33.84375 39.703125 27 39.703125 
Q 22.75 39.703125 19.328125 37.765625 
Q 15.921875 35.84375 13.96875 32.765625 
L 5.71875 33.84375 
L 12.640625 70.609375 
L 48.25 70.609375 
L 48.25 62.203125 
L 19.671875 62.203125 
L 15.828125 42.96875 
Q 22.265625 47.46875 29.34375 47.46875 
Q 38.71875 47.46875 45.15625 40.96875 
Q 51.609375 34.46875 51.609375 24.265625 
Q 51.609375 14.546875 45.953125 7.46875 
Q 39.0625 -1.21875 27.15625 -1.21875 
Q 17.390625 -1.21875 11.203125 4.25 
Q 5.03125 9.71875 4.15625 18.75 
z
" id="ArialMT-53"/>
       </defs>
       <use xlink:href="#ArialMT-53"/>
      </g>
     </g>
    </g>
    <g id="ytick_5">
     <g id="line2d_23">
      <path clip-path="url(#p1f9273ec71)" d="M 111.3225 132.204725 
L 698.8325 132.204725 
" style="fill:none;stroke:#cccccc;stroke-dasharray:3.7,1.6;stroke-dashoffset:0;"/>
     </g>
     <g id="line2d_24">
      <g>
       <use style="fill:#262626;stroke:#262626;stroke-width:1.25;" x="111.3225" xlink:href="#m5e0f6b80cc" y="132.204725"/>
      </g>
     </g>
     <g id="text_13">
      <!-- 6 -->
      <g style="fill:#262626;" transform="translate(88.915312 144.373007)scale(0.34 -0.34)">
       <defs>
        <path d="M 49.75 54.046875 
L 41.015625 53.375 
Q 39.84375 58.546875 37.703125 60.890625 
Q 34.125 64.65625 28.90625 64.65625 
Q 24.703125 64.65625 21.53125 62.3125 
Q 17.390625 59.28125 14.984375 53.46875 
Q 12.59375 47.65625 12.5 36.921875 
Q 15.671875 41.75 20.265625 44.09375 
Q 24.859375 46.4375 29.890625 46.4375 
Q 38.671875 46.4375 44.84375 39.96875 
Q 51.03125 33.5 51.03125 23.25 
Q 51.03125 16.5 48.125 10.71875 
Q 45.21875 4.9375 40.140625 1.859375 
Q 35.0625 -1.21875 28.609375 -1.21875 
Q 17.625 -1.21875 10.6875 6.859375 
Q 3.765625 14.9375 3.765625 33.5 
Q 3.765625 54.25 11.421875 63.671875 
Q 18.109375 71.875 29.4375 71.875 
Q 37.890625 71.875 43.28125 67.140625 
Q 48.6875 62.40625 49.75 54.046875 
z
M 13.875 23.1875 
Q 13.875 18.65625 15.796875 14.5 
Q 17.71875 10.359375 21.1875 8.171875 
Q 24.65625 6 28.46875 6 
Q 34.03125 6 38.03125 10.484375 
Q 42.046875 14.984375 42.046875 22.703125 
Q 42.046875 30.125 38.078125 34.390625 
Q 34.125 38.671875 28.125 38.671875 
Q 22.171875 38.671875 18.015625 34.390625 
Q 13.875 30.125 13.875 23.1875 
z
" id="ArialMT-54"/>
       </defs>
       <use xlink:href="#ArialMT-54"/>
      </g>
     </g>
    </g>
    <g id="ytick_6">
     <g id="line2d_25">
      <path clip-path="url(#p1f9273ec71)" d="M 111.3225 63.693407 
L 698.8325 63.693407 
" style="fill:none;stroke:#cccccc;stroke-dasharray:3.7,1.6;stroke-dashoffset:0;"/>
     </g>
     <g id="line2d_26">
      <g>
       <use style="fill:#262626;stroke:#262626;stroke-width:1.25;" x="111.3225" xlink:href="#m5e0f6b80cc" y="63.693407"/>
      </g>
     </g>
     <g id="text_14">
      <!-- 7 -->
      <g style="fill:#262626;" transform="translate(88.915312 75.861689)scale(0.34 -0.34)">
       <use xlink:href="#ArialMT-55"/>
      </g>
     </g>
    </g>
    <g id="text_15">
     <!-- $\alpha$ Diversity -->
     <g style="fill:#262626;" transform="translate(40.57825 298.51)rotate(-90)scale(0.34 -0.34)">
      <defs>
       <path d="M 40.921875 25.4375 
L 40.96875 36.71875 
Q 41.015625 48.25 32.328125 48.296875 
Q 25.828125 48.34375 21.78125 42.921875 
Q 16.703125 36.234375 14.984375 27.296875 
Q 12.890625 16.546875 15.53125 11.421875 
Q 18.265625 6.203125 24.171875 6.203125 
Q 30.71875 6.203125 36.234375 16.609375 
z
M 33.84375 55.90625 
Q 49.078125 56.15625 48.875 40.375 
Q 48.875 40.375 56.5 54.6875 
L 64.5 54.6875 
L 48.734375 25.046875 
L 48.578125 14.359375 
Q 48.578125 11.96875 49.90625 9.96875 
Q 51.421875 7.625 52.984375 7.625 
L 57.328125 7.625 
L 55.859375 0 
L 50.4375 0 
Q 45.84375 0 42.53125 4.109375 
Q 40.96875 6.15625 40.921875 10.453125 
Q 37.75 5.21875 32.28125 0.78125 
Q 29.6875 -1.265625 22.703125 -1.21875 
Q 11.28125 -1.125 7.125 6.203125 
Q 2.875 13.8125 5.515625 27.296875 
Q 8.34375 41.796875 15.765625 48.390625 
Q 24.125 55.765625 33.84375 55.90625 
z
" id="DejaVuSans-Oblique-945"/>
       <path id="ArialMT-32"/>
       <path d="M 6.640625 61.46875 
L 6.640625 71.578125 
L 15.4375 71.578125 
L 15.4375 61.46875 
z
M 6.640625 0 
L 6.640625 51.859375 
L 15.4375 51.859375 
L 15.4375 0 
z
" id="ArialMT-105"/>
       <path d="M 21 0 
L 1.265625 51.859375 
L 10.546875 51.859375 
L 21.6875 20.796875 
Q 23.484375 15.765625 25 10.359375 
Q 26.171875 14.453125 28.265625 20.21875 
L 39.796875 51.859375 
L 48.828125 51.859375 
L 29.203125 0 
z
" id="ArialMT-118"/>
       <path d="M 42.09375 16.703125 
L 51.171875 15.578125 
Q 49.03125 7.625 43.21875 3.21875 
Q 37.40625 -1.171875 28.375 -1.171875 
Q 17 -1.171875 10.328125 5.828125 
Q 3.65625 12.84375 3.65625 25.484375 
Q 3.65625 38.578125 10.390625 45.796875 
Q 17.140625 53.03125 27.875 53.03125 
Q 38.28125 53.03125 44.875 45.953125 
Q 51.46875 38.875 51.46875 26.03125 
Q 51.46875 25.25 51.421875 23.6875 
L 12.75 23.6875 
Q 13.234375 15.140625 17.578125 10.59375 
Q 21.921875 6.0625 28.421875 6.0625 
Q 33.25 6.0625 36.671875 8.59375 
Q 40.09375 11.140625 42.09375 16.703125 
z
M 13.234375 30.90625 
L 42.1875 30.90625 
Q 41.609375 37.453125 38.875 40.71875 
Q 34.671875 45.796875 27.984375 45.796875 
Q 21.921875 45.796875 17.796875 41.75 
Q 13.671875 37.703125 13.234375 30.90625 
z
" id="ArialMT-101"/>
       <path d="M 6.5 0 
L 6.5 51.859375 
L 14.40625 51.859375 
L 14.40625 44 
Q 17.4375 49.515625 20 51.265625 
Q 22.5625 53.03125 25.640625 53.03125 
Q 30.078125 53.03125 34.671875 50.203125 
L 31.640625 42.046875 
Q 28.421875 43.953125 25.203125 43.953125 
Q 22.3125 43.953125 20.015625 42.21875 
Q 17.71875 40.484375 16.75 37.40625 
Q 15.28125 32.71875 15.28125 27.15625 
L 15.28125 0 
z
" id="ArialMT-114"/>
       <path d="M 3.078125 15.484375 
L 11.765625 16.84375 
Q 12.5 11.625 15.84375 8.84375 
Q 19.1875 6.0625 25.203125 6.0625 
Q 31.25 6.0625 34.171875 8.515625 
Q 37.109375 10.984375 37.109375 14.3125 
Q 37.109375 17.28125 34.515625 19 
Q 32.71875 20.171875 25.53125 21.96875 
Q 15.875 24.421875 12.140625 26.203125 
Q 8.40625 27.984375 6.46875 31.125 
Q 4.546875 34.28125 4.546875 38.09375 
Q 4.546875 41.546875 6.125 44.5 
Q 7.71875 47.46875 10.453125 49.421875 
Q 12.5 50.921875 16.03125 51.96875 
Q 19.578125 53.03125 23.640625 53.03125 
Q 29.734375 53.03125 34.34375 51.265625 
Q 38.96875 49.515625 41.15625 46.5 
Q 43.359375 43.5 44.1875 38.484375 
L 35.59375 37.3125 
Q 35.015625 41.3125 32.203125 43.546875 
Q 29.390625 45.796875 24.265625 45.796875 
Q 18.21875 45.796875 15.625 43.796875 
Q 13.03125 41.796875 13.03125 39.109375 
Q 13.03125 37.40625 14.109375 36.03125 
Q 15.1875 34.625 17.484375 33.6875 
Q 18.796875 33.203125 25.25 31.453125 
Q 34.578125 28.953125 38.25 27.359375 
Q 41.9375 25.78125 44.03125 22.75 
Q 46.140625 19.734375 46.140625 15.234375 
Q 46.140625 10.84375 43.578125 6.953125 
Q 41.015625 3.078125 36.171875 0.953125 
Q 31.34375 -1.171875 25.25 -1.171875 
Q 15.140625 -1.171875 9.84375 3.03125 
Q 4.546875 7.234375 3.078125 15.484375 
z
" id="ArialMT-115"/>
       <path d="M 25.78125 7.859375 
L 27.046875 0.09375 
Q 23.34375 -0.6875 20.40625 -0.6875 
Q 15.625 -0.6875 12.984375 0.828125 
Q 10.359375 2.34375 9.28125 4.8125 
Q 8.203125 7.28125 8.203125 15.1875 
L 8.203125 45.015625 
L 1.765625 45.015625 
L 1.765625 51.859375 
L 8.203125 51.859375 
L 8.203125 64.703125 
L 16.9375 69.96875 
L 16.9375 51.859375 
L 25.78125 51.859375 
L 25.78125 45.015625 
L 16.9375 45.015625 
L 16.9375 14.703125 
Q 16.9375 10.9375 17.40625 9.859375 
Q 17.875 8.796875 18.921875 8.15625 
Q 19.96875 7.515625 21.921875 7.515625 
Q 23.390625 7.515625 25.78125 7.859375 
z
" id="ArialMT-116"/>
      </defs>
      <use transform="translate(0 0.421875)" xlink:href="#DejaVuSans-Oblique-945"/>
      <use transform="translate(65.917969 0.421875)" xlink:href="#ArialMT-32"/>
      <use transform="translate(93.701172 0.421875)" xlink:href="#ArialMT-68"/>
      <use transform="translate(165.917969 0.421875)" xlink:href="#ArialMT-105"/>
      <use transform="translate(188.134766 0.421875)" xlink:href="#ArialMT-118"/>
      <use transform="translate(238.134766 0.421875)" xlink:href="#ArialMT-101"/>
      <use transform="translate(293.75 0.421875)" xlink:href="#ArialMT-114"/>
      <use transform="translate(327.050781 0.421875)" xlink:href="#ArialMT-115"/>
      <use transform="translate(377.050781 0.421875)" xlink:href="#ArialMT-105"/>
      <use transform="translate(399.267578 0.421875)" xlink:href="#ArialMT-116"/>
      <use transform="translate(427.050781 0.421875)" xlink:href="#ArialMT-121"/>
     </g>
     <!-- (shannon_entropy) -->
     <g style="fill:#262626;" transform="translate(77.759375 359.94375)rotate(-90)scale(0.34 -0.34)">
      <defs>
       <path d="M 23.390625 -21.046875 
Q 16.109375 -11.859375 11.078125 0.4375 
Q 6.0625 12.75 6.0625 25.921875 
Q 6.0625 37.546875 9.8125 48.1875 
Q 14.203125 60.546875 23.390625 72.796875 
L 29.6875 72.796875 
Q 23.78125 62.640625 21.875 58.296875 
Q 18.890625 51.5625 17.1875 44.234375 
Q 15.09375 35.109375 15.09375 25.875 
Q 15.09375 2.390625 29.6875 -21.046875 
z
" id="ArialMT-40"/>
       <path d="M 6.59375 0 
L 6.59375 71.578125 
L 15.375 71.578125 
L 15.375 45.90625 
Q 21.53125 53.03125 30.90625 53.03125 
Q 36.671875 53.03125 40.921875 50.75 
Q 45.171875 48.484375 47 44.484375 
Q 48.828125 40.484375 48.828125 32.859375 
L 48.828125 0 
L 40.046875 0 
L 40.046875 32.859375 
Q 40.046875 39.453125 37.1875 42.453125 
Q 34.328125 45.453125 29.109375 45.453125 
Q 25.203125 45.453125 21.75 43.421875 
Q 18.3125 41.40625 16.84375 37.9375 
Q 15.375 34.46875 15.375 28.375 
L 15.375 0 
z
" id="ArialMT-104"/>
       <path d="M 6.59375 0 
L 6.59375 51.859375 
L 14.5 51.859375 
L 14.5 44.484375 
Q 20.21875 53.03125 31 53.03125 
Q 35.6875 53.03125 39.625 51.34375 
Q 43.5625 49.65625 45.515625 46.921875 
Q 47.46875 44.1875 48.25 40.4375 
Q 48.734375 37.984375 48.734375 31.890625 
L 48.734375 0 
L 39.9375 0 
L 39.9375 31.546875 
Q 39.9375 36.921875 38.90625 39.578125 
Q 37.890625 42.234375 35.28125 43.8125 
Q 32.671875 45.40625 29.15625 45.40625 
Q 23.53125 45.40625 19.453125 41.84375 
Q 15.375 38.28125 15.375 28.328125 
L 15.375 0 
z
" id="ArialMT-110"/>
       <path d="M 3.328125 25.921875 
Q 3.328125 40.328125 11.328125 47.265625 
Q 18.015625 53.03125 27.640625 53.03125 
Q 38.328125 53.03125 45.109375 46.015625 
Q 51.90625 39.015625 51.90625 26.65625 
Q 51.90625 16.65625 48.90625 10.90625 
Q 45.90625 5.171875 40.15625 2 
Q 34.421875 -1.171875 27.640625 -1.171875 
Q 16.75 -1.171875 10.03125 5.8125 
Q 3.328125 12.796875 3.328125 25.921875 
z
M 12.359375 25.921875 
Q 12.359375 15.96875 16.703125 11.015625 
Q 21.046875 6.0625 27.640625 6.0625 
Q 34.1875 6.0625 38.53125 11.03125 
Q 42.875 16.015625 42.875 26.21875 
Q 42.875 35.84375 38.5 40.796875 
Q 34.125 45.75 27.640625 45.75 
Q 21.046875 45.75 16.703125 40.8125 
Q 12.359375 35.890625 12.359375 25.921875 
z
" id="ArialMT-111"/>
       <path d="M -1.515625 -19.875 
L -1.515625 -13.53125 
L 56.734375 -13.53125 
L 56.734375 -19.875 
z
" id="ArialMT-95"/>
       <path d="M 6.59375 -19.875 
L 6.59375 51.859375 
L 14.59375 51.859375 
L 14.59375 45.125 
Q 17.4375 49.078125 21 51.046875 
Q 24.5625 53.03125 29.640625 53.03125 
Q 36.28125 53.03125 41.359375 49.609375 
Q 46.4375 46.1875 49.015625 39.953125 
Q 51.609375 33.734375 51.609375 26.3125 
Q 51.609375 18.359375 48.75 11.984375 
Q 45.90625 5.609375 40.453125 2.21875 
Q 35.015625 -1.171875 29 -1.171875 
Q 24.609375 -1.171875 21.109375 0.6875 
Q 17.625 2.546875 15.375 5.375 
L 15.375 -19.875 
z
M 14.546875 25.640625 
Q 14.546875 15.625 18.59375 10.84375 
Q 22.65625 6.0625 28.421875 6.0625 
Q 34.28125 6.0625 38.453125 11.015625 
Q 42.625 15.96875 42.625 26.375 
Q 42.625 36.28125 38.546875 41.203125 
Q 34.46875 46.140625 28.8125 46.140625 
Q 23.1875 46.140625 18.859375 40.890625 
Q 14.546875 35.640625 14.546875 25.640625 
z
" id="ArialMT-112"/>
       <path d="M 12.359375 -21.046875 
L 6.0625 -21.046875 
Q 20.65625 2.390625 20.65625 25.875 
Q 20.65625 35.0625 18.5625 44.09375 
Q 16.890625 51.421875 13.921875 58.15625 
Q 12.015625 62.546875 6.0625 72.796875 
L 12.359375 72.796875 
Q 21.53125 60.546875 25.921875 48.1875 
Q 29.6875 37.546875 29.6875 25.921875 
Q 29.6875 12.75 24.625 0.4375 
Q 19.578125 -11.859375 12.359375 -21.046875 
z
" id="ArialMT-41"/>
      </defs>
      <use xlink:href="#ArialMT-40"/>
      <use x="33.300781" xlink:href="#ArialMT-115"/>
      <use x="83.300781" xlink:href="#ArialMT-104"/>
      <use x="138.916016" xlink:href="#ArialMT-97"/>
      <use x="194.53125" xlink:href="#ArialMT-110"/>
      <use x="250.146484" xlink:href="#ArialMT-110"/>
      <use x="305.761719" xlink:href="#ArialMT-111"/>
      <use x="361.376953" xlink:href="#ArialMT-110"/>
      <use x="416.992188" xlink:href="#ArialMT-95"/>
      <use x="472.607422" xlink:href="#ArialMT-101"/>
      <use x="528.222656" xlink:href="#ArialMT-110"/>
      <use x="583.837891" xlink:href="#ArialMT-116"/>
      <use x="611.621094" xlink:href="#ArialMT-114"/>
      <use x="644.921875" xlink:href="#ArialMT-111"/>
      <use x="700.537109" xlink:href="#ArialMT-112"/>
      <use x="756.152344" xlink:href="#ArialMT-121"/>
      <use x="806.152344" xlink:href="#ArialMT-41"/>
     </g>
    </g>
   </g>
   <g id="patch_3">
    <path clip-path="url(#p1f9273ec71)" d="M 141.913538 189.359565 
L 161.767324 189.359565 
L 161.767324 119.957427 
L 141.913538 119.957427 
L 141.913538 189.359565 
z
" style="fill:#e69087;stroke:#666666;stroke-linejoin:miter;stroke-width:3;"/>
   </g>
   <g id="patch_4">
    <path clip-path="url(#p1f9273ec71)" d="M 162.172503 138.441495 
L 182.02629 138.441495 
L 182.02629 108.393301 
L 162.172503 108.393301 
L 162.172503 138.441495 
z
" style="fill:#8cafc7;stroke:#666666;stroke-linejoin:miter;stroke-width:3;"/>
   </g>
   <g id="patch_5">
    <path clip-path="url(#p1f9273ec71)" d="M 222.9494 269.577214 
L 242.803186 269.577214 
L 242.803186 145.145334 
L 222.9494 145.145334 
L 222.9494 269.577214 
z
" style="fill:#e69087;stroke:#666666;stroke-linejoin:miter;stroke-width:3;"/>
   </g>
   <g id="patch_6">
    <path clip-path="url(#p1f9273ec71)" d="M 243.208366 140.549173 
L 263.062152 140.549173 
L 263.062152 121.552401 
L 243.208366 121.552401 
L 243.208366 140.549173 
z
" style="fill:#8cafc7;stroke:#666666;stroke-linejoin:miter;stroke-width:3;"/>
   </g>
   <g id="patch_7">
    <path clip-path="url(#p1f9273ec71)" d="M 303.985262 343.467222 
L 323.839048 343.467222 
L 323.839048 227.169265 
L 303.985262 227.169265 
L 303.985262 343.467222 
z
" style="fill:#e69087;stroke:#666666;stroke-linejoin:miter;stroke-width:3;"/>
   </g>
   <g id="patch_8">
    <path clip-path="url(#p1f9273ec71)" d="M 324.244228 187.548754 
L 344.098014 187.548754 
L 344.098014 135.953756 
L 324.244228 135.953756 
L 324.244228 187.548754 
z
" style="fill:#8cafc7;stroke:#666666;stroke-linejoin:miter;stroke-width:3;"/>
   </g>
   <g id="patch_9">
    <path clip-path="url(#p1f9273ec71)" d="M 385.021124 340.302245 
L 404.87491 340.302245 
L 404.87491 220.972713 
L 385.021124 220.972713 
L 385.021124 340.302245 
z
" style="fill:#e69087;stroke:#666666;stroke-linejoin:miter;stroke-width:3;"/>
   </g>
   <g id="patch_10">
    <path clip-path="url(#p1f9273ec71)" d="M 405.28009 181.905073 
L 425.133876 181.905073 
L 425.133876 151.540725 
L 405.28009 151.540725 
L 405.28009 181.905073 
z
" style="fill:#8cafc7;stroke:#666666;stroke-linejoin:miter;stroke-width:3;"/>
   </g>
   <g id="patch_11">
    <path clip-path="url(#p1f9273ec71)" d="M 466.056986 217.424418 
L 485.910772 217.424418 
L 485.910772 146.243897 
L 466.056986 146.243897 
L 466.056986 217.424418 
z
" style="fill:#e69087;stroke:#666666;stroke-linejoin:miter;stroke-width:3;"/>
   </g>
   <g id="patch_12">
    <path clip-path="url(#p1f9273ec71)" d="M 486.315952 178.248523 
L 506.169738 178.248523 
L 506.169738 123.925939 
L 486.315952 123.925939 
L 486.315952 178.248523 
z
" style="fill:#8cafc7;stroke:#666666;stroke-linejoin:miter;stroke-width:3;"/>
   </g>
   <g id="patch_13">
    <path clip-path="url(#p1f9273ec71)" d="M 547.092848 223.943358 
L 566.946634 223.943358 
L 566.946634 144.132848 
L 547.092848 144.132848 
L 547.092848 223.943358 
z
" style="fill:#e69087;stroke:#666666;stroke-linejoin:miter;stroke-width:3;"/>
   </g>
   <g id="patch_14">
    <path clip-path="url(#p1f9273ec71)" d="M 567.351814 165.533874 
L 587.2056 165.533874 
L 587.2056 116.723419 
L 567.351814 116.723419 
L 567.351814 165.533874 
z
" style="fill:#8cafc7;stroke:#666666;stroke-linejoin:miter;stroke-width:3;"/>
   </g>
   <g id="patch_15">
    <path clip-path="url(#p1f9273ec71)" d="M 628.12871 171.820132 
L 647.982497 171.820132 
L 647.982497 126.458213 
L 628.12871 126.458213 
L 628.12871 171.820132 
z
" style="fill:#e69087;stroke:#666666;stroke-linejoin:miter;stroke-width:3;"/>
   </g>
   <g id="patch_16">
    <path clip-path="url(#p1f9273ec71)" d="M 648.387676 161.771911 
L 668.241462 161.771911 
L 668.241462 123.122118 
L 648.387676 123.122118 
L 648.387676 161.771911 
z
" style="fill:#8cafc7;stroke:#666666;stroke-linejoin:miter;stroke-width:3;"/>
   </g>
   <g id="patch_17">
    <path clip-path="url(#p1f9273ec71)" d="M 161.969914 543.272633 
L 161.969914 543.272633 
L 161.969914 543.272633 
L 161.969914 543.272633 
z
" style="fill:#e69087;stroke:#666666;stroke-linejoin:miter;stroke-width:1.5;"/>
   </g>
   <g id="patch_18">
    <path clip-path="url(#p1f9273ec71)" d="M 161.969914 543.272633 
L 161.969914 543.272633 
L 161.969914 543.272633 
L 161.969914 543.272633 
z
" style="fill:#8cafc7;stroke:#666666;stroke-linejoin:miter;stroke-width:1.5;"/>
   </g>
   <g id="line2d_27">
    <path clip-path="url(#p1f9273ec71)" d="M 151.840431 189.359565 
L 151.840431 262.578584 
" style="fill:none;stroke:#666666;stroke-linecap:round;stroke-width:3;"/>
   </g>
   <g id="line2d_28">
    <path clip-path="url(#p1f9273ec71)" d="M 151.840431 119.957427 
L 151.840431 82.433083 
" style="fill:none;stroke:#666666;stroke-linecap:round;stroke-width:3;"/>
   </g>
   <g id="line2d_29">
    <path clip-path="url(#p1f9273ec71)" d="M 146.876984 262.578584 
L 156.803878 262.578584 
" style="fill:none;stroke:#666666;stroke-linecap:round;stroke-width:3;"/>
   </g>
   <g id="line2d_30">
    <path clip-path="url(#p1f9273ec71)" d="M 146.876984 82.433083 
L 156.803878 82.433083 
" style="fill:none;stroke:#666666;stroke-linecap:round;stroke-width:3;"/>
   </g>
   <g id="line2d_31">
    <path clip-path="url(#p1f9273ec71)" d="M 172.099397 138.441495 
L 172.099397 156.311927 
" style="fill:none;stroke:#666666;stroke-linecap:round;stroke-width:3;"/>
   </g>
   <g id="line2d_32">
    <path clip-path="url(#p1f9273ec71)" d="M 172.099397 108.393301 
L 172.099397 97.582498 
" style="fill:none;stroke:#666666;stroke-linecap:round;stroke-width:3;"/>
   </g>
   <g id="line2d_33">
    <path clip-path="url(#p1f9273ec71)" d="M 167.13595 156.311927 
L 177.062843 156.311927 
" style="fill:none;stroke:#666666;stroke-linecap:round;stroke-width:3;"/>
   </g>
   <g id="line2d_34">
    <path clip-path="url(#p1f9273ec71)" d="M 167.13595 97.582498 
L 177.062843 97.582498 
" style="fill:none;stroke:#666666;stroke-linecap:round;stroke-width:3;"/>
   </g>
   <g id="line2d_35">
    <path clip-path="url(#p1f9273ec71)" d="M 232.876293 269.577214 
L 232.876293 383.00232 
" style="fill:none;stroke:#666666;stroke-linecap:round;stroke-width:3;"/>
   </g>
   <g id="line2d_36">
    <path clip-path="url(#p1f9273ec71)" d="M 232.876293 145.145334 
L 232.876293 105.576162 
" style="fill:none;stroke:#666666;stroke-linecap:round;stroke-width:3;"/>
   </g>
   <g id="line2d_37">
    <path clip-path="url(#p1f9273ec71)" d="M 227.912847 383.00232 
L 237.83974 383.00232 
" style="fill:none;stroke:#666666;stroke-linecap:round;stroke-width:3;"/>
   </g>
   <g id="line2d_38">
    <path clip-path="url(#p1f9273ec71)" d="M 227.912847 105.576162 
L 237.83974 105.576162 
" style="fill:none;stroke:#666666;stroke-linecap:round;stroke-width:3;"/>
   </g>
   <g id="line2d_39">
    <path clip-path="url(#p1f9273ec71)" d="M 253.135259 140.549173 
L 253.135259 145.733674 
" style="fill:none;stroke:#666666;stroke-linecap:round;stroke-width:3;"/>
   </g>
   <g id="line2d_40">
    <path clip-path="url(#p1f9273ec71)" d="M 253.135259 121.552401 
L 253.135259 97.575099 
" style="fill:none;stroke:#666666;stroke-linecap:round;stroke-width:3;"/>
   </g>
   <g id="line2d_41">
    <path clip-path="url(#p1f9273ec71)" d="M 248.171812 145.733674 
L 258.098705 145.733674 
" style="fill:none;stroke:#666666;stroke-linecap:round;stroke-width:3;"/>
   </g>
   <g id="line2d_42">
    <path clip-path="url(#p1f9273ec71)" d="M 248.171812 97.575099 
L 258.098705 97.575099 
" style="fill:none;stroke:#666666;stroke-linecap:round;stroke-width:3;"/>
   </g>
   <g id="line2d_43">
    <path clip-path="url(#p1f9273ec71)" d="M 313.912155 343.467222 
L 313.912155 398.547952 
" style="fill:none;stroke:#666666;stroke-linecap:round;stroke-width:3;"/>
   </g>
   <g id="line2d_44">
    <path clip-path="url(#p1f9273ec71)" d="M 313.912155 227.169265 
L 313.912155 138.015291 
" style="fill:none;stroke:#666666;stroke-linecap:round;stroke-width:3;"/>
   </g>
   <g id="line2d_45">
    <path clip-path="url(#p1f9273ec71)" d="M 308.948709 398.547952 
L 318.875602 398.547952 
" style="fill:none;stroke:#666666;stroke-linecap:round;stroke-width:3;"/>
   </g>
   <g id="line2d_46">
    <path clip-path="url(#p1f9273ec71)" d="M 308.948709 138.015291 
L 318.875602 138.015291 
" style="fill:none;stroke:#666666;stroke-linecap:round;stroke-width:3;"/>
   </g>
   <g id="line2d_47">
    <path clip-path="url(#p1f9273ec71)" d="M 334.171121 187.548754 
L 334.171121 225.325941 
" style="fill:none;stroke:#666666;stroke-linecap:round;stroke-width:3;"/>
   </g>
   <g id="line2d_48">
    <path clip-path="url(#p1f9273ec71)" d="M 334.171121 135.953756 
L 334.171121 103.035608 
" style="fill:none;stroke:#666666;stroke-linecap:round;stroke-width:3;"/>
   </g>
   <g id="line2d_49">
    <path clip-path="url(#p1f9273ec71)" d="M 329.207674 225.325941 
L 339.134567 225.325941 
" style="fill:none;stroke:#666666;stroke-linecap:round;stroke-width:3;"/>
   </g>
   <g id="line2d_50">
    <path clip-path="url(#p1f9273ec71)" d="M 329.207674 103.035608 
L 339.134567 103.035608 
" style="fill:none;stroke:#666666;stroke-linecap:round;stroke-width:3;"/>
   </g>
   <g id="line2d_51">
    <path clip-path="url(#p1f9273ec71)" d="M 394.948017 340.302245 
L 394.948017 405.392052 
" style="fill:none;stroke:#666666;stroke-linecap:round;stroke-width:3;"/>
   </g>
   <g id="line2d_52">
    <path clip-path="url(#p1f9273ec71)" d="M 394.948017 220.972713 
L 394.948017 120.7667 
" style="fill:none;stroke:#666666;stroke-linecap:round;stroke-width:3;"/>
   </g>
   <g id="line2d_53">
    <path clip-path="url(#p1f9273ec71)" d="M 389.984571 405.392052 
L 399.911464 405.392052 
" style="fill:none;stroke:#666666;stroke-linecap:round;stroke-width:3;"/>
   </g>
   <g id="line2d_54">
    <path clip-path="url(#p1f9273ec71)" d="M 389.984571 120.7667 
L 399.911464 120.7667 
" style="fill:none;stroke:#666666;stroke-linecap:round;stroke-width:3;"/>
   </g>
   <g id="line2d_55">
    <path clip-path="url(#p1f9273ec71)" d="M 415.206983 181.905073 
L 415.206983 210.749368 
" style="fill:none;stroke:#666666;stroke-linecap:round;stroke-width:3;"/>
   </g>
   <g id="line2d_56">
    <path clip-path="url(#p1f9273ec71)" d="M 415.206983 151.540725 
L 415.206983 106.269455 
" style="fill:none;stroke:#666666;stroke-linecap:round;stroke-width:3;"/>
   </g>
   <g id="line2d_57">
    <path clip-path="url(#p1f9273ec71)" d="M 410.243536 210.749368 
L 420.170429 210.749368 
" style="fill:none;stroke:#666666;stroke-linecap:round;stroke-width:3;"/>
   </g>
   <g id="line2d_58">
    <path clip-path="url(#p1f9273ec71)" d="M 410.243536 106.269455 
L 420.170429 106.269455 
" style="fill:none;stroke:#666666;stroke-linecap:round;stroke-width:3;"/>
   </g>
   <g id="line2d_59">
    <path clip-path="url(#p1f9273ec71)" d="M 475.983879 217.424418 
L 475.983879 247.087824 
" style="fill:none;stroke:#666666;stroke-linecap:round;stroke-width:3;"/>
   </g>
   <g id="line2d_60">
    <path clip-path="url(#p1f9273ec71)" d="M 475.983879 146.243897 
L 475.983879 118.723825 
" style="fill:none;stroke:#666666;stroke-linecap:round;stroke-width:3;"/>
   </g>
   <g id="line2d_61">
    <path clip-path="url(#p1f9273ec71)" d="M 471.020433 247.087824 
L 480.947326 247.087824 
" style="fill:none;stroke:#666666;stroke-linecap:round;stroke-width:3;"/>
   </g>
   <g id="line2d_62">
    <path clip-path="url(#p1f9273ec71)" d="M 471.020433 118.723825 
L 480.947326 118.723825 
" style="fill:none;stroke:#666666;stroke-linecap:round;stroke-width:3;"/>
   </g>
   <g id="line2d_63">
    <path clip-path="url(#p1f9273ec71)" d="M 496.242845 178.248523 
L 496.242845 249.503815 
" style="fill:none;stroke:#666666;stroke-linecap:round;stroke-width:3;"/>
   </g>
   <g id="line2d_64">
    <path clip-path="url(#p1f9273ec71)" d="M 496.242845 123.925939 
L 496.242845 108.830228 
" style="fill:none;stroke:#666666;stroke-linecap:round;stroke-width:3;"/>
   </g>
   <g id="line2d_65">
    <path clip-path="url(#p1f9273ec71)" d="M 491.279398 249.503815 
L 501.206291 249.503815 
" style="fill:none;stroke:#666666;stroke-linecap:round;stroke-width:3;"/>
   </g>
   <g id="line2d_66">
    <path clip-path="url(#p1f9273ec71)" d="M 491.279398 108.830228 
L 501.206291 108.830228 
" style="fill:none;stroke:#666666;stroke-linecap:round;stroke-width:3;"/>
   </g>
   <g id="line2d_67">
    <path clip-path="url(#p1f9273ec71)" d="M 557.019741 223.943358 
L 557.019741 324.58757 
" style="fill:none;stroke:#666666;stroke-linecap:round;stroke-width:3;"/>
   </g>
   <g id="line2d_68">
    <path clip-path="url(#p1f9273ec71)" d="M 557.019741 144.132848 
L 557.019741 121.617454 
" style="fill:none;stroke:#666666;stroke-linecap:round;stroke-width:3;"/>
   </g>
   <g id="line2d_69">
    <path clip-path="url(#p1f9273ec71)" d="M 552.056295 324.58757 
L 561.983188 324.58757 
" style="fill:none;stroke:#666666;stroke-linecap:round;stroke-width:3;"/>
   </g>
   <g id="line2d_70">
    <path clip-path="url(#p1f9273ec71)" d="M 552.056295 121.617454 
L 561.983188 121.617454 
" style="fill:none;stroke:#666666;stroke-linecap:round;stroke-width:3;"/>
   </g>
   <g id="line2d_71">
    <path clip-path="url(#p1f9273ec71)" d="M 577.278707 165.533874 
L 577.278707 185.922149 
" style="fill:none;stroke:#666666;stroke-linecap:round;stroke-width:3;"/>
   </g>
   <g id="line2d_72">
    <path clip-path="url(#p1f9273ec71)" d="M 577.278707 116.723419 
L 577.278707 109.744778 
" style="fill:none;stroke:#666666;stroke-linecap:round;stroke-width:3;"/>
   </g>
   <g id="line2d_73">
    <path clip-path="url(#p1f9273ec71)" d="M 572.31526 185.922149 
L 582.242153 185.922149 
" style="fill:none;stroke:#666666;stroke-linecap:round;stroke-width:3;"/>
   </g>
   <g id="line2d_74">
    <path clip-path="url(#p1f9273ec71)" d="M 572.31526 109.744778 
L 582.242153 109.744778 
" style="fill:none;stroke:#666666;stroke-linecap:round;stroke-width:3;"/>
   </g>
   <g id="line2d_75">
    <path clip-path="url(#p1f9273ec71)" d="M 638.055603 171.820132 
L 638.055603 233.533892 
" style="fill:none;stroke:#666666;stroke-linecap:round;stroke-width:3;"/>
   </g>
   <g id="line2d_76">
    <path clip-path="url(#p1f9273ec71)" d="M 638.055603 126.458213 
L 638.055603 110.388932 
" style="fill:none;stroke:#666666;stroke-linecap:round;stroke-width:3;"/>
   </g>
   <g id="line2d_77">
    <path clip-path="url(#p1f9273ec71)" d="M 633.092157 233.533892 
L 643.01905 233.533892 
" style="fill:none;stroke:#666666;stroke-linecap:round;stroke-width:3;"/>
   </g>
   <g id="line2d_78">
    <path clip-path="url(#p1f9273ec71)" d="M 633.092157 110.388932 
L 643.01905 110.388932 
" style="fill:none;stroke:#666666;stroke-linecap:round;stroke-width:3;"/>
   </g>
   <g id="line2d_79">
    <path clip-path="url(#p1f9273ec71)" d="M 658.314569 161.771911 
L 658.314569 172.210281 
" style="fill:none;stroke:#666666;stroke-linecap:round;stroke-width:3;"/>
   </g>
   <g id="line2d_80">
    <path clip-path="url(#p1f9273ec71)" d="M 658.314569 123.122118 
L 658.314569 108.948816 
" style="fill:none;stroke:#666666;stroke-linecap:round;stroke-width:3;"/>
   </g>
   <g id="line2d_81">
    <path clip-path="url(#p1f9273ec71)" d="M 653.351122 172.210281 
L 663.278016 172.210281 
" style="fill:none;stroke:#666666;stroke-linecap:round;stroke-width:3;"/>
   </g>
   <g id="line2d_82">
    <path clip-path="url(#p1f9273ec71)" d="M 653.351122 108.948816 
L 663.278016 108.948816 
" style="fill:none;stroke:#666666;stroke-linecap:round;stroke-width:3;"/>
   </g>
   <g id="line2d_83">
    <path clip-path="url(#p1f9273ec71)" d="M 226.798603 76.259807 
L 226.798603 72.707258 
L 259.212948 72.707258 
L 259.212948 76.259807 
" style="fill:none;stroke:#333333;stroke-linecap:round;stroke-width:1.5;"/>
   </g>
   <g id="line2d_84">
    <path clip-path="url(#p1f9273ec71)" d="M 145.762741 61.117791 
L 145.762741 57.565242 
L 178.177086 57.565242 
L 178.177086 61.117791 
" style="fill:none;stroke:#333333;stroke-linecap:round;stroke-width:1.5;"/>
   </g>
   <g id="line2d_85">
    <path clip-path="url(#p1f9273ec71)" d="M 307.834466 81.720316 
L 307.834466 78.167768 
L 340.24881 78.167768 
L 340.24881 81.720316 
" style="fill:none;stroke:#333333;stroke-linecap:round;stroke-width:1.5;"/>
   </g>
   <g id="line2d_86">
    <path clip-path="url(#p1f9273ec71)" d="M 388.870328 71.993666 
L 388.870328 68.441118 
L 421.284672 68.441118 
L 421.284672 71.993666 
" style="fill:none;stroke:#333333;stroke-linecap:round;stroke-width:1.5;"/>
   </g>
   <g id="line2d_87">
    <path clip-path="url(#p1f9273ec71)" d="M 469.90619 87.514936 
L 469.90619 83.962388 
L 502.320534 83.962388 
L 502.320534 87.514936 
" style="fill:none;stroke:#333333;stroke-linecap:round;stroke-width:1.5;"/>
   </g>
   <g id="line2d_88">
    <path clip-path="url(#p1f9273ec71)" d="M 550.942052 88.429486 
L 550.942052 84.876937 
L 583.356397 84.876937 
L 583.356397 88.429486 
" style="fill:none;stroke:#333333;stroke-linecap:round;stroke-width:1.5;"/>
   </g>
   <g id="line2d_89">
    <path clip-path="url(#p1f9273ec71)" d="M 631.977914 87.633524 
L 631.977914 84.080976 
L 664.392259 84.080976 
L 664.392259 87.633524 
" style="fill:none;stroke:#333333;stroke-linecap:round;stroke-width:1.5;"/>
   </g>
   <g id="line2d_90">
    <path clip-path="url(#p1f9273ec71)" d="M 141.913538 152.035611 
L 161.767324 152.035611 
" style="fill:none;stroke:#666666;stroke-linecap:round;stroke-width:3;"/>
   </g>
   <g id="line2d_91">
    <path clip-path="url(#p1f9273ec71)" d="M 162.172503 115.980102 
L 182.02629 115.980102 
" style="fill:none;stroke:#666666;stroke-linecap:round;stroke-width:3;"/>
   </g>
   <g id="line2d_92">
    <path clip-path="url(#p1f9273ec71)" d="M 222.9494 196.71952 
L 242.803186 196.71952 
" style="fill:none;stroke:#666666;stroke-linecap:round;stroke-width:3;"/>
   </g>
   <g id="line2d_93">
    <path clip-path="url(#p1f9273ec71)" d="M 243.208366 128.794469 
L 263.062152 128.794469 
" style="fill:none;stroke:#666666;stroke-linecap:round;stroke-width:3;"/>
   </g>
   <g id="line2d_94">
    <path clip-path="url(#p1f9273ec71)" d="M 303.985262 300.169555 
L 323.839048 300.169555 
" style="fill:none;stroke:#666666;stroke-linecap:round;stroke-width:3;"/>
   </g>
   <g id="line2d_95">
    <path clip-path="url(#p1f9273ec71)" d="M 324.244228 165.19684 
L 344.098014 165.19684 
" style="fill:none;stroke:#666666;stroke-linecap:round;stroke-width:3;"/>
   </g>
   <g id="line2d_96">
    <path clip-path="url(#p1f9273ec71)" d="M 385.021124 259.710412 
L 404.87491 259.710412 
" style="fill:none;stroke:#666666;stroke-linecap:round;stroke-width:3;"/>
   </g>
   <g id="line2d_97">
    <path clip-path="url(#p1f9273ec71)" d="M 405.28009 166.354834 
L 425.133876 166.354834 
" style="fill:none;stroke:#666666;stroke-linecap:round;stroke-width:3;"/>
   </g>
   <g id="line2d_98">
    <path clip-path="url(#p1f9273ec71)" d="M 466.056986 174.092203 
L 485.910772 174.092203 
" style="fill:none;stroke:#666666;stroke-linecap:round;stroke-width:3;"/>
   </g>
   <g id="line2d_99">
    <path clip-path="url(#p1f9273ec71)" d="M 486.315952 144.524251 
L 506.169738 144.524251 
" style="fill:none;stroke:#666666;stroke-linecap:round;stroke-width:3;"/>
   </g>
   <g id="line2d_100">
    <path clip-path="url(#p1f9273ec71)" d="M 547.092848 176.563462 
L 566.946634 176.563462 
" style="fill:none;stroke:#666666;stroke-linecap:round;stroke-width:3;"/>
   </g>
   <g id="line2d_101">
    <path clip-path="url(#p1f9273ec71)" d="M 567.351814 129.41973 
L 587.2056 129.41973 
" style="fill:none;stroke:#666666;stroke-linecap:round;stroke-width:3;"/>
   </g>
   <g id="line2d_102">
    <path clip-path="url(#p1f9273ec71)" d="M 628.12871 151.203478 
L 647.982497 151.203478 
" style="fill:none;stroke:#666666;stroke-linecap:round;stroke-width:3;"/>
   </g>
   <g id="line2d_103">
    <path clip-path="url(#p1f9273ec71)" d="M 648.387676 137.72663 
L 668.241462 137.72663 
" style="fill:none;stroke:#666666;stroke-linecap:round;stroke-width:3;"/>
   </g>
   <g id="patch_19">
    <path d="M 111.3225 421.54 
L 111.3225 12.96 
" style="fill:none;stroke:#262626;stroke-linecap:square;stroke-linejoin:miter;stroke-width:4;"/>
   </g>
   <g id="patch_20">
    <path d="M 698.8325 421.54 
L 698.8325 12.96 
" style="fill:none;stroke:#262626;stroke-linecap:square;stroke-linejoin:miter;stroke-width:4;"/>
   </g>
   <g id="patch_21">
    <path d="M 111.3225 421.54 
L 698.8325 421.54 
" style="fill:none;stroke:#262626;stroke-linecap:square;stroke-linejoin:miter;stroke-width:4;"/>
   </g>
   <g id="patch_22">
    <path d="M 111.3225 12.96 
L 698.8325 12.96 
" style="fill:none;stroke:#262626;stroke-linecap:square;stroke-linejoin:miter;stroke-width:4;"/>
   </g>
   <g id="text_16">
    <!-- ns -->
    <g style="fill:#262626;" transform="translate(227.16437 65.744758)scale(0.3 -0.3)">
     <use xlink:href="#ArialMT-110"/>
     <use x="55.615234" xlink:href="#ArialMT-115"/>
    </g>
   </g>
   <g id="text_17">
    <!-- ns -->
    <g style="fill:#262626;" transform="translate(146.128508 50.602742)scale(0.3 -0.3)">
     <use xlink:href="#ArialMT-110"/>
     <use x="55.615234" xlink:href="#ArialMT-115"/>
    </g>
   </g>
   <g id="text_18">
    <!-- * -->
    <g style="fill:#262626;" transform="translate(318.203357 71.205268)scale(0.3 -0.3)">
     <defs>
      <path d="M 3.125 58.453125 
L 5.375 65.375 
Q 13.140625 62.640625 16.65625 60.640625 
Q 15.71875 69.484375 15.671875 72.796875 
L 22.75 72.796875 
Q 22.609375 67.96875 21.625 60.6875 
Q 26.65625 63.234375 33.15625 65.375 
L 35.40625 58.453125 
Q 29.203125 56.390625 23.25 55.71875 
Q 26.21875 53.125 31.640625 46.484375 
L 25.78125 42.328125 
Q 22.953125 46.1875 19.09375 52.828125 
Q 15.484375 45.953125 12.75 42.328125 
L 6.984375 46.484375 
Q 12.640625 53.46875 15.09375 55.71875 
Q 8.796875 56.9375 3.125 58.453125 
z
" id="ArialMT-42"/>
     </defs>
     <use xlink:href="#ArialMT-42"/>
    </g>
   </g>
   <g id="text_19">
    <!-- ns -->
    <g style="fill:#262626;" transform="translate(389.236094 61.478618)scale(0.3 -0.3)">
     <use xlink:href="#ArialMT-110"/>
     <use x="55.615234" xlink:href="#ArialMT-115"/>
    </g>
   </g>
   <g id="text_20">
    <!-- ns -->
    <g style="fill:#262626;" transform="translate(470.271956 76.999888)scale(0.3 -0.3)">
     <use xlink:href="#ArialMT-110"/>
     <use x="55.615234" xlink:href="#ArialMT-115"/>
    </g>
   </g>
   <g id="text_21">
    <!-- ns -->
    <g style="fill:#262626;" transform="translate(551.307818 77.914437)scale(0.3 -0.3)">
     <use xlink:href="#ArialMT-110"/>
     <use x="55.615234" xlink:href="#ArialMT-115"/>
    </g>
   </g>
   <g id="text_22">
    <!-- ns -->
    <g style="fill:#262626;" transform="translate(632.34368 77.118476)scale(0.3 -0.3)">
     <use xlink:href="#ArialMT-110"/>
     <use x="55.615234" xlink:href="#ArialMT-115"/>
    </g>
   </g>
   <g id="legend_1">
    <g id="patch_23">
     <path d="M 507.8525 409.54 
L 682.0325 409.54 
Q 686.8325 409.54 686.8325 404.74 
L 686.8325 339.2425 
Q 686.8325 334.4425 682.0325 334.4425 
L 507.8525 334.4425 
Q 503.0525 334.4425 503.0525 339.2425 
L 503.0525 404.74 
Q 503.0525 409.54 507.8525 409.54 
z
" style="fill:#ffffff;opacity:0.8;stroke:#cccccc;stroke-linejoin:miter;"/>
    </g>
    <g id="patch_24">
     <path d="M 512.6525 361.22125 
L 560.6525 361.22125 
L 560.6525 344.42125 
L 512.6525 344.42125 
z
" style="fill:#e69087;stroke:#666666;stroke-linejoin:miter;stroke-width:1.5;"/>
    </g>
    <g id="text_23">
     <!-- AAD -->
     <g style="fill:#262626;" transform="translate(579.8525 361.22125)scale(0.24 -0.24)">
      <defs>
       <path d="M -0.140625 0 
L 27.34375 71.578125 
L 37.546875 71.578125 
L 66.84375 0 
L 56.0625 0 
L 47.703125 21.6875 
L 17.78125 21.6875 
L 9.90625 0 
z
M 20.515625 29.390625 
L 44.78125 29.390625 
L 37.3125 49.21875 
Q 33.890625 58.25 32.234375 64.0625 
Q 30.859375 57.171875 28.375 50.390625 
z
" id="ArialMT-65"/>
      </defs>
      <use xlink:href="#ArialMT-65"/>
      <use x="66.699219" xlink:href="#ArialMT-65"/>
      <use x="133.398438" xlink:href="#ArialMT-68"/>
     </g>
    </g>
    <g id="patch_25">
     <path d="M 512.6525 395.17 
L 560.6525 395.17 
L 560.6525 378.37 
L 512.6525 378.37 
z
" style="fill:#8cafc7;stroke:#666666;stroke-linejoin:miter;stroke-width:1.5;"/>
    </g>
    <g id="text_24">
     <!-- non-AAD -->
     <g style="fill:#262626;" transform="translate(579.8525 395.17)scale(0.24 -0.24)">
      <defs>
       <path d="M 3.171875 21.484375 
L 3.171875 30.328125 
L 30.171875 30.328125 
L 30.171875 21.484375 
z
" id="ArialMT-45"/>
      </defs>
      <use xlink:href="#ArialMT-110"/>
      <use x="55.615234" xlink:href="#ArialMT-111"/>
      <use x="111.230469" xlink:href="#ArialMT-110"/>
      <use x="166.845703" xlink:href="#ArialMT-45"/>
      <use x="200.146484" xlink:href="#ArialMT-65"/>
      <use x="266.845703" xlink:href="#ArialMT-65"/>
      <use x="333.544922" xlink:href="#ArialMT-68"/>
     </g>
    </g>
   </g>
  </g>
  <g id="axes_2">
   <g id="patch_26">
    <path d="M 839.53 421.54 
L 1427.04 421.54 
L 1427.04 12.96 
L 839.53 12.96 
z
" style="fill:#ffffff;"/>
   </g>
   <g id="matplotlib.axis_3">
    <g id="xtick_8">
     <g id="line2d_104">
      <path clip-path="url(#pfe1feefe8c)" d="M 898.281 421.54 
L 898.281 12.96 
" style="fill:none;stroke:#cccccc;stroke-dasharray:1,1.65;stroke-dashoffset:0;"/>
     </g>
     <g id="line2d_105">
      <g>
       <use style="fill:#262626;stroke:#262626;stroke-width:1.25;" x="898.281" xlink:href="#m4bfbfdc76f" y="421.54"/>
      </g>
     </g>
     <g id="text_25">
      <!-- 1 -->
      <g style="fill:#262626;" transform="translate(888.827406 449.376562)scale(0.34 -0.34)">
       <use xlink:href="#ArialMT-49"/>
      </g>
     </g>
    </g>
    <g id="xtick_9">
     <g id="line2d_106">
      <path clip-path="url(#pfe1feefe8c)" d="M 992.2826 421.54 
L 992.2826 12.96 
" style="fill:none;stroke:#cccccc;stroke-dasharray:1,1.65;stroke-dashoffset:0;"/>
     </g>
     <g id="line2d_107">
      <g>
       <use style="fill:#262626;stroke:#262626;stroke-width:1.25;" x="992.2826" xlink:href="#m4bfbfdc76f" y="421.54"/>
      </g>
     </g>
     <g id="text_26">
      <!-- 2 -->
      <g style="fill:#262626;" transform="translate(982.829006 449.376562)scale(0.34 -0.34)">
       <use xlink:href="#ArialMT-50"/>
      </g>
     </g>
    </g>
    <g id="xtick_10">
     <g id="line2d_108">
      <path clip-path="url(#pfe1feefe8c)" d="M 1086.2842 421.54 
L 1086.2842 12.96 
" style="fill:none;stroke:#cccccc;stroke-dasharray:1,1.65;stroke-dashoffset:0;"/>
     </g>
     <g id="line2d_109">
      <g>
       <use style="fill:#262626;stroke:#262626;stroke-width:1.25;" x="1086.2842" xlink:href="#m4bfbfdc76f" y="421.54"/>
      </g>
     </g>
     <g id="text_27">
      <!-- 3 -->
      <g style="fill:#262626;" transform="translate(1076.830606 449.376562)scale(0.34 -0.34)">
       <use xlink:href="#ArialMT-51"/>
      </g>
     </g>
    </g>
    <g id="xtick_11">
     <g id="line2d_110">
      <path clip-path="url(#pfe1feefe8c)" d="M 1180.2858 421.54 
L 1180.2858 12.96 
" style="fill:none;stroke:#cccccc;stroke-dasharray:1,1.65;stroke-dashoffset:0;"/>
     </g>
     <g id="line2d_111">
      <g>
       <use style="fill:#262626;stroke:#262626;stroke-width:1.25;" x="1180.2858" xlink:href="#m4bfbfdc76f" y="421.54"/>
      </g>
     </g>
     <g id="text_28">
      <!-- 7 -->
      <g style="fill:#262626;" transform="translate(1170.832206 449.376562)scale(0.34 -0.34)">
       <use xlink:href="#ArialMT-55"/>
      </g>
     </g>
    </g>
    <g id="xtick_12">
     <g id="line2d_112">
      <path clip-path="url(#pfe1feefe8c)" d="M 1274.2874 421.54 
L 1274.2874 12.96 
" style="fill:none;stroke:#cccccc;stroke-dasharray:1,1.65;stroke-dashoffset:0;"/>
     </g>
     <g id="line2d_113">
      <g>
       <use style="fill:#262626;stroke:#262626;stroke-width:1.25;" x="1274.2874" xlink:href="#m4bfbfdc76f" y="421.54"/>
      </g>
     </g>
     <g id="text_29">
      <!-- 14 -->
      <g style="fill:#262626;" transform="translate(1255.380212 449.376562)scale(0.34 -0.34)">
       <use xlink:href="#ArialMT-49"/>
       <use x="55.615234" xlink:href="#ArialMT-52"/>
      </g>
     </g>
    </g>
    <g id="xtick_13">
     <g id="line2d_114">
      <path clip-path="url(#pfe1feefe8c)" d="M 1368.289 421.54 
L 1368.289 12.96 
" style="fill:none;stroke:#cccccc;stroke-dasharray:1,1.65;stroke-dashoffset:0;"/>
     </g>
     <g id="line2d_115">
      <g>
       <use style="fill:#262626;stroke:#262626;stroke-width:1.25;" x="1368.289" xlink:href="#m4bfbfdc76f" y="421.54"/>
      </g>
     </g>
     <g id="text_30">
      <!-- 28 -->
      <g style="fill:#262626;" transform="translate(1349.381812 449.376562)scale(0.34 -0.34)">
       <use xlink:href="#ArialMT-50"/>
       <use x="55.615234" xlink:href="#ArialMT-56"/>
      </g>
     </g>
    </g>
    <g id="text_31">
     <!-- Day -->
     <g style="fill:#262626;" transform="translate(1103.054219 484.470625)scale(0.34 -0.34)">
      <use xlink:href="#ArialMT-68"/>
      <use x="72.216797" xlink:href="#ArialMT-97"/>
      <use x="127.832031" xlink:href="#ArialMT-121"/>
     </g>
    </g>
   </g>
   <g id="matplotlib.axis_4">
    <g id="ytick_7">
     <g id="line2d_116">
      <path clip-path="url(#pfe1feefe8c)" d="M 839.53 366.11771 
L 1427.04 366.11771 
" style="fill:none;stroke:#cccccc;stroke-dasharray:1,1.65;stroke-dashoffset:0;"/>
     </g>
     <g id="line2d_117">
      <g>
       <use style="fill:#262626;stroke:#262626;stroke-width:1.25;" x="839.53" xlink:href="#m5e0f6b80cc" y="366.11771"/>
      </g>
     </g>
     <g id="text_32">
      <!-- 0.2 -->
      <g style="fill:#262626;" transform="translate(788.77 378.285991)scale(0.34 -0.34)">
       <defs>
        <path d="M 9.078125 0 
L 9.078125 10.015625 
L 19.09375 10.015625 
L 19.09375 0 
z
" id="ArialMT-46"/>
       </defs>
       <use xlink:href="#ArialMT-48"/>
       <use x="55.615234" xlink:href="#ArialMT-46"/>
       <use x="83.398438" xlink:href="#ArialMT-50"/>
      </g>
     </g>
    </g>
    <g id="ytick_8">
     <g id="line2d_118">
      <path clip-path="url(#pfe1feefe8c)" d="M 839.53 254.571557 
L 1427.04 254.571557 
" style="fill:none;stroke:#cccccc;stroke-dasharray:1,1.65;stroke-dashoffset:0;"/>
     </g>
     <g id="line2d_119">
      <g>
       <use style="fill:#262626;stroke:#262626;stroke-width:1.25;" x="839.53" xlink:href="#m5e0f6b80cc" y="254.571557"/>
      </g>
     </g>
     <g id="text_33">
      <!-- 0.4 -->
      <g style="fill:#262626;" transform="translate(788.77 266.739838)scale(0.34 -0.34)">
       <use xlink:href="#ArialMT-48"/>
       <use x="55.615234" xlink:href="#ArialMT-46"/>
       <use x="83.398438" xlink:href="#ArialMT-52"/>
      </g>
     </g>
    </g>
    <g id="ytick_9">
     <g id="line2d_120">
      <path clip-path="url(#pfe1feefe8c)" d="M 839.53 143.025404 
L 1427.04 143.025404 
" style="fill:none;stroke:#cccccc;stroke-dasharray:1,1.65;stroke-dashoffset:0;"/>
     </g>
     <g id="line2d_121">
      <g>
       <use style="fill:#262626;stroke:#262626;stroke-width:1.25;" x="839.53" xlink:href="#m5e0f6b80cc" y="143.025404"/>
      </g>
     </g>
     <g id="text_34">
      <!-- 0.6 -->
      <g style="fill:#262626;" transform="translate(788.77 155.193686)scale(0.34 -0.34)">
       <use xlink:href="#ArialMT-48"/>
       <use x="55.615234" xlink:href="#ArialMT-46"/>
       <use x="83.398438" xlink:href="#ArialMT-54"/>
      </g>
     </g>
    </g>
    <g id="ytick_10">
     <g id="line2d_122">
      <path clip-path="url(#pfe1feefe8c)" d="M 839.53 31.479252 
L 1427.04 31.479252 
" style="fill:none;stroke:#cccccc;stroke-dasharray:1,1.65;stroke-dashoffset:0;"/>
     </g>
     <g id="line2d_123">
      <g>
       <use style="fill:#262626;stroke:#262626;stroke-width:1.25;" x="839.53" xlink:href="#m5e0f6b80cc" y="31.479252"/>
      </g>
     </g>
     <g id="text_35">
      <!-- 0.8 -->
      <g style="fill:#262626;" transform="translate(788.77 43.647533)scale(0.34 -0.34)">
       <use xlink:href="#ArialMT-48"/>
       <use x="55.615234" xlink:href="#ArialMT-46"/>
       <use x="83.398438" xlink:href="#ArialMT-56"/>
      </g>
     </g>
    </g>
    <g id="text_36">
     <!-- $\beta$ Diversity -->
     <g style="fill:#262626;" transform="translate(740.432937 298)rotate(-90)scale(0.34 -0.34)">
      <defs>
       <path d="M 13.625 3.375 
L 8.9375 -20.796875 
L -0.09375 -20.796875 
L 14.5 54.34375 
Q 18.84375 76.609375 39.65625 76.609375 
Q 60.75 76.609375 57.171875 57.8125 
Q 54.734375 44.4375 45.21875 39.546875 
Q 58.015625 35.15625 55.515625 22.125 
Q 51.125 -1.078125 27.484375 -1.03125 
Q 17.140625 -0.984375 13.625 3.375 
z
M 15.921875 15.09375 
Q 19.671875 6.59375 29.296875 6.640625 
Q 43.359375 6.640625 46.34375 21.96875 
Q 49.03125 35.75 26.171875 34.671875 
L 27.78125 42.96875 
Q 45.453125 42.671875 48.53125 58.59375 
Q 50.640625 69.34375 39.203125 69.28125 
Q 26.421875 69.28125 23.484375 54.046875 
z
" id="DejaVuSans-Oblique-946"/>
      </defs>
      <use transform="translate(0 0.390625)" xlink:href="#DejaVuSans-Oblique-946"/>
      <use transform="translate(63.818359 0.390625)" xlink:href="#ArialMT-32"/>
      <use transform="translate(91.601562 0.390625)" xlink:href="#ArialMT-68"/>
      <use transform="translate(163.818359 0.390625)" xlink:href="#ArialMT-105"/>
      <use transform="translate(186.035156 0.390625)" xlink:href="#ArialMT-118"/>
      <use transform="translate(236.035156 0.390625)" xlink:href="#ArialMT-101"/>
      <use transform="translate(291.650391 0.390625)" xlink:href="#ArialMT-114"/>
      <use transform="translate(324.951172 0.390625)" xlink:href="#ArialMT-115"/>
      <use transform="translate(374.951172 0.390625)" xlink:href="#ArialMT-105"/>
      <use transform="translate(397.167969 0.390625)" xlink:href="#ArialMT-116"/>
      <use transform="translate(424.951172 0.390625)" xlink:href="#ArialMT-121"/>
     </g>
     <!-- (Jensen-Shannon Distance) -->
     <g style="fill:#262626;" transform="translate(777.614062 427.967656)rotate(-90)scale(0.34 -0.34)">
      <defs>
       <path d="M 2.875 20.3125 
L 11.421875 21.484375 
Q 11.765625 13.28125 14.5 10.25 
Q 17.234375 7.234375 22.078125 7.234375 
Q 25.640625 7.234375 28.21875 8.859375 
Q 30.8125 10.5 31.78125 13.296875 
Q 32.765625 16.109375 32.765625 22.265625 
L 32.765625 71.578125 
L 42.234375 71.578125 
L 42.234375 22.796875 
Q 42.234375 13.8125 40.0625 8.875 
Q 37.890625 3.953125 33.171875 1.359375 
Q 28.46875 -1.21875 22.125 -1.21875 
Q 12.703125 -1.21875 7.6875 4.203125 
Q 2.6875 9.625 2.875 20.3125 
z
" id="ArialMT-74"/>
       <path d="M 4.5 23 
L 13.421875 23.78125 
Q 14.0625 18.40625 16.375 14.96875 
Q 18.703125 11.53125 23.578125 9.40625 
Q 28.46875 7.28125 34.578125 7.28125 
Q 39.984375 7.28125 44.140625 8.890625 
Q 48.296875 10.5 50.3125 13.296875 
Q 52.34375 16.109375 52.34375 19.4375 
Q 52.34375 22.796875 50.390625 25.3125 
Q 48.4375 27.828125 43.953125 29.546875 
Q 41.0625 30.671875 31.203125 33.03125 
Q 21.34375 35.40625 17.390625 37.5 
Q 12.25 40.1875 9.734375 44.15625 
Q 7.234375 48.140625 7.234375 53.078125 
Q 7.234375 58.5 10.296875 63.203125 
Q 13.375 67.921875 19.28125 70.359375 
Q 25.203125 72.796875 32.421875 72.796875 
Q 40.375 72.796875 46.453125 70.234375 
Q 52.546875 67.671875 55.8125 62.6875 
Q 59.078125 57.71875 59.328125 51.421875 
L 50.25 50.734375 
Q 49.515625 57.515625 45.28125 60.984375 
Q 41.0625 64.453125 32.8125 64.453125 
Q 24.21875 64.453125 20.28125 61.296875 
Q 16.359375 58.15625 16.359375 53.71875 
Q 16.359375 49.859375 19.140625 47.359375 
Q 21.875 44.875 33.421875 42.265625 
Q 44.96875 39.65625 49.265625 37.703125 
Q 55.515625 34.8125 58.484375 30.390625 
Q 61.46875 25.984375 61.46875 20.21875 
Q 61.46875 14.5 58.203125 9.4375 
Q 54.9375 4.390625 48.796875 1.578125 
Q 42.671875 -1.21875 35.015625 -1.21875 
Q 25.296875 -1.21875 18.71875 1.609375 
Q 12.15625 4.4375 8.421875 10.125 
Q 4.6875 15.828125 4.5 23 
z
" id="ArialMT-83"/>
       <path d="M 40.4375 19 
L 49.078125 17.875 
Q 47.65625 8.9375 41.8125 3.875 
Q 35.984375 -1.171875 27.484375 -1.171875 
Q 16.84375 -1.171875 10.375 5.78125 
Q 3.90625 12.75 3.90625 25.734375 
Q 3.90625 34.125 6.6875 40.421875 
Q 9.46875 46.734375 15.15625 49.875 
Q 20.84375 53.03125 27.546875 53.03125 
Q 35.984375 53.03125 41.359375 48.75 
Q 46.734375 44.484375 48.25 36.625 
L 39.703125 35.296875 
Q 38.484375 40.53125 35.375 43.15625 
Q 32.28125 45.796875 27.875 45.796875 
Q 21.234375 45.796875 17.078125 41.03125 
Q 12.9375 36.28125 12.9375 25.984375 
Q 12.9375 15.53125 16.9375 10.796875 
Q 20.953125 6.0625 27.390625 6.0625 
Q 32.5625 6.0625 36.03125 9.234375 
Q 39.5 12.40625 40.4375 19 
z
" id="ArialMT-99"/>
      </defs>
      <use xlink:href="#ArialMT-40"/>
      <use x="33.300781" xlink:href="#ArialMT-74"/>
      <use x="83.300781" xlink:href="#ArialMT-101"/>
      <use x="138.916016" xlink:href="#ArialMT-110"/>
      <use x="194.53125" xlink:href="#ArialMT-115"/>
      <use x="244.53125" xlink:href="#ArialMT-101"/>
      <use x="300.146484" xlink:href="#ArialMT-110"/>
      <use x="355.761719" xlink:href="#ArialMT-45"/>
      <use x="389.0625" xlink:href="#ArialMT-83"/>
      <use x="455.761719" xlink:href="#ArialMT-104"/>
      <use x="511.376953" xlink:href="#ArialMT-97"/>
      <use x="566.992188" xlink:href="#ArialMT-110"/>
      <use x="622.607422" xlink:href="#ArialMT-110"/>
      <use x="678.222656" xlink:href="#ArialMT-111"/>
      <use x="733.837891" xlink:href="#ArialMT-110"/>
      <use x="789.453125" xlink:href="#ArialMT-32"/>
      <use x="817.236328" xlink:href="#ArialMT-68"/>
      <use x="889.453125" xlink:href="#ArialMT-105"/>
      <use x="911.669922" xlink:href="#ArialMT-115"/>
      <use x="961.669922" xlink:href="#ArialMT-116"/>
      <use x="989.453125" xlink:href="#ArialMT-97"/>
      <use x="1045.068359" xlink:href="#ArialMT-110"/>
      <use x="1100.683594" xlink:href="#ArialMT-99"/>
      <use x="1150.683594" xlink:href="#ArialMT-101"/>
      <use x="1206.298828" xlink:href="#ArialMT-41"/>
     </g>
    </g>
   </g>
   <g id="patch_27">
    <path clip-path="url(#pfe1feefe8c)" d="M 875.015604 319.986049 
L 898.045996 319.986049 
L 898.045996 218.290282 
L 875.015604 218.290282 
L 875.015604 319.986049 
z
" style="fill:#e69087;stroke:#666666;stroke-linejoin:miter;stroke-width:3;"/>
   </g>
   <g id="patch_28">
    <path clip-path="url(#pfe1feefe8c)" d="M 898.516004 393.401403 
L 921.546396 393.401403 
L 921.546396 330.613409 
L 898.516004 330.613409 
L 898.516004 393.401403 
z
" style="fill:#8cafc7;stroke:#666666;stroke-linejoin:miter;stroke-width:3;"/>
   </g>
   <g id="patch_29">
    <path clip-path="url(#pfe1feefe8c)" d="M 969.017204 186.926196 
L 992.047596 186.926196 
L 992.047596 125.661933 
L 969.017204 125.661933 
L 969.017204 186.926196 
z
" style="fill:#e69087;stroke:#666666;stroke-linejoin:miter;stroke-width:3;"/>
   </g>
   <g id="patch_30">
    <path clip-path="url(#pfe1feefe8c)" d="M 992.517604 326.770521 
L 1015.547996 326.770521 
L 1015.547996 225.502776 
L 992.517604 225.502776 
L 992.517604 326.770521 
z
" style="fill:#8cafc7;stroke:#666666;stroke-linejoin:miter;stroke-width:3;"/>
   </g>
   <g id="patch_31">
    <path clip-path="url(#pfe1feefe8c)" d="M 1063.018804 228.866456 
L 1086.049196 228.866456 
L 1086.049196 125.850371 
L 1063.018804 125.850371 
L 1063.018804 228.866456 
z
" style="fill:#e69087;stroke:#666666;stroke-linejoin:miter;stroke-width:3;"/>
   </g>
   <g id="patch_32">
    <path clip-path="url(#pfe1feefe8c)" d="M 1086.519204 276.396676 
L 1109.549596 276.396676 
L 1109.549596 235.729635 
L 1086.519204 235.729635 
L 1086.519204 276.396676 
z
" style="fill:#8cafc7;stroke:#666666;stroke-linejoin:miter;stroke-width:3;"/>
   </g>
   <g id="patch_33">
    <path clip-path="url(#pfe1feefe8c)" d="M 1157.020404 307.593949 
L 1180.050796 307.593949 
L 1180.050796 220.192719 
L 1157.020404 220.192719 
L 1157.020404 307.593949 
z
" style="fill:#e69087;stroke:#666666;stroke-linejoin:miter;stroke-width:3;"/>
   </g>
   <g id="patch_34">
    <path clip-path="url(#pfe1feefe8c)" d="M 1180.520804 341.112485 
L 1203.551196 341.112485 
L 1203.551196 285.009224 
L 1180.520804 285.009224 
L 1180.520804 341.112485 
z
" style="fill:#8cafc7;stroke:#666666;stroke-linejoin:miter;stroke-width:3;"/>
   </g>
   <g id="patch_35">
    <path clip-path="url(#pfe1feefe8c)" d="M 1251.022004 299.669763 
L 1274.052396 299.669763 
L 1274.052396 251.88883 
L 1251.022004 251.88883 
L 1251.022004 299.669763 
z
" style="fill:#e69087;stroke:#666666;stroke-linejoin:miter;stroke-width:3;"/>
   </g>
   <g id="patch_36">
    <path clip-path="url(#pfe1feefe8c)" d="M 1274.522404 345.973432 
L 1297.552796 345.973432 
L 1297.552796 307.553961 
L 1274.522404 307.553961 
L 1274.522404 345.973432 
z
" style="fill:#8cafc7;stroke:#666666;stroke-linejoin:miter;stroke-width:3;"/>
   </g>
   <g id="patch_37">
    <path clip-path="url(#pfe1feefe8c)" d="M 1345.023604 335.8968 
L 1368.053996 335.8968 
L 1368.053996 268.684691 
L 1345.023604 268.684691 
L 1345.023604 335.8968 
z
" style="fill:#e69087;stroke:#666666;stroke-linejoin:miter;stroke-width:3;"/>
   </g>
   <g id="patch_38">
    <path clip-path="url(#pfe1feefe8c)" d="M 1368.524004 341.950231 
L 1391.554396 341.950231 
L 1391.554396 292.5107 
L 1368.524004 292.5107 
L 1368.524004 341.950231 
z
" style="fill:#8cafc7;stroke:#666666;stroke-linejoin:miter;stroke-width:3;"/>
   </g>
   <g id="patch_39">
    <path clip-path="url(#pfe1feefe8c)" d="M 898.281 477.663863 
L 898.281 477.663863 
L 898.281 477.663863 
L 898.281 477.663863 
z
" style="fill:#e69087;stroke:#666666;stroke-linejoin:miter;stroke-width:1.5;"/>
   </g>
   <g id="patch_40">
    <path clip-path="url(#pfe1feefe8c)" d="M 898.281 477.663863 
L 898.281 477.663863 
L 898.281 477.663863 
L 898.281 477.663863 
z
" style="fill:#8cafc7;stroke:#666666;stroke-linejoin:miter;stroke-width:1.5;"/>
   </g>
   <g id="line2d_124">
    <path clip-path="url(#pfe1feefe8c)" d="M 886.5308 319.986049 
L 886.5308 385.927198 
" style="fill:none;stroke:#666666;stroke-linecap:round;stroke-width:3;"/>
   </g>
   <g id="line2d_125">
    <path clip-path="url(#pfe1feefe8c)" d="M 886.5308 218.290282 
L 886.5308 129.121311 
" style="fill:none;stroke:#666666;stroke-linecap:round;stroke-width:3;"/>
   </g>
   <g id="line2d_126">
    <path clip-path="url(#pfe1feefe8c)" d="M 880.773202 385.927198 
L 892.288398 385.927198 
" style="fill:none;stroke:#666666;stroke-linecap:round;stroke-width:3;"/>
   </g>
   <g id="line2d_127">
    <path clip-path="url(#pfe1feefe8c)" d="M 880.773202 129.121311 
L 892.288398 129.121311 
" style="fill:none;stroke:#666666;stroke-linecap:round;stroke-width:3;"/>
   </g>
   <g id="line2d_128">
    <path clip-path="url(#pfe1feefe8c)" d="M 910.0312 393.401403 
L 910.0312 405.31356 
" style="fill:none;stroke:#666666;stroke-linecap:round;stroke-width:3;"/>
   </g>
   <g id="line2d_129">
    <path clip-path="url(#pfe1feefe8c)" d="M 910.0312 330.613409 
L 910.0312 270.703785 
" style="fill:none;stroke:#666666;stroke-linecap:round;stroke-width:3;"/>
   </g>
   <g id="line2d_130">
    <path clip-path="url(#pfe1feefe8c)" d="M 904.273602 405.31356 
L 915.788798 405.31356 
" style="fill:none;stroke:#666666;stroke-linecap:round;stroke-width:3;"/>
   </g>
   <g id="line2d_131">
    <path clip-path="url(#pfe1feefe8c)" d="M 904.273602 270.703785 
L 915.788798 270.703785 
" style="fill:none;stroke:#666666;stroke-linecap:round;stroke-width:3;"/>
   </g>
   <g id="line2d_132">
    <path clip-path="url(#pfe1feefe8c)" d="M 980.5324 186.926196 
L 980.5324 215.048826 
" style="fill:none;stroke:#666666;stroke-linecap:round;stroke-width:3;"/>
   </g>
   <g id="line2d_133">
    <path clip-path="url(#pfe1feefe8c)" d="M 980.5324 125.661933 
L 980.5324 105.949437 
" style="fill:none;stroke:#666666;stroke-linecap:round;stroke-width:3;"/>
   </g>
   <g id="line2d_134">
    <path clip-path="url(#pfe1feefe8c)" d="M 974.774802 215.048826 
L 986.289998 215.048826 
" style="fill:none;stroke:#666666;stroke-linecap:round;stroke-width:3;"/>
   </g>
   <g id="line2d_135">
    <path clip-path="url(#pfe1feefe8c)" d="M 974.774802 105.949437 
L 986.289998 105.949437 
" style="fill:none;stroke:#666666;stroke-linecap:round;stroke-width:3;"/>
   </g>
   <g id="line2d_136">
    <path clip-path="url(#pfe1feefe8c)" d="M 1004.0328 326.770521 
L 1004.0328 391.721246 
" style="fill:none;stroke:#666666;stroke-linecap:round;stroke-width:3;"/>
   </g>
   <g id="line2d_137">
    <path clip-path="url(#pfe1feefe8c)" d="M 1004.0328 225.502776 
L 1004.0328 80.784761 
" style="fill:none;stroke:#666666;stroke-linecap:round;stroke-width:3;"/>
   </g>
   <g id="line2d_138">
    <path clip-path="url(#pfe1feefe8c)" d="M 998.275202 391.721246 
L 1009.790398 391.721246 
" style="fill:none;stroke:#666666;stroke-linecap:round;stroke-width:3;"/>
   </g>
   <g id="line2d_139">
    <path clip-path="url(#pfe1feefe8c)" d="M 998.275202 80.784761 
L 1009.790398 80.784761 
" style="fill:none;stroke:#666666;stroke-linecap:round;stroke-width:3;"/>
   </g>
   <g id="line2d_140">
    <path clip-path="url(#pfe1feefe8c)" d="M 1074.534 228.866456 
L 1074.534 297.458261 
" style="fill:none;stroke:#666666;stroke-linecap:round;stroke-width:3;"/>
   </g>
   <g id="line2d_141">
    <path clip-path="url(#pfe1feefe8c)" d="M 1074.534 125.850371 
L 1074.534 112.91631 
" style="fill:none;stroke:#666666;stroke-linecap:round;stroke-width:3;"/>
   </g>
   <g id="line2d_142">
    <path clip-path="url(#pfe1feefe8c)" d="M 1068.776402 297.458261 
L 1080.291598 297.458261 
" style="fill:none;stroke:#666666;stroke-linecap:round;stroke-width:3;"/>
   </g>
   <g id="line2d_143">
    <path clip-path="url(#pfe1feefe8c)" d="M 1068.776402 112.91631 
L 1080.291598 112.91631 
" style="fill:none;stroke:#666666;stroke-linecap:round;stroke-width:3;"/>
   </g>
   <g id="line2d_144">
    <path clip-path="url(#pfe1feefe8c)" d="M 1098.0344 276.396676 
L 1098.0344 323.977557 
" style="fill:none;stroke:#666666;stroke-linecap:round;stroke-width:3;"/>
   </g>
   <g id="line2d_145">
    <path clip-path="url(#pfe1feefe8c)" d="M 1098.0344 235.729635 
L 1098.0344 179.842663 
" style="fill:none;stroke:#666666;stroke-linecap:round;stroke-width:3;"/>
   </g>
   <g id="line2d_146">
    <path clip-path="url(#pfe1feefe8c)" d="M 1092.276802 323.977557 
L 1103.791998 323.977557 
" style="fill:none;stroke:#666666;stroke-linecap:round;stroke-width:3;"/>
   </g>
   <g id="line2d_147">
    <path clip-path="url(#pfe1feefe8c)" d="M 1092.276802 179.842663 
L 1103.791998 179.842663 
" style="fill:none;stroke:#666666;stroke-linecap:round;stroke-width:3;"/>
   </g>
   <g id="line2d_148">
    <path clip-path="url(#pfe1feefe8c)" d="M 1168.5356 307.593949 
L 1168.5356 352.716376 
" style="fill:none;stroke:#666666;stroke-linecap:round;stroke-width:3;"/>
   </g>
   <g id="line2d_149">
    <path clip-path="url(#pfe1feefe8c)" d="M 1168.5356 220.192719 
L 1168.5356 116.932565 
" style="fill:none;stroke:#666666;stroke-linecap:round;stroke-width:3;"/>
   </g>
   <g id="line2d_150">
    <path clip-path="url(#pfe1feefe8c)" d="M 1162.778002 352.716376 
L 1174.293198 352.716376 
" style="fill:none;stroke:#666666;stroke-linecap:round;stroke-width:3;"/>
   </g>
   <g id="line2d_151">
    <path clip-path="url(#pfe1feefe8c)" d="M 1162.778002 116.932565 
L 1174.293198 116.932565 
" style="fill:none;stroke:#666666;stroke-linecap:round;stroke-width:3;"/>
   </g>
   <g id="line2d_152">
    <path clip-path="url(#pfe1feefe8c)" d="M 1192.036 341.112485 
L 1192.036 368.495011 
" style="fill:none;stroke:#666666;stroke-linecap:round;stroke-width:3;"/>
   </g>
   <g id="line2d_153">
    <path clip-path="url(#pfe1feefe8c)" d="M 1192.036 285.009224 
L 1192.036 212.010189 
" style="fill:none;stroke:#666666;stroke-linecap:round;stroke-width:3;"/>
   </g>
   <g id="line2d_154">
    <path clip-path="url(#pfe1feefe8c)" d="M 1186.278402 368.495011 
L 1197.793598 368.495011 
" style="fill:none;stroke:#666666;stroke-linecap:round;stroke-width:3;"/>
   </g>
   <g id="line2d_155">
    <path clip-path="url(#pfe1feefe8c)" d="M 1186.278402 212.010189 
L 1197.793598 212.010189 
" style="fill:none;stroke:#666666;stroke-linecap:round;stroke-width:3;"/>
   </g>
   <g id="line2d_156">
    <path clip-path="url(#pfe1feefe8c)" d="M 1262.5372 299.669763 
L 1262.5372 347.976491 
" style="fill:none;stroke:#666666;stroke-linecap:round;stroke-width:3;"/>
   </g>
   <g id="line2d_157">
    <path clip-path="url(#pfe1feefe8c)" d="M 1262.5372 251.88883 
L 1262.5372 243.344876 
" style="fill:none;stroke:#666666;stroke-linecap:round;stroke-width:3;"/>
   </g>
   <g id="line2d_158">
    <path clip-path="url(#pfe1feefe8c)" d="M 1256.779602 347.976491 
L 1268.294798 347.976491 
" style="fill:none;stroke:#666666;stroke-linecap:round;stroke-width:3;"/>
   </g>
   <g id="line2d_159">
    <path clip-path="url(#pfe1feefe8c)" d="M 1256.779602 243.344876 
L 1268.294798 243.344876 
" style="fill:none;stroke:#666666;stroke-linecap:round;stroke-width:3;"/>
   </g>
   <g id="line2d_160">
    <path clip-path="url(#pfe1feefe8c)" d="M 1286.0376 345.973432 
L 1286.0376 361.941653 
" style="fill:none;stroke:#666666;stroke-linecap:round;stroke-width:3;"/>
   </g>
   <g id="line2d_161">
    <path clip-path="url(#pfe1feefe8c)" d="M 1286.0376 307.553961 
L 1286.0376 304.894736 
" style="fill:none;stroke:#666666;stroke-linecap:round;stroke-width:3;"/>
   </g>
   <g id="line2d_162">
    <path clip-path="url(#pfe1feefe8c)" d="M 1280.280002 361.941653 
L 1291.795198 361.941653 
" style="fill:none;stroke:#666666;stroke-linecap:round;stroke-width:3;"/>
   </g>
   <g id="line2d_163">
    <path clip-path="url(#pfe1feefe8c)" d="M 1280.280002 304.894736 
L 1291.795198 304.894736 
" style="fill:none;stroke:#666666;stroke-linecap:round;stroke-width:3;"/>
   </g>
   <g id="line2d_164">
    <path clip-path="url(#pfe1feefe8c)" d="M 1356.5388 335.8968 
L 1356.5388 355.243466 
" style="fill:none;stroke:#666666;stroke-linecap:round;stroke-width:3;"/>
   </g>
   <g id="line2d_165">
    <path clip-path="url(#pfe1feefe8c)" d="M 1356.5388 268.684691 
L 1356.5388 189.431558 
" style="fill:none;stroke:#666666;stroke-linecap:round;stroke-width:3;"/>
   </g>
   <g id="line2d_166">
    <path clip-path="url(#pfe1feefe8c)" d="M 1350.781202 355.243466 
L 1362.296398 355.243466 
" style="fill:none;stroke:#666666;stroke-linecap:round;stroke-width:3;"/>
   </g>
   <g id="line2d_167">
    <path clip-path="url(#pfe1feefe8c)" d="M 1350.781202 189.431558 
L 1362.296398 189.431558 
" style="fill:none;stroke:#666666;stroke-linecap:round;stroke-width:3;"/>
   </g>
   <g id="line2d_168">
    <path clip-path="url(#pfe1feefe8c)" d="M 1380.0392 341.950231 
L 1380.0392 357.016215 
" style="fill:none;stroke:#666666;stroke-linecap:round;stroke-width:3;"/>
   </g>
   <g id="line2d_169">
    <path clip-path="url(#pfe1feefe8c)" d="M 1380.0392 292.5107 
L 1380.0392 271.805135 
" style="fill:none;stroke:#666666;stroke-linecap:round;stroke-width:3;"/>
   </g>
   <g id="line2d_170">
    <path clip-path="url(#pfe1feefe8c)" d="M 1374.281602 357.016215 
L 1385.796798 357.016215 
" style="fill:none;stroke:#666666;stroke-linecap:round;stroke-width:3;"/>
   </g>
   <g id="line2d_171">
    <path clip-path="url(#pfe1feefe8c)" d="M 1374.281602 271.805135 
L 1385.796798 271.805135 
" style="fill:none;stroke:#666666;stroke-linecap:round;stroke-width:3;"/>
   </g>
   <g id="line2d_172">
    <path clip-path="url(#pfe1feefe8c)" d="M 973.48228 59.36586 
L 973.48228 55.796044 
L 1011.08292 55.796044 
L 1011.08292 59.36586 
" style="fill:none;stroke:#333333;stroke-linecap:round;stroke-width:1.5;"/>
   </g>
   <g id="line2d_173">
    <path clip-path="url(#pfe1feefe8c)" d="M 879.48068 107.702411 
L 879.48068 104.132594 
L 917.08132 104.132594 
L 917.08132 107.702411 
" style="fill:none;stroke:#333333;stroke-linecap:round;stroke-width:1.5;"/>
   </g>
   <g id="line2d_174">
    <path clip-path="url(#pfe1feefe8c)" d="M 1067.48388 91.497409 
L 1067.48388 87.927592 
L 1105.08452 87.927592 
L 1105.08452 91.497409 
" style="fill:none;stroke:#333333;stroke-linecap:round;stroke-width:1.5;"/>
   </g>
   <g id="line2d_175">
    <path clip-path="url(#pfe1feefe8c)" d="M 1161.48548 77.890788 
L 1161.48548 74.320971 
L 1199.08612 74.320971 
L 1199.08612 77.890788 
" style="fill:none;stroke:#333333;stroke-linecap:round;stroke-width:1.5;"/>
   </g>
   <g id="line2d_176">
    <path clip-path="url(#pfe1feefe8c)" d="M 1255.48708 139.895373 
L 1255.48708 136.325556 
L 1293.08772 136.325556 
L 1293.08772 139.895373 
" style="fill:none;stroke:#333333;stroke-linecap:round;stroke-width:1.5;"/>
   </g>
   <g id="line2d_177">
    <path clip-path="url(#pfe1feefe8c)" d="M 1349.48868 163.157695 
L 1349.48868 159.587879 
L 1387.08932 159.587879 
L 1387.08932 163.157695 
" style="fill:none;stroke:#333333;stroke-linecap:round;stroke-width:1.5;"/>
   </g>
   <g id="line2d_178">
    <path clip-path="url(#pfe1feefe8c)" d="M 875.015604 294.842137 
L 898.045996 294.842137 
" style="fill:none;stroke:#666666;stroke-linecap:round;stroke-width:3;"/>
   </g>
   <g id="line2d_179">
    <path clip-path="url(#pfe1feefe8c)" d="M 898.516004 367.715646 
L 921.546396 367.715646 
" style="fill:none;stroke:#666666;stroke-linecap:round;stroke-width:3;"/>
   </g>
   <g id="line2d_180">
    <path clip-path="url(#pfe1feefe8c)" d="M 969.017204 156.265735 
L 992.047596 156.265735 
" style="fill:none;stroke:#666666;stroke-linecap:round;stroke-width:3;"/>
   </g>
   <g id="line2d_181">
    <path clip-path="url(#pfe1feefe8c)" d="M 992.517604 254.438284 
L 1015.547996 254.438284 
" style="fill:none;stroke:#666666;stroke-linecap:round;stroke-width:3;"/>
   </g>
   <g id="line2d_182">
    <path clip-path="url(#pfe1feefe8c)" d="M 1063.018804 192.389267 
L 1086.049196 192.389267 
" style="fill:none;stroke:#666666;stroke-linecap:round;stroke-width:3;"/>
   </g>
   <g id="line2d_183">
    <path clip-path="url(#pfe1feefe8c)" d="M 1086.519204 251.440194 
L 1109.549596 251.440194 
" style="fill:none;stroke:#666666;stroke-linecap:round;stroke-width:3;"/>
   </g>
   <g id="line2d_184">
    <path clip-path="url(#pfe1feefe8c)" d="M 1157.020404 265.425988 
L 1180.050796 265.425988 
" style="fill:none;stroke:#666666;stroke-linecap:round;stroke-width:3;"/>
   </g>
   <g id="line2d_185">
    <path clip-path="url(#pfe1feefe8c)" d="M 1180.520804 313.48476 
L 1203.551196 313.48476 
" style="fill:none;stroke:#666666;stroke-linecap:round;stroke-width:3;"/>
   </g>
   <g id="line2d_186">
    <path clip-path="url(#pfe1feefe8c)" d="M 1251.022004 271.513036 
L 1274.052396 271.513036 
" style="fill:none;stroke:#666666;stroke-linecap:round;stroke-width:3;"/>
   </g>
   <g id="line2d_187">
    <path clip-path="url(#pfe1feefe8c)" d="M 1274.522404 317.538267 
L 1297.552796 317.538267 
" style="fill:none;stroke:#666666;stroke-linecap:round;stroke-width:3;"/>
   </g>
   <g id="line2d_188">
    <path clip-path="url(#pfe1feefe8c)" d="M 1345.023604 296.132643 
L 1368.053996 296.132643 
" style="fill:none;stroke:#666666;stroke-linecap:round;stroke-width:3;"/>
   </g>
   <g id="line2d_189">
    <path clip-path="url(#pfe1feefe8c)" d="M 1368.524004 323.804959 
L 1391.554396 323.804959 
" style="fill:none;stroke:#666666;stroke-linecap:round;stroke-width:3;"/>
   </g>
   <g id="patch_41">
    <path d="M 839.53 421.54 
L 839.53 12.96 
" style="fill:none;stroke:#262626;stroke-linecap:square;stroke-linejoin:miter;stroke-width:4;"/>
   </g>
   <g id="patch_42">
    <path d="M 1427.04 421.54 
L 1427.04 12.96 
" style="fill:none;stroke:#262626;stroke-linecap:square;stroke-linejoin:miter;stroke-width:4;"/>
   </g>
   <g id="patch_43">
    <path d="M 839.53 421.54 
L 1427.04 421.54 
" style="fill:none;stroke:#262626;stroke-linecap:square;stroke-linejoin:miter;stroke-width:4;"/>
   </g>
   <g id="patch_44">
    <path d="M 839.53 12.96 
L 1427.04 12.96 
" style="fill:none;stroke:#262626;stroke-linecap:square;stroke-linejoin:miter;stroke-width:4;"/>
   </g>
   <g id="text_37">
    <!-- * -->
    <g style="fill:#262626;" transform="translate(986.444319 48.833544)scale(0.3 -0.3)">
     <use xlink:href="#ArialMT-42"/>
    </g>
   </g>
   <g id="text_38">
    <!-- ns -->
    <g style="fill:#262626;" transform="translate(882.439594 97.170094)scale(0.3 -0.3)">
     <use xlink:href="#ArialMT-110"/>
     <use x="55.615234" xlink:href="#ArialMT-115"/>
    </g>
   </g>
   <g id="text_39">
    <!-- * -->
    <g style="fill:#262626;" transform="translate(1080.445919 80.965092)scale(0.3 -0.3)">
     <use xlink:href="#ArialMT-42"/>
    </g>
   </g>
   <g id="text_40">
    <!-- ns -->
    <g style="fill:#262626;" transform="translate(1164.444394 67.358471)scale(0.3 -0.3)">
     <use xlink:href="#ArialMT-110"/>
     <use x="55.615234" xlink:href="#ArialMT-115"/>
    </g>
   </g>
   <g id="text_41">
    <!-- ns -->
    <g style="fill:#262626;" transform="translate(1258.445994 129.363056)scale(0.3 -0.3)">
     <use xlink:href="#ArialMT-110"/>
     <use x="55.615234" xlink:href="#ArialMT-115"/>
    </g>
   </g>
   <g id="text_42">
    <!-- ns -->
    <g style="fill:#262626;" transform="translate(1352.447594 152.625379)scale(0.3 -0.3)">
     <use xlink:href="#ArialMT-110"/>
     <use x="55.615234" xlink:href="#ArialMT-115"/>
    </g>
   </g>
   <g id="legend_2">
    <g id="patch_45">
     <path d="M 1236.06 100.0575 
L 1410.24 100.0575 
Q 1415.04 100.0575 1415.04 95.2575 
L 1415.04 29.76 
Q 1415.04 24.96 1410.24 24.96 
L 1236.06 24.96 
Q 1231.26 24.96 1231.26 29.76 
L 1231.26 95.2575 
Q 1231.26 100.0575 1236.06 100.0575 
z
" style="fill:#ffffff;opacity:0.8;stroke:#cccccc;stroke-linejoin:miter;"/>
    </g>
    <g id="patch_46">
     <path d="M 1240.86 51.73875 
L 1288.86 51.73875 
L 1288.86 34.93875 
L 1240.86 34.93875 
z
" style="fill:#e69087;stroke:#666666;stroke-linejoin:miter;stroke-width:1.5;"/>
    </g>
    <g id="text_43">
     <!-- AAD -->
     <g style="fill:#262626;" transform="translate(1308.06 51.73875)scale(0.24 -0.24)">
      <use xlink:href="#ArialMT-65"/>
      <use x="66.699219" xlink:href="#ArialMT-65"/>
      <use x="133.398438" xlink:href="#ArialMT-68"/>
     </g>
    </g>
    <g id="patch_47">
     <path d="M 1240.86 85.6875 
L 1288.86 85.6875 
L 1288.86 68.8875 
L 1240.86 68.8875 
z
" style="fill:#8cafc7;stroke:#666666;stroke-linejoin:miter;stroke-width:1.5;"/>
    </g>
    <g id="text_44">
     <!-- non-AAD -->
     <g style="fill:#262626;" transform="translate(1308.06 85.6875)scale(0.24 -0.24)">
      <use xlink:href="#ArialMT-110"/>
      <use x="55.615234" xlink:href="#ArialMT-111"/>
      <use x="111.230469" xlink:href="#ArialMT-110"/>
      <use x="166.845703" xlink:href="#ArialMT-45"/>
      <use x="200.146484" xlink:href="#ArialMT-65"/>
      <use x="266.845703" xlink:href="#ArialMT-65"/>
      <use x="333.544922" xlink:href="#ArialMT-68"/>
     </g>
    </g>
   </g>
  </g>
 </g>
 <defs>
  <clipPath id="p1f9273ec71">
   <rect height="408.58" width="587.51" x="111.3225" y="12.96"/>
  </clipPath>
  <clipPath id="pfe1feefe8c">
   <rect height="408.58" width="587.51" x="839.53" y="12.96"/>
  </clipPath>
 </defs>
</svg>
